<svg width="100" height="100" viewBox="0 0 100 100" fill="none" xmlns="http://www.w3.org/2000/svg">
    <path d="M50 100C77.1615 100 99.1803 77.9813 99.1803 50.8197C99.1803 23.6582 77.1615 1.63947 50 1.63947C22.8385 1.63947 0.819702 23.6582 0.819702 50.8197C0.819702 77.9813 22.8385 100 50 100Z" fill="url(#paint0_linear_1456_2171)"/>
    <path d="M50 98.3605C77.1615 98.3605 99.1803 76.3418 99.1803 49.1803C99.1803 22.0188 77.1615 0 50 0C22.8385 0 0.819702 22.0188 0.819702 49.1803C0.819702 76.3418 22.8385 98.3605 50 98.3605Z" fill="url(#paint1_linear_1456_2171)"/>
    <g opacity="0.16">
        <path d="M50 0C22.8377 0 0.819702 22.018 0.819702 49.1803C0.819702 76.3426 22.8377 98.3607 50 98.3607C77.1623 98.3607 99.1803 76.3428 99.1803 49.1805C99.1803 22.0182 77.1623 0 50 0ZM50 95.082C24.6492 95.082 4.09841 74.5312 4.09841 49.1805C4.09841 23.8297 24.6492 3.27871 50 3.27871C75.3508 3.27871 95.9015 23.8295 95.9015 49.1803C95.8738 74.5197 75.3392 95.0541 50 95.082Z" fill="url(#paint2_linear_1456_2171)"/>
    </g>
    <path d="M50 93.4426C25.5541 93.4426 5.73767 73.6262 5.73767 49.1803C5.73767 24.7344 25.5541 4.91797 50 4.91797C74.4459 4.91797 94.2623 24.7344 94.2623 49.1803C94.2343 73.6148 74.4343 93.4148 50 93.4426ZM50 8.19668C27.3656 8.19668 9.01638 26.5459 9.01638 49.1803C9.01638 71.8146 27.3656 90.1639 50 90.1639C72.6344 90.1639 90.9836 71.8146 90.9836 49.1803C90.9574 26.5557 72.6246 8.22305 50 8.19668Z" fill="white"/>
    <path d="M72.2033 36.7769C72.2096 37.369 72.0087 37.9446 71.6353 38.4041C71.262 38.8637 70.7397 39.1782 70.159 39.2933C67.5523 39.8654 62.2918 41.2131 59.0885 41.9508C58.3646 42.1149 57.7184 42.5209 57.2564 43.1018C56.7944 43.6826 56.5444 44.4037 56.5474 45.1459C56.5605 48.5803 56.6049 54.2607 56.749 55.7738C56.9259 57.9894 57.2197 60.1941 57.6293 62.3787C58.0268 64.5793 58.5301 66.7594 59.1375 68.9115C59.7244 71.0408 60.4277 73.1362 61.2441 75.1885L61.2867 75.2951C61.7933 76.5541 61.1818 77.9869 59.9211 78.4918C58.7162 78.9754 57.3441 78.4392 56.7867 77.2672C55.7484 75.0667 54.836 72.8089 54.0539 70.5049C53.266 68.232 52.5871 65.9228 52.0195 63.5851C51.8326 62.8295 51.6654 62.0687 51.5047 61.3049C51.4665 61.1213 51.3663 60.9566 51.2209 60.8383C51.0754 60.7201 50.8937 60.6555 50.7062 60.6557H49.2931C49.1053 60.6557 48.9233 60.7205 48.7776 60.839C48.6319 60.9575 48.5315 61.1226 48.4931 61.3064C48.3357 62.0697 48.1641 62.8299 47.9783 63.5867C47.4122 65.9247 46.7333 68.234 45.9439 70.5064C45.1606 72.81 44.2482 75.0677 43.2111 77.2687C42.6275 78.4949 41.1603 79.0146 39.9357 78.431C38.7637 77.8736 38.2275 76.5 38.7111 75.2967L38.7537 75.19C39.5701 73.1378 40.2734 71.0423 40.8603 68.9131C41.4677 66.7609 41.971 64.5808 42.3685 62.3803C42.7789 60.1958 43.0728 57.9911 43.2488 55.7754C43.3931 54.2623 43.4357 48.582 43.4504 45.1474C43.4527 44.4055 43.2023 43.6848 42.7405 43.1041C42.2786 42.5233 41.6328 42.1171 40.9094 41.9523C37.706 41.2131 32.4455 39.8672 29.8389 39.2949C29.2581 39.1798 28.7358 38.8652 28.3625 38.4057C27.9891 37.9462 27.7882 37.3706 27.7945 36.7785C27.8453 35.4211 28.9879 34.3621 30.3453 34.4146C30.4896 34.4195 30.6322 34.4377 30.7732 34.4687L30.9224 34.5015C37.1725 36.0031 43.5705 36.8031 49.9978 36.8867C56.4251 36.8024 62.8231 36.0024 69.0732 34.5015L69.2224 34.4687C70.5504 34.1803 71.8601 35.0228 72.1471 36.3508C72.1803 36.4902 72.1984 36.6344 72.2033 36.7769ZM50 32.7869C53.6213 32.7869 56.5574 29.8508 56.5574 26.2295C56.5574 22.6082 53.6213 19.6721 50 19.6721C46.3787 19.6721 43.4426 22.6082 43.4426 26.2295C43.4426 29.8508 46.3787 32.7869 50 32.7869Z" fill="white"/>
    <path d="M50 0C22.8377 0 0.819702 22.018 0.819702 49.1803C0.819702 76.3426 22.8377 98.3607 50 98.3607C77.1623 98.3607 99.1803 76.3428 99.1803 49.1805C99.1803 22.0182 77.1623 0 50 0ZM50 96.7213C23.7443 96.7213 2.45896 75.4361 2.45896 49.1803C2.45896 22.9244 23.7443 1.63926 50 1.63926C76.2556 1.63926 97.541 22.9244 97.541 49.1803C97.541 75.4361 76.2556 96.7213 50 96.7213Z" fill="url(#paint3_linear_1456_2171)"/>
    <defs>
        <linearGradient id="paint0_linear_1456_2171" x1="0.819702" y1="48.53" x2="99.1925" y2="49.3451" gradientUnits="userSpaceOnUse">
            <stop stop-color="#0061FF"/>
            <stop offset="1" stop-color="#60EFFF"/>
        </linearGradient>
        <linearGradient id="paint1_linear_1456_2171" x1="0.819702" y1="46.8905" x2="99.1925" y2="47.7057" gradientUnits="userSpaceOnUse">
            <stop stop-color="#0061FF"/>
            <stop offset="1" stop-color="#60EFFF"/>
        </linearGradient>
        <linearGradient id="paint2_linear_1456_2171" x1="0.819702" y1="46.8906" x2="99.1925" y2="47.7057" gradientUnits="userSpaceOnUse">
            <stop stop-color="#0061FF"/>
            <stop offset="1" stop-color="#60EFFF"/>
        </linearGradient>
        <linearGradient id="paint3_linear_1456_2171" x1="0.819702" y1="46.8906" x2="99.1925" y2="47.7057" gradientUnits="userSpaceOnUse">
            <stop stop-color="#0061FF"/>
            <stop offset="1" stop-color="#60EFFF"/>
        </linearGradient>
    </defs>
</svg>
