<svg width="24" height="24" viewBox="0 0 24 24" fill="none" xmlns="http://www.w3.org/2000/svg">
    <path fill-rule="evenodd" clip-rule="evenodd" d="M17.5 18.6653V19.4983H16C15.8674 19.4983 15.7402 19.551 15.6464 19.6447C15.5527 19.7385 15.5 19.8657 15.5 19.9983C15.5 20.1309 15.5527 20.2581 15.6464 20.3518C15.7402 20.4456 15.8674 20.4983 16 20.4983H17.5V21.2913C17.5 21.4239 17.5527 21.5511 17.6464 21.6448C17.7402 21.7386 17.8674 21.7913 18 21.7913C18.1326 21.7913 18.2598 21.7386 18.3536 21.6448C18.4473 21.5511 18.5 21.4239 18.5 21.2913V20.4983H20C20.1326 20.4983 20.2598 20.4456 20.3536 20.3518C20.4473 20.2581 20.5 20.1309 20.5 19.9983C20.5 19.8657 20.4473 19.7385 20.3536 19.6447C20.2598 19.551 20.1326 19.4983 20 19.4983H18.5V18.6653C20.472 18.4188 22 16.7348 22 14.6963C22 12.4888 20.2075 10.6963 18 10.6963C15.7925 10.6963 14 12.4888 14 14.6963C14 16.7348 15.528 18.4188 17.5 18.6653ZM18 17.6963C16.3445 17.6963 15 16.3523 15 14.6963C15 13.0408 16.3445 11.6963 18 11.6963C19.6555 11.6963 21 13.0408 21 14.6963C21 16.3523 19.6555 17.6963 18 17.6963Z" fill="black"/>
    <path fill-rule="evenodd" clip-rule="evenodd" d="M13.6315 17.129C13.2163 16.3854 12.9989 15.5477 13 14.696C13 11.9385 15.2375 9.699 17.9945 9.696C17.834 5.421 14.3135 2 10 2C5.5845 2 2 5.5845 2 10C2 14.4155 5.5845 18 10 18C11.3075 18 12.542 17.6855 13.6315 17.129ZM8.5 8.5H7C6.73478 8.5 6.48043 8.60536 6.29289 8.79289C6.10536 8.98043 6 9.23478 6 9.5V10.5C6 10.7652 6.10536 11.0196 6.29289 11.2071C6.48043 11.3946 6.73478 11.5 7 11.5H8.5V13C8.5 13.2652 8.60536 13.5196 8.79289 13.7071C8.98043 13.8946 9.23478 14 9.5 14H10.5C10.7652 14 11.0196 13.8946 11.2071 13.7071C11.3946 13.5196 11.5 13.2652 11.5 13V11.5H13C13.2652 11.5 13.5196 11.3946 13.7071 11.2071C13.8946 11.0196 14 10.7652 14 10.5V9.5C14 9.23478 13.8946 8.98043 13.7071 8.79289C13.5196 8.60536 13.2652 8.5 13 8.5H11.5V7C11.5 6.73478 11.3946 6.48043 11.2071 6.29289C11.0196 6.10536 10.7652 6 10.5 6H9.5C9.23478 6 8.98043 6.10536 8.79289 6.29289C8.60536 6.48043 8.5 6.73478 8.5 7V8.5Z" fill="black"/>
</svg>
