<svg width="24" height="24" viewBox="0 0 24 24" fill="none" xmlns="http://www.w3.org/2000/svg">
    <path d="M18.3158 13.3962H5.10803C4.49595 13.3962 4 12.7712 4 12C4 11.2288 4.49595 10.6038 5.10803 10.6038H18.3158C18.9278 10.6038 19.4238 11.2288 19.4238 12C19.4238 12.7712 18.9278 13.3962 18.3158 13.3962Z" fill="white"/>
    <path d="M13.2415 20C13.0888 20.0002 12.9378 19.9606 12.798 19.8837C12.6581 19.8069 12.5323 19.6943 12.4286 19.5532C12.0124 18.9881 12.039 18.1046 12.4876 17.5802L17.2508 12.014L12.3435 6.43269C11.8892 5.91611 11.8533 5.03318 12.2633 4.46076C12.6733 3.88833 13.374 3.8431 13.8283 4.35968L19.6344 10.9635C19.8653 11.226 19.9978 11.5985 20 11.9905C20.0022 12.3826 19.8737 12.7573 19.6454 13.0237L13.9945 19.6275C13.7899 19.8672 13.5208 20.0003 13.2415 20Z" fill="white"/>
</svg>
