<svg width="24" height="24" viewBox="0 0 24 24" fill="none" xmlns="http://www.w3.org/2000/svg">
    <path fill-rule="evenodd" clip-rule="evenodd" d="M12 21C11.0054 21 10.0516 20.6049 9.34835 19.9016C8.64509 19.1984 8.25 18.2446 8.25 17.25V5.2485C8.2502 4.65222 8.48716 4.08042 8.90879 3.65879C9.33042 3.23716 9.90222 3.0002 10.4985 3H10.5015C11.0978 3 11.6698 3.23689 12.0914 3.65857C12.5131 4.08025 12.75 4.65216 12.75 5.2485V15.7515C12.75 15.8498 12.7306 15.9471 12.693 16.0379C12.6554 16.1288 12.6003 16.2113 12.5308 16.2808C12.4613 16.3503 12.3788 16.4054 12.2879 16.443C12.1971 16.4806 12.0998 16.5 12.0015 16.5H12C11.8011 16.5 11.6103 16.421 11.4697 16.2803C11.329 16.1397 11.25 15.9489 11.25 15.75V6.75C11.25 6.55109 11.171 6.36032 11.0303 6.21967C10.8897 6.07902 10.6989 6 10.5 6C10.3011 6 10.1103 6.07902 9.96967 6.21967C9.82902 6.36032 9.75 6.55109 9.75 6.75V15.75C9.75 16.3467 9.98705 16.919 10.409 17.341C10.831 17.7629 11.4033 18 12 18H12.0015C12.2968 18 12.5892 17.9418 12.862 17.8288C13.1348 17.7158 13.3826 17.5502 13.5914 17.3414C13.8002 17.1326 13.9658 16.8848 14.0788 16.612C14.1918 16.3392 14.25 16.0468 14.25 15.7515V5.2485C14.25 4.25434 13.8551 3.30089 13.1521 2.59791C12.4491 1.89493 11.4957 1.5 10.5015 1.5H10.4985C9.50446 1.5004 8.55124 1.89546 7.84835 2.59835C7.14546 3.30124 6.7504 4.25446 6.75 5.2485V17.25C6.75 18.6424 7.30312 19.9777 8.28769 20.9623C9.27226 21.9469 10.6076 22.5 12 22.5C13.3924 22.5 14.7277 21.9469 15.7123 20.9623C16.6969 19.9777 17.25 18.6424 17.25 17.25V6.75C17.25 6.55109 17.171 6.36032 17.0303 6.21967C16.8897 6.07902 16.6989 6 16.5 6C16.3011 6 16.1103 6.07902 15.9697 6.21967C15.829 6.36032 15.75 6.55109 15.75 6.75V17.25C15.75 18.2446 15.3549 19.1984 14.6517 19.9016C13.9484 20.6049 12.9946 21 12 21Z" fill="#333333"/>
</svg>
