<svg width="30" height="16" viewBox="0 0 30 16" fill="none" xmlns="http://www.w3.org/2000/svg">
    <path d="M8 0C5.87827 0 3.84344 0.842854 2.34315 2.34315C0.842855 3.84344 0 5.87827 0 8C0 10.1217 0.842855 12.1566 2.34315 13.6569C3.84344 15.1571 5.87827 16 8 16C10.1217 16 12.1566 15.1571 13.6569 13.6569C15.1571 12.1566 16 10.1217 16 8C16 5.87827 15.1571 3.84344 13.6569 2.34315C12.1566 0.842854 10.1217 0 8 0ZM8 4.73793C8.36526 4.73088 8.72826 4.79673 9.06776 4.93163C9.40727 5.06654 9.71647 5.26778 9.97727 5.5236C10.2381 5.77942 10.4453 6.08468 10.5867 6.42152C10.7281 6.75836 10.801 7.12002 10.801 7.48534C10.801 7.85067 10.7281 8.21233 10.5867 8.54917C10.4453 8.886 10.2381 9.19126 9.97727 9.44708C9.71647 9.7029 9.40727 9.90414 9.06776 10.039C8.72826 10.174 8.36526 10.2398 8 10.2327C7.28053 10.2189 6.59521 9.92329 6.09131 9.40957C5.58741 8.89584 5.30513 8.20495 5.30513 7.48534C5.30513 6.76574 5.58741 6.07484 6.09131 5.56112C6.59521 5.04739 7.28053 4.75182 8 4.73793ZM8 14.9707C6.56421 14.9721 5.17202 14.4775 4.05889 13.5706C4.45159 12.8705 5.0237 12.2876 5.71637 11.882C6.40904 11.4763 7.19728 11.2625 8 11.2625C8.80272 11.2625 9.59096 11.4763 10.2836 11.882C10.9763 12.2876 11.5484 12.8705 11.9411 13.5706C10.828 14.4775 9.43578 14.9721 8 14.9707ZM28.6775 4.79324H19.3911C19.1466 4.79324 18.9122 4.89036 18.7393 5.06322C18.5665 5.23609 18.4693 5.47055 18.4693 5.71502C18.4693 5.95949 18.5665 6.19395 18.7393 6.36681C18.9122 6.53968 19.1466 6.63679 19.3911 6.63679H28.6775C28.922 6.63679 29.1564 6.53968 29.3293 6.36681C29.5022 6.19395 29.5993 5.95949 29.5993 5.71502C29.5993 5.47055 29.5022 5.23609 29.3293 5.06322C29.1564 4.89036 28.922 4.79324 28.6775 4.79324ZM23.8535 9.3632H19.3942C19.1497 9.3632 18.9153 9.46032 18.7424 9.63319C18.5695 9.80606 18.4724 10.0405 18.4724 10.285C18.4724 10.5295 18.5695 10.7639 18.7424 10.9368C18.9153 11.1096 19.1497 11.2068 19.3942 11.2068H23.8535C24.098 11.2068 24.3325 11.1096 24.5053 10.9368C24.6782 10.7639 24.7753 10.5295 24.7753 10.285C24.7753 10.0405 24.6782 9.80606 24.5053 9.63319C24.3325 9.46032 24.098 9.3632 23.8535 9.3632Z" fill="url(#paint0_linear_1183_3910)"/>
    <defs>
        <linearGradient id="paint0_linear_1183_3910" x1="9.0406e-08" y1="7.62753" x2="35.6194" y2="8.05311" gradientUnits="userSpaceOnUse">
            <stop stop-color="#094EBE"/>
            <stop offset="1" stop-color="#15AABA"/>
        </linearGradient>
    </defs>
</svg>
