<svg width="24" height="24" viewBox="0 0 24 24" fill="none" xmlns="http://www.w3.org/2000/svg">
    <path d="M20.2135 14.4365L18.5516 12.7745C18.4461 12.669 18.303 12.6098 18.1539 12.6098C18.0047 12.6098 17.8616 12.669 17.7561 12.7745L12.7703 17.7604C12.7008 17.8299 12.6507 17.9163 12.6251 18.0111L12.0076 20.2904C11.9818 20.386 11.9816 20.4867 12.0071 20.5823C12.0326 20.678 12.0828 20.7652 12.1528 20.8352C12.2229 20.9052 12.3101 20.9555 12.4058 20.981C12.5014 21.0065 12.6021 21.0063 12.6977 20.9804L14.977 20.363C15.0718 20.3374 15.1582 20.2873 15.2277 20.2178L20.2135 15.232C20.319 15.1265 20.3783 14.9834 20.3783 14.8342C20.3783 14.6851 20.319 14.542 20.2135 14.4365ZM14.5383 19.3164L13.35 19.6382L13.6719 18.4499L18.1538 13.9678L19.0203 14.8342L14.5383 19.3164ZM11.2413 19.875H5.56266C5.34634 19.8748 5.13895 19.7887 4.98598 19.6358C4.83302 19.4828 4.74697 19.2754 4.74672 19.0591V9.63159H19.2533V11.8113C19.2533 11.9605 19.3125 12.1035 19.418 12.209C19.5235 12.3145 19.6666 12.3738 19.8158 12.3738C19.965 12.3738 20.108 12.3145 20.2135 12.209C20.319 12.1035 20.3783 11.9605 20.3783 11.8113V6.18435C20.3777 5.66976 20.173 5.17642 19.8092 4.81256C19.4453 4.44869 18.952 4.24402 18.4374 4.24344H16.8257V3.5625C16.8257 3.41332 16.7664 3.27024 16.6609 3.16475C16.5554 3.05926 16.4124 3 16.2632 3C16.114 3 15.9709 3.05926 15.8654 3.16475C15.7599 3.27024 15.7007 3.41332 15.7007 3.5625V4.24344H8.29936V3.5625C8.29936 3.41332 8.2401 3.27024 8.13461 3.16475C8.02912 3.05926 7.88605 3 7.73686 3C7.58768 3 7.44461 3.05926 7.33912 3.16475C7.23363 3.27024 7.17436 3.41332 7.17436 3.5625V4.24344H5.56266C5.04807 4.24402 4.55473 4.44869 4.19086 4.81255C3.82699 5.17642 3.62231 5.66976 3.62172 6.18435V19.0591C3.62231 19.5737 3.827 20.067 4.19087 20.4309C4.55474 20.7947 5.04808 20.9994 5.56266 21H11.2413C11.3905 21 11.5335 20.9407 11.639 20.8352C11.7445 20.7298 11.8038 20.5867 11.8038 20.4375C11.8038 20.2883 11.7445 20.1452 11.639 20.0398C11.5335 19.9343 11.3905 19.875 11.2413 19.875ZM5.56266 5.36844H7.17436V6.04935C7.17436 6.19853 7.23363 6.34161 7.33912 6.4471C7.44461 6.55258 7.58768 6.61185 7.73686 6.61185C7.88605 6.61185 8.02912 6.55258 8.13461 6.4471C8.2401 6.34161 8.29936 6.19853 8.29936 6.04935V5.36844H15.7007V6.04935C15.7007 6.19853 15.7599 6.34161 15.8654 6.4471C15.9709 6.55258 16.114 6.61185 16.2632 6.61185C16.4124 6.61185 16.5554 6.55258 16.6609 6.4471C16.7664 6.34161 16.8257 6.19853 16.8257 6.04935V5.36844H18.4374C18.6537 5.36868 18.8611 5.45472 19.014 5.60768C19.167 5.76064 19.253 5.96803 19.2533 6.18435V8.50659H4.74672V6.18435C4.74697 5.96803 4.83302 5.76064 4.98598 5.60768C5.13895 5.45472 5.34634 5.36868 5.56266 5.36844Z" fill="#333333"/>
</svg>
