<svg width="24" height="24" viewBox="0 0 24 24" fill="none" xmlns="http://www.w3.org/2000/svg">
    <g clip-path="url(#clip0_1177_9263)">
        <path d="M11.542 20H2.39959C1.51595 20 0.799652 19.2837 0.799652 18.4001V16.8H13.0789L11.542 20Z" fill="#D3DCFB"/>
        <path d="M21.6012 7.19998V18.3999H2.39959C1.51595 18.3999 0.799652 17.6836 0.799652 16.7999V7.19998L12.0004 3.19995L21.6012 7.19998Z" fill="#EBF5FC"/>
        <path d="M3.62513 10.4H2.77515C2.67569 10.4 2.58031 10.3605 2.50998 10.2902C2.43966 10.2199 2.40015 10.1245 2.40015 10.025V9.17505C2.40015 9.07559 2.43966 8.98021 2.50998 8.90988C2.58031 8.83956 2.67569 8.80005 2.77515 8.80005H3.62513C3.72459 8.80005 3.81997 8.83956 3.8903 8.90988C3.96062 8.98021 4.00013 9.07559 4.00013 9.17505V10.025C4.00013 10.1245 3.96062 10.2199 3.8903 10.2902C3.81997 10.3605 3.72459 10.4 3.62513 10.4ZM6.82515 10.4H5.97516C5.87571 10.4 5.78032 10.3605 5.71 10.2902C5.63967 10.2199 5.60016 10.1245 5.60016 10.025V9.17505C5.60016 9.07559 5.63967 8.98021 5.71 8.90988C5.78032 8.83956 5.87571 8.80005 5.97516 8.80005H6.82515C6.9246 8.80005 7.01999 8.83956 7.09031 8.90988C7.16064 8.98021 7.20015 9.07559 7.20015 9.17505V10.025C7.20015 10.1245 7.16064 10.2199 7.09031 10.2902C7.01999 10.3605 6.9246 10.4 6.82515 10.4ZM10.0251 10.4H9.17513C9.07567 10.4 8.98029 10.3605 8.90997 10.2902C8.83964 10.2199 8.80013 10.1245 8.80013 10.025V9.17505C8.80013 9.07559 8.83964 8.98021 8.90997 8.90988C8.98029 8.83956 9.07567 8.80005 9.17513 8.80005H10.0251C10.1246 8.80005 10.22 8.83956 10.2903 8.90988C10.3606 8.98021 10.4001 9.07559 10.4001 9.17505V10.025C10.4001 10.1245 10.3606 10.2199 10.2903 10.2902C10.22 10.3605 10.1246 10.4 10.0251 10.4ZM13.2251 10.4H12.3751C12.2757 10.4 12.1803 10.3605 12.11 10.2902C12.0397 10.2199 12.0001 10.1245 12.0001 10.025V9.17505C12.0001 9.07559 12.0397 8.98021 12.11 8.90988C12.1803 8.83956 12.2757 8.80005 12.3751 8.80005H13.2251C13.3246 8.80005 13.42 8.83956 13.4903 8.90988C13.5606 8.98021 13.6001 9.07559 13.6001 9.17505V10.025C13.6001 10.1245 13.5606 10.2199 13.4903 10.2902C13.42 10.3605 13.3246 10.4 13.2251 10.4ZM16.4246 10.4H15.5746C15.4751 10.4 15.3798 10.3605 15.3094 10.2902C15.2391 10.2199 15.1996 10.1245 15.1996 10.025V9.17505C15.1996 9.07559 15.2391 8.98021 15.3094 8.90988C15.3798 8.83956 15.4751 8.80005 15.5746 8.80005H16.4246C16.524 8.80005 16.6194 8.83956 16.6897 8.90988C16.7601 8.98021 16.7996 9.07559 16.7996 9.17505V10.025C16.7996 10.1245 16.7601 10.2199 16.6897 10.2902C16.6194 10.3605 16.524 10.4 16.4246 10.4ZM19.6246 10.4H18.7746C18.6752 10.4 18.5798 10.3605 18.5094 10.2902C18.4391 10.2199 18.3996 10.1245 18.3996 10.025V9.17505C18.3996 9.07559 18.4391 8.98021 18.5094 8.90988C18.5798 8.83956 18.6752 8.80005 18.7746 8.80005H19.6246C19.7241 8.80005 19.8194 8.83956 19.8898 8.90988C19.9601 8.98021 19.9996 9.07559 19.9996 9.17505V10.025C19.9996 10.1245 19.9601 10.2199 19.8898 10.2902C19.8194 10.3605 19.7241 10.4 19.6246 10.4ZM3.62513 13.6H2.77515C2.67569 13.6 2.58031 13.5605 2.50998 13.4902C2.43966 13.4198 2.40015 13.3245 2.40015 13.225V12.375C2.40015 12.2756 2.43966 12.1802 2.50998 12.1099C2.58031 12.0395 2.67569 12 2.77515 12H3.62513C3.72459 12 3.81997 12.0395 3.8903 12.1099C3.96062 12.1802 4.00013 12.2756 4.00013 12.375V13.225C4.00013 13.3245 3.96062 13.4198 3.8903 13.4902C3.81997 13.5605 3.72459 13.6 3.62513 13.6ZM6.82515 13.6H5.97516C5.87571 13.6 5.78032 13.5605 5.71 13.4902C5.63967 13.4198 5.60016 13.3245 5.60016 13.225V12.375C5.60016 12.2756 5.63967 12.1802 5.71 12.1099C5.78032 12.0395 5.87571 12 5.97516 12H6.82515C6.9246 12 7.01999 12.0395 7.09031 12.1099C7.16064 12.1802 7.20015 12.2756 7.20015 12.375V13.225C7.20015 13.3245 7.16064 13.4198 7.09031 13.4902C7.01999 13.5605 6.9246 13.6 6.82515 13.6ZM10.0251 13.6H9.17513C9.07567 13.6 8.98029 13.5605 8.90997 13.4902C8.83964 13.4198 8.80013 13.3245 8.80013 13.225V12.375C8.80013 12.2756 8.83964 12.1802 8.90997 12.1099C8.98029 12.0395 9.07567 12 9.17513 12H10.0251C10.1246 12 10.22 12.0395 10.2903 12.1099C10.3606 12.1802 10.4001 12.2756 10.4001 12.375V13.225C10.4001 13.3245 10.3606 13.4198 10.2903 13.4902C10.22 13.5605 10.1246 13.6 10.0251 13.6ZM13.6001 13.6V12.4C13.6001 12.3475 13.5898 12.2955 13.5697 12.2469C13.5496 12.1984 13.5201 12.1543 13.483 12.1172C13.4458 12.08 13.4017 12.0506 13.3532 12.0305C13.3047 12.0104 13.2527 12 13.2001 12H12.4001C12.294 12 12.1923 12.0422 12.1173 12.1172C12.0423 12.1922 12.0001 12.2939 12.0001 12.4V13.2C12.0001 13.3061 12.0423 13.4078 12.1173 13.4828C12.1923 13.5579 12.294 13.6 12.4001 13.6H13.6001ZM3.62513 16.8H2.77515C2.67569 16.8 2.58031 16.7605 2.50998 16.6902C2.43966 16.6199 2.40015 16.5245 2.40015 16.425V15.575C2.40015 15.4756 2.43966 15.3802 2.50998 15.3099C2.58031 15.2395 2.67569 15.2 2.77515 15.2H3.62513C3.72459 15.2 3.81997 15.2395 3.8903 15.3099C3.96062 15.3802 4.00013 15.4756 4.00013 15.575V16.425C4.00013 16.5245 3.96062 16.6199 3.8903 16.6902C3.81997 16.7605 3.72459 16.8 3.62513 16.8ZM6.82515 16.8H5.97516C5.87571 16.8 5.78032 16.7605 5.71 16.6902C5.63967 16.6199 5.60016 16.5245 5.60016 16.425V15.575C5.60016 15.4756 5.63967 15.3802 5.71 15.3099C5.78032 15.2395 5.87571 15.2 5.97516 15.2H6.82515C6.9246 15.2 7.01999 15.2395 7.09031 15.3099C7.16064 15.3802 7.20015 15.4756 7.20015 15.575V16.425C7.20015 16.5245 7.16064 16.6199 7.09031 16.6902C7.01999 16.7605 6.9246 16.8 6.82515 16.8ZM10.0251 16.8H9.17513C9.07567 16.8 8.98029 16.7605 8.90997 16.6902C8.83964 16.6199 8.80013 16.5245 8.80013 16.425V15.575C8.80013 15.4756 8.83964 15.3802 8.90997 15.3099C8.98029 15.2395 9.07567 15.2 9.17513 15.2H10.0251C10.1246 15.2 10.22 15.2395 10.2903 15.3099C10.3606 15.3802 10.4001 15.4756 10.4001 15.575V16.425C10.4001 16.5245 10.3606 16.6199 10.2903 16.6902C10.22 16.7605 10.1246 16.8 10.0251 16.8Z" fill="#3C58A0"/>
        <path d="M19.6133 8.80005H18.786C18.7359 8.80005 18.6882 8.80989 18.6443 8.82719C18.7164 8.85559 18.7783 8.90503 18.8219 8.96908C18.8656 9.03314 18.8889 9.10884 18.8889 9.18635V10.0137C18.8889 10.177 18.7875 10.3163 18.6443 10.3728C18.6882 10.3902 18.7359 10.4 18.786 10.4H19.6133C19.7158 10.4 19.814 10.3593 19.8865 10.2869C19.9589 10.2144 19.9996 10.1162 19.9996 10.0137V9.18639C19.9996 9.08393 19.9589 8.98567 19.8865 8.91322C19.814 8.84077 19.7158 8.80006 19.6133 8.80005ZM16.4133 8.80005H15.5859C15.5359 8.80005 15.4882 8.80989 15.4443 8.82719C15.5164 8.85559 15.5783 8.90503 15.6219 8.96908C15.6656 9.03314 15.6889 9.10884 15.6889 9.18635V10.0137C15.6889 10.177 15.5874 10.3163 15.4443 10.3728C15.4882 10.3902 15.5359 10.4 15.5859 10.4H16.4133C16.464 10.4 16.5143 10.3901 16.5611 10.3706C16.608 10.3512 16.6506 10.3228 16.6865 10.2869C16.7223 10.251 16.7508 10.2084 16.7702 10.1616C16.7896 10.1147 16.7996 10.0645 16.7996 10.0137V9.18639C16.7996 9.13566 16.7896 9.08542 16.7702 9.03855C16.7508 8.99168 16.7223 8.94908 16.6865 8.91321C16.6506 8.87733 16.608 8.84887 16.5611 8.82946C16.5143 8.81004 16.464 8.80005 16.4133 8.80005ZM13.2138 8.80005H12.3865C12.3364 8.80005 12.2888 8.80989 12.2448 8.82719C12.388 8.88372 12.4895 9.02303 12.4895 9.18635V10.0137C12.4895 10.177 12.388 10.3163 12.2448 10.3728C12.2888 10.3902 12.3364 10.4 12.3865 10.4H13.2138C13.3163 10.4 13.4146 10.3593 13.487 10.2869C13.5595 10.2144 13.6002 10.1162 13.6002 10.0137V9.18639C13.6002 9.08393 13.5595 8.98567 13.487 8.91322C13.4146 8.84077 13.3163 8.80006 13.2138 8.80005ZM10.0138 8.80005H9.18648C9.13641 8.80005 9.08874 8.80989 9.04482 8.82719C9.18802 8.88372 9.28951 9.02303 9.28951 9.18635V10.0137C9.28951 10.177 9.18802 10.3163 9.04482 10.3728C9.08874 10.3902 9.13641 10.4 9.18648 10.4H10.0138C10.1163 10.4 10.2145 10.3593 10.287 10.2869C10.3594 10.2144 10.4002 10.1162 10.4002 10.0137V9.18639C10.4002 9.08393 10.3594 8.98567 10.287 8.91322C10.2145 8.84077 10.1163 8.80006 10.0138 8.80005ZM6.8138 8.80005H5.98646C5.9364 8.80005 5.88873 8.80989 5.84481 8.82719C5.91692 8.85559 5.97882 8.90503 6.02245 8.96908C6.06608 9.03314 6.08943 9.10884 6.08945 9.18635V10.0137C6.08945 10.177 5.98796 10.3163 5.84481 10.3728C5.88873 10.3902 5.9364 10.4 5.98646 10.4H6.8138C6.91626 10.4 7.01452 10.3593 7.08697 10.2869C7.15943 10.2144 7.20014 10.1162 7.20015 10.0137V9.18639C7.20015 9.08393 7.15945 8.98566 7.08699 8.91321C7.01454 8.84075 6.91627 8.80005 6.8138 8.80005ZM3.61384 8.80005H2.78649C2.73643 8.80005 2.68876 8.80989 2.64484 8.82719C2.78804 8.88372 2.88952 9.02303 2.88952 9.18635V10.0137C2.88952 10.177 2.78804 10.3163 2.64484 10.3728C2.68876 10.3902 2.73643 10.4 2.78649 10.4H3.61384C3.71629 10.4 3.81455 10.3593 3.88701 10.2869C3.95946 10.2144 4.00017 10.1162 4.00018 10.0137V9.18639C4.00017 9.08393 3.95946 8.98567 3.88701 8.91322C3.81456 8.84077 3.7163 8.80006 3.61384 8.80005ZM3.61384 12.0001H2.78649C2.73643 12.0001 2.68876 12.0099 2.64484 12.0272C2.78804 12.0837 2.88952 12.223 2.88952 12.3864V13.2138C2.88952 13.3771 2.78804 13.5164 2.64484 13.5729C2.68876 13.5903 2.73643 13.6001 2.78649 13.6001H3.61384C3.71629 13.6001 3.81455 13.5594 3.88701 13.487C3.95946 13.4145 4.00017 13.3163 4.00018 13.2138V12.3864C4.00017 12.2839 3.95946 12.1857 3.88701 12.1132C3.81456 12.0408 3.7163 12.0001 3.61384 12.0001ZM3.61384 15.2001H2.78649C2.73643 15.2001 2.68876 15.2099 2.64484 15.2272C2.78804 15.2838 2.88952 15.4231 2.88952 15.5864V16.4138C2.88952 16.5771 2.78804 16.7164 2.64484 16.7729C2.68876 16.7903 2.73643 16.8001 2.78649 16.8001H3.61384C3.71629 16.8001 3.81455 16.7594 3.88701 16.687C3.95946 16.6145 4.00017 16.5163 4.00018 16.4138V15.5864C4.00017 15.484 3.95946 15.3857 3.88701 15.3133C3.81456 15.2408 3.7163 15.2001 3.61384 15.2001ZM6.8138 12.0001H5.98646C5.9364 12.0001 5.88873 12.0099 5.84481 12.0272C5.91692 12.0556 5.97882 12.105 6.02245 12.1691C6.06608 12.2332 6.08943 12.3089 6.08945 12.3864V13.2138C6.08945 13.3771 5.98796 13.5164 5.84481 13.5729C5.88873 13.5903 5.9364 13.6001 5.98646 13.6001H6.8138C6.91626 13.6001 7.01452 13.5594 7.08697 13.487C7.15943 13.4145 7.20014 13.3163 7.20015 13.2138V12.3864C7.20015 12.2839 7.15945 12.1857 7.08699 12.1132C7.01454 12.0408 6.91627 12.0001 6.8138 12.0001ZM6.8138 15.2001H5.98646C5.9364 15.2001 5.88873 15.2099 5.84481 15.2272C5.91692 15.2556 5.97882 15.3051 6.02245 15.3691C6.06608 15.4332 6.08943 15.5089 6.08945 15.5864V16.4138C6.08945 16.5771 5.98796 16.7164 5.84481 16.7729C5.88873 16.7903 5.9364 16.8001 5.98646 16.8001H6.8138C6.91626 16.8001 7.01452 16.7594 7.08697 16.687C7.15943 16.6145 7.20014 16.5163 7.20015 16.4138V15.5864C7.20015 15.5357 7.19017 15.4854 7.17075 15.4386C7.15134 15.3917 7.12288 15.3491 7.08701 15.3132C7.05113 15.2773 7.00854 15.2489 6.96166 15.2295C6.91478 15.2101 6.86454 15.2001 6.8138 15.2001ZM10.0138 12.0001H9.18648C9.13641 12.0001 9.08874 12.0099 9.04482 12.0272C9.18802 12.0837 9.28951 12.223 9.28951 12.3864V13.2138C9.28951 13.3771 9.18802 13.5164 9.04482 13.5729C9.08874 13.5903 9.13641 13.6001 9.18648 13.6001H10.0138C10.1163 13.6001 10.2145 13.5594 10.287 13.487C10.3594 13.4145 10.4002 13.3163 10.4002 13.2138V12.3864C10.4002 12.2839 10.3594 12.1857 10.287 12.1132C10.2145 12.0408 10.1163 12.0001 10.0138 12.0001ZM13.6001 13.6V12.3864C13.6001 12.3356 13.5901 12.2854 13.5707 12.2385C13.5513 12.1917 13.5228 12.1491 13.487 12.1132C13.4511 12.0773 13.4085 12.0489 13.3616 12.0295C13.3148 12.01 13.2645 12.0001 13.2138 12.0001H12.3864C12.3364 12.0001 12.2887 12.0099 12.2448 12.0272C12.388 12.0837 12.4895 12.223 12.4895 12.3864V13.2138C12.4895 13.3771 12.388 13.5164 12.2448 13.5729C12.2887 13.5903 12.3364 13.6001 12.3864 13.6001H13.6001V13.6ZM10.0138 15.2001H9.18648C9.13641 15.2001 9.08874 15.2099 9.04482 15.2272C9.18802 15.2838 9.28951 15.4231 9.28951 15.5864V16.4138C9.28951 16.5771 9.18802 16.7164 9.04482 16.7729C9.08874 16.7903 9.13641 16.8001 9.18648 16.8001H10.0138C10.1163 16.8001 10.2145 16.7594 10.287 16.687C10.3594 16.6145 10.4002 16.5163 10.4002 16.4138V15.5864C10.4002 15.5357 10.3902 15.4855 10.3708 15.4386C10.3513 15.3917 10.3229 15.3491 10.287 15.3132C10.2511 15.2774 10.2085 15.2489 10.1617 15.2295C10.1148 15.2101 10.0646 15.2001 10.0138 15.2001Z" fill="#2A428C"/>
        <path d="M20.4897 6.73682V18.3999H21.6012V7.1999L20.4897 6.73682Z" fill="#D3DCFB"/>
        <path d="M21.6012 7.20007V3.20004C21.6012 2.31639 20.8848 1.6001 20.0012 1.6001H2.39959C1.51595 1.6001 0.799652 2.31639 0.799652 3.20004V7.20007H21.6012Z" fill="#FF4155"/>
        <path d="M5.84105 3.5622H4.79963C4.70358 3.5622 4.61146 3.52405 4.54354 3.45613C4.47563 3.38821 4.43747 3.2961 4.43747 3.20005C4.43747 3.104 4.47563 3.01188 4.54354 2.94396C4.61146 2.87605 4.70358 2.83789 4.79963 2.83789H5.84105C5.9371 2.83789 6.02921 2.87605 6.09713 2.94396C6.16505 3.01188 6.2032 3.104 6.2032 3.20005C6.2032 3.2961 6.16505 3.38821 6.09713 3.45613C6.02921 3.52405 5.9371 3.5622 5.84105 3.5622ZM8.39958 3.5622H7.35816C7.26211 3.5622 7.16999 3.52405 7.10207 3.45613C7.03416 3.38821 6.996 3.2961 6.996 3.20005C6.996 3.104 7.03416 3.01188 7.10207 2.94396C7.16999 2.87605 7.26211 2.83789 7.35816 2.83789H8.39958C8.59964 2.83789 8.76174 3.00003 8.76174 3.20005C8.76174 3.40006 8.59964 3.5622 8.39958 3.5622ZM15.0416 3.5622H14.0001C13.9041 3.5622 13.8119 3.52405 13.744 3.45613C13.6761 3.38821 13.638 3.2961 13.638 3.20005C13.638 3.104 13.6761 3.01188 13.744 2.94396C13.8119 2.87605 13.9041 2.83789 14.0001 2.83789H15.0416C15.2416 2.83789 15.4037 3.00003 15.4037 3.20005C15.4037 3.40006 15.2416 3.5622 15.0416 3.5622ZM17.6002 3.5622H16.5587C16.4626 3.5622 16.3705 3.52405 16.3026 3.45613C16.2347 3.38821 16.1965 3.2961 16.1965 3.20005C16.1965 3.104 16.2347 3.01188 16.3026 2.94396C16.3705 2.87605 16.4626 2.83789 16.5587 2.83789H17.6002C17.6962 2.83789 17.7883 2.87605 17.8562 2.94396C17.9242 3.01188 17.9623 3.104 17.9623 3.20005C17.9623 3.2961 17.9242 3.38821 17.8562 3.45613C17.7883 3.52405 17.6962 3.5622 17.6002 3.5622Z" fill="#E80054"/>
        <path d="M7.59961 3C7.59961 3.55228 7.15191 3.99998 6.59962 3.99998C6.04734 3.99998 5.59964 3.55228 5.59964 3V0.999984C5.59959 0.447703 6.0473 0 6.59958 0C7.15186 0 7.59956 0.447703 7.59956 0.999984V3H7.59961ZM16.8001 3C16.8001 3.55228 16.3524 3.99998 15.8002 3.99998C15.2479 3.99998 14.8001 3.55228 14.8001 3V0.999984C14.8001 0.447703 15.2478 0 15.8001 0C16.3524 0 16.8001 0.447703 16.8001 0.999984V3H16.8001Z" fill="#EBF5FC"/>
        <path d="M15.8001 0C15.5948 0 15.4041 0.0620625 15.2453 0.168187C15.5137 0.347531 15.6905 0.653016 15.6905 1.00003V3C15.6905 3.34697 15.5137 3.6525 15.2453 3.83184C15.4095 3.94172 15.6026 4.00027 15.8001 4.00003C16.3524 4.00003 16.8001 3.55233 16.8001 3.00005V0.999984C16.8001 0.447703 16.3524 0 15.8001 0ZM6.59958 0C6.39427 0 6.20358 0.0620625 6.04477 0.168187C6.31313 0.347531 6.48999 0.653016 6.48999 1.00003V3C6.48999 3.34697 6.31313 3.6525 6.04477 3.83184C6.20892 3.94172 6.40205 4.00027 6.59958 4.00003C7.15186 4.00003 7.59957 3.55233 7.59957 3.00005V0.999984C7.59961 0.447703 7.15191 0 6.59958 0Z" fill="#D3DCFB"/>
        <path d="M20.0012 1.6001H18.8901C19.7738 1.6001 20.4901 2.31639 20.4901 3.20004V7.20011H21.6011V3.20008C21.6012 2.31644 20.8848 1.6001 20.0012 1.6001Z" fill="#E80054"/>
        <path d="M0.799591 5.23779H21.6012V5.96215H0.799591V5.23779Z" fill="#E80054"/>
        <path d="M17.2004 24C20.5141 24 23.2004 21.3137 23.2004 18C23.2004 14.6863 20.5141 12 17.2004 12C13.8867 12 11.2004 14.6863 11.2004 18C11.2004 21.3137 13.8867 24 17.2004 24Z" fill="#4FABF7"/>
        <path d="M17.2004 22.4001C19.6305 22.4001 21.6004 20.4302 21.6004 18.0001C21.6004 15.5701 19.6305 13.6001 17.2004 13.6001C14.7703 13.6001 12.8004 15.5701 12.8004 18.0001C12.8004 20.4302 14.7703 22.4001 17.2004 22.4001Z" fill="#EBF5FC"/>
        <path d="M17.2004 17.5622C17.1529 17.5622 17.1058 17.5529 17.0618 17.5347C17.0179 17.5165 16.9779 17.4898 16.9443 17.4562C16.9107 17.4225 16.884 17.3826 16.8658 17.3387C16.8476 17.2947 16.8383 17.2476 16.8383 17.2001V15.2C16.8383 15.104 16.8764 15.0119 16.9443 14.944C17.0122 14.876 17.1044 14.8379 17.2004 14.8379C17.2965 14.8379 17.3886 14.876 17.4565 14.944C17.5244 15.0119 17.5626 15.104 17.5626 15.2V17.2001C17.5626 17.2961 17.5244 17.3882 17.4565 17.4561C17.3886 17.5241 17.2965 17.5622 17.2004 17.5622ZM19.2004 18.3622H18.0004C17.9043 18.3622 17.8122 18.3241 17.7443 18.2562C17.6764 18.1882 17.6382 18.0961 17.6382 18.0001C17.6382 17.904 17.6764 17.8119 17.7443 17.744C17.8122 17.6761 17.9043 17.6379 18.0004 17.6379H19.2004C19.2965 17.6379 19.3886 17.6761 19.4565 17.744C19.5244 17.8119 19.5626 17.904 19.5626 18.0001C19.5626 18.0961 19.5244 18.1882 19.4565 18.2562C19.3886 18.3241 19.2965 18.3622 19.2004 18.3622Z" fill="#3C58A0"/>
        <path d="M17.2004 12C17.0131 12 16.828 12.009 16.6451 12.0258C19.6984 12.3061 22.0897 14.8736 22.0897 18C22.0897 21.1264 19.6983 23.6939 16.645 23.9742C16.8279 23.991 17.0131 24 17.2003 24C20.514 24 23.2003 21.3137 23.2003 18C23.2003 14.6863 20.5141 12 17.2004 12Z" fill="#1886EA"/>
        <path d="M17.2004 13.6001C17.0124 13.6001 16.8272 13.612 16.6454 13.6348C18.8135 13.9077 20.4905 15.758 20.4905 18.0001C20.4905 20.2422 18.8135 22.0925 16.6454 22.3654C16.8272 22.3883 17.0124 22.4001 17.2004 22.4001C19.6304 22.4001 21.6004 20.4302 21.6004 18.0001C21.6004 15.5701 19.6304 13.6001 17.2004 13.6001Z" fill="#D3DCFB"/>
        <path d="M17.2004 18.8C17.6422 18.8 18.0004 18.4418 18.0004 18C18.0004 17.5581 17.6422 17.2 17.2004 17.2C16.7586 17.2 16.4004 17.5581 16.4004 18C16.4004 18.4418 16.7586 18.8 17.2004 18.8Z" fill="#FFDD40"/>
    </g>
    <defs>
        <clipPath id="clip0_1177_9263">
            <rect width="24" height="24" fill="white"/>
        </clipPath>
    </defs>
</svg>
