<svg width="18" height="14" viewBox="0 0 18 14" fill="none" xmlns="http://www.w3.org/2000/svg">
    <path d="M17.3019 2.18116C16.9468 1.80918 16.4565 1.58937 15.8985 1.58937H13.0918V1.55556C13.0918 1.13285 12.9227 0.727053 12.6352 0.456522C12.3478 0.169082 11.9589 0 11.5362 0H6.46375C6.02414 0 5.63525 0.169082 5.34781 0.456522C5.06037 0.743961 4.89129 1.13285 4.89129 1.55556V1.58937H2.10143C1.54346 1.58937 1.05312 1.80918 0.69805 2.18116C0.342977 2.53623 0.106262 3.04348 0.106262 3.58454V12.0048C0.106262 12.5628 0.326069 13.0531 0.69805 13.4082C1.05312 13.7633 1.56037 14 2.10143 14H15.8985C16.4565 14 16.9468 13.7802 17.3019 13.4082C17.657 13.0531 17.8937 12.5459 17.8937 12.0048V3.58454C17.8937 3.02657 17.6739 2.53623 17.3019 2.18116ZM17.0145 12.0048H16.9976C16.9976 12.3092 16.8792 12.5797 16.6763 12.7826C16.4734 12.9855 16.2029 13.1039 15.8985 13.1039H2.10143C1.79708 13.1039 1.52655 12.9855 1.32365 12.7826C1.12075 12.5797 1.0024 12.3092 1.0024 12.0048V3.58454C1.0024 3.28019 1.12075 3.00966 1.32365 2.80676C1.52655 2.60386 1.79708 2.48551 2.10143 2.48551H5.36472C5.61834 2.48551 5.82124 2.28261 5.82124 2.02899V1.53865C5.82124 1.35266 5.88887 1.18357 6.00723 1.06522C6.12559 0.94686 6.29467 0.879227 6.48066 0.879227H11.5362C11.7222 0.879227 11.8913 0.94686 12.0096 1.06522C12.128 1.18357 12.1956 1.35266 12.1956 1.53865V2.02899C12.1956 2.28261 12.3985 2.48551 12.6522 2.48551H15.9154C16.2198 2.48551 16.4903 2.60386 16.6932 2.80676C16.8961 3.00966 17.0145 3.28019 17.0145 3.58454V12.0048Z" fill="#545454"/>
    <path d="M9 3.63525C7.85024 3.63525 6.80193 4.10868 6.05797 4.85265C5.2971 5.61351 4.84058 6.64492 4.84058 7.79467C4.84058 8.94443 5.31401 9.99274 6.05797 10.7367C6.81884 11.4976 7.85024 11.9541 9 11.9541C10.1498 11.9541 11.1981 11.4807 11.942 10.7367C12.7029 9.97583 13.1594 8.94443 13.1594 7.79467C13.1594 6.64492 12.686 5.59661 11.942 4.85265C11.1981 4.10868 10.1498 3.63525 9 3.63525ZM11.2995 10.1111C10.7077 10.686 9.89613 11.058 9 11.058C8.10386 11.058 7.29227 10.686 6.70048 10.1111C6.10869 9.51931 5.75362 8.70772 5.75362 7.81158C5.75362 6.91545 6.1256 6.10385 6.70048 5.51207C7.29227 4.92028 8.10386 4.56521 9 4.56521C9.89613 4.56521 10.7077 4.93719 11.2995 5.51207C11.8913 6.10385 12.2464 6.91545 12.2464 7.81158C12.2633 8.70772 11.8913 9.51931 11.2995 10.1111Z" fill="#545454"/>
    <path d="M15.0193 5.27529C15.4769 5.27529 15.8478 4.90436 15.8478 4.44679C15.8478 3.98922 15.4769 3.61829 15.0193 3.61829C14.5617 3.61829 14.1908 3.98922 14.1908 4.44679C14.1908 4.90436 14.5617 5.27529 15.0193 5.27529Z" fill="#545454"/>
</svg>
