<svg width="20" height="17" viewBox="0 0 20 17" fill="none" xmlns="http://www.w3.org/2000/svg">
    <path d="M17.4218 5.13721H12.508V2.23357C12.5073 1.64141 12.2717 1.0737 11.853 0.654981C11.4343 0.236259 10.8666 0.000709318 10.2744 0H2.23357C1.64141 0.000709318 1.0737 0.236259 0.654981 0.654981C0.236259 1.0737 0.000709318 1.64141 0 2.23357V7.59414C0.000709318 8.1863 0.236259 8.754 0.654981 9.17273C1.0737 9.59145 1.64141 9.827 2.23357 9.82771V10.7613C2.23324 10.9376 2.28535 11.1099 2.38327 11.2565C2.4812 11.403 2.62051 11.5171 2.78347 11.5842C2.94715 11.6523 3.12741 11.6703 3.30131 11.6357C3.47521 11.6011 3.63488 11.5155 3.75999 11.3899C3.7763 11.3742 3.79124 11.3572 3.80466 11.3389L4.91609 9.82771H7.14742V12.7313C7.14813 13.3235 7.38368 13.8912 7.8024 14.3099C8.22113 14.7287 8.78883 14.9642 9.38099 14.9649H14.3333L15.8968 16.5284C16.0217 16.6533 16.1809 16.7384 16.3542 16.7728C16.5275 16.8073 16.7071 16.7896 16.8703 16.722C17.0335 16.6544 17.173 16.5399 17.2712 16.393C17.3694 16.2461 17.4218 16.0734 17.4218 15.8968V14.9649C18.014 14.9642 18.5817 14.7287 19.0004 14.3099C19.4192 13.8912 19.6547 13.3235 19.6554 12.7313V7.37078C19.6547 6.77862 19.4192 6.21091 19.0004 5.79219C18.5817 5.37347 18.014 5.13792 17.4218 5.13721ZM4.6905 8.93428C4.62088 8.93464 4.55231 8.95127 4.49027 8.98284C4.42822 9.0144 4.37441 9.06004 4.33313 9.11609L3.127 10.7511V9.38099C3.127 9.26252 3.07993 9.14889 2.99616 9.06512C2.91238 8.98134 2.79876 8.93428 2.68028 8.93428H2.23357C1.87814 8.93428 1.53727 8.79309 1.28595 8.54176C1.03462 8.29044 0.893428 7.94956 0.893428 7.59414V2.23357C0.893428 1.87814 1.03462 1.53727 1.28595 1.28595C1.53727 1.03462 1.87814 0.893428 2.23357 0.893428H10.2744C10.6298 0.893428 10.9707 1.03462 11.222 1.28595C11.4734 1.53727 11.6146 1.87814 11.6146 2.23357V5.13721H9.38099C8.90574 5.13862 8.44355 5.29289 8.06274 5.57722L6.6605 2.4949C6.62497 2.41691 6.56775 2.35078 6.49567 2.30442C6.42359 2.25805 6.3397 2.23339 6.254 2.23339C6.16829 2.23339 6.0844 2.25805 6.01232 2.30442C5.94024 2.35078 5.88302 2.41691 5.84749 2.4949L3.61392 7.40875C3.5897 7.46224 3.57627 7.51999 3.57439 7.57868C3.57252 7.63737 3.58223 7.69585 3.60297 7.75078C3.62372 7.80572 3.65509 7.85602 3.69529 7.89882C3.7355 7.94161 3.78374 7.97607 3.83727 8.0002C3.89468 8.0268 3.95716 8.04067 4.02043 8.04085C4.10616 8.04083 4.19008 8.01613 4.26216 7.96972C4.33424 7.9233 4.39144 7.85712 4.42694 7.77908L5.12024 6.254H7.38865L7.42037 6.32324C7.24381 6.64433 7.15 7.00435 7.14742 7.37078V8.93428H4.6905ZM6.98259 5.36057H5.5263L6.254 3.75954L6.98259 5.36057ZM18.762 12.7313C18.762 13.0868 18.6208 13.4276 18.3695 13.679C18.1181 13.9303 17.7773 14.0715 17.4218 14.0715H16.9751C16.8567 14.0715 16.743 14.1186 16.6593 14.2023C16.5755 14.2861 16.5284 14.3997 16.5284 14.5182V15.8968L14.834 14.2024C14.7503 14.1186 14.6367 14.0715 14.5182 14.0715H9.38099C9.02557 14.0715 8.6847 13.9303 8.43337 13.679C8.18204 13.4276 8.04085 13.0868 8.04085 12.7313V7.37078C8.04085 7.01535 8.18204 6.67448 8.43337 6.42316C8.6847 6.17183 9.02557 6.03064 9.38099 6.03064H17.4218C17.7773 6.03064 18.1181 6.17183 18.3695 6.42316C18.6208 6.67448 18.762 7.01535 18.762 7.37078V12.7313Z" fill="#333333"/>
    <path d="M15.635 8.48663H13.8481V7.5932C13.8481 7.47472 13.8011 7.3611 13.7173 7.27732C13.6335 7.19355 13.5199 7.14648 13.4014 7.14648C13.2829 7.14648 13.1693 7.19355 13.0855 7.27732C13.0018 7.3611 12.9547 7.47472 12.9547 7.5932V8.48663H11.1678C11.0494 8.48663 10.9357 8.53369 10.852 8.61747C10.7682 8.70124 10.7211 8.81486 10.7211 8.93334C10.7211 9.05182 10.7682 9.16544 10.852 9.24922C10.9357 9.33299 11.0494 9.38005 11.1678 9.38005H14.4825C14.3731 10.139 13.9871 10.8307 13.3987 11.3224C13.0551 11.0353 12.7773 10.6776 12.5844 10.2735C12.5601 10.2191 12.5252 10.1701 12.4817 10.1295C12.4382 10.0888 12.387 10.0572 12.3312 10.0366C12.2753 10.016 12.2159 10.0067 12.1564 10.0094C12.0969 10.0121 12.0386 10.0266 11.9848 10.0522C11.931 10.0777 11.8829 10.1138 11.8432 10.1582C11.8036 10.2026 11.7732 10.2545 11.7539 10.3108C11.7346 10.3672 11.7268 10.4268 11.7308 10.4862C11.7349 10.5456 11.7508 10.6036 11.7776 10.6568C11.9852 11.0872 12.269 11.4764 12.6152 11.8057C12.2182 11.9748 11.791 12.0614 11.3595 12.0603C11.3016 12.0606 11.2444 12.0725 11.1912 12.0952C11.138 12.1179 11.0899 12.1511 11.0497 12.1928C11.0095 12.2344 10.9781 12.2837 10.9573 12.3376C10.9364 12.3916 10.9266 12.4492 10.9284 12.5071C10.932 12.6272 10.9824 12.7411 11.0689 12.8246C11.1554 12.908 11.271 12.9544 11.3912 12.9538C12.1011 12.9535 12.7982 12.7638 13.4103 12.4043C14.0282 12.7623 14.7293 12.9518 15.4433 12.9538C15.5012 12.9535 15.5584 12.9416 15.6116 12.9189C15.6648 12.8962 15.7129 12.863 15.7531 12.8214C15.7933 12.7797 15.8247 12.7305 15.8456 12.6765C15.8664 12.6225 15.8762 12.5649 15.8744 12.5071C15.8708 12.3869 15.8204 12.273 15.7339 12.1895C15.6475 12.1061 15.5318 12.0597 15.4116 12.0603C14.9937 12.0587 14.5804 11.9727 14.1966 11.8075C14.862 11.1604 15.2821 10.3025 15.3853 9.38005H15.635C15.7535 9.38005 15.8671 9.33299 15.9509 9.24922C16.0346 9.16544 16.0817 9.05182 16.0817 8.93334C16.0817 8.81486 16.0346 8.70124 15.9509 8.61747C15.8671 8.53369 15.7535 8.48663 15.635 8.48663Z" fill="#333333"/>
</svg>
