<svg width="24" height="24" viewBox="0 0 24 24" fill="none" xmlns="http://www.w3.org/2000/svg">
    <path d="M12.1402 3.00109C7.16162 2.92503 3.09815 6.84346 3.00172 11.8217C2.9876 12.5525 3.06064 13.264 3.21119 13.9464C3.46603 15.1018 3.61754 16.2776 3.61754 17.4609V19.748C3.61754 20.0984 3.90159 20.3825 4.25203 20.3825H6.53915C7.72236 20.3825 8.89819 20.534 10.0536 20.7888C10.736 20.9393 11.4475 21.0124 12.1783 20.9983C17.1564 20.9019 21.0749 16.8385 20.999 11.86C20.9249 7.00065 16.9996 3.07527 12.1402 3.00109Z" fill="url(#paint0_linear_305_8228)"/>
    <path d="M8.77848 11.5174C8.52425 11.2473 8.16441 11.0776 7.76409 11.0776C6.99418 11.0776 6.37006 11.7018 6.37006 12.4717C6.37006 12.8719 6.53966 13.2318 6.80985 13.4861L9.81701 16.4932C10.0713 16.7634 10.4311 16.933 10.8314 16.933C11.6013 16.933 12.2254 16.3089 12.2254 15.539C12.2254 15.1387 12.0558 14.7789 11.7856 14.5246L8.77848 11.5174Z" fill="#E6EEF7" fill-opacity="0.13"/>
    <path d="M7.76406 13.8657C8.53397 13.8657 9.1581 13.2416 9.1581 12.4717C9.1581 11.7018 8.53397 11.0776 7.76406 11.0776C6.99416 11.0776 6.37003 11.7018 6.37003 12.4717C6.37003 13.2416 6.99416 13.8657 7.76406 13.8657Z" fill="white"/>
    <path d="M12.7209 11.5174C12.4667 11.2473 12.1069 11.0776 11.7065 11.0776C10.9366 11.0776 10.3125 11.7018 10.3125 12.4717C10.3125 12.8719 10.4821 13.2318 10.7523 13.4861L13.7594 16.4932C14.0137 16.7634 14.3736 16.933 14.7738 16.933C15.5437 16.933 16.1679 16.3089 16.1679 15.539C16.1679 15.1387 15.9982 14.7789 15.7281 14.5246L12.7209 11.5174Z" fill="#E6EEF7" fill-opacity="0.13"/>
    <path d="M11.7066 13.8657C12.4765 13.8657 13.1006 13.2416 13.1006 12.4717C13.1006 11.7018 12.4765 11.0776 11.7066 11.0776C10.9367 11.0776 10.3125 11.7018 10.3125 12.4717C10.3125 13.2416 10.9367 13.8657 11.7066 13.8657Z" fill="white"/>
    <path d="M16.6633 11.5174C16.4091 11.2473 16.0492 11.0776 15.6489 11.0776C14.879 11.0776 14.2549 11.7018 14.2549 12.4717C14.2549 12.8719 14.4245 13.2318 14.6947 13.4861L17.7018 16.4932C17.9561 16.7634 18.3159 16.933 18.7162 16.933C19.4861 16.933 20.1103 16.3089 20.1103 15.539C20.1103 15.1387 19.9406 14.7789 19.6705 14.5246L16.6633 11.5174Z" fill="#E6EEF7" fill-opacity="0.13"/>
    <path d="M15.6491 13.8657C16.419 13.8657 17.0432 13.2416 17.0432 12.4717C17.0432 11.7018 16.419 11.0776 15.6491 11.0776C14.8792 11.0776 14.2551 11.7018 14.2551 12.4717C14.2551 13.2416 14.8792 13.8657 15.6491 13.8657Z" fill="white"/>
    <defs>
        <linearGradient id="paint0_linear_305_8228" x1="3" y1="11.581" x2="21.0023" y2="11.7301" gradientUnits="userSpaceOnUse">
            <stop stop-color="#0061FF"/>
            <stop offset="1" stop-color="#60EFFF"/>
        </linearGradient>
    </defs>
</svg>
