<svg width="17" height="17" viewBox="0 0 17 17" fill="none" xmlns="http://www.w3.org/2000/svg">
    <path d="M11.5286 10.0016L9.15833 8.22395V4.60275C9.15833 4.23865 8.86401 3.94434 8.49991 3.94434C8.1358 3.94434 7.84149 4.23865 7.84149 4.60275V8.5532C7.84149 8.76058 7.93894 8.95615 8.10486 9.07993L10.7385 11.0552C10.8521 11.1407 10.9906 11.187 11.1329 11.1868C11.3337 11.1868 11.5312 11.0966 11.6602 10.9228C11.8789 10.6324 11.8196 10.2196 11.5286 10.0016Z" fill="#333333"/>
    <path d="M8.5 0C3.81281 0 0 3.81281 0 8.5C0 13.1872 3.81281 17 8.5 17C13.1872 17 17 13.1872 17 8.5C17 3.81281 13.1872 0 8.5 0ZM8.5 15.6832C4.5397 15.6832 1.3168 12.4603 1.3168 8.5C1.3168 4.5397 4.5397 1.3168 8.5 1.3168C12.461 1.3168 15.6832 4.5397 15.6832 8.5C15.6832 12.4603 12.4603 15.6832 8.5 15.6832Z" fill="#333333"/>
</svg>
