<svg width="24" height="24" viewBox="0 0 24 24" fill="none" xmlns="http://www.w3.org/2000/svg">
    <path d="M18.8193 6.60698C19.0014 6.41838 19.1022 6.16578 19.1 5.90358C19.0977 5.64139 18.9925 5.39057 18.8071 5.20516C18.6217 5.01976 18.3709 4.91459 18.1087 4.91231C17.8465 4.91003 17.5939 5.01083 17.4053 5.19298L12.0123 10.586L6.61928 5.19298C6.52703 5.09747 6.41669 5.02129 6.29469 4.96888C6.17268 4.91647 6.04146 4.88889 5.90868 4.88773C5.7759 4.88658 5.64422 4.91188 5.52133 4.96216C5.39843 5.01244 5.28678 5.0867 5.19289 5.18059C5.09899 5.27448 5.02474 5.38613 4.97446 5.50903C4.92418 5.63193 4.89888 5.76361 4.90003 5.89638C4.90119 6.02916 4.92877 6.16038 4.98118 6.28239C5.03359 6.40439 5.10977 6.51474 5.20528 6.60698L10.5983 12L5.20528 17.393C5.10977 17.4852 5.03359 17.5956 4.98118 17.7176C4.92877 17.8396 4.90119 17.9708 4.90003 18.1036C4.89888 18.2364 4.92418 18.368 4.97446 18.4909C5.02474 18.6138 5.09899 18.7255 5.19289 18.8194C5.28678 18.9133 5.39843 18.9875 5.52133 19.0378C5.64422 19.0881 5.7759 19.1134 5.90868 19.1122C6.04146 19.1111 6.17268 19.0835 6.29469 19.0311C6.41669 18.9787 6.52703 18.9025 6.61928 18.807L12.0123 13.414L17.4053 18.807C17.5939 18.9891 17.8465 19.0899 18.1087 19.0877C18.3709 19.0854 18.6217 18.9802 18.8071 18.7948C18.9925 18.6094 19.0977 18.3586 19.1 18.0964C19.1022 17.8342 19.0014 17.5816 18.8193 17.393L13.4263 12L18.8193 6.60698Z" fill="white"/>
</svg>
