<svg width="28" height="28" viewBox="0 0 28 28" fill="none" xmlns="http://www.w3.org/2000/svg">
    <g clip-path="url(#clip0_1167_8722)">
        <path fill-rule="evenodd" clip-rule="evenodd" d="M6.87312 2.26297C8.02812 2.02453 9.26898 2.46039 10.0067 3.47703C10.3886 4.00107 10.5955 4.63221 10.5979 5.28062C9.96301 5.41293 9.30257 5.34154 8.71062 5.07664C7.56328 4.56531 6.87968 3.44258 6.87312 2.26297ZM12.8909 3.79422C13.5187 2.70648 13.4121 1.39617 12.7247 0.4375C11.6501 0.923672 10.9025 2.00484 10.9025 3.26102C10.9025 3.93531 11.118 4.5593 11.4838 5.06789C12.0753 4.80184 12.5677 4.35593 12.8909 3.79367V3.79422ZM19.2888 5.07664C20.4362 4.56531 21.1198 3.44258 21.1263 2.26297C19.9713 2.02453 18.7305 2.46039 17.9927 3.47703C17.6108 4.00107 17.404 4.63221 17.4016 5.28062C18.0364 5.41293 18.6969 5.34154 19.2888 5.07664ZM16.5156 5.06844C16.8815 4.55984 17.0969 3.93586 17.0969 3.26156C17.0969 2.00539 16.3494 0.924219 15.2748 0.438047C14.5873 1.39617 14.4802 2.70648 15.1085 3.79477C15.4459 4.37883 15.9447 4.81141 16.5156 5.06898V5.06844ZM23.2755 12.985C23.8618 13.207 24.5202 13.2535 25.1716 13.0791C26.3851 12.7542 27.236 11.7518 27.4274 10.588C26.3238 10.1719 25.0305 10.4076 24.1423 11.2962C23.6655 11.7731 23.3767 12.367 23.2761 12.985H23.2755ZM18.229 22.2868C17.6036 22.1149 16.9399 22.1448 16.3324 22.3721C16.4303 22.9912 16.7163 23.5862 17.191 24.0652C18.0753 24.9577 19.3676 25.1995 20.4728 24.7887C20.2869 23.6239 19.4403 22.6177 18.229 22.2873V22.2868ZM25.171 14C24.5659 13.7667 23.9025 13.7303 23.2755 13.8961C23.3116 14.5217 23.5364 15.1424 23.9613 15.6663C24.7521 16.6425 26.0137 17.0116 27.1545 16.713C27.0856 15.5356 26.3435 14.4501 25.171 14.0005V14ZM23.2575 17.5383C22.587 17.6088 21.9887 17.8883 21.5212 18.305C21.8367 18.8464 22.3191 19.297 22.9348 19.5716C24.0822 20.0829 25.3744 19.8401 26.2555 19.0559C25.6599 18.0376 24.5066 17.407 23.2575 17.5377V17.5383ZM20.8769 18.9492C20.4978 19.4754 20.2942 20.1076 20.2951 20.7561C20.2951 22.0123 21.0427 23.0934 22.1173 23.5796C22.8047 22.6215 22.9119 21.3112 22.2835 20.2229C21.9461 19.6388 21.4473 19.2062 20.8764 18.9487L20.8769 18.9492ZM2.82843 13.0791C3.47976 13.2535 4.1382 13.207 4.72445 12.985C4.62382 12.3665 4.33507 11.7731 3.8582 11.2962C2.97007 10.4081 1.67671 10.1719 0.57312 10.588C0.764526 11.7518 1.61546 12.7542 2.82898 13.0791H2.82843ZM7.12304 18.9487C6.55156 19.2062 6.05335 19.6388 5.71593 20.2229C5.08812 21.3106 5.19476 22.6209 5.88218 23.5796C6.95679 23.0934 7.70437 22.0123 7.70437 20.7561C7.70437 20.0818 7.4889 19.4578 7.1225 18.9492L7.12304 18.9487ZM6.47882 18.3045C5.99523 17.8724 5.38757 17.6041 4.7425 17.5377C3.49343 17.4065 2.33953 18.0376 1.74453 19.0559C2.62554 19.8395 3.91781 20.0823 5.06515 19.5716C5.68093 19.297 6.16328 18.8464 6.47882 18.305V18.3045ZM4.03867 15.6658C4.44758 15.1624 4.68753 14.543 4.72445 13.8955C4.11851 13.7359 3.45898 13.7583 2.82898 13.9995C1.65648 14.4495 0.91437 15.5345 0.845464 16.712C1.98625 17.0105 3.24843 16.6414 4.03867 15.6652V15.6658ZM9.77101 22.2862C8.55914 22.6171 7.71257 23.6234 7.52718 24.7877C8.63242 25.1989 9.92523 24.9566 10.809 24.0641C11.2837 23.5851 11.5697 22.9901 11.6676 22.371C11.0808 22.1517 10.4218 22.108 9.77101 22.2857V22.2862ZM24.5984 6.41539L24.5787 6.3957C24.2862 6.10312 23.8383 6.06047 23.4959 6.29234C20.9962 7.98547 18.3438 11.7004 14.0005 11.7004C9.65726 11.7004 7.00492 7.98547 4.50515 6.29234C4.16281 6.06047 3.71437 6.10312 3.42234 6.3957L3.40265 6.41539C3.07507 6.74297 3.06851 7.27289 3.38789 7.60812C8.28351 12.7553 12.5885 19.4912 13.3049 26.9549C13.3383 27.3005 13.6259 27.562 13.9732 27.562H14.0295C14.3768 27.562 14.6644 27.3005 14.6978 26.9549C15.4142 19.4917 19.7198 12.7553 24.6148 7.60812C24.9337 7.27289 24.9271 6.74297 24.6001 6.41539H24.5984ZM11.3537 8.52633C11.3537 9.98375 12.5426 11.1727 14 11.1727C15.4574 11.1727 16.6463 9.98375 16.6463 8.52633C16.6463 7.06891 15.4574 5.88 14 5.88C12.5426 5.88 11.3537 7.06891 11.3537 8.52633Z" fill="white"/>
    </g>
    <defs>
        <clipPath id="clip0_1167_8722">
            <rect width="28" height="28" fill="white"/>
        </clipPath>
    </defs>
</svg>
