<svg width="20" height="20" viewBox="0 0 20 20" fill="none" xmlns="http://www.w3.org/2000/svg">
    <path d="M10 3.5C13.8596 3.5 17 6.41606 17 10C17 11.2496 16.6229 12.4497 15.908 13.484L16.9685 15.9426C17.0003 16.0166 17.008 16.0975 16.9908 16.1755C16.9735 16.2535 16.932 16.3251 16.8714 16.3814C16.7894 16.4573 16.6783 16.5 16.5625 16.5C16.5074 16.5 16.4531 16.4902 16.3997 16.4707L13.752 15.486C12.6381 16.1498 11.3457 16.5 10 16.5C6.14038 16.5 3 13.5839 3 10C3 6.41606 6.14038 3.5 10 3.5ZM10 15.6875C11.2477 15.6875 12.4421 15.3446 13.4528 14.6954C13.5263 14.6475 13.6137 14.6231 13.7013 14.6231C13.7564 14.6231 13.8115 14.6329 13.864 14.6524L15.7767 15.3641L15.0103 13.588C14.956 13.4613 14.9735 13.3174 15.0566 13.2061C15.7558 12.2677 16.125 11.1586 16.125 10C16.125 6.86375 13.3775 4.3125 10 4.3125C6.6225 4.3125 3.875 6.86375 3.875 10C3.875 13.1362 6.6225 15.6875 10 15.6875Z" fill="#545454"/>
</svg>
