<svg width="25" height="24" viewBox="0 0 25 24" fill="none" xmlns="http://www.w3.org/2000/svg">
    <path d="M3.79315 16.705C3.76934 16.6619 3.73727 16.6239 3.69877 16.5932C3.66027 16.5624 3.6161 16.5396 3.56878 16.526C3.52146 16.5123 3.47191 16.5081 3.42296 16.5136C3.37402 16.5191 3.32664 16.5342 3.28352 16.558C3.24041 16.5818 3.2024 16.6139 3.17168 16.6524C3.14096 16.6909 3.11813 16.735 3.10448 16.7824C3.07691 16.8779 3.08843 16.9806 3.13652 17.0676C7.04027 24.2676 17.628 24.2658 21.5303 17.0676C21.5755 16.9808 21.585 16.8798 21.5567 16.7861C21.5285 16.6924 21.4647 16.6135 21.3791 16.5662C21.2934 16.5188 21.1926 16.5069 21.0983 16.5328C21.0039 16.5587 20.9234 16.6205 20.874 16.705C20.032 18.2331 18.7954 19.5073 17.2931 20.3947C15.7909 21.2821 14.0781 21.7502 12.3334 21.7502C10.5887 21.7502 8.87587 21.2821 7.37366 20.3947C5.87144 19.5073 4.6352 18.2331 3.79315 16.705ZM19.7284 5.65488C19.793 5.73047 19.8851 5.77728 19.9842 5.78501C20.0834 5.79275 20.1816 5.76078 20.2571 5.69613C20.3327 5.63148 20.3795 5.53946 20.3873 5.4403C20.395 5.34114 20.363 5.24297 20.2984 5.16738C16.2863 0.310756 8.38015 0.311131 4.3684 5.16813C4.30653 5.24405 4.27683 5.34116 4.28563 5.4387C4.29442 5.53624 4.34103 5.62646 4.41548 5.69009C4.48993 5.75371 4.58632 5.78569 4.68403 5.77918C4.78175 5.77267 4.87304 5.72819 4.9384 5.65526C8.66365 1.14588 16.0035 1.14663 19.7284 5.65526V5.65488Z" fill="#333333"/>
    <path d="M7.42992 5.36875C7.35006 5.42803 7.29701 5.5166 7.28245 5.61499C7.2679 5.71337 7.29302 5.81351 7.35229 5.89337C7.41157 5.97324 7.50014 6.02628 7.59853 6.04084C7.69692 6.0554 7.79706 6.03028 7.87692 5.971C9.16782 5.01917 10.7296 4.50566 12.3334 4.50566C13.9373 4.50566 15.499 5.01917 16.7899 5.971C16.8698 6.03028 16.9699 6.0554 17.0683 6.04084C17.1667 6.02628 17.2553 5.97324 17.3145 5.89337C17.3738 5.81351 17.3989 5.71337 17.3844 5.61499C17.3698 5.5166 17.3168 5.42803 17.2369 5.36875C15.8166 4.32125 14.0982 3.7561 12.3334 3.7561C10.5686 3.7561 8.85021 4.32125 7.42992 5.36875ZM12.3334 20.2499C13.5776 20.2524 14.806 19.9718 15.9257 19.4294C17.0454 18.887 18.027 18.0969 18.7962 17.119C18.8579 17.041 18.8862 16.9417 18.8747 16.8429C18.8633 16.7441 18.813 16.6539 18.735 16.5921C18.6571 16.5304 18.5578 16.5021 18.4589 16.5136C18.3601 16.525 18.2699 16.5753 18.2082 16.6532C15.3319 20.4246 9.33454 20.4242 6.45867 16.6532C6.39691 16.5753 6.3067 16.525 6.20789 16.5136C6.10908 16.5021 6.00977 16.5304 5.93179 16.5921C5.85382 16.6539 5.80358 16.7441 5.79211 16.8429C5.78065 16.9417 5.80891 17.041 5.87067 17.119C6.63986 18.0969 7.62146 18.887 8.74115 19.4294C9.86084 19.9718 11.0893 20.2524 12.3334 20.2499Z" fill="#333333"/>
    <path d="M2.03139 12.9628C1.89947 13.2134 1.83411 13.4936 1.84158 13.7767C1.84904 14.0598 1.92908 14.3363 2.07402 14.5796C2.21897 14.8229 2.42396 15.0248 2.66936 15.1662C2.91476 15.3075 3.19234 15.3835 3.47552 15.3868H7.64852C7.64708 15.6343 7.69444 15.8797 7.78786 16.1089C7.88129 16.3381 8.01897 16.5466 8.19302 16.7226C8.36708 16.8985 8.5741 17.0385 8.80227 17.1344C9.03043 17.2304 9.27526 17.2804 9.52277 17.2817H15.144C15.3918 17.2815 15.6372 17.2322 15.8658 17.1366C16.0945 17.0411 16.3019 16.9012 16.4762 16.725C16.6505 16.5488 16.7881 16.3398 16.8812 16.1101C16.9742 15.8804 17.0208 15.6346 17.0183 15.3868H21.1913C21.4744 15.3835 21.752 15.3075 21.9974 15.1662C22.2428 15.0248 22.4478 14.8229 22.5928 14.5796C22.7377 14.3363 22.8177 14.0598 22.8252 13.7767C22.8327 13.4936 22.7673 13.2134 22.6354 12.9628C22.1227 12.0131 21.2739 11.289 20.2553 10.9325C20.54 10.7132 20.7706 10.4315 20.9294 10.109C21.0881 9.78654 21.1708 9.43196 21.171 9.07254C21.0593 5.95629 16.5735 5.95629 16.4621 9.07254C16.4624 9.43202 16.5452 9.78664 16.7041 10.1091C16.863 10.4316 17.0938 10.7133 17.3786 10.9325C16.4594 11.2564 15.6767 11.8815 15.1575 12.7063C14.7684 12.4449 14.3449 12.2389 13.899 12.0943C14.255 11.8439 14.5455 11.5116 14.7462 11.1255C14.9469 10.7393 15.0518 10.3106 15.0521 9.87541C14.9246 6.27841 9.74214 6.27729 9.61464 9.87541C9.61497 10.3106 9.7199 10.7393 9.92058 11.1255C10.1213 11.5116 10.4118 11.8439 10.7678 12.0943C10.3218 12.2389 9.89809 12.4449 9.50889 12.7063C8.98881 11.8825 8.20654 11.2579 7.28814 10.9329C7.57301 10.7136 7.80376 10.4319 7.96266 10.1095C8.12155 9.78702 8.20433 9.4324 8.20464 9.07291C8.09664 5.95966 3.60564 5.95479 3.49577 9.07291C3.49604 9.43227 3.57874 9.78678 3.7375 10.1092C3.89625 10.4316 4.12684 10.7132 4.41152 10.9325C3.39287 11.2891 2.54406 12.0131 2.03139 12.9628ZM17.2121 9.07254C17.2186 8.65126 17.3905 8.24942 17.6906 7.95379C17.9908 7.65815 18.3953 7.49244 18.8166 7.49244C19.2379 7.49244 19.6423 7.65815 19.9425 7.95379C20.2427 8.24942 20.4146 8.65126 20.421 9.07254C20.4146 9.49381 20.2427 9.89566 19.9425 10.1913C19.6423 10.4869 19.2379 10.6526 18.8166 10.6526C18.3953 10.6526 17.9908 10.4869 17.6906 10.1913C17.3905 9.89566 17.2186 9.49381 17.2121 9.07254ZM18.8138 11.4272C19.4625 11.4266 20.0993 11.6023 20.6561 11.9353C21.2128 12.2684 21.6687 12.7464 21.975 13.3183C22.0468 13.4545 22.0824 13.6068 22.0785 13.7606C22.0745 13.9145 22.0312 14.0648 21.9525 14.1971C21.8739 14.3294 21.7626 14.4393 21.6293 14.5163C21.496 14.5933 21.3452 14.6348 21.1913 14.6368H16.8518C16.582 14.0817 16.208 13.5836 15.75 13.1698C16.0675 12.6402 16.5164 12.2015 17.0531 11.8962C17.5898 11.591 18.1963 11.4294 18.8138 11.4272ZM10.365 9.87541C10.4475 7.27366 14.2196 7.27441 14.3018 9.87541C14.2193 12.4772 10.4471 12.4768 10.365 9.87541ZM16.1336 14.8667C16.2245 15.0386 16.2697 15.231 16.2648 15.4253C16.26 15.6197 16.2052 15.8096 16.1059 15.9768C16.0065 16.1439 15.8659 16.2828 15.6975 16.3799C15.529 16.4771 15.3385 16.5293 15.144 16.5317H9.52277C9.32755 16.5313 9.13576 16.4803 8.96616 16.3837C8.79656 16.287 8.65495 16.148 8.55518 15.9802C8.45541 15.8124 8.4009 15.6215 8.39697 15.4264C8.39304 15.2312 8.43983 15.0383 8.53277 14.8667C10.1048 11.8584 14.5624 11.8588 16.1336 14.8667ZM4.24577 9.07291C4.25221 8.65164 4.42408 8.2498 4.72427 7.95416C5.02446 7.65853 5.42888 7.49282 5.8502 7.49282C6.27153 7.49282 6.67595 7.65853 6.97614 7.95416C7.27633 8.2498 7.4482 8.65164 7.45464 9.07291C7.4482 9.49419 7.27633 9.89603 6.97614 10.1917C6.67595 10.4873 6.27153 10.653 5.8502 10.653C5.42888 10.653 5.02446 10.4873 4.72427 10.1917C4.42408 9.89603 4.25221 9.49419 4.24577 9.07291ZM5.84702 11.4272C6.46545 11.4289 7.07295 11.5903 7.61074 11.8956C8.14853 12.201 8.59838 12.64 8.91677 13.1702C8.45888 13.5839 8.08483 14.0818 7.81502 14.6368H3.47589C3.32198 14.6348 3.17116 14.5933 3.03788 14.5163C2.90459 14.4393 2.79329 14.3294 2.71464 14.1971C2.63599 14.0648 2.59262 13.9145 2.58868 13.7606C2.58474 13.6068 2.62037 13.4545 2.69214 13.3183C2.99796 12.7473 3.45283 12.27 4.00836 11.937C4.5639 11.604 5.19932 11.4278 5.84702 11.4272Z" fill="#333333"/>
</svg>
