<svg width="24" height="24" viewBox="0 0 24 24" fill="none" xmlns="http://www.w3.org/2000/svg">
    <g clip-path="url(#clip0_1527_2466)">
        <path d="M10.7856 4.41568C10.7288 4.41576 10.6727 4.40244 10.622 4.37681C10.5713 4.35117 10.5273 4.31393 10.4936 4.26811C10.1643 3.82065 9.57827 3.30732 8.6561 3.4058C7.57043 3.52144 6.76418 3.17593 6.27893 2.86575C6.19919 2.8135 6.14327 2.73191 6.1233 2.63869C6.10333 2.54547 6.12093 2.44814 6.17227 2.36781C6.22361 2.28747 6.30456 2.23063 6.39755 2.2096C6.49054 2.18858 6.58807 2.20506 6.66897 2.25549C7.05658 2.50318 7.70266 2.77913 8.57941 2.68557C9.9101 2.54429 10.7154 3.34735 11.077 3.83883C11.1167 3.89276 11.1407 3.95663 11.1462 4.02335C11.1518 4.09008 11.1388 4.15704 11.1086 4.2168C11.0784 4.27657 11.0322 4.3268 10.9752 4.3619C10.9182 4.39701 10.8526 4.41562 10.7856 4.41568Z" fill="#FFD064"/>
        <path d="M6.99406 6.33922C6.92726 6.33924 6.86178 6.32069 6.80492 6.28564C6.76439 6.26076 6.72915 6.22814 6.70123 6.18965C6.6733 6.15115 6.65323 6.10753 6.64217 6.06127C6.6311 6.01502 6.62926 5.96704 6.63674 5.92007C6.64422 5.87311 6.66088 5.82807 6.68576 5.78755C7.14997 5.03131 8.00065 4.51156 9.1459 4.2845C9.98094 4.11898 10.6816 4.16431 10.7109 4.16637C10.7584 4.16962 10.8047 4.18219 10.8473 4.20335C10.8899 4.22451 10.9279 4.25385 10.9591 4.2897C10.9904 4.32555 11.0143 4.36721 11.0294 4.41229C11.0446 4.45737 11.0507 4.50499 11.0474 4.55244C11.0337 4.75184 10.8605 4.90137 10.6618 4.889C10.6367 4.88731 8.17761 4.74153 7.30301 6.16644C7.27062 6.21929 7.2252 6.26293 7.17111 6.29318C7.11701 6.32344 7.05604 6.33929 6.99406 6.33922Z" fill="#FFD064"/>
        <path d="M12.4529 20.2161C18.4004 20.2161 21.6891 11.4922 12.297 4.75425C12.0634 4.58662 11.9246 4.31677 11.9277 4.02923C11.9307 3.79172 12.0053 3.56064 12.1419 3.36628C12.5816 2.73839 13.2145 1.6643 13.594 0.799172C13.6849 0.591984 13.5548 0.369141 13.3117 0.369141C12.7475 0.369187 12.7475 0 12.1834 0C11.6193 0 11.6193 0.369187 11.0551 0.369187C10.5743 0.369187 10.3771 -0.0444375 10.1434 0.256406C9.4617 1.13372 11.7965 4.21889 11.7965 4.21889C1.48517 10.9975 4.80987 20.2162 10.8978 20.2162H12.4529V20.2161Z" fill="#EABC6B"/>
        <path d="M14.7909 4.21884C14.7909 4.21884 17.1603 1.14366 16.479 0.261516C16.2468 -0.0391406 16.0488 0.369188 15.5685 0.369188C15.0043 0.369141 15.0043 0 14.4401 0C13.8759 0 13.8759 0.369141 13.3117 0.369141C13.2839 0.369141 13.2585 0.367594 13.2334 0.365859C13.0067 1.33758 11.9851 2.85141 11.4005 3.66197C11.6307 3.9998 11.7965 4.2188 11.7965 4.2188C11.6606 4.30826 11.5256 4.39914 11.3916 4.49142C21.2434 11.2629 17.947 20.2161 11.9218 20.2161H15.7261C21.8324 20.2161 25.1366 11.02 14.7909 4.21884Z" fill="#E8AE4D"/>
        <path d="M15.2315 5.31271C13.8547 5.66043 12.4946 5.66043 11.1176 5.31271C10.6383 5.19168 10.3666 4.65276 10.5391 4.16287L10.5448 4.14641C10.6894 3.7357 11.0996 3.50521 11.5015 3.60613C12.6289 3.88916 13.7198 3.88926 14.8475 3.60613C15.2494 3.50521 15.6596 3.7357 15.8042 4.14641L15.8099 4.16287C15.9824 4.65276 15.7107 5.19168 15.2315 5.31271Z" fill="#FFE07D"/>
        <path d="M2.28641 21.7977L7.52966 23.7492C7.97497 23.915 8.44631 23.9999 8.92147 23.9999H14.325C15.0812 23.9999 15.8219 23.785 16.4606 23.3802L23.2264 19.0931C23.6728 18.6967 23.7555 18.0306 23.4197 17.537C23.0523 16.997 22.4444 16.9032 21.7756 17.2195L15.1884 20.1198L15.1962 19.0511C15.109 18.1739 14.4335 17.4699 13.5607 17.3464L9.54936 16.8845C8.624 16.7536 8.16163 16.4435 7.35491 15.9716C6.25356 15.3274 5.00061 14.9878 3.72467 14.9878H2.28641V21.7977Z" fill="#FFDDCE"/>
        <path d="M7.21124 22.7094C7.67938 22.8836 8.17488 22.9728 8.67439 22.9729H14.355C14.9575 22.9727 15.553 22.8428 16.1008 22.5919L20.0729 20.0749C20.4419 19.841 20.6762 19.434 20.6642 18.9972C20.6577 18.7587 20.5828 18.5271 20.4484 18.33C20.4484 18.33 20.3274 18.1227 20.2032 17.9118L15.1884 20.1198L15.1962 19.0511C15.109 18.1739 14.4335 17.4699 13.5607 17.3464L9.54936 16.8845C8.624 16.7536 8.16163 16.4435 7.35491 15.9716C6.25356 15.3274 5.00061 14.9878 3.72467 14.9878H2.28641V20.8763L7.21124 22.7094Z" fill="#FFDDCE"/>
        <path d="M23.4197 17.5371C23.0522 16.9971 22.4444 16.9032 21.7755 17.2195L19.9637 18.0172C20.0514 18.1561 20.1212 18.267 20.1212 18.267C20.457 18.7605 20.3743 19.4266 19.9279 19.823L15.9856 22.3211C15.4645 22.5598 14.8981 22.6834 14.3249 22.6835H8.92147C8.44631 22.6835 7.97497 22.5986 7.52966 22.4328L2.28641 20.4812V21.7976L7.52966 23.7493C7.97497 23.915 8.44631 23.9999 8.92147 23.9999H14.3251C15.0813 23.9999 15.8219 23.785 16.4607 23.3803L23.2265 19.0931C23.6728 18.6967 23.7555 18.0306 23.4197 17.5371Z" fill="#FFCBBE"/>
        <path d="M14.7044 17.9502L14.7042 17.976L14.7212 17.9685C14.7157 17.9623 14.71 17.9563 14.7044 17.9502Z" fill="#F5DBCC"/>
        <path d="M15.1884 20.1193H11.0925C10.8925 20.1193 10.7303 19.9572 10.7303 19.7572C10.7303 19.5571 10.8924 19.395 11.0925 19.395H15.1937L15.1884 20.1193Z" fill="#FFCBBE"/>
        <path d="M3.41464 22.8421C3.41464 23.2225 3.10625 23.5309 2.72581 23.5309H1.06334C0.682902 23.5309 0.374512 23.2225 0.374512 22.8421V14.4076C0.374512 14.0271 0.682902 13.7188 1.06334 13.7188H2.72581C3.10625 13.7188 3.41464 14.0271 3.41464 14.4076V22.8421Z" fill="#407093"/>
        <path d="M14.0914 11.2231C13.9375 11.1689 13.7844 11.1126 13.6321 11.0543V8.74523C14.0604 8.81625 14.3176 9.03783 14.3364 9.05456C14.4072 9.11887 14.5004 9.1526 14.5959 9.1484C14.6914 9.14419 14.7814 9.10239 14.8462 9.03211C14.8784 8.99715 14.9035 8.95619 14.9199 8.91155C14.9363 8.86691 14.9438 8.81948 14.9419 8.77196C14.9399 8.72444 14.9287 8.67776 14.9087 8.6346C14.8888 8.59143 14.8605 8.55262 14.8255 8.52038C14.8001 8.4968 14.3565 8.09723 13.632 8.0138V7.49887C13.632 7.29886 13.4699 7.13672 13.2699 7.13672C13.0698 7.13672 12.9077 7.29881 12.9077 7.49887V8.04314C12.8171 8.06039 12.7274 8.08231 12.639 8.10881C12.0247 8.29383 11.5655 8.82061 11.4406 9.48347C11.3272 10.085 11.5179 10.6635 11.9383 10.9932C12.1796 11.1825 12.4835 11.3557 12.9077 11.541V14.4052C12.4886 14.3876 12.2312 14.3086 11.7814 14.0144C11.7416 13.9884 11.697 13.9704 11.6503 13.9616C11.6036 13.9528 11.5556 13.9533 11.509 13.963C11.4625 13.9727 11.4183 13.9915 11.379 14.0183C11.3397 14.0451 11.3061 14.0794 11.2801 14.1192C11.2541 14.159 11.2361 14.2035 11.2273 14.2503C11.2185 14.297 11.2189 14.345 11.2287 14.3916C11.2384 14.4381 11.2572 14.4823 11.284 14.5216C11.3108 14.5609 11.3451 14.5945 11.3849 14.6205C11.9761 15.0073 12.3713 15.1081 12.9077 15.129V15.7039C12.9077 15.9039 13.0698 16.066 13.2699 16.066C13.4699 16.066 13.632 15.9039 13.632 15.7039V15.1035C14.6487 14.9386 15.2419 14.1157 15.3709 13.3481C15.5323 12.389 15.0299 11.5549 14.0914 11.2231ZM12.3853 10.4232C12.1785 10.2611 12.0893 9.95236 12.1524 9.61758C12.2109 9.30713 12.4244 8.92992 12.848 8.80233C12.8682 8.79623 12.888 8.79098 12.9078 8.78569V10.7419C12.6909 10.6337 12.5209 10.5295 12.3853 10.4232ZM14.6567 13.2279C14.5768 13.7032 14.228 14.2105 13.6321 14.3632V11.8276C13.7025 11.8534 13.7745 11.8794 13.8499 11.906C14.7512 12.2246 14.6953 12.9983 14.6567 13.2279Z" fill="white"/>
    </g>
    <defs>
        <clipPath id="clip0_1527_2466">
            <rect width="24" height="24" fill="white"/>
        </clipPath>
    </defs>
</svg>
