<svg width="16" height="16" viewBox="0 0 16 16" fill="none" xmlns="http://www.w3.org/2000/svg">
    <g clip-path="url(#clip0_668_5307)">
        <path d="M11.6353 15.9996C11.5233 15.9996 11.4087 15.9856 11.2953 15.9556L0.986661 13.195C0.646786 13.1006 0.357551 12.8766 0.181238 12.5711C0.00492505 12.2656 -0.0443607 11.9031 0.0439939 11.5616L1.34466 6.71363C1.36863 6.62954 1.42469 6.55823 1.50074 6.51509C1.57679 6.47194 1.66676 6.46041 1.75123 6.48297C1.83571 6.50553 1.90794 6.56038 1.95235 6.6357C1.99677 6.71103 2.00981 6.80078 1.98866 6.88563L0.688661 11.7323C0.595994 12.0856 0.807994 12.4536 1.16199 12.5516L11.4667 15.311C11.6365 15.3562 11.8173 15.3321 11.9694 15.2441C12.1215 15.1561 12.2325 15.0114 12.278 14.8416L12.7987 12.9123C12.81 12.87 12.8296 12.8304 12.8563 12.7957C12.883 12.761 12.9163 12.7318 12.9543 12.71C12.9922 12.6881 13.0341 12.674 13.0775 12.6683C13.1209 12.6626 13.165 12.6656 13.2073 12.677C13.2496 12.6883 13.2892 12.7079 13.324 12.7346C13.3587 12.7613 13.3878 12.7946 13.4096 12.8326C13.4315 12.8705 13.4456 12.9124 13.4513 12.9558C13.457 12.9992 13.454 13.0433 13.4427 13.0856L12.9227 15.0123C12.8469 15.2957 12.6796 15.5462 12.4468 15.7247C12.214 15.9032 11.9287 15.9999 11.6353 15.9996Z" fill="white"/>
        <path d="M14.6667 11.9997H3.99999C3.26466 11.9997 2.66666 11.4017 2.66666 10.6663V2.66634C2.66666 1.93101 3.26466 1.33301 3.99999 1.33301H14.6667C15.402 1.33301 16 1.93101 16 2.66634V10.6663C16 11.4017 15.402 11.9997 14.6667 11.9997ZM3.99999 1.99967C3.63266 1.99967 3.33332 2.29901 3.33332 2.66634V10.6663C3.33332 11.0337 3.63266 11.333 3.99999 11.333H14.6667C15.034 11.333 15.3333 11.0337 15.3333 10.6663V2.66634C15.3333 2.29901 15.034 1.99967 14.6667 1.99967H3.99999Z" fill="white"/>
        <path d="M5.99999 5.99967C5.26466 5.99967 4.66666 5.40167 4.66666 4.66634C4.66666 3.93101 5.26466 3.33301 5.99999 3.33301C6.73532 3.33301 7.33332 3.93101 7.33332 4.66634C7.33332 5.40167 6.73532 5.99967 5.99999 5.99967ZM5.99999 3.99967C5.63266 3.99967 5.33332 4.29901 5.33332 4.66634C5.33332 5.03367 5.63266 5.33301 5.99999 5.33301C6.36732 5.33301 6.66666 5.03367 6.66666 4.66634C6.66666 4.29901 6.36732 3.99967 5.99999 3.99967ZM3.04666 11.2863C2.98078 11.2863 2.91639 11.2668 2.8616 11.2302C2.80682 11.1936 2.76411 11.1416 2.73885 11.0808C2.7136 11.0199 2.70695 10.953 2.71973 10.8883C2.73251 10.8237 2.76415 10.7643 2.81066 10.7177L5.95932 7.56901C6.33666 7.19167 6.99599 7.19167 7.37332 7.56901L8.31066 8.50634L10.9053 5.39301C10.9985 5.28131 11.1148 5.19125 11.2463 5.12908C11.3778 5.06691 11.5212 5.03412 11.6667 5.03301H11.674C11.8182 5.03293 11.9608 5.06405 12.0918 5.12423C12.2229 5.18442 12.3394 5.27224 12.4333 5.38167L15.92 9.44967C15.949 9.48282 15.9712 9.5214 15.9853 9.56318C15.9993 9.60496 16.005 9.64911 16.0018 9.69307C15.9987 9.73704 15.9869 9.77995 15.9671 9.81932C15.9473 9.85869 15.9198 9.89374 15.8864 9.92244C15.8529 9.95113 15.8141 9.97291 15.7722 9.98651C15.7302 10.0001 15.686 10.0052 15.6421 10.0016C15.5982 9.99803 15.5554 9.98575 15.5162 9.9655C15.4771 9.94525 15.4423 9.91744 15.414 9.88367L11.9273 5.81567C11.8961 5.77903 11.8573 5.74966 11.8135 5.72963C11.7697 5.70959 11.7221 5.69936 11.674 5.69967C11.6254 5.70097 11.5775 5.7123 11.5335 5.73295C11.4894 5.7536 11.4501 5.78313 11.418 5.81967L8.58932 9.21367C8.55966 9.24932 8.52286 9.27835 8.4813 9.2989C8.43973 9.31945 8.39432 9.33107 8.34799 9.33301C8.30165 9.3359 8.25524 9.32869 8.21196 9.31188C8.16868 9.29508 8.12957 9.26908 8.09732 9.23567L6.90199 8.04034C6.83834 7.98004 6.754 7.94643 6.66632 7.94643C6.57865 7.94643 6.49431 7.98004 6.43066 8.04034L3.28199 11.189C3.2511 11.2199 3.21441 11.2444 3.17403 11.2611C3.13364 11.2778 3.09036 11.2864 3.04666 11.2863Z" fill="white"/>
    </g>
    <defs>
        <clipPath id="clip0_668_5307">
            <rect width="16" height="16" fill="white"/>
        </clipPath>
    </defs>
</svg>
