<svg width="24" height="24" viewBox="0 0 24 24" fill="none" xmlns="http://www.w3.org/2000/svg">
    <g clip-path="url(#clip0_303_5749)">
        <path d="M23.6438 11.151L12.8438 0.351C12.3758 -0.117 11.6138 -0.117 11.1518 0.351L0.351793 11.151C-0.116206 11.619 -0.116206 12.381 0.351793 12.849L11.1518 23.643V23.649C11.6198 24.117 12.3818 24.117 12.8498 23.649L23.6498 12.849C24.1177 12.375 24.1177 11.619 23.6438 11.151ZM14.3977 14.997V11.997H9.59777V15.597H7.19775V10.797C7.1972 10.6393 7.22786 10.483 7.28797 10.3371C7.34808 10.1913 7.43645 10.0588 7.54799 9.94727C7.65953 9.83573 7.79203 9.74736 7.93787 9.68725C8.0837 9.62714 8.23999 9.59648 8.39773 9.59703H14.3977V6.59699L18.5978 10.797L14.3977 14.997Z" fill="#3A79BB"/>
    </g>
    <defs>
        <clipPath id="clip0_303_5749">
            <rect width="23.9992" height="24" fill="white" transform="translate(0.000793457)"/>
        </clipPath>
    </defs>
</svg>
