<svg width="24" height="24" viewBox="0 0 24 24" fill="none" xmlns="http://www.w3.org/2000/svg">
    <g clip-path="url(#clip0_1473_1335)">
        <path d="M1.21847 7.73538C1.21847 7.73538 0.738465 7.44 1.1077 7.44C3.17539 7.2923 10.7815 7.66153 10.7815 9.17538C10.7815 11.1323 4.09846 11.5015 6.01846 13.3477C7.93846 15.1938 16.9846 17.1138 16.9846 17.1138L18.4615 23.8338C18.4615 23.8338 -1.95692 19.6246 0.369235 14.4923C1.84616 11.2431 7.49539 10.5415 7.49539 9.32307C7.49539 8.03076 1.21847 7.73538 1.21847 7.73538Z" fill="url(#paint0_linear_1473_1335)"/>
        <path d="M0.59082 0.166138H1.40313V7.73537H0.59082V0.166138Z" fill="url(#paint1_linear_1473_1335)"/>
        <path d="M5.90769 2.97226H1.40308V0.461487H5.90769L4.94769 1.71687L5.90769 2.97226ZM23.8154 13.9015C23.8154 16.8553 18.4615 23.7969 18.4615 23.7969C18.4615 23.7969 13.1077 16.8553 13.1077 13.9015C13.1077 10.9476 15.5077 8.54764 18.4615 8.54764C21.4154 8.54764 23.8154 10.9476 23.8154 13.9015Z" fill="url(#paint2_linear_1473_1335)"/>
        <path d="M18.4616 16.5231C19.9095 16.5231 21.0832 15.3494 21.0832 13.9016C21.0832 12.4537 19.9095 11.28 18.4616 11.28C17.0138 11.28 15.8401 12.4537 15.8401 13.9016C15.8401 15.3494 17.0138 16.5231 18.4616 16.5231Z" fill="#EFF3F5"/>
    </g>
    <defs>
        <linearGradient id="paint0_linear_1473_1335" x1="0.18457" y1="15.2396" x2="18.4635" y2="15.4081" gradientUnits="userSpaceOnUse">
            <stop stop-color="#0061FF"/>
            <stop offset="1" stop-color="#60EFFF"/>
        </linearGradient>
        <linearGradient id="paint1_linear_1473_1335" x1="0.59082" y1="3.77455" x2="1.40328" y2="3.77527" gradientUnits="userSpaceOnUse">
            <stop stop-color="#D38656"/>
            <stop offset="1" stop-color="#F9AC69"/>
        </linearGradient>
        <linearGradient id="paint2_linear_1473_1335" x1="1.40308" y1="11.5859" x2="23.8183" y2="11.7643" gradientUnits="userSpaceOnUse">
            <stop stop-color="#FF0F43"/>
            <stop offset="1" stop-color="#F84829"/>
        </linearGradient>
        <clipPath id="clip0_1473_1335">
            <rect width="24" height="24" fill="white"/>
        </clipPath>
    </defs>
</svg>
