<svg width="16" height="16" viewBox="0 0 16 16" fill="none" xmlns="http://www.w3.org/2000/svg">
    <path d="M13.97 0.87482C13.1367 0.0430288 11.7873 0.0430288 10.9541 0.87482L10.1991 1.63392L2.16267 9.6661L2.14559 9.68328C2.14149 9.68745 2.14149 9.69182 2.13705 9.69182C2.12851 9.70463 2.1157 9.71733 2.10733 9.73014C2.10733 9.73441 2.10289 9.73441 2.10289 9.73868C2.09435 9.75149 2.09026 9.76003 2.08154 9.77284C2.07745 9.77711 2.07745 9.78124 2.07314 9.78565C2.06887 9.79846 2.0646 9.807 2.0602 9.81981C2.0602 9.82391 2.0561 9.82391 2.0561 9.82835L0.272994 15.1901C0.247353 15.2649 0.243354 15.3454 0.26146 15.4224C0.279565 15.4993 0.319038 15.5696 0.375333 15.6251C0.45598 15.7048 0.564864 15.7493 0.678215 15.749C0.724534 15.7481 0.770443 15.7409 0.814712 15.7276L6.17239 13.9403C6.17652 13.9403 6.17652 13.9403 6.18093 13.9362C6.19442 13.9322 6.2073 13.9264 6.21922 13.9189C6.22248 13.9185 6.22552 13.9171 6.2279 13.9148C6.24057 13.9063 6.25765 13.8976 6.27046 13.889C6.28313 13.8806 6.29608 13.8679 6.30889 13.8593C6.31315 13.8549 6.31729 13.8549 6.31729 13.8508C6.32173 13.8465 6.33027 13.8423 6.3345 13.8337L15.1259 5.04228C15.9577 4.20902 15.9577 2.85963 15.1259 2.02647L13.97 0.87482ZM6.03593 12.9378L3.06708 9.96912L10.4977 2.53847L13.4666 5.50718L6.03593 12.9378ZM2.64892 10.7582L5.24256 13.3517L1.34796 14.6484L2.64892 10.7582ZM14.5246 4.44506L14.0724 4.90151L11.1034 1.93257L11.56 1.47621C12.0594 0.977193 12.8689 0.977193 13.3685 1.47621L14.5287 2.63644C15.0244 3.13812 15.0225 3.94576 14.5246 4.44506Z" fill="#333333"/>
</svg>
