<svg width="24" height="24" viewBox="0 0 24 24" fill="none" xmlns="http://www.w3.org/2000/svg">
    <g clip-path="url(#clip0_1065_4290)">
        <path d="M4.58991 21.1093C4.7341 20.5958 5.26711 20.2962 5.78091 20.4406L6.16941 20.5496L6.95827 21.6688C7.58232 22.5542 8.60476 23.0707 9.6683 23.0707C9.71002 23.0707 9.75174 23.0696 9.79355 23.068C9.51999 23.1141 9.24306 23.1372 8.96565 23.1371C8.48532 23.1371 7.99721 23.0693 7.51308 22.9333L5.25872 22.3003C4.74516 22.1561 4.44572 21.6229 4.58991 21.1093Z" fill="url(#paint0_linear_1065_4290)"/>
        <path d="M4.58991 21.1093C4.7341 20.5958 5.26711 20.2962 5.78091 20.4406L6.16941 20.5496L6.95827 21.6688C7.58232 22.5542 8.60476 23.0707 9.6683 23.0707C9.71002 23.0707 9.75174 23.0696 9.79355 23.068C9.51999 23.1141 9.24306 23.1372 8.96565 23.1371C8.48532 23.1371 7.99721 23.0693 7.51308 22.9333L5.25872 22.3003C4.74516 22.1561 4.44572 21.6229 4.58991 21.1093Z" fill="url(#paint1_linear_1065_4290)"/>
        <path d="M4.58991 21.1093C4.7341 20.5958 5.26711 20.2962 5.78091 20.4406L6.16941 20.5496L6.95827 21.6688C7.58232 22.5542 8.60476 23.0707 9.6683 23.0707C9.71002 23.0707 9.75174 23.0696 9.79355 23.068C9.51999 23.1141 9.24306 23.1372 8.96565 23.1371C8.48532 23.1371 7.99721 23.0693 7.51308 22.9333L5.25872 22.3003C4.74516 22.1561 4.44572 21.6229 4.58991 21.1093Z" fill="url(#paint2_linear_1065_4290)"/>
        <path d="M11.5561 16.6542C12.3696 17.1923 13.2861 17.5555 14.2474 17.7206C14.4105 17.7491 14.5769 17.7597 14.7419 17.7574C15.3078 17.7514 16.7485 17.7435 17.2179 17.8302C17.222 17.8306 17.285 17.8432 17.3116 17.8488C17.8858 17.9737 18.3976 18.299 18.7728 18.7517L19.2314 19.3045C19.3 19.3874 19.3538 19.4815 19.3904 19.5827C19.4289 19.6886 19.4478 19.8006 19.4462 19.9133C19.4436 20.076 19.3752 20.2309 19.2601 20.346L17.0022 22.6039C16.3507 23.2555 15.4986 23.6687 14.5835 23.7767C13.8162 23.8672 12.6614 24 12.4842 24C11.5077 24 10.5578 23.5665 9.92201 22.7937L8.52556 21.0957C8.18623 20.6841 8.2459 20.0749 8.65747 19.7361C9.0695 19.3972 9.67775 19.4564 10.0171 19.8685L10.6006 20.5779C11.035 20.35 11.4228 20.0409 11.7593 19.6522L11.8703 19.524C11.3203 19.1886 10.7894 18.8229 10.28 18.4287C9.79334 18.0516 9.716 17.3459 10.107 16.8705C10.1511 16.8167 10.2004 16.7673 10.2543 16.7232C10.6183 16.4202 11.1474 16.3834 11.5561 16.6542Z" fill="url(#paint3_linear_1065_4290)"/>
        <path d="M10.2798 18.4285C10.7894 18.8228 11.3203 19.1886 11.8702 19.5244L11.7594 19.6519C11.4229 20.0409 11.0348 20.3503 10.6009 20.5783L11.4143 21.5669C11.4831 21.6504 11.5615 21.7255 11.6479 21.7905C12.3465 20.0384 13.7541 18.6919 17.6712 19.0591C18.17 19.1058 18.662 19.1042 19.1359 19.1896L18.7728 18.7522C18.3976 18.2993 17.8859 17.9739 17.3115 17.849C17.2849 17.843 17.2222 17.8309 17.218 17.8301C16.7484 17.7434 15.3082 17.7511 14.742 17.7575C14.5767 17.7597 14.4106 17.749 14.2475 17.7206C13.2862 17.5555 12.3697 17.1923 11.5564 16.6539C11.1473 16.3834 10.6185 16.4203 10.254 16.723C10.2005 16.7672 10.1513 16.8165 10.1072 16.8702C9.71614 17.3455 9.79297 18.0516 10.2798 18.4285Z" fill="url(#paint4_linear_1065_4290)"/>
        <path d="M10.2798 18.4285C10.7894 18.8228 11.3203 19.1886 11.8702 19.5244L11.7594 19.6519C11.4229 20.0409 11.0348 20.3503 10.6009 20.5783L11.4143 21.5669C11.4831 21.6504 11.5615 21.7255 11.6479 21.7905C12.3465 20.0384 13.7541 18.6919 17.6712 19.0591C18.17 19.1058 18.662 19.1042 19.1359 19.1896L18.7728 18.7522C18.3976 18.2993 17.8859 17.9739 17.3115 17.849C17.2849 17.843 17.2222 17.8309 17.218 17.8301C16.7484 17.7434 15.3082 17.7511 14.742 17.7575C14.5767 17.7597 14.4106 17.749 14.2475 17.7206C13.2862 17.5555 12.3697 17.1923 11.5564 16.6539C11.1473 16.3834 10.6185 16.4203 10.254 16.723C10.2005 16.7672 10.1513 16.8165 10.1072 16.8702C9.71614 17.3455 9.79297 18.0516 10.2798 18.4285Z" fill="url(#paint5_linear_1065_4290)"/>
        <path d="M10.2539 16.723C10.6185 16.4203 11.1475 16.3835 11.5566 16.6538C12.3698 17.1921 13.2861 17.5553 14.2473 17.7202C14.4106 17.7487 14.5765 17.7593 14.7422 17.7575C14.98 17.7546 15.3725 17.7516 15.7823 17.7555V21.6119C15.5617 21.4616 15.2803 21.4027 15.0012 21.4733L12.8154 22.0267C12.3011 22.157 11.7511 21.9764 11.4141 21.5667L10.6008 20.578C11.0347 20.35 11.423 20.0404 11.7595 19.6519L11.8703 19.524C11.3203 19.1883 10.7893 18.8224 10.2797 18.4281C9.79286 18.0514 9.71617 17.345 10.1073 16.8699C10.1513 16.8163 10.2004 16.7671 10.2539 16.723Z" fill="url(#paint6_linear_1065_4290)"/>
        <path d="M19.4101 2.89012C19.2659 3.40368 18.7329 3.70321 18.2191 3.55888L17.8306 3.44981L17.0418 2.33062C16.4177 1.4452 15.3953 0.928727 14.3317 0.928727C14.29 0.928727 14.2483 0.929805 14.2065 0.931399C14.48 0.885333 14.757 0.862221 15.0344 0.862305C15.5147 0.862305 16.0028 0.93018 16.487 1.06612L18.7414 1.69912C19.2549 1.84335 19.5543 2.37656 19.4101 2.89012Z" fill="url(#paint7_linear_1065_4290)"/>
        <path d="M19.4101 2.89012C19.2659 3.40368 18.7329 3.70321 18.2191 3.55888L17.8306 3.44981L17.0418 2.33062C16.4177 1.4452 15.3953 0.928727 14.3317 0.928727C14.29 0.928727 14.2483 0.929805 14.2065 0.931399C14.48 0.885333 14.757 0.862221 15.0344 0.862305C15.5147 0.862305 16.0028 0.93018 16.487 1.06612L18.7414 1.69912C19.2549 1.84335 19.5543 2.37656 19.4101 2.89012Z" fill="url(#paint8_linear_1065_4290)"/>
        <path d="M19.4101 2.89012C19.2659 3.40368 18.7329 3.70321 18.2191 3.55888L17.8306 3.44981L17.0418 2.33062C16.4177 1.4452 15.3953 0.928727 14.3317 0.928727C14.29 0.928727 14.2483 0.929805 14.2065 0.931399C14.48 0.885333 14.757 0.862221 15.0344 0.862305C15.5147 0.862305 16.0028 0.93018 16.487 1.06612L18.7414 1.69912C19.2549 1.84335 19.5543 2.37656 19.4101 2.89012Z" fill="url(#paint9_linear_1065_4290)"/>
        <path d="M12.4439 7.34578C11.6304 6.80759 10.7139 6.44442 9.75261 6.27933C9.58949 6.25087 9.42308 6.24019 9.25808 6.24248C8.69221 6.24853 7.25151 6.25645 6.78215 6.16978C6.75084 6.16391 6.71961 6.15769 6.68844 6.15112C6.11422 6.0262 5.60244 5.70089 5.22721 5.24827L4.76858 4.69547C4.7 4.61254 4.64623 4.51841 4.60963 4.41722C4.57114 4.31133 4.55222 4.19932 4.5538 4.08666C4.55643 3.92391 4.62487 3.76903 4.73994 3.65391L6.99782 1.39603C7.64936 0.744421 8.50141 0.331285 9.41652 0.223266C10.1838 0.13275 11.3387 0 11.5159 0C12.4924 0 13.4422 0.433453 14.078 1.20628L15.4745 2.90428C15.8138 3.31584 15.7541 3.92503 15.3426 4.26389C14.9305 4.60275 14.3223 4.54355 13.9829 4.13152L13.3994 3.42211C12.965 3.65002 12.5772 3.95906 12.2407 4.3478L12.1297 4.47595C12.6797 4.81139 13.2106 5.17706 13.7201 5.57128C14.2067 5.94834 14.284 6.65405 13.893 7.12945C13.8489 7.18331 13.7996 7.23265 13.7457 7.27673C13.3817 7.57973 12.8526 7.61658 12.4439 7.34578Z" fill="url(#paint10_linear_1065_4290)"/>
        <path d="M13.7202 5.57193C13.2106 5.17768 12.6797 4.81183 12.1298 4.47604L12.2406 4.34854C12.5771 3.95962 12.9652 3.65015 13.3991 3.4222L12.5857 2.4336C12.5169 2.35009 12.4385 2.27502 12.3521 2.20996C11.6534 3.9621 10.2458 5.30854 6.32873 4.94137C5.82998 4.89463 5.33798 4.89632 4.86407 4.81087L5.22722 5.2483C5.6024 5.70116 6.11409 6.02657 6.68845 6.15149C6.71507 6.15749 6.77775 6.16954 6.78201 6.17038C7.25161 6.2571 8.69179 6.24937 9.258 6.24295C9.42328 6.24079 9.5894 6.25152 9.75253 6.27988C10.7138 6.44494 11.6303 6.80822 12.4436 7.34662C12.8527 7.61704 13.3815 7.58015 13.746 7.27752C13.7995 7.23326 13.8487 7.18396 13.8928 7.13029C14.2838 6.65498 14.207 5.94885 13.7202 5.57193Z" fill="url(#paint11_linear_1065_4290)"/>
        <path d="M13.7202 5.57193C13.2106 5.17768 12.6797 4.81183 12.1298 4.47604L12.2406 4.34854C12.5771 3.95962 12.9652 3.65015 13.3991 3.4222L12.5857 2.4336C12.5169 2.35009 12.4385 2.27502 12.3521 2.20996C11.6534 3.9621 10.2458 5.30854 6.32873 4.94137C5.82998 4.89463 5.33798 4.89632 4.86407 4.81087L5.22722 5.2483C5.6024 5.70116 6.11409 6.02657 6.68845 6.15149C6.71507 6.15749 6.77775 6.16954 6.78201 6.17038C7.25161 6.2571 8.69179 6.24937 9.258 6.24295C9.42328 6.24079 9.5894 6.25152 9.75253 6.27988C10.7138 6.44494 11.6303 6.80822 12.4436 7.34662C12.8527 7.61704 13.3815 7.58015 13.746 7.27752C13.7995 7.23326 13.8487 7.18396 13.8928 7.13029C14.2838 6.65498 14.207 5.94885 13.7202 5.57193Z" fill="url(#paint12_linear_1065_4290)"/>
        <path d="M13.7461 7.27711C13.3815 7.57978 12.8525 7.61662 12.4434 7.34625C11.6302 6.80795 10.7139 6.44478 9.75273 6.27984C9.58942 6.25134 9.42348 6.2407 9.25787 6.24262C9.02003 6.24548 8.62754 6.24848 8.21771 6.24454V2.38818C8.43831 2.53851 8.7197 2.59739 8.99879 2.52675L11.1846 1.97334C11.6989 1.84312 12.2489 2.02373 12.5859 2.43342L13.3992 3.42211C12.9654 3.65006 12.577 3.95972 12.2405 4.34822L12.1298 4.47609C12.6797 4.81183 13.2107 5.17766 13.7203 5.57193C14.2072 5.94867 14.2839 6.65508 13.8927 7.13015C13.8487 7.18378 13.7996 7.233 13.7461 7.27711Z" fill="url(#paint13_linear_1065_4290)"/>
        <path d="M2.89024 4.58991C3.4038 4.7341 3.70333 5.26711 3.55901 5.78091L3.44993 6.16941L2.33074 6.95827C1.44532 7.58232 0.928849 8.60476 0.928849 9.6683C0.928849 9.71002 0.929927 9.75174 0.931521 9.79355C0.885455 9.51999 0.862343 9.24306 0.862427 8.96565C0.862427 8.48532 0.930302 7.99721 1.06624 7.51308L1.69924 5.25872C1.84347 4.74516 2.37668 4.44572 2.89024 4.58991Z" fill="url(#paint14_linear_1065_4290)"/>
        <path d="M2.89024 4.58991C3.4038 4.7341 3.70333 5.26711 3.55901 5.78091L3.44993 6.16941L2.33074 6.95827C1.44532 7.58232 0.928849 8.60476 0.928849 9.6683C0.928849 9.71002 0.929927 9.75174 0.931521 9.79355C0.885455 9.51999 0.862343 9.24306 0.862427 8.96565C0.862427 8.48532 0.930302 7.99721 1.06624 7.51308L1.69924 5.25872C1.84347 4.74516 2.37668 4.44572 2.89024 4.58991Z" fill="url(#paint15_linear_1065_4290)"/>
        <path d="M2.89024 4.58991C3.4038 4.7341 3.70333 5.26711 3.55901 5.78091L3.44993 6.16941L2.33074 6.95827C1.44532 7.58232 0.928849 8.60476 0.928849 9.6683C0.928849 9.71002 0.929927 9.75174 0.931521 9.79355C0.885455 9.51999 0.862343 9.24306 0.862427 8.96565C0.862427 8.48532 0.930302 7.99721 1.06624 7.51308L1.69924 5.25872C1.84347 4.74516 2.37668 4.44572 2.89024 4.58991Z" fill="url(#paint16_linear_1065_4290)"/>
        <path d="M7.34578 11.5564C6.80759 12.3699 6.44442 13.2864 6.27933 14.2477C6.25087 14.4108 6.24019 14.5772 6.24248 14.7422C6.24853 15.3081 6.25645 16.7488 6.16978 17.2182C6.16931 17.2223 6.15675 17.2853 6.15112 17.3119C6.0262 17.8861 5.70089 18.3979 5.24827 18.7731L4.69547 19.2317C4.61254 19.3003 4.51841 19.3541 4.41722 19.3907C4.31133 19.4292 4.19932 19.4481 4.08666 19.4465C3.92391 19.4439 3.76903 19.3755 3.65391 19.2604L1.39603 17.0025C0.744405 16.351 0.331268 15.4989 0.223266 14.5838C0.13275 13.8166 0 12.6616 0 12.4845C0 11.508 0.433453 10.5581 1.20628 9.92232L2.90428 8.52587C3.31584 8.18654 3.92503 8.24621 4.26389 8.65777C4.60275 9.0698 4.54355 9.67805 4.13152 10.0174L3.42211 10.6009C3.65002 11.0353 3.95906 11.4231 4.3478 11.7596L4.47595 11.8706C4.81139 11.3206 5.17706 10.7897 5.57128 10.2803C5.94834 9.79365 6.65405 9.7163 7.12945 10.1073C7.18331 10.1514 7.23265 10.2008 7.27673 10.2546C7.57973 10.6186 7.61658 11.1477 7.34578 11.5564Z" fill="url(#paint17_linear_1065_4290)"/>
        <path d="M5.57144 10.2795C5.17719 10.7891 4.81134 11.3201 4.47555 11.8699L4.34805 11.7592C3.95913 11.4226 3.64966 11.0346 3.42171 10.6006L2.43311 11.4141C2.3496 11.4828 2.27453 11.5612 2.20947 11.6476C3.96161 12.3463 5.30805 13.7539 4.94088 17.671C4.89414 18.1698 4.89583 18.6618 4.81038 19.1357L5.24782 18.7725C5.70068 18.3973 6.02608 17.8856 6.151 17.3113C6.157 17.2847 6.16905 17.222 6.16989 17.2177C6.25661 16.7481 6.24888 15.3079 6.24246 14.7417C6.2403 14.5765 6.25103 14.4103 6.27939 14.2472C6.44445 13.2859 6.80773 12.3695 7.34613 11.5562C7.61655 11.1471 7.57966 10.6182 7.27703 10.2538C7.23277 10.2002 7.18347 10.1511 7.1298 10.107C6.65449 9.71589 5.94836 9.79272 5.57144 10.2795Z" fill="url(#paint18_linear_1065_4290)"/>
        <path d="M5.57144 10.2795C5.17719 10.7891 4.81134 11.3201 4.47555 11.8699L4.34805 11.7592C3.95913 11.4226 3.64966 11.0346 3.42171 10.6006L2.43311 11.4141C2.3496 11.4828 2.27453 11.5612 2.20947 11.6476C3.96161 12.3463 5.30805 13.7539 4.94088 17.671C4.89414 18.1698 4.89583 18.6618 4.81038 19.1357L5.24782 18.7725C5.70068 18.3973 6.02608 17.8856 6.151 17.3113C6.157 17.2847 6.16905 17.222 6.16989 17.2177C6.25661 16.7481 6.24888 15.3079 6.24246 14.7417C6.2403 14.5765 6.25103 14.4103 6.27939 14.2472C6.44445 13.2859 6.80773 12.3695 7.34613 11.5562C7.61655 11.1471 7.57966 10.6182 7.27703 10.2538C7.23277 10.2002 7.18347 10.1511 7.1298 10.107C6.65449 9.71589 5.94836 9.79272 5.57144 10.2795Z" fill="url(#paint19_linear_1065_4290)"/>
        <path d="M7.27674 10.2537C7.57941 10.6183 7.61626 11.1473 7.34588 11.5563C6.80758 12.3695 6.44441 13.2859 6.27947 14.247C6.25097 14.4104 6.24033 14.5763 6.24226 14.7419C6.24511 14.9798 6.24812 15.3722 6.24418 15.7821H2.38782C2.53815 15.5615 2.59702 15.2801 2.52638 15.001L1.97297 12.8152C1.84276 12.3008 2.02336 11.7509 2.43305 11.4139L3.42174 10.6005C3.64969 11.0344 3.95935 11.4228 4.34785 11.7593L4.47572 11.87C4.81146 11.3201 5.1773 10.7891 5.57157 10.2795C5.9483 9.79261 6.65471 9.71592 7.12979 10.1071C7.18342 10.1511 7.23263 10.2002 7.27674 10.2537Z" fill="url(#paint20_linear_1065_4290)"/>
        <path d="M21.1098 19.4097C20.5962 19.2655 20.2967 18.7325 20.441 18.2187L20.5501 17.8302L21.6693 17.0413C22.5547 16.4173 23.0712 15.3949 23.0712 14.3313C23.0712 14.2896 23.0701 14.2479 23.0685 14.2061C23.1146 14.4796 23.1377 14.7565 23.1376 15.034C23.1376 15.5143 23.0697 16.0024 22.9338 16.4865L22.3008 18.7409C22.1566 19.2544 21.6234 19.5539 21.1098 19.4097Z" fill="url(#paint21_linear_1065_4290)"/>
        <path d="M21.1098 19.4097C20.5962 19.2655 20.2967 18.7325 20.441 18.2187L20.5501 17.8302L21.6693 17.0413C22.5547 16.4173 23.0712 15.3949 23.0712 14.3313C23.0712 14.2896 23.0701 14.2479 23.0685 14.2061C23.1146 14.4796 23.1377 14.7565 23.1376 15.034C23.1376 15.5143 23.0697 16.0024 22.9338 16.4865L22.3008 18.7409C22.1566 19.2544 21.6234 19.5539 21.1098 19.4097Z" fill="url(#paint22_linear_1065_4290)"/>
        <path d="M21.1098 19.4097C20.5962 19.2655 20.2967 18.7325 20.441 18.2187L20.5501 17.8302L21.6693 17.0413C22.5547 16.4173 23.0712 15.3949 23.0712 14.3313C23.0712 14.2896 23.0701 14.2479 23.0685 14.2061C23.1146 14.4796 23.1377 14.7565 23.1376 15.034C23.1376 15.5143 23.0697 16.0024 22.9338 16.4865L22.3008 18.7409C22.1566 19.2544 21.6234 19.5539 21.1098 19.4097Z" fill="url(#paint23_linear_1065_4290)"/>
        <path d="M16.6542 12.4439C17.1924 11.6304 17.5556 10.7139 17.7207 9.75261C17.7491 9.58949 17.7598 9.42308 17.7575 9.25808C17.7515 8.69221 17.7435 7.25151 17.8302 6.78215C17.8307 6.77797 17.8432 6.71502 17.8489 6.68844C17.9738 6.11422 18.2991 5.60244 18.7517 5.22721L19.3045 4.76858C19.3875 4.7 19.4816 4.64623 19.5828 4.60963C19.6887 4.57114 19.8007 4.55222 19.9133 4.5538C20.0761 4.55643 20.231 4.62487 20.3461 4.73994L22.604 6.99782C23.2556 7.64936 23.6687 8.50141 23.7767 9.41652C23.8673 10.1837 24 11.3386 24 11.5158C24 12.4923 23.5666 13.4422 22.7938 14.078L21.0958 15.4744C20.6842 15.8137 20.075 15.7541 19.7362 15.3425C19.3973 14.9305 19.4565 14.3222 19.8685 13.9829L20.5779 13.3993C20.35 12.965 20.041 12.5772 19.6522 12.2406L19.5241 12.1297C19.1886 12.6796 18.823 13.2106 18.4288 13.72C18.0517 14.2066 17.346 14.284 16.8706 13.8929C16.8167 13.8489 16.7674 13.7995 16.7233 13.7457C16.4203 13.3817 16.3834 12.8526 16.6542 12.4439Z" fill="url(#paint24_linear_1065_4290)"/>
        <path d="M18.4285 13.7204C18.8228 13.2108 19.1886 12.6799 19.5244 12.13L19.6519 12.2407C20.0409 12.5773 20.3503 12.9653 20.5783 13.3993L21.5669 12.5858C21.6504 12.5171 21.7255 12.4387 21.7905 12.3523C20.0384 11.6536 18.6919 10.246 19.0591 6.32891C19.1058 5.83016 19.1042 5.33816 19.1896 4.86426L18.7522 5.2274C18.2993 5.60259 17.9739 6.11427 17.849 6.68863C17.843 6.71526 17.8309 6.77793 17.8301 6.7822C17.7434 7.25179 17.7511 8.69198 17.7575 9.25818C17.7597 9.42346 17.749 9.58959 17.7206 9.75271C17.5555 10.714 17.1923 11.6305 16.6539 12.4438C16.3834 12.8528 16.4203 13.3817 16.723 13.7461C16.7672 13.7997 16.8165 13.8488 16.8702 13.8929C17.3455 14.284 18.0516 14.2072 18.4285 13.7204Z" fill="url(#paint25_linear_1065_4290)"/>
        <path d="M18.4285 13.7204C18.8228 13.2108 19.1886 12.6799 19.5244 12.13L19.6519 12.2407C20.0409 12.5773 20.3503 12.9653 20.5783 13.3993L21.5669 12.5858C21.6504 12.5171 21.7255 12.4387 21.7905 12.3523C20.0384 11.6536 18.6919 10.246 19.0591 6.32891C19.1058 5.83016 19.1042 5.33816 19.1896 4.86426L18.7522 5.2274C18.2993 5.60259 17.9739 6.11427 17.849 6.68863C17.843 6.71526 17.8309 6.77793 17.8301 6.7822C17.7434 7.25179 17.7511 8.69198 17.7575 9.25818C17.7597 9.42346 17.749 9.58959 17.7206 9.75271C17.5555 10.714 17.1923 11.6305 16.6539 12.4438C16.3834 12.8528 16.4203 13.3817 16.723 13.7461C16.7672 13.7997 16.8165 13.8488 16.8702 13.8929C17.3455 14.284 18.0516 14.2072 18.4285 13.7204Z" fill="url(#paint26_linear_1065_4290)"/>
        <path d="M16.7233 13.7462C16.4206 13.3816 16.3838 12.8525 16.6541 12.4435C17.1924 11.6303 17.5556 10.714 17.7205 9.75279C17.749 9.58948 17.7596 9.42354 17.7578 9.25793C17.7549 9.02009 17.7519 8.6276 17.7558 8.21777H21.6122C21.4619 8.43837 21.403 8.71976 21.4736 8.99885L22.027 11.1847C22.1573 11.699 21.9767 12.249 21.567 12.586L20.5783 13.3993C20.3503 12.9654 20.0407 12.5771 19.6522 12.2406L19.5243 12.1298C19.1886 12.6798 18.8227 13.2107 18.4285 13.7203C18.0517 14.2072 17.3453 14.2839 16.8702 13.8927C16.8166 13.8488 16.7674 13.7997 16.7233 13.7462Z" fill="url(#paint27_linear_1065_4290)"/>
        <path d="M12 20.8594C16.8929 20.8594 20.8594 16.8929 20.8594 12C20.8594 7.1071 16.8929 3.14062 12 3.14062C7.1071 3.14062 3.14062 7.1071 3.14062 12C3.14062 16.8929 7.1071 20.8594 12 20.8594Z" fill="url(#paint28_linear_1065_4290)"/>
        <path d="M12 20.8594C14.5394 20.8594 16.5979 16.8929 16.5979 12C16.5979 7.1071 14.5394 3.14062 12 3.14062C9.46066 3.14062 7.4021 7.1071 7.4021 12C7.4021 16.8929 9.46066 20.8594 12 20.8594Z" fill="url(#paint29_linear_1065_4290)"/>
        <path d="M12 16.5982C16.8929 16.5982 20.8594 14.5396 20.8594 12.0003C20.8594 9.4609 16.8929 7.40234 12 7.40234C7.1071 7.40234 3.14062 9.4609 3.14062 12.0003C3.14062 14.5396 7.1071 16.5982 12 16.5982Z" fill="url(#paint30_linear_1065_4290)"/>
        <path d="M3.14062 11.9998C3.14062 16.8927 7.10709 20.8592 12 20.8592C16.8929 20.8592 20.8594 16.8927 20.8594 11.9998C20.8594 11.7549 20.849 11.5124 20.8295 11.2725H3.17048C3.15072 11.5144 3.14076 11.7571 3.14062 11.9998Z" fill="url(#paint31_linear_1065_4290)"/>
        <path d="M12 3.14063C11.4398 3.14057 10.8809 3.19338 10.3306 3.29836V20.7016C10.8809 20.8066 11.4398 20.8594 12 20.8594C16.8929 20.8594 20.8594 16.8929 20.8594 12C20.8594 7.10709 16.8929 3.14063 12 3.14063Z" fill="url(#paint32_linear_1065_4290)"/>
        <path d="M18.2272 5.69922L5.69904 18.2274C7.30507 19.8524 9.53482 20.8596 12 20.8596C16.8929 20.8596 20.8594 16.8931 20.8594 12.0002C20.8594 9.535 19.8522 7.3053 18.2272 5.69922Z" fill="url(#paint33_linear_1065_4290)"/>
        <path d="M15.2138 8.71191L8.71228 15.2135L14.1053 20.6065C17.3068 19.8261 19.8265 17.3065 20.607 14.1051L15.2138 8.71191Z" fill="url(#paint34_linear_1065_4290)"/>
        <path d="M16.5978 12.0002C16.5978 12.0002 14.5393 13.5863 12 13.5863C9.46068 13.5863 7.40216 12.0002 7.40216 12.0002C7.40216 9.46086 9.46068 7.40234 12 7.40234C14.5393 7.40234 16.5978 9.46086 16.5978 12.0002Z" fill="url(#paint35_linear_1065_4290)"/>
        <path d="M16.5978 12.0002C16.5978 9.46086 14.5393 7.40234 12 7.40234V13.5863C14.5393 13.5863 16.5978 12.0002 16.5978 12.0002Z" fill="url(#paint36_linear_1065_4290)"/>
        <path d="M16.5979 12C16.5979 12.834 16.3759 13.6164 15.9875 14.2907L12 14.9215L8.01288 14.2907C7.62419 13.6164 7.4021 12.834 7.4021 12H16.5979Z" fill="url(#paint37_linear_1065_4290)"/>
        <path d="M11.7589 14.8833L12 14.9215L15.9875 14.2907C16.3758 13.6164 16.5979 12.834 16.5979 12H11.7589V14.8833Z" fill="url(#paint38_linear_1065_4290)"/>
        <path d="M12 16.5975C13.7054 16.5975 15.1938 15.669 15.9876 14.29H8.01239C8.80617 15.669 10.2946 16.5975 12 16.5975Z" fill="url(#paint39_linear_1065_4290)"/>
        <path d="M12 16.5975C13.7054 16.5975 15.1938 15.669 15.9876 14.29H8.01239C8.80617 15.669 10.2946 16.5975 12 16.5975Z" fill="url(#paint40_linear_1065_4290)"/>
        <path d="M23.5114 14.4105C23.5096 14.2209 23.4912 14.0318 23.4566 13.8454C23.3592 13.3209 22.8551 12.9747 22.3307 13.0721C21.8062 13.1694 21.4599 13.6737 21.5574 14.198C21.6542 14.7198 21.4386 15.2568 21.0081 15.5667L19.2233 16.8516C18.7903 17.1633 18.6921 17.7669 19.0037 18.1998C19.3153 18.6327 19.9189 18.731 20.3518 18.4193L22.1367 17.1344C23.0159 16.5015 23.5221 15.474 23.5114 14.4105Z" fill="url(#paint41_linear_1065_4290)"/>
        <path d="M23.5114 14.4105C23.5096 14.2209 23.4912 14.0318 23.4566 13.8454C23.3592 13.3209 22.8551 12.9747 22.3307 13.0721C21.8062 13.1694 21.4599 13.6737 21.5574 14.198C21.6542 14.7198 21.4386 15.2568 21.0081 15.5667L19.2233 16.8516C18.7903 17.1633 18.6921 17.7669 19.0037 18.1998C19.3153 18.6327 19.9189 18.731 20.3518 18.4193L22.1367 17.1344C23.0159 16.5015 23.5221 15.474 23.5114 14.4105Z" fill="url(#paint42_linear_1065_4290)"/>
        <path d="M19.2891 16.8272C19.2653 16.7988 19.2431 16.7691 19.2226 16.7383C18.9279 16.2933 19.0499 15.6941 19.4945 15.3998L21.1467 14.3066L21.3286 14.186C21.765 13.8967 22.0013 13.3763 21.9334 12.8588C22.4472 11.7155 22.5467 10.8309 22.1209 10.405C22.0625 10.3469 21.9954 10.2981 21.9222 10.2603C22.0714 10.0993 22.2714 9.99451 22.4888 9.96338C23.0168 9.88627 23.5068 10.2524 23.5836 10.7801L23.8426 12.5618C23.8459 12.5849 23.8493 12.6079 23.8519 12.631C24.0048 13.8696 23.4383 15.1059 22.3948 15.7967L20.5607 17.0106C20.1473 17.284 19.6006 17.198 19.2891 16.8272Z" fill="url(#paint43_linear_1065_4290)"/>
        <path d="M19.2891 16.8272C19.2653 16.7988 19.2431 16.7691 19.2226 16.7383C18.9279 16.2933 19.0499 15.6941 19.4945 15.3998L21.1467 14.3066L21.3286 14.186C21.765 13.8967 22.0013 13.3763 21.9334 12.8588C22.4472 11.7155 22.5467 10.8309 22.1209 10.405C22.0625 10.3469 21.9954 10.2981 21.9222 10.2603C22.0714 10.0993 22.2714 9.99451 22.4888 9.96338C23.0168 9.88627 23.5068 10.2524 23.5836 10.7801L23.8426 12.5618C23.8459 12.5849 23.8493 12.6079 23.8519 12.631C24.0048 13.8696 23.4383 15.1059 22.3948 15.7967L20.5607 17.0106C20.1473 17.284 19.6006 17.198 19.2891 16.8272Z" fill="url(#paint44_linear_1065_4290)"/>
        <path d="M23.9998 11.5159C23.9998 11.2475 23.9671 10.9772 23.8996 10.7108L23.3462 8.52495C23.2153 8.00783 22.69 7.69475 22.1729 7.82567C21.6558 7.95659 21.3428 8.48202 21.4736 8.999L22.027 11.1848C22.1572 11.6991 21.9766 12.2491 21.5669 12.5861L19.8685 13.9833C19.4565 14.3221 19.3974 14.9309 19.7362 15.3427C20.075 15.7547 20.6837 15.8139 21.0957 15.4751L22.7941 14.078C23.5663 13.4427 23.9998 12.4925 23.9998 11.5159Z" fill="url(#paint45_linear_1065_4290)"/>
        <path d="M23.9998 11.5159C23.9998 11.2475 23.9671 10.9772 23.8996 10.7108L23.3462 8.52495C23.2153 8.00783 22.69 7.69475 22.1729 7.82567C21.6558 7.95659 21.3428 8.48202 21.4736 8.999L22.027 11.1848C22.1572 11.6991 21.9766 12.2491 21.5669 12.5861L19.8685 13.9833C19.4565 14.3221 19.3974 14.9309 19.7362 15.3427C20.075 15.7547 20.6837 15.8139 21.0957 15.4751L22.7941 14.078C23.5663 13.4427 23.9998 12.4925 23.9998 11.5159Z" fill="url(#paint46_linear_1065_4290)"/>
        <path d="M23.9998 11.5159C23.9998 11.2475 23.9671 10.9772 23.8996 10.7108L23.3462 8.52495C23.2153 8.00783 22.69 7.69475 22.1729 7.82567C21.6558 7.95659 21.3428 8.48202 21.4736 8.999L22.027 11.1848C22.1572 11.6991 21.9766 12.2491 21.5669 12.5861L19.8685 13.9833C19.4565 14.3221 19.3974 14.9309 19.7362 15.3427C20.075 15.7547 20.6837 15.8139 21.0957 15.4751L22.7941 14.078C23.5663 13.4427 23.9998 12.4925 23.9998 11.5159Z" fill="url(#paint47_linear_1065_4290)"/>
        <path d="M9.58945 23.5111C9.77908 23.5092 9.96818 23.4909 10.1546 23.4562C10.6791 23.3588 11.0253 22.8547 10.9279 22.3303C10.8306 21.8059 10.3263 21.4596 9.80203 21.557C9.28017 21.6538 8.74322 21.4382 8.43328 21.0077L7.14839 19.2229C6.83667 18.79 6.23311 18.6917 5.80022 19.0033C5.36733 19.315 5.26903 19.9186 5.5807 20.3515L6.86559 22.1363C7.49845 23.0155 8.526 23.5217 9.58945 23.5111Z" fill="url(#paint48_linear_1065_4290)"/>
        <path d="M9.58945 23.5111C9.77908 23.5092 9.96818 23.4909 10.1546 23.4562C10.6791 23.3588 11.0253 22.8547 10.9279 22.3303C10.8306 21.8059 10.3263 21.4596 9.80203 21.557C9.28017 21.6538 8.74322 21.4382 8.43328 21.0077L7.14839 19.2229C6.83667 18.79 6.23311 18.6917 5.80022 19.0033C5.36733 19.315 5.26903 19.9186 5.5807 20.3515L6.86559 22.1363C7.49845 23.0155 8.526 23.5217 9.58945 23.5111Z" fill="url(#paint49_linear_1065_4290)"/>
        <path d="M7.1732 19.2888C7.20161 19.265 7.23131 19.2428 7.26217 19.2222C7.7071 18.9276 8.30631 19.0496 8.60059 19.4942L9.69381 21.1464L9.81442 21.3283C10.1038 21.7647 10.6242 22.001 11.1416 21.9331C12.285 22.4469 13.1695 22.5464 13.5954 22.1206C13.6535 22.0622 13.7023 21.9951 13.7401 21.9219C13.9011 22.0711 14.0059 22.2711 14.0371 22.4884C14.1142 23.0164 13.748 23.5065 13.2204 23.5833L11.4386 23.8423C11.4156 23.8456 11.3925 23.8489 11.3694 23.8516C10.1308 24.0045 8.89454 23.4379 8.20375 22.3945L6.98987 20.5604C6.7164 20.147 6.80242 19.6002 7.1732 19.2888Z" fill="url(#paint50_linear_1065_4290)"/>
        <path d="M7.1732 19.2888C7.20161 19.265 7.23131 19.2428 7.26217 19.2222C7.7071 18.9276 8.30631 19.0496 8.60059 19.4942L9.69381 21.1464L9.81442 21.3283C10.1038 21.7647 10.6242 22.001 11.1416 21.9331C12.285 22.4469 13.1695 22.5464 13.5954 22.1206C13.6535 22.0622 13.7023 21.9951 13.7401 21.9219C13.9011 22.0711 14.0059 22.2711 14.0371 22.4884C14.1142 23.0164 13.748 23.5065 13.2204 23.5833L11.4386 23.8423C11.4156 23.8456 11.3925 23.8489 11.3694 23.8516C10.1308 24.0045 8.89454 23.4379 8.20375 22.3945L6.98987 20.5604C6.7164 20.147 6.80242 19.6002 7.1732 19.2888Z" fill="url(#paint51_linear_1065_4290)"/>
        <path d="M12.4843 24.0002C12.7527 24.0002 13.023 23.9674 13.2894 23.9L15.4752 23.3466C15.9924 23.2157 16.3054 22.6903 16.1745 22.1733C16.0436 21.6561 15.5182 21.3431 15.0012 21.474L12.8154 22.0274C12.3011 22.1576 11.7511 21.977 11.4141 21.5673L10.0169 19.8689C9.67807 19.4569 9.0693 19.3977 8.65746 19.7366C8.24552 20.0754 8.18627 20.6841 8.52513 21.096L9.92224 22.7944C10.5574 23.5667 11.5077 24.0002 12.4843 24.0002Z" fill="url(#paint52_linear_1065_4290)"/>
        <path d="M12.4843 24.0002C12.7527 24.0002 13.023 23.9674 13.2894 23.9L15.4752 23.3466C15.9924 23.2157 16.3054 22.6903 16.1745 22.1733C16.0436 21.6561 15.5182 21.3431 15.0012 21.474L12.8154 22.0274C12.3011 22.1576 11.7511 21.977 11.4141 21.5673L10.0169 19.8689C9.67807 19.4569 9.0693 19.3977 8.65746 19.7366C8.24552 20.0754 8.18627 20.6841 8.52513 21.096L9.92224 22.7944C10.5574 23.5667 11.5077 24.0002 12.4843 24.0002Z" fill="url(#paint53_linear_1065_4290)"/>
        <path d="M12.4843 24.0002C12.7527 24.0002 13.023 23.9674 13.2894 23.9L15.4752 23.3466C15.9924 23.2157 16.3054 22.6903 16.1745 22.1733C16.0436 21.6561 15.5182 21.3431 15.0012 21.474L12.8154 22.0274C12.3011 22.1576 11.7511 21.977 11.4141 21.5673L10.0169 19.8689C9.67807 19.4569 9.0693 19.3977 8.65746 19.7366C8.24552 20.0754 8.18627 20.6841 8.52513 21.096L9.92224 22.7944C10.5574 23.5667 11.5077 24.0002 12.4843 24.0002Z" fill="url(#paint54_linear_1065_4290)"/>
        <path d="M14.4105 0.488446C14.2225 0.490321 14.0336 0.508321 13.8454 0.543289C13.3209 0.640696 12.9747 1.14479 13.0721 1.66923C13.1694 2.19366 13.6737 2.53998 14.198 2.44252C14.7198 2.34568 15.2568 2.56131 15.5667 2.99181L16.8516 4.77662C17.1633 5.20955 17.7669 5.3078 18.1998 4.99618C18.6327 4.68456 18.731 4.08095 18.4193 3.64806L17.1344 1.86315C16.5015 0.984008 15.474 0.477805 14.4105 0.488446Z" fill="url(#paint55_linear_1065_4290)"/>
        <path d="M14.4105 0.488446C14.2225 0.490321 14.0336 0.508321 13.8454 0.543289C13.3209 0.640696 12.9747 1.14479 13.0721 1.66923C13.1694 2.19366 13.6737 2.53998 14.198 2.44252C14.7198 2.34568 15.2568 2.56131 15.5667 2.99181L16.8516 4.77662C17.1633 5.20955 17.7669 5.3078 18.1998 4.99618C18.6327 4.68456 18.731 4.08095 18.4193 3.64806L17.1344 1.86315C16.5015 0.984008 15.474 0.477805 14.4105 0.488446Z" fill="url(#paint56_linear_1065_4290)"/>
        <path d="M16.8268 4.7105C16.7984 4.7343 16.7687 4.75652 16.7378 4.77706C16.2929 5.07172 15.6937 4.94975 15.3994 4.50514L14.3062 2.85293L14.1856 2.67101C13.8962 2.23465 13.3758 1.99831 12.8584 2.06623C11.715 1.55243 10.8305 1.45287 10.4046 1.87868C10.3465 1.93715 10.2977 2.00418 10.2599 2.07743C10.0989 1.92818 9.99408 1.72817 9.96295 1.51086C9.88584 0.982857 10.252 0.492779 10.7797 0.415997L12.5614 0.156966C12.5844 0.153685 12.6075 0.150357 12.6306 0.147732C13.8692 -0.00522143 15.1055 0.561357 15.7963 1.60479L17.0101 3.43892C17.2836 3.85226 17.1976 4.39906 16.8268 4.7105Z" fill="url(#paint57_linear_1065_4290)"/>
        <path d="M16.8268 4.7105C16.7984 4.7343 16.7687 4.75652 16.7378 4.77706C16.2929 5.07172 15.6937 4.94975 15.3994 4.50514L14.3062 2.85293L14.1856 2.67101C13.8962 2.23465 13.3758 1.99831 12.8584 2.06623C11.715 1.55243 10.8305 1.45287 10.4046 1.87868C10.3465 1.93715 10.2977 2.00418 10.2599 2.07743C10.0989 1.92818 9.99408 1.72817 9.96295 1.51086C9.88584 0.982857 10.252 0.492779 10.7797 0.415997L12.5614 0.156966C12.5844 0.153685 12.6075 0.150357 12.6306 0.147732C13.8692 -0.00522143 15.1055 0.561357 15.7963 1.60479L17.0101 3.43892C17.2836 3.85226 17.1976 4.39906 16.8268 4.7105Z" fill="url(#paint58_linear_1065_4290)"/>
        <path d="M11.5157 0C11.2473 0 10.9769 0.0327188 10.7105 0.100172L8.52471 0.653578C8.00758 0.7845 7.69451 1.30983 7.82543 1.82691C7.95635 2.34403 8.48177 2.65702 8.99876 2.52619L11.1846 1.97278C11.6989 1.84256 12.2489 2.02317 12.5859 2.43286L13.983 4.13128C14.3219 4.54327 14.9306 4.60242 15.3425 4.26361C15.7544 3.92475 15.8137 3.31608 15.4748 2.90414L14.0777 1.20572C13.4425 0.4335 12.4923 0 11.5157 0Z" fill="url(#paint59_linear_1065_4290)"/>
        <path d="M11.5157 0C11.2473 0 10.9769 0.0327188 10.7105 0.100172L8.52471 0.653578C8.00758 0.7845 7.69451 1.30983 7.82543 1.82691C7.95635 2.34403 8.48177 2.65702 8.99876 2.52619L11.1846 1.97278C11.6989 1.84256 12.2489 2.02317 12.5859 2.43286L13.983 4.13128C14.3219 4.54327 14.9306 4.60242 15.3425 4.26361C15.7544 3.92475 15.8137 3.31608 15.4748 2.90414L14.0777 1.20572C13.4425 0.4335 12.4923 0 11.5157 0Z" fill="url(#paint60_linear_1065_4290)"/>
        <path d="M11.5157 0C11.2473 0 10.9769 0.0327188 10.7105 0.100172L8.52471 0.653578C8.00758 0.7845 7.69451 1.30983 7.82543 1.82691C7.95635 2.34403 8.48177 2.65702 8.99876 2.52619L11.1846 1.97278C11.6989 1.84256 12.2489 2.02317 12.5859 2.43286L13.983 4.13128C14.3219 4.54327 14.9306 4.60242 15.3425 4.26361C15.7544 3.92475 15.8137 3.31608 15.4748 2.90414L14.0777 1.20572C13.4425 0.4335 12.4923 0 11.5157 0Z" fill="url(#paint61_linear_1065_4290)"/>
        <path d="M0.488568 9.58927C0.490443 9.77728 0.508443 9.96619 0.543412 10.1544C0.640818 10.6789 1.14491 11.0251 1.66935 10.9277C2.19379 10.8304 2.5401 10.3261 2.44265 9.80185C2.3458 9.27999 2.56143 8.74303 2.99193 8.4331L4.77674 7.14821C5.20968 6.83649 5.30793 6.23292 4.9963 5.80003C4.68468 5.36714 4.08107 5.26885 3.64818 5.58052L1.86327 6.86536C0.98413 7.49827 0.477927 8.52582 0.488568 9.58927Z" fill="url(#paint62_linear_1065_4290)"/>
        <path d="M0.488568 9.58927C0.490443 9.77728 0.508443 9.96619 0.543412 10.1544C0.640818 10.6789 1.14491 11.0251 1.66935 10.9277C2.19379 10.8304 2.5401 10.3261 2.44265 9.80185C2.3458 9.27999 2.56143 8.74303 2.99193 8.4331L4.77674 7.14821C5.20968 6.83649 5.30793 6.23292 4.9963 5.80003C4.68468 5.36714 4.08107 5.26885 3.64818 5.58052L1.86327 6.86536C0.98413 7.49827 0.477927 8.52582 0.488568 9.58927Z" fill="url(#paint63_linear_1065_4290)"/>
        <path d="M4.71086 7.17283C4.73466 7.20125 4.75688 7.23095 4.77743 7.2618C5.07208 7.70674 4.95011 8.30594 4.5055 8.60022L2.8533 9.69344L2.67138 9.81405C2.23502 10.1034 1.99868 10.6238 2.0666 11.1413C1.5528 12.2846 1.45324 13.1692 1.87905 13.595C1.93751 13.6531 2.00454 13.7019 2.0778 13.7397C1.92855 13.9007 1.72853 14.0056 1.51122 14.0367C0.983223 14.1138 0.493145 13.7477 0.416364 13.22L0.157332 11.4383C0.154051 11.4152 0.150723 11.3921 0.148098 11.369C-0.00485522 10.1305 0.561723 8.89418 1.60516 8.20338L3.43929 6.9895C3.85263 6.71604 4.39943 6.80205 4.71086 7.17283Z" fill="url(#paint64_linear_1065_4290)"/>
        <path d="M4.71086 7.17283C4.73466 7.20125 4.75688 7.23095 4.77743 7.2618C5.07208 7.70674 4.95011 8.30594 4.5055 8.60022L2.8533 9.69344L2.67138 9.81405C2.23502 10.1034 1.99868 10.6238 2.0666 11.1413C1.5528 12.2846 1.45324 13.1692 1.87905 13.595C1.93751 13.6531 2.00454 13.7019 2.0778 13.7397C1.92855 13.9007 1.72853 14.0056 1.51122 14.0367C0.983223 14.1138 0.493145 13.7477 0.416364 13.22L0.157332 11.4383C0.154051 11.4152 0.150723 11.3921 0.148098 11.369C-0.00485522 10.1305 0.561723 8.89418 1.60516 8.20338L3.43929 6.9895C3.85263 6.71604 4.39943 6.80205 4.71086 7.17283Z" fill="url(#paint65_linear_1065_4290)"/>
        <path d="M0.000183105 12.4848C0.000183105 12.7532 0.0329019 13.0235 0.100355 13.2899L0.653761 15.4757C0.784683 15.9929 1.31001 16.3059 1.82709 16.175C2.34421 16.0441 2.6572 15.5187 2.52637 15.0017L1.97296 12.8159C1.84275 12.3015 2.02335 11.7516 2.43304 11.4146L4.13146 10.0174C4.54345 9.67856 4.6026 9.06979 4.26379 8.65795C3.92493 8.24601 3.31626 8.18676 2.90432 8.52562L1.2059 9.92273C0.433683 10.5579 0.000183105 11.5082 0.000183105 12.4848Z" fill="url(#paint66_linear_1065_4290)"/>
        <path d="M0.000183105 12.4848C0.000183105 12.7532 0.0329019 13.0235 0.100355 13.2899L0.653761 15.4757C0.784683 15.9929 1.31001 16.3059 1.82709 16.175C2.34421 16.0441 2.6572 15.5187 2.52637 15.0017L1.97296 12.8159C1.84275 12.3015 2.02335 11.7516 2.43304 11.4146L4.13146 10.0174C4.54345 9.67856 4.6026 9.06979 4.26379 8.65795C3.92493 8.24601 3.31626 8.18676 2.90432 8.52562L1.2059 9.92273C0.433683 10.5579 0.000183105 11.5082 0.000183105 12.4848Z" fill="url(#paint67_linear_1065_4290)"/>
        <path d="M0.000183105 12.4848C0.000183105 12.7532 0.0329019 13.0235 0.100355 13.2899L0.653761 15.4757C0.784683 15.9929 1.31001 16.3059 1.82709 16.175C2.34421 16.0441 2.6572 15.5187 2.52637 15.0017L1.97296 12.8159C1.84275 12.3015 2.02335 11.7516 2.43304 11.4146L4.13146 10.0174C4.54345 9.67856 4.6026 9.06979 4.26379 8.65795C3.92493 8.24601 3.31626 8.18676 2.90432 8.52562L1.2059 9.92273C0.433683 10.5579 0.000183105 11.5082 0.000183105 12.4848Z" fill="url(#paint68_linear_1065_4290)"/>
    </g>
    <defs>
        <linearGradient id="paint0_linear_1065_4290" x1="7.07429" y1="22.4443" x2="7.47301" y2="21.2315" gradientUnits="userSpaceOnUse">
            <stop stop-color="#FFDFCF"/>
            <stop offset="1" stop-color="#FFA78F"/>
        </linearGradient>
        <linearGradient id="paint1_linear_1065_4290" x1="7.2136" y1="22.0247" x2="7.64555" y2="21.1775" gradientUnits="userSpaceOnUse">
            <stop stop-color="#F89580" stop-opacity="0"/>
            <stop offset="0.286" stop-color="#EE8E79" stop-opacity="0.287"/>
            <stop offset="0.762" stop-color="#D57B65" stop-opacity="0.765"/>
            <stop offset="0.997" stop-color="#C5715A"/>
        </linearGradient>
        <linearGradient id="paint2_linear_1065_4290" x1="6.42315" y1="20.6408" x2="6.14626" y2="20.0206" gradientUnits="userSpaceOnUse">
            <stop stop-color="white" stop-opacity="0"/>
            <stop offset="1" stop-color="white"/>
        </linearGradient>
        <linearGradient id="paint3_linear_1065_4290" x1="13.3983" y1="23.1934" x2="13.9798" y2="19.5218" gradientUnits="userSpaceOnUse">
            <stop stop-color="#FFDFCF"/>
            <stop offset="1" stop-color="#FFA78F"/>
        </linearGradient>
        <linearGradient id="paint4_linear_1065_4290" x1="14.4709" y1="18.2679" x2="14.6772" y2="17.1449" gradientUnits="userSpaceOnUse">
            <stop stop-color="#F89580" stop-opacity="0"/>
            <stop offset="0.286" stop-color="#EE8E79" stop-opacity="0.287"/>
            <stop offset="0.762" stop-color="#D57B65" stop-opacity="0.765"/>
            <stop offset="0.997" stop-color="#C5715A"/>
        </linearGradient>
        <linearGradient id="paint5_linear_1065_4290" x1="14.2703" y1="19.0772" x2="15.061" y2="15.8802" gradientUnits="userSpaceOnUse">
            <stop stop-color="#F89580" stop-opacity="0"/>
            <stop offset="0.286" stop-color="#EE8E79" stop-opacity="0.287"/>
            <stop offset="0.762" stop-color="#D57B65" stop-opacity="0.765"/>
            <stop offset="0.997" stop-color="#C5715A"/>
        </linearGradient>
        <linearGradient id="paint6_linear_1065_4290" x1="12.7229" y1="19.3593" x2="9.99943" y2="21.1648" gradientUnits="userSpaceOnUse">
            <stop stop-color="#F89580" stop-opacity="0"/>
            <stop offset="0.286" stop-color="#EE8E79" stop-opacity="0.287"/>
            <stop offset="0.762" stop-color="#D57B65" stop-opacity="0.765"/>
            <stop offset="0.997" stop-color="#C5715A"/>
        </linearGradient>
        <linearGradient id="paint7_linear_1065_4290" x1="16.9257" y1="1.55516" x2="16.527" y2="2.76796" gradientUnits="userSpaceOnUse">
            <stop stop-color="#FFDFCF"/>
            <stop offset="1" stop-color="#FFA78F"/>
        </linearGradient>
        <linearGradient id="paint8_linear_1065_4290" x1="16.7864" y1="1.9747" x2="16.3544" y2="2.82196" gradientUnits="userSpaceOnUse">
            <stop stop-color="#F89580" stop-opacity="0"/>
            <stop offset="0.286" stop-color="#EE8E79" stop-opacity="0.287"/>
            <stop offset="0.762" stop-color="#D57B65" stop-opacity="0.765"/>
            <stop offset="0.997" stop-color="#C5715A"/>
        </linearGradient>
        <linearGradient id="paint9_linear_1065_4290" x1="17.5768" y1="3.35859" x2="17.8537" y2="3.97884" gradientUnits="userSpaceOnUse">
            <stop stop-color="white" stop-opacity="0"/>
            <stop offset="1" stop-color="white"/>
        </linearGradient>
        <linearGradient id="paint10_linear_1065_4290" x1="10.6017" y1="0.806531" x2="10.0202" y2="4.47816" gradientUnits="userSpaceOnUse">
            <stop stop-color="#FFDFCF"/>
            <stop offset="1" stop-color="#FFA78F"/>
        </linearGradient>
        <linearGradient id="paint11_linear_1065_4290" x1="9.49484" y1="5.71674" x2="9.28857" y2="6.83975" gradientUnits="userSpaceOnUse">
            <stop stop-color="#F89580" stop-opacity="0"/>
            <stop offset="0.286" stop-color="#EE8E79" stop-opacity="0.287"/>
            <stop offset="0.762" stop-color="#D57B65" stop-opacity="0.765"/>
            <stop offset="0.997" stop-color="#C5715A"/>
        </linearGradient>
        <linearGradient id="paint12_linear_1065_4290" x1="9.6954" y1="4.90736" x2="8.90475" y2="8.10445" gradientUnits="userSpaceOnUse">
            <stop stop-color="#F89580" stop-opacity="0"/>
            <stop offset="0.286" stop-color="#EE8E79" stop-opacity="0.287"/>
            <stop offset="0.762" stop-color="#D57B65" stop-opacity="0.765"/>
            <stop offset="0.997" stop-color="#C5715A"/>
        </linearGradient>
        <linearGradient id="paint13_linear_1065_4290" x1="11.2771" y1="4.64076" x2="14.0006" y2="2.83528" gradientUnits="userSpaceOnUse">
            <stop stop-color="#F89580" stop-opacity="0"/>
            <stop offset="0.286" stop-color="#EE8E79" stop-opacity="0.287"/>
            <stop offset="0.762" stop-color="#D57B65" stop-opacity="0.765"/>
            <stop offset="0.997" stop-color="#C5715A"/>
        </linearGradient>
        <linearGradient id="paint14_linear_1065_4290" x1="1.55529" y1="7.07433" x2="2.76808" y2="7.47305" gradientUnits="userSpaceOnUse">
            <stop stop-color="#FFA78F"/>
            <stop offset="1" stop-color="#EC806B"/>
        </linearGradient>
        <linearGradient id="paint15_linear_1065_4290" x1="1.97482" y1="7.21365" x2="2.82208" y2="7.6456" gradientUnits="userSpaceOnUse">
            <stop stop-color="#CA6E59" stop-opacity="0"/>
            <stop offset="0.555" stop-color="#A75542" stop-opacity="0.555"/>
            <stop offset="1" stop-color="#883F2E"/>
        </linearGradient>
        <linearGradient id="paint16_linear_1065_4290" x1="3.26655" y1="7.02258" x2="3.93485" y2="6.95579" gradientUnits="userSpaceOnUse">
            <stop stop-color="white" stop-opacity="0"/>
            <stop offset="1" stop-color="white"/>
        </linearGradient>
        <linearGradient id="paint17_linear_1065_4290" x1="0.806578" y1="13.3987" x2="4.47816" y2="13.9801" gradientUnits="userSpaceOnUse">
            <stop stop-color="#FFA78F"/>
            <stop offset="1" stop-color="#EC806B"/>
        </linearGradient>
        <linearGradient id="paint18_linear_1065_4290" x1="5.70687" y1="14.5284" x2="6.82988" y2="14.7346" gradientUnits="userSpaceOnUse">
            <stop stop-color="#CA6E59" stop-opacity="0"/>
            <stop offset="0.555" stop-color="#A75542" stop-opacity="0.555"/>
            <stop offset="1" stop-color="#883F2E"/>
        </linearGradient>
        <linearGradient id="paint19_linear_1065_4290" x1="4.89752" y1="14.3278" x2="8.09458" y2="15.1185" gradientUnits="userSpaceOnUse">
            <stop stop-color="#CA6E59" stop-opacity="0"/>
            <stop offset="0.555" stop-color="#A75542" stop-opacity="0.555"/>
            <stop offset="1" stop-color="#883F2E"/>
        </linearGradient>
        <linearGradient id="paint20_linear_1065_4290" x1="4.6404" y1="12.7227" x2="2.83496" y2="9.99919" gradientUnits="userSpaceOnUse">
            <stop stop-color="#CA6E59" stop-opacity="0"/>
            <stop offset="0.555" stop-color="#A75542" stop-opacity="0.555"/>
            <stop offset="1" stop-color="#883F2E"/>
        </linearGradient>
        <linearGradient id="paint21_linear_1065_4290" x1="22.4448" y1="16.9252" x2="21.232" y2="16.5265" gradientUnits="userSpaceOnUse">
            <stop stop-color="#F6AB31"/>
            <stop offset="1" stop-color="#CA6E59"/>
        </linearGradient>
        <linearGradient id="paint22_linear_1065_4290" x1="22.0253" y1="16.7859" x2="21.178" y2="16.354" gradientUnits="userSpaceOnUse">
            <stop stop-color="#883F2E" stop-opacity="0"/>
            <stop offset="0.929" stop-color="#883F2E" stop-opacity="0.929"/>
            <stop offset="1" stop-color="#883F2E"/>
        </linearGradient>
        <linearGradient id="paint23_linear_1065_4290" x1="20.8654" y1="16.7839" x2="20.3307" y2="16.7672" gradientUnits="userSpaceOnUse">
            <stop stop-color="white" stop-opacity="0"/>
            <stop offset="1" stop-color="white"/>
        </linearGradient>
        <linearGradient id="paint24_linear_1065_4290" x1="23.1935" y1="10.6016" x2="19.5219" y2="10.0201" gradientUnits="userSpaceOnUse">
            <stop stop-color="#F6AB31"/>
            <stop offset="1" stop-color="#CA6E59"/>
        </linearGradient>
        <linearGradient id="paint25_linear_1065_4290" x1="18.2794" y1="9.50574" x2="17.1563" y2="9.29948" gradientUnits="userSpaceOnUse">
            <stop stop-color="#883F2E" stop-opacity="0"/>
            <stop offset="0.929" stop-color="#883F2E" stop-opacity="0.929"/>
            <stop offset="1" stop-color="#883F2E"/>
        </linearGradient>
        <linearGradient id="paint26_linear_1065_4290" x1="19.0887" y1="9.70631" x2="15.8916" y2="8.91565" gradientUnits="userSpaceOnUse">
            <stop stop-color="#883F2E" stop-opacity="0"/>
            <stop offset="0.929" stop-color="#883F2E" stop-opacity="0.929"/>
            <stop offset="1" stop-color="#883F2E"/>
        </linearGradient>
        <linearGradient id="paint27_linear_1065_4290" x1="19.3596" y1="11.2772" x2="21.1651" y2="14.0006" gradientUnits="userSpaceOnUse">
            <stop stop-color="#883F2E" stop-opacity="0"/>
            <stop offset="0.929" stop-color="#883F2E" stop-opacity="0.929"/>
            <stop offset="1" stop-color="#883F2E"/>
        </linearGradient>
        <linearGradient id="paint28_linear_1065_4290" x1="7.20661" y1="7.20666" x2="17.1479" y2="17.1479" gradientUnits="userSpaceOnUse">
            <stop stop-color="#99E6FC"/>
            <stop offset="0.132" stop-color="#8FE1FB"/>
            <stop offset="0.362" stop-color="#72D5F9"/>
            <stop offset="0.661" stop-color="#44C2F6"/>
            <stop offset="1" stop-color="#08A9F1"/>
        </linearGradient>
        <linearGradient id="paint29_linear_1065_4290" x1="5.42997" y1="7.55714" x2="21.0646" y2="18.1298" gradientUnits="userSpaceOnUse">
            <stop stop-color="#314DC9" stop-opacity="0"/>
            <stop offset="0.405" stop-color="#2F4AC3" stop-opacity="0.405"/>
            <stop offset="0.906" stop-color="#2842B4" stop-opacity="0.906"/>
            <stop offset="1" stop-color="#2740B0"/>
        </linearGradient>
        <linearGradient id="paint30_linear_1065_4290" x1="8.04994" y1="3.81795" x2="18.8147" y2="26.1165" gradientUnits="userSpaceOnUse">
            <stop stop-color="#314DC9" stop-opacity="0"/>
            <stop offset="0.405" stop-color="#2F4AC3" stop-opacity="0.405"/>
            <stop offset="0.906" stop-color="#2842B4" stop-opacity="0.906"/>
            <stop offset="1" stop-color="#2740B0"/>
        </linearGradient>
        <linearGradient id="paint31_linear_1065_4290" x1="12" y1="13.4276" x2="12" y2="20.9358" gradientUnits="userSpaceOnUse">
            <stop stop-color="#314DC9" stop-opacity="0"/>
            <stop offset="0.405" stop-color="#2F4AC3" stop-opacity="0.405"/>
            <stop offset="0.906" stop-color="#2842B4" stop-opacity="0.906"/>
            <stop offset="1" stop-color="#2740B0"/>
        </linearGradient>
        <linearGradient id="paint32_linear_1065_4290" x1="13.3962" y1="12" x2="20.9146" y2="12" gradientUnits="userSpaceOnUse">
            <stop stop-color="#314DC9" stop-opacity="0"/>
            <stop offset="0.405" stop-color="#2F4AC3" stop-opacity="0.405"/>
            <stop offset="0.906" stop-color="#2842B4" stop-opacity="0.906"/>
            <stop offset="1" stop-color="#2740B0"/>
        </linearGradient>
        <linearGradient id="paint33_linear_1065_4290" x1="15.177" y1="15.1772" x2="19.3526" y2="19.3528" gradientUnits="userSpaceOnUse">
            <stop stop-color="white" stop-opacity="0"/>
            <stop offset="1" stop-color="white"/>
        </linearGradient>
        <linearGradient id="paint34_linear_1065_4290" x1="16.9288" y1="16.9284" x2="12.9727" y2="12.9723" gradientUnits="userSpaceOnUse">
            <stop stop-color="#314DC9" stop-opacity="0"/>
            <stop offset="0.405" stop-color="#2F4AC3" stop-opacity="0.405"/>
            <stop offset="0.906" stop-color="#2842B4" stop-opacity="0.906"/>
            <stop offset="1" stop-color="#2740B0"/>
        </linearGradient>
        <linearGradient id="paint35_linear_1065_4290" x1="10.3406" y1="8.70186" x2="12.6452" y2="12.3599" gradientUnits="userSpaceOnUse">
            <stop stop-color="#FEF0AE"/>
            <stop offset="1" stop-color="#FAC600"/>
        </linearGradient>
        <linearGradient id="paint36_linear_1065_4290" x1="14.1835" y1="11.2375" x2="16.1314" y2="12.088" gradientUnits="userSpaceOnUse">
            <stop stop-color="#FE9738" stop-opacity="0"/>
            <stop offset="0.248" stop-color="#FE9433" stop-opacity="0.249"/>
            <stop offset="0.549" stop-color="#FE8C24" stop-opacity="0.549"/>
            <stop offset="0.874" stop-color="#FE7D0C" stop-opacity="0.874"/>
            <stop offset="1" stop-color="#FE7701"/>
        </linearGradient>
        <linearGradient id="paint37_linear_1065_4290" x1="10.7431" y1="11.2064" x2="12.7916" y2="13.7488" gradientUnits="userSpaceOnUse">
            <stop stop-color="#26A6FE"/>
            <stop offset="1" stop-color="#2740B0"/>
        </linearGradient>
        <linearGradient id="paint38_linear_1065_4290" x1="13.9474" y1="13.3182" x2="15.5386" y2="14.1687" gradientUnits="userSpaceOnUse">
            <stop stop-color="#2740B0" stop-opacity="0"/>
            <stop offset="0.261" stop-color="#253DA9" stop-opacity="0.261"/>
            <stop offset="0.643" stop-color="#203496" stop-opacity="0.643"/>
            <stop offset="1" stop-color="#192A7D"/>
        </linearGradient>
        <linearGradient id="paint39_linear_1065_4290" x1="11.7047" y1="13.7435" x2="12.9301" y2="16.0115" gradientUnits="userSpaceOnUse">
            <stop stop-color="#FD4755"/>
            <stop offset="1" stop-color="#CA2E43"/>
        </linearGradient>
        <linearGradient id="paint40_linear_1065_4290" x1="12.3324" y1="14.8944" x2="13.2377" y2="16.5405" gradientUnits="userSpaceOnUse">
            <stop stop-color="#A72B2B" stop-opacity="0"/>
            <stop offset="0.242" stop-color="#A22C2B" stop-opacity="0.242"/>
            <stop offset="0.534" stop-color="#942E29" stop-opacity="0.534"/>
            <stop offset="0.851" stop-color="#7B3127" stop-opacity="0.851"/>
            <stop offset="1" stop-color="#6D3326"/>
        </linearGradient>
        <linearGradient id="paint41_linear_1065_4290" x1="22.0711" y1="16.9942" x2="21.1574" y2="15.8521" gradientUnits="userSpaceOnUse">
            <stop stop-color="#F6AB31"/>
            <stop offset="1" stop-color="#CA6E59"/>
        </linearGradient>
        <linearGradient id="paint42_linear_1065_4290" x1="20.3947" y1="15.4824" x2="19.5593" y2="15.0982" gradientUnits="userSpaceOnUse">
            <stop stop-color="white" stop-opacity="0"/>
            <stop offset="1" stop-color="white"/>
        </linearGradient>
        <linearGradient id="paint43_linear_1065_4290" x1="22.8089" y1="14.9413" x2="21.9442" y2="14.1419" gradientUnits="userSpaceOnUse">
            <stop stop-color="#F6AB31"/>
            <stop offset="1" stop-color="#CA6E59"/>
        </linearGradient>
        <linearGradient id="paint44_linear_1065_4290" x1="20.4742" y1="13.2903" x2="19.7391" y2="13.0564" gradientUnits="userSpaceOnUse">
            <stop stop-color="white" stop-opacity="0"/>
            <stop offset="1" stop-color="white"/>
        </linearGradient>
        <linearGradient id="paint45_linear_1065_4290" x1="22.974" y1="11.9874" x2="19.3025" y2="11.4059" gradientUnits="userSpaceOnUse">
            <stop stop-color="#F6AB31"/>
            <stop offset="1" stop-color="#CA6E59"/>
        </linearGradient>
        <linearGradient id="paint46_linear_1065_4290" x1="21.5298" y1="11.7561" x2="19.1568" y2="11.6387" gradientUnits="userSpaceOnUse">
            <stop stop-color="#883F2E" stop-opacity="0"/>
            <stop offset="0.929" stop-color="#883F2E" stop-opacity="0.929"/>
            <stop offset="1" stop-color="#883F2E"/>
        </linearGradient>
        <linearGradient id="paint47_linear_1065_4290" x1="19.5193" y1="12.1775" x2="18.5502" y2="12.3947" gradientUnits="userSpaceOnUse">
            <stop stop-color="white" stop-opacity="0"/>
            <stop offset="1" stop-color="white"/>
        </linearGradient>
        <linearGradient id="paint48_linear_1065_4290" x1="7.01248" y1="22.0671" x2="8.15458" y2="21.1534" gradientUnits="userSpaceOnUse">
            <stop stop-color="#FFDFCF"/>
            <stop offset="1" stop-color="#FFA78F"/>
        </linearGradient>
        <linearGradient id="paint49_linear_1065_4290" x1="8.54733" y1="20.5077" x2="8.88145" y2="19.9396" gradientUnits="userSpaceOnUse">
            <stop stop-color="white" stop-opacity="0"/>
            <stop offset="1" stop-color="white"/>
        </linearGradient>
        <linearGradient id="paint50_linear_1065_4290" x1="9.06587" y1="22.8049" x2="9.86524" y2="21.9403" gradientUnits="userSpaceOnUse">
            <stop stop-color="#FFDFCF"/>
            <stop offset="1" stop-color="#FFA78F"/>
        </linearGradient>
        <linearGradient id="paint51_linear_1065_4290" x1="10.6784" y1="20.5567" x2="10.9123" y2="19.8048" gradientUnits="userSpaceOnUse">
            <stop stop-color="white" stop-opacity="0"/>
            <stop offset="1" stop-color="white"/>
        </linearGradient>
        <linearGradient id="paint52_linear_1065_4290" x1="12.0127" y1="22.9743" x2="12.5942" y2="19.3028" gradientUnits="userSpaceOnUse">
            <stop stop-color="#FFDFCF"/>
            <stop offset="1" stop-color="#FFA78F"/>
        </linearGradient>
        <linearGradient id="paint53_linear_1065_4290" x1="12.2507" y1="21.5265" x2="12.3682" y2="19.1535" gradientUnits="userSpaceOnUse">
            <stop stop-color="#F89580" stop-opacity="0"/>
            <stop offset="0.286" stop-color="#EE8E79" stop-opacity="0.287"/>
            <stop offset="0.762" stop-color="#D57B65" stop-opacity="0.765"/>
            <stop offset="0.997" stop-color="#C5715A"/>
        </linearGradient>
        <linearGradient id="paint54_linear_1065_4290" x1="12.2827" y1="20.1619" x2="12.2994" y2="19.3933" gradientUnits="userSpaceOnUse">
            <stop stop-color="white" stop-opacity="0"/>
            <stop offset="1" stop-color="white"/>
        </linearGradient>
        <linearGradient id="paint55_linear_1065_4290" x1="17.0095" y1="1.92235" x2="15.8674" y2="2.83608" gradientUnits="userSpaceOnUse">
            <stop stop-color="#FFDFCF"/>
            <stop offset="1" stop-color="#FFA78F"/>
        </linearGradient>
        <linearGradient id="paint56_linear_1065_4290" x1="15.8549" y1="4.40649" x2="15.8716" y2="5.39223" gradientUnits="userSpaceOnUse">
            <stop stop-color="white" stop-opacity="0"/>
            <stop offset="1" stop-color="white"/>
        </linearGradient>
        <linearGradient id="paint57_linear_1065_4290" x1="14.9561" y1="1.18427" x2="14.1568" y2="2.04894" gradientUnits="userSpaceOnUse">
            <stop stop-color="#FFDFCF"/>
            <stop offset="1" stop-color="#FFA78F"/>
        </linearGradient>
        <linearGradient id="paint58_linear_1065_4290" x1="13.5884" y1="4.17261" x2="13.6051" y2="5.10823" gradientUnits="userSpaceOnUse">
            <stop stop-color="white" stop-opacity="0"/>
            <stop offset="1" stop-color="white"/>
        </linearGradient>
        <linearGradient id="paint59_linear_1065_4290" x1="11.9872" y1="1.02581" x2="11.4057" y2="4.69739" gradientUnits="userSpaceOnUse">
            <stop stop-color="#FFDFCF"/>
            <stop offset="1" stop-color="#FFA78F"/>
        </linearGradient>
        <linearGradient id="paint60_linear_1065_4290" x1="11.7712" y1="2.46353" x2="11.6537" y2="4.83656" gradientUnits="userSpaceOnUse">
            <stop stop-color="#F89580" stop-opacity="0"/>
            <stop offset="0.286" stop-color="#EE8E79" stop-opacity="0.287"/>
            <stop offset="0.762" stop-color="#D57B65" stop-opacity="0.765"/>
            <stop offset="0.997" stop-color="#C5715A"/>
        </linearGradient>
        <linearGradient id="paint61_linear_1065_4290" x1="11.95" y1="4.08886" x2="12.0837" y2="5.09133" gradientUnits="userSpaceOnUse">
            <stop stop-color="white" stop-opacity="0"/>
            <stop offset="1" stop-color="white"/>
        </linearGradient>
        <linearGradient id="paint62_linear_1065_4290" x1="1.93898" y1="7.02956" x2="2.85271" y2="8.17166" gradientUnits="userSpaceOnUse">
            <stop stop-color="#FFA78F"/>
            <stop offset="1" stop-color="#EC806B"/>
        </linearGradient>
        <linearGradient id="paint63_linear_1065_4290" x1="4.20716" y1="8.44224" x2="4.95904" y2="8.59261" gradientUnits="userSpaceOnUse">
            <stop stop-color="white" stop-opacity="0"/>
            <stop offset="1" stop-color="white"/>
        </linearGradient>
        <linearGradient id="paint64_linear_1065_4290" x1="1.20115" y1="9.08276" x2="2.06582" y2="9.88213" gradientUnits="userSpaceOnUse">
            <stop stop-color="#FFA78F"/>
            <stop offset="1" stop-color="#EC806B"/>
        </linearGradient>
        <linearGradient id="paint65_linear_1065_4290" x1="3.84396" y1="10.6465" x2="4.59583" y2="10.7802" gradientUnits="userSpaceOnUse">
            <stop stop-color="white" stop-opacity="0"/>
            <stop offset="1" stop-color="white"/>
        </linearGradient>
        <linearGradient id="paint66_linear_1065_4290" x1="1.026" y1="12.0133" x2="4.69757" y2="12.5947" gradientUnits="userSpaceOnUse">
            <stop stop-color="#FFA78F"/>
            <stop offset="1" stop-color="#EC806B"/>
        </linearGradient>
        <linearGradient id="paint67_linear_1065_4290" x1="2.48026" y1="12.2685" x2="4.85325" y2="12.386" gradientUnits="userSpaceOnUse">
            <stop stop-color="#CA6E59" stop-opacity="0"/>
            <stop offset="0.555" stop-color="#A75542" stop-opacity="0.555"/>
            <stop offset="1" stop-color="#883F2E"/>
        </linearGradient>
        <linearGradient id="paint68_linear_1065_4290" x1="3.73411" y1="12.2804" x2="4.5194" y2="12.297" gradientUnits="userSpaceOnUse">
            <stop stop-color="white" stop-opacity="0"/>
            <stop offset="1" stop-color="white"/>
        </linearGradient>
        <clipPath id="clip0_1065_4290">
            <rect width="24" height="24" fill="white"/>
        </clipPath>
    </defs>
</svg>
