<svg width="24" height="24" viewBox="0 0 24 24" fill="none" xmlns="http://www.w3.org/2000/svg">
    <path d="M14.2732 2.41929L14.4702 1.2417H9.52978L9.72685 2.41929C9.99881 4.04464 9.6593 5.513 8.8426 6.60917L8.33649 7.28848H15.6635L15.1574 6.60917C14.3407 5.513 14.0012 4.04464 14.2732 2.41929Z" fill="url(#paint0_linear_1507_1256)"/>
    <path d="M15.1574 6.60917C14.3407 5.513 14.0012 4.04464 14.2732 2.41929L14.4702 1.2417H11.294V7.28853H15.6635L15.1574 6.60917Z" fill="url(#paint1_linear_1507_1256)"/>
    <path d="M9.72685 2.41929C9.83471 3.06378 9.84605 3.68342 9.76997 4.26509H14.23C14.154 3.68342 14.1653 3.06378 14.2732 2.41929L14.4702 1.2417H9.52979L9.72685 2.41929Z" fill="url(#paint2_linear_1507_1256)"/>
    <path d="M10.4803 2.41929C10.5524 3.06378 10.56 3.68342 10.5091 4.26509H13.4909C13.44 3.68342 13.4476 3.06378 13.5197 2.41929L13.6515 1.2417H10.3486L10.4803 2.41929Z" fill="url(#paint3_linear_1507_1256)"/>
    <path d="M11.563 2.41929C11.5837 3.06378 11.5859 3.68342 11.5713 4.26509H12.4288C12.4141 3.68342 12.4164 3.06378 12.4371 2.41929L12.4749 1.2417H11.5251L11.563 2.41929Z" fill="url(#paint4_linear_1507_1256)"/>
    <path d="M14.3526 1.56731H9.64729C9.29216 1.56731 9.0043 1.27945 9.0043 0.924328C9.0043 0.776825 9.05501 0.633805 9.14793 0.519253C9.24086 0.404701 9.37034 0.325585 9.51468 0.295172L9.85358 0.223735C11.2689 -0.0745782 12.7309 -0.0745782 14.1463 0.223735L14.4852 0.295172C14.6295 0.325601 14.759 0.404722 14.8519 0.51927C14.9449 0.633818 14.9956 0.77683 14.9956 0.924328C14.9957 1.27941 14.7078 1.56731 14.3526 1.56731Z" fill="url(#paint5_linear_1507_1256)"/>
    <path d="M14.3527 1.56736C14.7078 1.56736 14.9956 1.2795 14.9956 0.924375C14.9956 0.776872 14.9449 0.633851 14.852 0.5193C14.7591 0.404748 14.6296 0.325631 14.4853 0.295219L14.1464 0.223781C13.4406 0.0749877 12.7213 -9.37078e-06 12 8.78204e-10V1.56736H14.3527Z" fill="url(#paint6_linear_1507_1256)"/>
    <path d="M9.0043 0.92416C9.0043 1.27929 9.29216 1.56714 9.64729 1.56714H14.3526C14.7078 1.56714 14.9956 1.27929 14.9956 0.92416C14.9956 0.739379 14.9166 0.570207 14.7881 0.45166H9.21177C9.1464 0.511792 9.09421 0.584829 9.0585 0.666158C9.02279 0.747486 9.00433 0.835337 9.0043 0.92416Z" fill="url(#paint7_linear_1507_1256)"/>
    <path d="M21.9026 7.47843L19.9608 9.42028C19.7201 9.66098 19.3298 9.66098 19.0891 9.42028L17.1473 7.47843C16.9066 7.23773 16.9066 6.84745 17.1473 6.60675L19.0891 4.6649C19.3298 4.4242 19.7201 4.4242 19.9608 4.6649L21.9026 6.60675C22.1433 6.84745 22.1433 7.23773 21.9026 7.47843Z" fill="url(#paint8_linear_1507_1256)"/>
    <path d="M21.9026 7.47843L19.9608 9.42028C19.7201 9.66098 19.3298 9.66098 19.0891 9.42028L17.1473 7.47843C16.9066 7.23773 16.9066 6.84745 17.1473 6.60675L19.0891 4.6649C19.3298 4.4242 19.7201 4.4242 19.9608 4.6649L21.9026 6.60675C22.1433 6.84745 22.1433 7.23773 21.9026 7.47843Z" fill="url(#paint9_linear_1507_1256)"/>
    <path d="M2.09737 7.47843L4.03921 9.42028C4.27991 9.66098 4.6702 9.66098 4.9109 9.42028L6.85274 7.47843C7.09345 7.23773 7.09345 6.84745 6.85274 6.60675L4.9109 4.6649C4.6702 4.4242 4.27991 4.4242 4.03921 4.6649L2.09737 6.60675C1.85666 6.84745 1.85666 7.23773 2.09737 7.47843Z" fill="url(#paint10_linear_1507_1256)"/>
    <path d="M2.09737 7.47843L4.03921 9.42028C4.27991 9.66098 4.6702 9.66098 4.9109 9.42028L6.85274 7.47843C7.09345 7.23773 7.09345 6.84745 6.85274 6.60675L4.9109 4.6649C4.6702 4.4242 4.27991 4.4242 4.03921 4.6649L2.09737 6.60675C1.85666 6.84745 1.85666 7.23773 2.09737 7.47843Z" fill="url(#paint11_linear_1507_1256)"/>
    <path d="M12 23.9999C17.5696 23.9999 22.0847 19.4849 22.0847 13.9153C22.0847 8.34563 17.5696 3.83057 12 3.83057C6.43038 3.83057 1.91531 8.34563 1.91531 13.9153C1.91531 19.4849 6.43038 23.9999 12 23.9999Z" fill="url(#paint12_linear_1507_1256)"/>
    <path d="M12 22.0453C16.49 22.0453 20.1298 18.4054 20.1298 13.9155C20.1298 9.42548 16.49 5.78564 12 5.78564C7.51002 5.78564 3.87018 9.42548 3.87018 13.9155C3.87018 18.4054 7.51002 22.0453 12 22.0453Z" fill="url(#paint13_linear_1507_1256)"/>
    <path d="M1.91531 13.9153C1.91531 19.4849 6.43036 24 12 24C17.5696 24 22.0847 19.4849 22.0847 13.9153C22.0847 12.709 21.8722 11.5526 21.4838 10.4805H2.5162C2.12784 11.5526 1.91531 12.709 1.91531 13.9153Z" fill="url(#paint14_linear_1507_1256)"/>
    <path d="M4.86906 21.0465C8.80736 24.9848 15.1926 24.9848 19.1309 21.0465C23.0692 17.1082 23.0692 10.7229 19.1309 6.78462C18.278 5.93168 17.31 5.26423 16.2773 4.78076L2.8652 18.1928C3.34867 19.2256 4.01613 20.1935 4.86906 21.0465Z" fill="url(#paint15_linear_1507_1256)"/>
    <path d="M12 20.7878C15.7957 20.7878 18.8727 17.7108 18.8727 13.9152C18.8727 10.1195 15.7957 7.04248 12 7.04248C8.20432 7.04248 5.12732 10.1195 5.12732 13.9152C5.12732 17.7108 8.20432 20.7878 12 20.7878Z" fill="url(#paint16_linear_1507_1256)"/>
    <path d="M18.8727 13.9152C18.8727 10.1195 15.7956 7.04248 12 7.04248C8.20434 7.04248 5.12732 10.1195 5.12732 13.9152C5.12732 14.7372 5.27212 15.5253 5.53682 16.2559H18.4632C18.7279 15.5253 18.8727 14.7372 18.8727 13.9152Z" fill="url(#paint17_linear_1507_1256)"/>
    <path d="M16.8597 9.05544C14.1758 6.37152 9.82426 6.37147 7.14029 9.05544C4.45637 11.7394 4.45637 16.091 7.14029 18.7749C7.72159 19.3562 8.38121 19.811 9.08504 20.1405L18.2253 11.0002C17.8959 10.2964 17.441 9.63674 16.8597 9.05544Z" fill="url(#paint18_linear_1507_1256)"/>
    <path d="M11.3918 14.5235L13.4351 16.5669C13.7701 16.9018 14.3174 16.9158 14.6548 16.5834L14.668 16.5702C15.0005 16.2327 14.9865 15.6854 14.6515 15.3505L12.6082 13.3071L11.3918 14.5235Z" fill="url(#paint19_linear_1507_1256)"/>
    <path d="M11.3918 14.5237L16.2137 19.3455C16.4406 19.169 16.6564 18.9785 16.8597 18.7752C19.0613 16.5735 19.4565 13.25 18.0462 10.6451L16.6213 9.22021L11.3918 14.5237Z" fill="url(#paint20_linear_1507_1256)"/>
    <path d="M12 13.8277L11.6995 13.5272L13.1394 11.6522C13.6326 11.0099 14.4296 10.2962 15.6814 9.49506L16.1986 9.16408C16.4972 8.97297 16.8546 9.33043 16.6635 9.62903L16.3326 10.1462C15.5314 11.398 14.8177 12.195 14.1754 12.6882L12.3004 14.1281L12 13.8277Z" fill="url(#paint21_linear_1507_1256)"/>
    <path d="M14.6017 12.324L13.5038 11.2261C13.3675 11.3715 13.2459 11.5137 13.1394 11.6523L11.6996 13.5273L12.0001 13.8278L12.3005 14.1282L14.1755 12.6884C14.3141 12.5819 14.4563 12.4603 14.6017 12.324Z" fill="url(#paint22_linear_1507_1256)"/>
    <path d="M12 7.87988C11.9359 7.87988 11.8745 7.90533 11.8292 7.95063C11.7839 7.99593 11.7585 8.05737 11.7585 8.12143V9.05265C11.7585 9.11671 11.7839 9.17815 11.8292 9.22345C11.8745 9.26875 11.9359 9.2942 12 9.2942C12.0641 9.2942 12.1255 9.26875 12.1708 9.22345C12.2161 9.17815 12.2415 9.11671 12.2415 9.05265V8.12143C12.2415 8.05737 12.2161 7.99593 12.1708 7.95063C12.1255 7.90533 12.0641 7.87988 12 7.87988Z" fill="url(#paint23_linear_1507_1256)"/>
    <path d="M12 18.5366C11.9683 18.5366 11.9369 18.5429 11.9076 18.555C11.8783 18.5671 11.8516 18.5849 11.8292 18.6074C11.8068 18.6298 11.789 18.6564 11.7768 18.6857C11.7647 18.715 11.7585 18.7464 11.7585 18.7782V19.7094C11.7585 19.7734 11.7839 19.8349 11.8292 19.8802C11.8745 19.9255 11.9359 19.9509 12 19.9509C12.0641 19.9509 12.1255 19.9255 12.1708 19.8802C12.2161 19.8349 12.2415 19.7734 12.2415 19.7094V18.7782C12.2415 18.7464 12.2353 18.715 12.2232 18.6857C12.211 18.6564 12.1932 18.6298 12.1708 18.6074C12.1484 18.5849 12.1217 18.5671 12.0924 18.555C12.0631 18.5429 12.0317 18.5366 12 18.5366Z" fill="url(#paint24_linear_1507_1256)"/>
    <path d="M17.794 13.6738H16.8628C16.8311 13.6738 16.7997 13.6801 16.7704 13.6922C16.7411 13.7044 16.7145 13.7221 16.692 13.7446C16.6696 13.767 16.6518 13.7936 16.6397 13.8229C16.6275 13.8522 16.6213 13.8837 16.6213 13.9154C16.6213 13.9471 16.6275 13.9785 16.6397 14.0078C16.6518 14.0371 16.6696 14.0637 16.692 14.0862C16.7145 14.1086 16.7411 14.1264 16.7704 14.1385C16.7997 14.1507 16.8311 14.1569 16.8628 14.1569H17.794C17.8258 14.1569 17.8572 14.1507 17.8865 14.1385C17.9158 14.1264 17.9424 14.1086 17.9648 14.0862C17.9873 14.0637 18.0051 14.0371 18.0172 14.0078C18.0293 13.9785 18.0356 13.9471 18.0356 13.9154C18.0356 13.8837 18.0293 13.8522 18.0172 13.8229C18.0051 13.7936 17.9873 13.767 17.9648 13.7446C17.9424 13.7221 17.9158 13.7044 17.8865 13.6922C17.8572 13.6801 17.8258 13.6738 17.794 13.6738Z" fill="url(#paint25_linear_1507_1256)"/>
    <path d="M7.37873 13.9154C7.37873 13.8513 7.35328 13.7899 7.30798 13.7446C7.26268 13.6993 7.20124 13.6738 7.13718 13.6738H6.20596C6.17424 13.6738 6.14283 13.6801 6.11353 13.6922C6.08422 13.7044 6.05759 13.7221 6.03516 13.7446C6.01273 13.767 5.99494 13.7936 5.9828 13.8229C5.97066 13.8522 5.96442 13.8837 5.96442 13.9154C5.96442 13.9471 5.97066 13.9785 5.9828 14.0078C5.99494 14.0371 6.01273 14.0637 6.03516 14.0862C6.05759 14.1086 6.08422 14.1264 6.11353 14.1385C6.14283 14.1507 6.17424 14.1569 6.20596 14.1569H7.13718C7.20124 14.1569 7.26268 14.1315 7.30798 14.0862C7.35328 14.0409 7.37873 13.9794 7.37873 13.9154Z" fill="url(#paint26_linear_1507_1256)"/>
    <path d="M9.31214 8.77702C9.29628 8.74955 9.27517 8.72547 9.25 8.70616C9.22483 8.68685 9.19611 8.67269 9.16547 8.66448C9.13483 8.65627 9.10288 8.65418 9.07143 8.65832C9.03998 8.66246 9.00966 8.67275 8.98219 8.68861C8.95472 8.70447 8.93064 8.72559 8.91133 8.75075C8.89202 8.77592 8.87786 8.80464 8.86965 8.83528C8.86144 8.86592 8.85935 8.89787 8.86349 8.92932C8.86763 8.96077 8.87792 8.9911 8.89378 9.01857L9.35939 9.82505C9.37525 9.85252 9.39637 9.8766 9.42153 9.89591C9.4467 9.91522 9.47542 9.92938 9.50606 9.93759C9.5367 9.9458 9.56865 9.94789 9.6001 9.94375C9.63155 9.93961 9.66187 9.92932 9.68934 9.91346C9.71681 9.8976 9.74089 9.87648 9.7602 9.85131C9.77951 9.82615 9.79367 9.79743 9.80188 9.76679C9.81009 9.73615 9.81219 9.70419 9.80805 9.67275C9.8039 9.6413 9.79361 9.61097 9.77775 9.5835L9.31214 8.77702Z" fill="url(#paint27_linear_1507_1256)"/>
    <path d="M14.6406 18.006C14.6247 17.9786 14.6036 17.9545 14.5784 17.9352C14.5533 17.9159 14.5245 17.9017 14.4939 17.8935C14.4633 17.8853 14.4313 17.8832 14.3999 17.8873C14.3684 17.8915 14.3381 17.9018 14.3106 17.9176C14.2831 17.9335 14.2591 17.9546 14.2398 17.9798C14.2205 18.0049 14.2063 18.0336 14.1981 18.0643C14.1899 18.0949 14.1878 18.1269 14.1919 18.1583C14.1961 18.1898 14.2064 18.2201 14.2222 18.2476L14.6878 19.0541C14.7037 19.0815 14.7248 19.1056 14.75 19.1249C14.7751 19.1442 14.8038 19.1584 14.8345 19.1666C14.8651 19.1748 14.8971 19.1769 14.9285 19.1728C14.96 19.1686 14.9903 19.1583 15.0178 19.1425C15.0452 19.1266 15.0693 19.1055 15.0886 19.0803C15.1079 19.0552 15.1221 19.0264 15.1303 18.9958C15.1385 18.9652 15.1406 18.9332 15.1365 18.9017C15.1323 18.8703 15.122 18.84 15.1062 18.8125L14.6406 18.006Z" fill="url(#paint28_linear_1507_1256)"/>
    <path d="M16.3321 11.6932L17.1386 11.2276C17.1661 11.2117 17.1901 11.1906 17.2094 11.1654C17.2288 11.1403 17.2429 11.1115 17.2511 11.0809C17.2593 11.0503 17.2614 11.0183 17.2573 10.9869C17.2532 10.9554 17.2429 10.9251 17.227 10.8976C17.2111 10.8702 17.19 10.8461 17.1649 10.8268C17.1397 10.8075 17.111 10.7933 17.0803 10.7851C17.0497 10.7769 17.0177 10.7748 16.9863 10.7789C16.9548 10.7831 16.9245 10.7934 16.897 10.8092L16.0906 11.2748C16.0355 11.3071 15.9955 11.3598 15.9792 11.4215C15.9629 11.4831 15.9716 11.5487 16.0035 11.604C16.0354 11.6592 16.0879 11.6996 16.1494 11.7163C16.211 11.733 16.2767 11.7247 16.3321 11.6932Z" fill="url(#paint29_linear_1507_1256)"/>
    <path d="M7.66792 16.1373L6.86143 16.603C6.8064 16.6352 6.76637 16.6879 6.75006 16.7496C6.73376 16.8113 6.7425 16.8769 6.7744 16.9321C6.80629 16.9874 6.85874 17.0277 6.9203 17.0444C6.98186 17.0612 7.04753 17.0528 7.10298 17.0213L7.90946 16.5557C7.93693 16.5398 7.96101 16.5187 7.98032 16.4936C7.99963 16.4684 8.01379 16.4397 8.022 16.409C8.03021 16.3784 8.03231 16.3464 8.02816 16.315C8.02402 16.2835 8.01373 16.2532 7.99787 16.2257C7.98201 16.1983 7.96089 16.1742 7.93573 16.1549C7.91056 16.1356 7.88184 16.1214 7.8512 16.1132C7.82056 16.105 7.78861 16.1029 7.75716 16.107C7.72571 16.1112 7.69539 16.1215 7.66792 16.1373Z" fill="url(#paint30_linear_1507_1256)"/>
    <path d="M15.0178 8.68861C14.9623 8.65658 14.8964 8.6479 14.8345 8.66448C14.7726 8.68106 14.7199 8.72154 14.6878 8.77702L14.2222 9.5835C14.1907 9.63895 14.1824 9.70462 14.1991 9.76618C14.2158 9.82774 14.2562 9.88019 14.3114 9.91208C14.3667 9.94398 14.4323 9.95273 14.4939 9.93642C14.5556 9.92011 14.6083 9.88008 14.6406 9.82505L15.1062 9.01856C15.1221 8.9911 15.1323 8.96077 15.1365 8.92932C15.1406 8.89787 15.1385 8.86591 15.1303 8.83527C15.1221 8.80463 15.108 8.77591 15.0886 8.75075C15.0693 8.72558 15.0453 8.70447 15.0178 8.68861Z" fill="url(#paint31_linear_1507_1256)"/>
    <path d="M9.68935 17.9176C9.66188 17.9018 9.63156 17.8915 9.60011 17.8873C9.56866 17.8832 9.5367 17.8853 9.50606 17.8935C9.47542 17.9017 9.44669 17.9159 9.42153 17.9352C9.39637 17.9545 9.37525 17.9786 9.3594 18.006L8.89379 18.8125C8.86226 18.868 8.85394 18.9336 8.87065 18.9952C8.88736 19.0568 8.92774 19.1092 8.98298 19.1411C9.03822 19.173 9.10384 19.1817 9.16551 19.1654C9.22717 19.1491 9.27989 19.1091 9.31215 19.0541L9.77775 18.2476C9.79362 18.2201 9.80392 18.1898 9.80806 18.1583C9.81221 18.1269 9.81011 18.0949 9.8019 18.0643C9.79369 18.0337 9.77953 18.0049 9.76022 17.9798C9.7409 17.9546 9.71682 17.9335 9.68935 17.9176Z" fill="url(#paint32_linear_1507_1256)"/>
    <path d="M7.90946 11.2748L7.10298 10.8092C7.07551 10.7934 7.04518 10.7831 7.01373 10.7789C6.98229 10.7748 6.95033 10.7769 6.91969 10.7851C6.88905 10.7933 6.86033 10.8075 6.83516 10.8268C6.81 10.8461 6.78888 10.8702 6.77302 10.8976C6.75716 10.9251 6.74687 10.9554 6.74273 10.9869C6.73859 11.0183 6.74068 11.0503 6.74889 11.0809C6.7571 11.1115 6.77126 11.1403 6.79057 11.1654C6.80988 11.1906 6.83396 11.2117 6.86143 11.2276L7.66791 11.6932C7.72336 11.7247 7.78903 11.733 7.85059 11.7163C7.91215 11.6996 7.9646 11.6592 7.9965 11.604C8.02839 11.5487 8.03714 11.4831 8.02083 11.4215C8.00453 11.3598 7.96449 11.3071 7.90946 11.2748Z" fill="url(#paint33_linear_1507_1256)"/>
    <path d="M17.1385 16.6031L16.332 16.1375C16.2766 16.106 16.2109 16.0977 16.1494 16.1144C16.0878 16.1311 16.0354 16.1715 16.0035 16.2267C15.9716 16.282 15.9628 16.3476 15.9791 16.4092C15.9954 16.4709 16.0355 16.5236 16.0905 16.5559L16.897 17.0215C16.9245 17.0374 16.9548 17.0477 16.9862 17.0518C17.0177 17.0559 17.0496 17.0538 17.0803 17.0456C17.1109 17.0374 17.1396 17.0233 17.1648 17.0039C17.19 16.9846 17.2111 16.9606 17.2269 16.9331C17.2428 16.9056 17.2531 16.8753 17.2572 16.8438C17.2614 16.8124 17.2593 16.7804 17.2511 16.7498C17.2429 16.7192 17.2287 16.6904 17.2094 16.6653C17.1901 16.6401 17.166 16.619 17.1385 16.6031Z" fill="url(#paint34_linear_1507_1256)"/>
    <path d="M12 14.7755C12.475 14.7755 12.8601 14.3904 12.8601 13.9153C12.8601 13.4403 12.475 13.0552 12 13.0552C11.5249 13.0552 11.1398 13.4403 11.1398 13.9153C11.1398 14.3904 11.5249 14.7755 12 14.7755Z" fill="url(#paint35_linear_1507_1256)"/>
    <path d="M11.1398 13.9155C11.1398 14.3906 11.5249 14.7757 12 14.7757C12.475 14.7757 12.8601 14.3906 12.8601 13.9155C12.8602 13.8156 12.8429 13.7165 12.8089 13.6226H11.1911C11.1571 13.7165 11.1397 13.8156 11.1398 13.9155Z" fill="url(#paint36_linear_1507_1256)"/>
    <path d="M11.3918 14.5235C11.7277 14.8594 12.2723 14.8594 12.6082 14.5235C12.9441 14.1876 12.9441 13.643 12.6082 13.3071C12.5376 13.2364 12.4553 13.1786 12.3648 13.1362L11.2209 14.2802C11.2633 14.3706 11.3211 14.453 11.3918 14.5235Z" fill="url(#paint37_linear_1507_1256)"/>
    <defs>
        <linearGradient id="paint0_linear_1507_1256" x1="10.7771" y1="4.26509" x2="12.9608" y2="4.26509" gradientUnits="userSpaceOnUse">
            <stop stop-color="#FFA1AE"/>
            <stop offset="1" stop-color="#FF4565"/>
        </linearGradient>
        <linearGradient id="paint1_linear_1507_1256" x1="11.9267" y1="4.44246" x2="14.3008" y2="4.17111" gradientUnits="userSpaceOnUse">
            <stop stop-color="#FE0364" stop-opacity="0"/>
            <stop offset="0.234" stop-color="#F90362" stop-opacity="0.234"/>
            <stop offset="0.517" stop-color="#EA035B" stop-opacity="0.517"/>
            <stop offset="0.824" stop-color="#D20250" stop-opacity="0.824"/>
            <stop offset="1" stop-color="#C00148"/>
        </linearGradient>
        <linearGradient id="paint2_linear_1507_1256" x1="12" y1="2.82317" x2="12" y2="1.37431" gradientUnits="userSpaceOnUse">
            <stop stop-color="#FE0364" stop-opacity="0"/>
            <stop offset="0.234" stop-color="#F90362" stop-opacity="0.234"/>
            <stop offset="0.517" stop-color="#EA035B" stop-opacity="0.517"/>
            <stop offset="0.824" stop-color="#D20250" stop-opacity="0.824"/>
            <stop offset="1" stop-color="#C00148"/>
        </linearGradient>
        <linearGradient id="paint3_linear_1507_1256" x1="11.767" y1="-0.116832" x2="12.4491" y2="6.1325" gradientUnits="userSpaceOnUse">
            <stop stop-color="#FE0364" stop-opacity="0"/>
            <stop offset="0.234" stop-color="#F90362" stop-opacity="0.234"/>
            <stop offset="0.517" stop-color="#EA035B" stop-opacity="0.517"/>
            <stop offset="0.824" stop-color="#D20250" stop-opacity="0.824"/>
            <stop offset="1" stop-color="#C00148"/>
        </linearGradient>
        <linearGradient id="paint4_linear_1507_1256" x1="11.5562" y1="2.20873" x2="12.6624" y2="3.49915" gradientUnits="userSpaceOnUse">
            <stop stop-color="#FE0364" stop-opacity="0"/>
            <stop offset="0.234" stop-color="#F90362" stop-opacity="0.234"/>
            <stop offset="0.517" stop-color="#EA035B" stop-opacity="0.517"/>
            <stop offset="0.824" stop-color="#D20250" stop-opacity="0.824"/>
            <stop offset="1" stop-color="#C00148"/>
        </linearGradient>
        <linearGradient id="paint5_linear_1507_1256" x1="12" y1="0.26236" x2="12" y2="1.39542" gradientUnits="userSpaceOnUse">
            <stop stop-color="#FFA1AE"/>
            <stop offset="1" stop-color="#FF4565"/>
        </linearGradient>
        <linearGradient id="paint6_linear_1507_1256" x1="13.6584" y1="1.12913" x2="14.6792" y2="1.6448" gradientUnits="userSpaceOnUse">
            <stop stop-color="#FE0364" stop-opacity="0"/>
            <stop offset="0.234" stop-color="#F90362" stop-opacity="0.234"/>
            <stop offset="0.517" stop-color="#EA035B" stop-opacity="0.517"/>
            <stop offset="0.824" stop-color="#D20250" stop-opacity="0.824"/>
            <stop offset="1" stop-color="#C00148"/>
        </linearGradient>
        <linearGradient id="paint7_linear_1507_1256" x1="12" y1="0.904191" x2="12" y2="1.61308" gradientUnits="userSpaceOnUse">
            <stop stop-color="#FE0364" stop-opacity="0"/>
            <stop offset="0.234" stop-color="#F90362" stop-opacity="0.234"/>
            <stop offset="0.517" stop-color="#EA035B" stop-opacity="0.517"/>
            <stop offset="0.824" stop-color="#D20250" stop-opacity="0.824"/>
            <stop offset="1" stop-color="#C00148"/>
        </linearGradient>
        <linearGradient id="paint8_linear_1507_1256" x1="17.8265" y1="7.19986" x2="21.0929" y2="6.89929" gradientUnits="userSpaceOnUse">
            <stop stop-color="#FEF0AE"/>
            <stop offset="1" stop-color="#FAC600"/>
        </linearGradient>
        <linearGradient id="paint9_linear_1507_1256" x1="20.2793" y1="7.80128" x2="20.9209" y2="8.44285" gradientUnits="userSpaceOnUse">
            <stop stop-color="#FE9738" stop-opacity="0"/>
            <stop offset="1" stop-color="#FE9738"/>
        </linearGradient>
        <linearGradient id="paint10_linear_1507_1256" x1="3.24787" y1="5.81536" x2="4.59773" y2="7.16521" gradientUnits="userSpaceOnUse">
            <stop stop-color="#FEF0AE"/>
            <stop offset="1" stop-color="#FAC600"/>
        </linearGradient>
        <linearGradient id="paint11_linear_1507_1256" x1="3.72377" y1="7.8026" x2="3.0822" y2="8.44416" gradientUnits="userSpaceOnUse">
            <stop stop-color="#FE9738" stop-opacity="0"/>
            <stop offset="1" stop-color="#FE9738"/>
        </linearGradient>
        <linearGradient id="paint12_linear_1507_1256" x1="5.83134" y1="7.7466" x2="16.9592" y2="18.8745" gradientUnits="userSpaceOnUse">
            <stop stop-color="#B3DAFE"/>
            <stop offset="1" stop-color="#0182FC"/>
        </linearGradient>
        <linearGradient id="paint13_linear_1507_1256" x1="17.6901" y1="19.6055" x2="5.44368" y2="7.35919" gradientUnits="userSpaceOnUse">
            <stop stop-color="#B3DAFE"/>
            <stop offset="1" stop-color="#0182FC"/>
        </linearGradient>
        <linearGradient id="paint14_linear_1507_1256" x1="12" y1="14.0429" x2="12" y2="25.9062" gradientUnits="userSpaceOnUse">
            <stop stop-color="#314DC9" stop-opacity="0"/>
            <stop offset="0.276" stop-color="#304BC4" stop-opacity="0.276"/>
            <stop offset="0.563" stop-color="#2B45B8" stop-opacity="0.563"/>
            <stop offset="0.854" stop-color="#243BA3" stop-opacity="0.854"/>
            <stop offset="1" stop-color="#1F3596"/>
        </linearGradient>
        <linearGradient id="paint15_linear_1507_1256" x1="12.1081" y1="14.0109" x2="20.9381" y2="22.8408" gradientUnits="userSpaceOnUse">
            <stop stop-color="#314DC9" stop-opacity="0"/>
            <stop offset="0.276" stop-color="#304BC4" stop-opacity="0.276"/>
            <stop offset="0.563" stop-color="#2B45B8" stop-opacity="0.563"/>
            <stop offset="0.854" stop-color="#243BA3" stop-opacity="0.854"/>
            <stop offset="1" stop-color="#1F3596"/>
        </linearGradient>
        <linearGradient id="paint16_linear_1507_1256" x1="16.2039" y1="18.1191" x2="8.62026" y2="10.5355" gradientUnits="userSpaceOnUse">
            <stop stop-color="#F5FBFF"/>
            <stop offset="1" stop-color="#DBD5EF"/>
        </linearGradient>
        <linearGradient id="paint17_linear_1507_1256" x1="11.2137" y1="11.6137" x2="9.55541" y2="6.76165" gradientUnits="userSpaceOnUse">
            <stop stop-color="#DBD5EF" stop-opacity="0"/>
            <stop offset="0.285" stop-color="#D9D2EE" stop-opacity="0.285"/>
            <stop offset="0.474" stop-color="#D4C9E9" stop-opacity="0.474"/>
            <stop offset="0.635" stop-color="#CBBAE2" stop-opacity="0.635"/>
            <stop offset="0.779" stop-color="#BFA5D7" stop-opacity="0.78"/>
            <stop offset="0.913" stop-color="#AF8ACA" stop-opacity="0.913"/>
            <stop offset="1" stop-color="#A274BF"/>
        </linearGradient>
        <linearGradient id="paint18_linear_1507_1256" x1="8.62482" y1="12.2948" x2="5.55385" y2="10.8207" gradientUnits="userSpaceOnUse">
            <stop stop-color="#DBD5EF" stop-opacity="0"/>
            <stop offset="0.285" stop-color="#D9D2EE" stop-opacity="0.285"/>
            <stop offset="0.474" stop-color="#D4C9E9" stop-opacity="0.474"/>
            <stop offset="0.635" stop-color="#CBBAE2" stop-opacity="0.635"/>
            <stop offset="0.779" stop-color="#BFA5D7" stop-opacity="0.78"/>
            <stop offset="0.913" stop-color="#AF8ACA" stop-opacity="0.913"/>
            <stop offset="1" stop-color="#A274BF"/>
        </linearGradient>
        <linearGradient id="paint19_linear_1507_1256" x1="14.389" y1="15.5118" x2="11.5637" y2="14.4063" gradientUnits="userSpaceOnUse">
            <stop stop-color="#DBD5EF" stop-opacity="0"/>
            <stop offset="0.285" stop-color="#D9D2EE" stop-opacity="0.285"/>
            <stop offset="0.474" stop-color="#D4C9E9" stop-opacity="0.474"/>
            <stop offset="0.635" stop-color="#CBBAE2" stop-opacity="0.635"/>
            <stop offset="0.779" stop-color="#BFA5D7" stop-opacity="0.78"/>
            <stop offset="0.913" stop-color="#AF8ACA" stop-opacity="0.913"/>
            <stop offset="1" stop-color="#A274BF"/>
        </linearGradient>
        <linearGradient id="paint20_linear_1507_1256" x1="15.9864" y1="13.9114" x2="14.062" y2="12.2531" gradientUnits="userSpaceOnUse">
            <stop stop-color="#DBD5EF" stop-opacity="0"/>
            <stop offset="0.285" stop-color="#D9D2EE" stop-opacity="0.285"/>
            <stop offset="0.474" stop-color="#D4C9E9" stop-opacity="0.474"/>
            <stop offset="0.635" stop-color="#CBBAE2" stop-opacity="0.635"/>
            <stop offset="0.779" stop-color="#BFA5D7" stop-opacity="0.78"/>
            <stop offset="0.913" stop-color="#AF8ACA" stop-opacity="0.913"/>
            <stop offset="1" stop-color="#A274BF"/>
        </linearGradient>
        <linearGradient id="paint21_linear_1507_1256" x1="13.9621" y1="11.1751" x2="14.6799" y2="11.8928" gradientUnits="userSpaceOnUse">
            <stop stop-color="#FFA1AE"/>
            <stop offset="1" stop-color="#FF4565"/>
        </linearGradient>
        <linearGradient id="paint22_linear_1507_1256" x1="13.299" y1="12.5288" x2="12.4778" y2="13.3501" gradientUnits="userSpaceOnUse">
            <stop stop-color="#FE0364" stop-opacity="0"/>
            <stop offset="0.234" stop-color="#F90362" stop-opacity="0.234"/>
            <stop offset="0.517" stop-color="#EA035B" stop-opacity="0.517"/>
            <stop offset="0.824" stop-color="#D20250" stop-opacity="0.824"/>
            <stop offset="1" stop-color="#C00148"/>
        </linearGradient>
        <linearGradient id="paint23_linear_1507_1256" x1="38.366" y1="26.6647" x2="7.22491" y2="5.31296" gradientUnits="userSpaceOnUse">
            <stop stop-color="#DBD5EF" stop-opacity="0"/>
            <stop offset="0.285" stop-color="#D9D2EE" stop-opacity="0.285"/>
            <stop offset="0.474" stop-color="#D4C9E9" stop-opacity="0.474"/>
            <stop offset="0.635" stop-color="#CBBAE2" stop-opacity="0.635"/>
            <stop offset="0.779" stop-color="#BFA5D7" stop-opacity="0.78"/>
            <stop offset="0.913" stop-color="#AF8ACA" stop-opacity="0.913"/>
            <stop offset="1" stop-color="#A274BF"/>
        </linearGradient>
        <linearGradient id="paint24_linear_1507_1256" x1="33.3958" y1="33.9136" x2="2.25466" y2="12.5619" gradientUnits="userSpaceOnUse">
            <stop stop-color="#DBD5EF" stop-opacity="0"/>
            <stop offset="0.285" stop-color="#D9D2EE" stop-opacity="0.285"/>
            <stop offset="0.474" stop-color="#D4C9E9" stop-opacity="0.474"/>
            <stop offset="0.635" stop-color="#CBBAE2" stop-opacity="0.635"/>
            <stop offset="0.779" stop-color="#BFA5D7" stop-opacity="0.78"/>
            <stop offset="0.913" stop-color="#AF8ACA" stop-opacity="0.913"/>
            <stop offset="1" stop-color="#A274BF"/>
        </linearGradient>
        <linearGradient id="paint25_linear_1507_1256" x1="37.5848" y1="27.804" x2="6.44368" y2="6.45232" gradientUnits="userSpaceOnUse">
            <stop stop-color="#DBD5EF" stop-opacity="0"/>
            <stop offset="0.285" stop-color="#D9D2EE" stop-opacity="0.285"/>
            <stop offset="0.474" stop-color="#D4C9E9" stop-opacity="0.474"/>
            <stop offset="0.635" stop-color="#CBBAE2" stop-opacity="0.635"/>
            <stop offset="0.779" stop-color="#BFA5D7" stop-opacity="0.78"/>
            <stop offset="0.913" stop-color="#AF8ACA" stop-opacity="0.913"/>
            <stop offset="1" stop-color="#A274BF"/>
        </linearGradient>
        <linearGradient id="paint26_linear_1507_1256" x1="34.177" y1="32.7743" x2="3.03585" y2="11.4226" gradientUnits="userSpaceOnUse">
            <stop stop-color="#DBD5EF" stop-opacity="0"/>
            <stop offset="0.285" stop-color="#D9D2EE" stop-opacity="0.285"/>
            <stop offset="0.474" stop-color="#D4C9E9" stop-opacity="0.474"/>
            <stop offset="0.635" stop-color="#CBBAE2" stop-opacity="0.635"/>
            <stop offset="0.779" stop-color="#BFA5D7" stop-opacity="0.78"/>
            <stop offset="0.913" stop-color="#AF8ACA" stop-opacity="0.913"/>
            <stop offset="1" stop-color="#A274BF"/>
        </linearGradient>
        <linearGradient id="paint27_linear_1507_1256" x1="37.1811" y1="28.393" x2="6.03998" y2="7.04129" gradientUnits="userSpaceOnUse">
            <stop stop-color="#DBD5EF" stop-opacity="0"/>
            <stop offset="0.285" stop-color="#D9D2EE" stop-opacity="0.285"/>
            <stop offset="0.474" stop-color="#D4C9E9" stop-opacity="0.474"/>
            <stop offset="0.635" stop-color="#CBBAE2" stop-opacity="0.635"/>
            <stop offset="0.779" stop-color="#BFA5D7" stop-opacity="0.78"/>
            <stop offset="0.913" stop-color="#AF8ACA" stop-opacity="0.913"/>
            <stop offset="1" stop-color="#A274BF"/>
        </linearGradient>
        <linearGradient id="paint28_linear_1507_1256" x1="34.5806" y1="32.1856" x2="3.43956" y2="10.8339" gradientUnits="userSpaceOnUse">
            <stop stop-color="#DBD5EF" stop-opacity="0"/>
            <stop offset="0.285" stop-color="#D9D2EE" stop-opacity="0.285"/>
            <stop offset="0.474" stop-color="#D4C9E9" stop-opacity="0.474"/>
            <stop offset="0.635" stop-color="#CBBAE2" stop-opacity="0.635"/>
            <stop offset="0.779" stop-color="#BFA5D7" stop-opacity="0.78"/>
            <stop offset="0.913" stop-color="#AF8ACA" stop-opacity="0.913"/>
            <stop offset="1" stop-color="#A274BF"/>
        </linearGradient>
        <linearGradient id="paint29_linear_1507_1256" x1="38.5991" y1="26.3248" x2="7.45796" y2="4.97304" gradientUnits="userSpaceOnUse">
            <stop stop-color="#DBD5EF" stop-opacity="0"/>
            <stop offset="0.285" stop-color="#D9D2EE" stop-opacity="0.285"/>
            <stop offset="0.474" stop-color="#D4C9E9" stop-opacity="0.474"/>
            <stop offset="0.635" stop-color="#CBBAE2" stop-opacity="0.635"/>
            <stop offset="0.779" stop-color="#BFA5D7" stop-opacity="0.78"/>
            <stop offset="0.913" stop-color="#AF8ACA" stop-opacity="0.913"/>
            <stop offset="1" stop-color="#A274BF"/>
        </linearGradient>
        <linearGradient id="paint30_linear_1507_1256" x1="33.1627" y1="34.2533" x2="2.02158" y2="12.9016" gradientUnits="userSpaceOnUse">
            <stop stop-color="#DBD5EF" stop-opacity="0"/>
            <stop offset="0.285" stop-color="#D9D2EE" stop-opacity="0.285"/>
            <stop offset="0.474" stop-color="#D4C9E9" stop-opacity="0.474"/>
            <stop offset="0.635" stop-color="#CBBAE2" stop-opacity="0.635"/>
            <stop offset="0.779" stop-color="#BFA5D7" stop-opacity="0.78"/>
            <stop offset="0.913" stop-color="#AF8ACA" stop-opacity="0.913"/>
            <stop offset="1" stop-color="#A274BF"/>
        </linearGradient>
        <linearGradient id="paint31_linear_1507_1256" x1="38.885" y1="25.9079" x2="7.74389" y2="4.55619" gradientUnits="userSpaceOnUse">
            <stop stop-color="#DBD5EF" stop-opacity="0"/>
            <stop offset="0.285" stop-color="#D9D2EE" stop-opacity="0.285"/>
            <stop offset="0.474" stop-color="#D4C9E9" stop-opacity="0.474"/>
            <stop offset="0.635" stop-color="#CBBAE2" stop-opacity="0.635"/>
            <stop offset="0.779" stop-color="#BFA5D7" stop-opacity="0.78"/>
            <stop offset="0.913" stop-color="#AF8ACA" stop-opacity="0.913"/>
            <stop offset="1" stop-color="#A274BF"/>
        </linearGradient>
        <linearGradient id="paint32_linear_1507_1256" x1="32.8767" y1="34.6708" x2="1.73565" y2="13.3191" gradientUnits="userSpaceOnUse">
            <stop stop-color="#DBD5EF" stop-opacity="0"/>
            <stop offset="0.285" stop-color="#D9D2EE" stop-opacity="0.285"/>
            <stop offset="0.474" stop-color="#D4C9E9" stop-opacity="0.474"/>
            <stop offset="0.635" stop-color="#CBBAE2" stop-opacity="0.635"/>
            <stop offset="0.779" stop-color="#BFA5D7" stop-opacity="0.78"/>
            <stop offset="0.913" stop-color="#AF8ACA" stop-opacity="0.913"/>
            <stop offset="1" stop-color="#A274BF"/>
        </linearGradient>
        <linearGradient id="paint33_linear_1507_1256" x1="35.6478" y1="30.6291" x2="4.5067" y2="9.2774" gradientUnits="userSpaceOnUse">
            <stop stop-color="#DBD5EF" stop-opacity="0"/>
            <stop offset="0.285" stop-color="#D9D2EE" stop-opacity="0.285"/>
            <stop offset="0.474" stop-color="#D4C9E9" stop-opacity="0.474"/>
            <stop offset="0.635" stop-color="#CBBAE2" stop-opacity="0.635"/>
            <stop offset="0.779" stop-color="#BFA5D7" stop-opacity="0.78"/>
            <stop offset="0.913" stop-color="#AF8ACA" stop-opacity="0.913"/>
            <stop offset="1" stop-color="#A274BF"/>
        </linearGradient>
        <linearGradient id="paint34_linear_1507_1256" x1="36.1139" y1="29.9492" x2="4.97281" y2="8.59747" gradientUnits="userSpaceOnUse">
            <stop stop-color="#DBD5EF" stop-opacity="0"/>
            <stop offset="0.285" stop-color="#D9D2EE" stop-opacity="0.285"/>
            <stop offset="0.474" stop-color="#D4C9E9" stop-opacity="0.474"/>
            <stop offset="0.635" stop-color="#CBBAE2" stop-opacity="0.635"/>
            <stop offset="0.779" stop-color="#BFA5D7" stop-opacity="0.78"/>
            <stop offset="0.913" stop-color="#AF8ACA" stop-opacity="0.913"/>
            <stop offset="1" stop-color="#A274BF"/>
        </linearGradient>
        <linearGradient id="paint35_linear_1507_1256" x1="11.4739" y1="13.3892" x2="12.423" y2="14.3383" gradientUnits="userSpaceOnUse">
            <stop stop-color="#FEF0AE"/>
            <stop offset="1" stop-color="#FAC600"/>
        </linearGradient>
        <linearGradient id="paint36_linear_1507_1256" x1="12" y1="13.9264" x2="12" y2="14.9383" gradientUnits="userSpaceOnUse">
            <stop stop-color="#FE9738" stop-opacity="0"/>
            <stop offset="1" stop-color="#FE9738"/>
        </linearGradient>
        <linearGradient id="paint37_linear_1507_1256" x1="12.0256" y1="13.9281" x2="12.7787" y2="14.6812" gradientUnits="userSpaceOnUse">
            <stop stop-color="#FE9738" stop-opacity="0"/>
            <stop offset="1" stop-color="#FE9738"/>
        </linearGradient>
    </defs>
</svg>
