<svg width="22" height="22" viewBox="0 0 22 22" fill="none" xmlns="http://www.w3.org/2000/svg">
    <path fill-rule="evenodd" clip-rule="evenodd" d="M3.4375 7.5625H6.27344C6.58499 8.77932 7.68143 9.63039 8.9375 9.63039C10.1936 9.63039 11.29 8.77932 11.6016 7.5625H18.5625C18.9422 7.5625 19.25 7.2547 19.25 6.875C19.25 6.4953 18.9422 6.1875 18.5625 6.1875H11.6016C11.29 4.97068 10.1936 4.11961 8.9375 4.11961C7.68143 4.11961 6.58499 4.97068 6.27344 6.1875H3.4375C3.0578 6.1875 2.75 6.4953 2.75 6.875C2.75 7.2547 3.0578 7.5625 3.4375 7.5625ZM8.9375 5.5C9.69689 5.5 10.3125 6.11561 10.3125 6.875C10.3125 7.63439 9.69689 8.25 8.9375 8.25C8.17811 8.25 7.5625 7.63439 7.5625 6.875C7.5625 6.11561 8.17811 5.5 8.9375 5.5ZM18.5625 14.4375H17.1016C16.79 13.2207 15.6936 12.3696 14.4375 12.3696C13.1814 12.3696 12.085 13.2207 11.7734 14.4375H3.4375C3.0578 14.4375 2.75 14.7453 2.75 15.125C2.75 15.5047 3.0578 15.8125 3.4375 15.8125H11.7734C12.085 17.0293 13.1814 17.8804 14.4375 17.8804C15.6936 17.8804 16.79 17.0293 17.1016 15.8125H18.5625C18.9422 15.8125 19.25 15.5047 19.25 15.125C19.25 14.7453 18.9422 14.4375 18.5625 14.4375ZM14.4375 16.5C13.6781 16.5 13.0625 15.8844 13.0625 15.125C13.0625 14.3656 13.6781 13.75 14.4375 13.75C15.1969 13.75 15.8125 14.3656 15.8125 15.125C15.8125 15.8844 15.1969 16.5 14.4375 16.5Z" fill="#333333"/>
</svg>
