<svg width="100" height="100" viewBox="0 0 100 100" fill="none" xmlns="http://www.w3.org/2000/svg">
    <path fill-rule="evenodd" clip-rule="evenodd" d="M40.4732 9.14844C49.7426 9.14844 57.3422 16.7285 57.3422 25.9738V38.7439H66.5142V25.9738C66.5144 11.6752 54.8033 0 40.4732 0C26.1431 0 14.432 11.6752 14.432 25.9738V38.7439H23.6041V25.9738C23.6043 16.7285 31.2039 9.14844 40.4732 9.14844Z" fill="url(#paint0_linear_53_1157)"/>
    <path fill-rule="evenodd" clip-rule="evenodd" d="M66.5144 25.9738C66.5144 11.6752 54.8032 5.6878e-06 40.4731 5.6878e-06C37.6174 -0.00188645 34.781 0.468319 32.0786 1.39161C33.1428 1.2587 34.2142 1.19203 35.2866 1.192C49.6167 1.192 61.3278 12.8729 61.3278 27.1658V38.7439H66.5144V25.9738Z" fill="url(#paint1_linear_53_1157)"/>
    <path fill-rule="evenodd" clip-rule="evenodd" d="M13.3285 36.7365C7.9189 36.7365 3.49292 41.151 3.49292 46.5467V61.142C3.49292 81.4295 20.1332 98.0267 40.4732 98.0267C47.3923 98.0267 53.8826 96.1047 59.4294 92.7738L77.4535 57.9252V46.5467C77.4535 41.1512 73.0275 36.7365 67.6179 36.7365H13.3285Z" fill="url(#paint2_linear_53_1157)" fill-opacity="0.9"/>
    <path fill-rule="evenodd" clip-rule="evenodd" d="M40.4732 51.0865C36.0529 51.0865 32.4675 54.6569 32.4675 59.0658C32.4675 61.9119 33.9599 64.4043 36.2015 65.8244L34.5212 76.7448C34.5084 76.8282 34.5138 76.9135 34.537 76.9948C34.5602 77.076 34.6007 77.1512 34.6557 77.2153C34.7107 77.2795 34.7789 77.3309 34.8556 77.3662C34.9324 77.4015 35.0159 77.4198 35.1003 77.4198H45.8457C45.9301 77.4198 46.0136 77.4015 46.0904 77.3662C46.1671 77.3309 46.2353 77.2795 46.2903 77.2153C46.3453 77.1512 46.3858 77.076 46.409 76.9948C46.4322 76.9135 46.4376 76.8282 46.4248 76.7448L44.7445 65.8244C46.9861 64.4043 48.4785 61.9117 48.4785 59.0658C48.4789 54.6569 44.8935 51.0865 40.4732 51.0865Z" fill="#025F80"/>
    <path fill-rule="evenodd" clip-rule="evenodd" d="M75.3607 57.8225C63.684 57.8225 54.2201 67.2617 54.2201 78.9084C54.2201 84.2184 56.1873 89.0664 59.4295 92.7736C63.3064 97.1996 69.0076 100 75.3607 100C87.0375 100 96.507 90.5549 96.507 78.9084C96.507 67.9689 88.1525 58.9746 77.4537 57.9252C76.7582 57.8562 76.0596 57.8219 75.3607 57.8225Z" fill="url(#paint3_linear_53_1157)" fill-opacity="0.8"/>
    <path fill-rule="evenodd" clip-rule="evenodd" d="M39.158 51.1893C42.1658 52.3584 44.3044 55.3129 44.3044 58.7694C44.3074 60.1352 43.967 61.4799 43.3145 62.6798C42.662 63.8797 41.7185 64.8964 40.5705 65.6364L42.3546 77.4198H45.846C45.9305 77.4198 46.014 77.4015 46.0907 77.3662C46.1675 77.3309 46.2357 77.2795 46.2907 77.2153C46.3457 77.1512 46.3862 77.076 46.4094 76.9948C46.4326 76.9135 46.438 76.8282 46.4251 76.7448L44.7449 65.8244C46.9865 64.4043 48.4789 61.9117 48.4789 59.0658C48.4789 54.6571 44.8935 51.0865 40.4732 51.0865C40.0273 51.0865 39.5869 51.1207 39.158 51.1893Z" fill="#024C67"/>
    <path fill-rule="evenodd" clip-rule="evenodd" d="M96.5069 78.9084C96.5069 67.9689 88.1524 58.9746 77.4536 57.9252C76.7675 57.8568 76.0698 57.8224 75.3606 57.8224C73.8683 57.8224 72.4042 57.9764 70.9976 58.273C81.6679 59.3453 89.9995 68.3283 89.9995 79.2562C89.9995 89.4086 82.8001 97.884 73.222 99.8916C73.9253 99.9599 74.6401 100 75.3606 100C87.0374 100 96.5069 90.5549 96.5069 78.9084Z" fill="url(#paint4_linear_53_1157)" fill-opacity="0.9"/>
    <path fill-rule="evenodd" clip-rule="evenodd" d="M77.4534 46.5465C77.4534 41.151 73.0275 36.7363 67.6179 36.7363H57.3419C62.7515 36.7363 67.1775 41.1508 67.1775 46.5465V59.4594C68.3954 58.9518 69.6763 58.5469 70.9974 58.273C72.4322 57.9722 73.8944 57.8212 75.3605 57.8225C76.0695 57.8225 76.7671 57.8566 77.4534 57.9252V46.5465Z" fill="url(#paint5_linear_53_1157)"/>
    <path d="M75.3607 87.1762C75.1626 87.1762 74.9663 87.1372 74.7832 87.0614C74.6002 86.9856 74.4338 86.8744 74.2937 86.7343C74.1535 86.5942 74.0424 86.4278 73.9666 86.2447C73.8907 86.0616 73.8517 85.8654 73.8518 85.6672V78.8799C73.8518 78.4797 74.0107 78.0959 74.2937 77.8129C74.5767 77.5299 74.9605 77.3709 75.3607 77.3709C76.7498 77.3709 78.0406 76.8166 78.9961 75.8106C79.9443 74.8117 80.4272 73.5032 80.3555 72.1256C80.2195 69.5328 78.0725 67.4602 75.4676 67.4076C75.4328 67.4069 75.3979 67.4065 75.3631 67.4065C72.8727 67.4065 70.7537 69.2313 70.4109 71.6909C70.3794 71.9223 70.3633 72.1557 70.3627 72.3893C70.3627 72.7895 70.2037 73.1733 69.9207 73.4563C69.6377 73.7393 69.2539 73.8983 68.8537 73.8983C68.4535 73.8983 68.0697 73.7393 67.7867 73.4563C67.5037 73.1733 67.3447 72.7895 67.3447 72.3893C67.3447 72.0289 67.3705 71.6557 67.4211 71.2803C67.9807 67.2662 71.4648 64.3104 75.5291 64.3899C79.7068 64.4742 83.1512 67.803 83.3697 71.968C83.485 74.1809 82.7092 76.2832 81.1854 77.8883C80.0268 79.1084 78.5064 79.9291 76.8701 80.2444V85.667C76.87 86.0673 76.7109 86.4511 76.4278 86.7341C76.1448 87.0171 75.761 87.1761 75.3607 87.1762ZM75.3625 93.433C75.1432 93.4333 74.9264 93.3858 74.7274 93.2937C74.5283 93.2017 74.3517 93.0673 74.2098 92.9C74.068 92.7328 73.9643 92.5366 73.906 92.3252C73.8477 92.1137 73.8362 91.8921 73.8723 91.6758L73.8779 91.6416C73.9103 91.4461 73.9809 91.2588 74.0857 91.0905C74.1906 90.9223 74.3276 90.7764 74.4889 90.6612C74.6502 90.5459 74.8326 90.4637 75.0258 90.4191C75.2189 90.3745 75.419 90.3684 75.6145 90.4012C76.0092 90.4671 76.3616 90.687 76.5942 91.0127C76.8268 91.3383 76.9206 91.743 76.8549 92.1377L76.8492 92.1719C76.7905 92.524 76.609 92.8438 76.3368 93.0747C76.0646 93.3056 75.7194 93.4325 75.3625 93.433Z" fill="white"/>
    <defs>
        <linearGradient id="paint0_linear_53_1157" x1="14.432" y1="18.47" x2="66.5178" y2="19.0502" gradientUnits="userSpaceOnUse">
            <stop stop-color="#595CFF"/>
            <stop offset="1" stop-color="#C6F8FF"/>
        </linearGradient>
        <linearGradient id="paint1_linear_53_1157" x1="32.0786" y1="18.47" x2="66.5191" y2="18.7237" gradientUnits="userSpaceOnUse">
            <stop stop-color="#0061FF"/>
            <stop offset="1" stop-color="#60EFFF"/>
        </linearGradient>
        <linearGradient id="paint2_linear_53_1157" x1="3.49292" y1="65.9548" x2="77.4603" y2="66.6945" gradientUnits="userSpaceOnUse">
            <stop stop-color="#D38656"/>
            <stop offset="1" stop-color="#F9AC69"/>
        </linearGradient>
        <linearGradient id="paint3_linear_53_1157" x1="54.2201" y1="77.9294" x2="96.5122" y2="78.2807" gradientUnits="userSpaceOnUse">
            <stop stop-color="#FF0F43"/>
            <stop offset="1" stop-color="#F84829"/>
        </linearGradient>
        <linearGradient id="paint4_linear_53_1157" x1="70.9976" y1="77.9294" x2="96.5112" y2="78.0572" gradientUnits="userSpaceOnUse">
            <stop stop-color="#FF0F43"/>
            <stop offset="1" stop-color="#F84829"/>
        </linearGradient>
        <linearGradient id="paint5_linear_53_1157" x1="57.3419" y1="47.5689" x2="77.4562" y2="47.7164" gradientUnits="userSpaceOnUse">
            <stop stop-color="#D38656"/>
            <stop offset="1" stop-color="#F9AC69"/>
        </linearGradient>
    </defs>
</svg>
