<svg width="24" height="24" viewBox="0 0 24 24" fill="none" xmlns="http://www.w3.org/2000/svg">
    <g clip-path="url(#clip0_1507_3835)">
        <path d="M13.5431 10.2044C13.5431 6.623 10.6402 3.72021 7.06035 3.72021C3.47891 3.72021 0.576599 6.62304 0.576599 10.2044C0.576599 13.3629 2.83513 15.9926 5.82543 16.5697V18.4774H4.83224C4.15124 18.4774 3.59835 19.0298 3.59835 19.7108C3.59835 20.3932 4.15124 20.9457 4.83224 20.9457H5.82543V22.7663C5.82543 23.4473 6.37836 24.0002 7.0603 24.0002C7.22238 24.0004 7.3829 23.9685 7.53267 23.9066C7.68245 23.8446 7.81854 23.7538 7.93316 23.6392C8.0478 23.5246 8.13868 23.3885 8.20055 23.2387C8.26243 23.0889 8.29409 22.9284 8.29372 22.7663V20.9457H9.28696C9.96941 20.9457 10.5218 20.3932 10.5218 19.7108C10.5218 19.0298 9.96941 18.4774 9.28696 18.4774H8.29372V16.5697C11.2845 15.9926 13.5431 13.3629 13.5431 10.2044ZM7.0603 14.4073C4.73844 14.4073 2.8574 12.5248 2.8574 10.2044C2.8574 7.88253 4.73849 6.0005 7.0603 6.0005C9.38071 6.0005 11.2633 7.88253 11.2633 10.2044C11.2633 12.5248 9.38071 14.4073 7.0603 14.4073Z" fill="#FE93BB"/>
        <path d="M7.50279 20.9458H8.29423V22.7659C8.29423 23.1069 8.15614 23.4153 7.93269 23.6387C7.70923 23.8622 7.40042 24.0002 7.05983 24.0002C7.04853 24.0002 7.03723 24.0002 7.02594 23.9994C7.16609 23.8732 7.31459 23.7496 7.38204 23.5673C7.43876 23.4141 7.41537 23.2398 7.41537 23.0801V21.1765C7.41537 21.0491 7.37539 20.9458 7.50279 20.9458ZM10.521 19.7464C10.5025 20.4186 9.93392 20.9458 9.2614 20.9458H8.8235C9.30214 20.9458 9.67119 20.4909 9.62023 20.0239C9.58831 19.7314 9.48008 19.516 9.212 19.3832C8.96731 19.2619 8.70054 19.2186 8.42933 19.2186H7.64698C7.58579 19.2186 7.52711 19.1943 7.48384 19.151C7.44057 19.1077 7.41626 19.0491 7.41626 18.9879V17.1436C7.41626 16.945 7.55215 16.7729 7.74495 16.7251C7.92439 16.6806 8.12103 16.6286 8.29414 16.5694V18.477H9.28709C9.98037 18.477 10.5403 19.0488 10.521 19.7464ZM13.5434 10.2038C13.5434 13.0445 11.7166 15.4577 9.17375 16.3339C10.6673 15.3436 12.2729 13.8964 12.4538 10.9566C12.6737 7.38242 10.7352 5.19012 7.18686 4.54067C6.5569 4.42536 5.01523 4.31478 4.1915 4.3872C5.05639 3.9604 6.03008 3.72021 7.05983 3.72021C10.6407 3.72021 13.5434 6.62286 13.5434 10.2038Z" fill="#FE76A8"/>
        <path d="M22.1599 11.9676H22.1565C21.4586 11.9676 20.8931 12.5331 20.8931 13.2305L18.2146 10.552C18.1005 10.4374 18.0817 10.2606 18.1667 10.1233C19.7776 7.51432 19.4166 4.03347 17.0827 1.81699C14.4959 -0.640199 10.3877 -0.599606 7.84696 1.90493C5.21868 4.49646 5.20706 8.72843 7.81312 11.334C10.034 13.5553 13.436 13.8743 15.9971 12.2929C16.1344 12.2078 16.3117 12.2267 16.4258 12.3408L19.1044 15.0193C18.7554 15.0193 18.4398 15.1609 18.2112 15.389C17.9831 15.6181 17.8415 15.9337 17.8415 16.2827V16.286C17.8415 16.9834 18.407 17.5494 19.1044 17.5494H22.6538C23.0787 17.5494 23.4233 17.2048 23.4233 16.78V13.2305C23.4232 12.5331 22.8577 11.9676 22.1599 11.9676ZM12.5104 11.0285C10.0851 11.0285 8.11851 9.06241 8.11851 6.63663C8.11851 4.21085 10.0851 2.24472 12.5104 2.24472C14.9362 2.24472 16.9028 4.21085 16.9028 6.63663C16.9028 9.06241 14.9362 11.0285 12.5104 11.0285Z" fill="#6BD9E7"/>
        <path d="M17.0826 1.81699C14.4959 -0.640199 10.3877 -0.599606 7.84692 1.90493C7.06879 2.67246 6.5197 3.58347 6.20071 4.5535C6.52551 3.85802 6.93796 3.39564 7.51696 2.82438C10.0578 0.319847 14.1659 0.279254 16.7527 2.73639C18.6878 4.57399 19.3064 7.09286 18.5296 9.45096C19.7032 6.94066 19.2213 3.84789 17.0826 1.81699ZM17.8393 10.8477C17.7984 10.9103 17.7802 10.9849 17.7877 11.0592C17.7952 11.1335 17.828 11.203 17.8805 11.2561L18.4147 11.7968C18.7709 12.1573 19.1274 12.5176 19.4834 12.8782C19.7435 13.1416 20.0035 13.4045 20.263 13.6675C20.6898 14.099 21.1826 14.2441 21.5601 13.7182C21.6629 13.5749 21.727 13.4002 21.8513 13.2726C22.1577 12.9582 22.6752 13.281 22.6791 13.6786V17.549C23.0924 17.536 23.4234 17.1967 23.4234 16.7801V13.2311C23.4234 12.5334 22.8577 11.9677 22.16 11.9677H22.1566C21.4587 11.9677 20.8933 12.5332 20.8933 13.2306L18.2147 10.5521C18.1741 10.5113 18.1442 10.461 18.128 10.4058L17.8393 10.8477Z" fill="#2ED1E2"/>
    </g>
    <defs>
        <clipPath id="clip0_1507_3835">
            <rect width="24" height="24" fill="white"/>
        </clipPath>
    </defs>
</svg>
