<svg width="48" height="48" viewBox="0 0 48 48" fill="none" xmlns="http://www.w3.org/2000/svg">
    <path d="M48 24C48 10.7452 37.2548 0 24 0C10.7452 0 0 10.7452 0 24C0 37.2548 10.7452 48 24 48C37.2548 48 48 37.2548 48 24Z" fill="white"/>
    <path fill-rule="evenodd" clip-rule="evenodd" d="M41.9995 24.4177C41.9995 23.1142 41.8826 21.8608 41.6653 20.6575H24.3518V27.7684H34.2452C33.8191 30.0663 32.5239 32.0133 30.577 33.3168V37.9293H36.5181C39.9941 34.7289 41.9995 30.0162 41.9995 24.4177Z" fill="#4285F4"/>
    <path fill-rule="evenodd" clip-rule="evenodd" d="M24.3518 42.3831C29.3153 42.3831 33.4765 40.737 36.5181 37.9294L30.577 33.3169C28.9309 34.4199 26.8252 35.0717 24.3518 35.0717C19.5639 35.0717 15.5113 31.8379 14.0657 27.4928H7.92407V32.2557C10.9489 38.2636 17.1657 42.3831 24.3518 42.3831Z" fill="#34A853"/>
    <path fill-rule="evenodd" clip-rule="evenodd" d="M14.0657 27.4927C13.698 26.3897 13.4891 25.2115 13.4891 23.9999C13.4891 22.7883 13.698 21.6101 14.0657 20.5071V15.7443H7.92404C6.679 18.226 5.96875 21.0336 5.96875 23.9999C5.96875 26.9663 6.679 29.7739 7.92404 32.2556L14.0657 27.4927Z" fill="#FBBC05"/>
    <path fill-rule="evenodd" clip-rule="evenodd" d="M24.3518 12.9284C27.0508 12.9284 29.474 13.8559 31.3792 15.6775L36.6518 10.4049C33.4682 7.43858 29.3069 5.61699 24.3518 5.61699C17.1657 5.61699 10.9489 9.73646 7.92407 15.7444L14.0657 20.5073C15.5113 16.1622 19.5639 12.9284 24.3518 12.9284Z" fill="#EA4335"/>
</svg>
