<svg width="24" height="24" viewBox="0 0 24 24" fill="none" xmlns="http://www.w3.org/2000/svg">
    <g clip-path="url(#clip0_1527_2069)">
        <path d="M12.6844 22.4487H11.3156V23.7568L11.3625 23.9779C11.5735 23.9896 11.7861 23.9956 12 23.9956C12.214 23.9956 12.4265 23.9896 12.6376 23.9779L12.6845 23.7568L12.6844 22.4487Z" fill="#FE9901"/>
        <path d="M12 1.03564C5.65734 1.03564 0.515625 6.17736 0.515625 12.52C0.515625 15.8742 1.95384 18.8922 4.24692 20.9919L4.2938 21.0065V19.9905L1.57552 14.1612L3.08381 13.4578L5.2928 18.195C5.31552 18.2434 5.35155 18.2844 5.39668 18.3132C5.44181 18.3419 5.49419 18.3573 5.5477 18.3574H9.9563C10.7059 18.3574 11.3157 18.9672 11.3157 19.7167V22.5044H12.6845V19.7167C12.6845 18.9672 13.2943 18.3574 14.0438 18.3574H18.4349L20.9163 13.036L22.4246 13.7393L19.7063 19.5687V21.0065L19.7532 20.9919C22.0462 18.8922 23.4844 15.8742 23.4844 12.52C23.4844 6.17741 18.3427 1.03564 12 1.03564Z" fill="#B6C4CF"/>
        <path d="M18.957 15.6607L18.9691 15.7174C18.979 15.7635 18.984 15.8103 18.984 15.8563V16.226C18.984 16.5909 18.6871 16.8877 18.3223 16.8877H18.1049L18.099 16.9278C18.0136 17.5143 17.5452 17.9891 16.96 18.0824L16.9205 18.0887V18.3573H18.4348L19.6923 15.6606H18.957V15.6607Z" fill="#BB5D4C"/>
        <path d="M10.546 2.39192L10.6561 2.39229L11.8187 1.85019L11.9763 1.51217L11.6987 0.74942C11.6904 0.725568 11.6858 0.700564 11.6852 0.675311L11.5479 0.380795C11.3958 0.0546387 11.0081 -0.086502 10.6819 0.0656074L10.2698 0.257748C9.94368 0.409857 9.80254 0.797561 9.95465 1.12372L10.546 2.39192Z" fill="#EA9B58"/>
        <path d="M10.7165 1.26699C10.5644 0.940837 10.7055 0.553087 11.0317 0.401024L11.4349 0.213009C11.2477 0.011118 10.9448 -0.0570851 10.6819 0.0655399L10.2698 0.257681C9.94365 0.40979 9.80251 0.797493 9.95461 1.12365L10.546 2.39185L10.6561 2.39223L11.1367 2.16812L10.7165 1.26699Z" fill="#D88A55"/>
        <path d="M23.6236 0.257748L23.2115 0.0656074C22.8853 -0.086502 22.4976 0.0546387 22.3455 0.380795L22.1692 0.758889L22.0987 0.565014C22.0713 0.493059 22.0167 0.434764 21.9467 0.40273C21.8767 0.370696 21.797 0.367496 21.7246 0.393823C21.6523 0.420149 21.5932 0.473887 21.5602 0.543419C21.5271 0.612951 21.5228 0.692692 21.5481 0.765404L21.819 1.50992L21.7542 1.64895L21.7903 1.71753L23.2458 2.39623L23.3475 2.39192L23.9389 1.12372C24.0909 0.797561 23.9497 0.409811 23.6236 0.257748Z" fill="#EA9B58"/>
        <path d="M2.13688 1.75147L2.24582 1.64895L2.18099 1.50992L2.45198 0.765404C2.46514 0.729249 2.47105 0.690855 2.46937 0.652416C2.46769 0.613977 2.45846 0.576244 2.44219 0.541374C2.42593 0.506504 2.40296 0.475178 2.37459 0.449186C2.34622 0.423194 2.31301 0.403045 2.27685 0.389889C2.2407 0.376729 2.2023 0.370819 2.16387 0.372498C2.12543 0.374177 2.08769 0.383411 2.05282 0.399673C2.01795 0.415935 1.98663 0.438907 1.96064 0.467276C1.93464 0.495645 1.91449 0.528857 1.90134 0.565014L1.83079 0.758889L1.65449 0.380795C1.50238 0.0546387 1.11468 -0.086502 0.788525 0.0656074L0.3764 0.257748C0.0502441 0.409811 -0.0908965 0.797561 0.0612129 1.12372L0.652588 2.39192L0.76265 2.39234L2.13688 1.75147Z" fill="#FFBD86"/>
        <path d="M0.858088 1.12368C0.705978 0.79752 0.847119 0.40977 1.17328 0.257707L1.44778 0.129691C1.26229 -0.00530858 1.01113 -0.0382617 0.788478 0.0655196L0.3764 0.257707C0.0502441 0.40977 -0.0908965 0.79752 0.0612129 1.12368L0.652588 2.39188L0.76265 2.3923L1.32698 2.12914L0.858088 1.12368Z" fill="#F6A96C"/>
        <path d="M22.763 11.5825L22.3509 11.3903C22.0247 11.2382 21.637 11.3793 21.4849 11.7055L21.3086 12.0836L21.2381 11.8897C21.2107 11.8178 21.1561 11.7595 21.0861 11.7274C21.0161 11.6954 20.9363 11.6922 20.864 11.7185C20.7916 11.7449 20.7326 11.7986 20.6995 11.8681C20.6665 11.9377 20.6621 12.0174 20.6874 12.0901L20.9584 12.8346L20.8936 12.9737L20.9279 13.0414L22.3801 13.7186L22.4868 13.7166L23.0782 12.4484C23.2303 12.1223 23.0891 11.7346 22.763 11.5825Z" fill="#FED2A4"/>
        <path d="M20.9584 12.8345L20.8936 12.9735L21.3095 13.1675L21.3667 13.0182C21.4071 12.9127 21.4081 12.7962 21.3695 12.6901L21.1584 12.1101C21.1412 12.0628 21.1365 12.0118 21.1448 11.9621C21.1531 11.9124 21.174 11.8657 21.2057 11.8264C21.167 11.7688 21.1092 11.7268 21.0424 11.7079C20.9756 11.6889 20.9043 11.6944 20.8411 11.7231C20.6999 11.7871 20.6385 11.9554 20.6915 12.1011L20.9584 12.8345Z" fill="#FFBD86"/>
        <path d="M3.07212 13.4633L3.10643 13.3955L3.0416 13.2565L3.31259 12.512C3.32575 12.4758 3.33166 12.4374 3.32998 12.399C3.3283 12.3606 3.31907 12.3228 3.3028 12.288C3.28654 12.2531 3.26357 12.2218 3.2352 12.1958C3.20683 12.1698 3.17362 12.1496 3.13746 12.1365C3.10131 12.1233 3.06291 12.1174 3.02448 12.1191C2.98604 12.1208 2.9483 12.13 2.91343 12.1463C2.87856 12.1625 2.84724 12.1855 2.82124 12.2139C2.79525 12.2422 2.7751 12.2754 2.76195 12.3116L2.6914 12.5055L2.5151 12.1274C2.36299 11.8012 1.97529 11.6601 1.64914 11.8122L1.23706 12.0043C0.910901 12.1564 0.76976 12.5441 0.92187 12.8703L1.51324 14.1385L1.61998 14.1405L3.07212 13.4633Z" fill="#EA9B58"/>
        <path d="M1.71646 12.8702C1.56435 12.5441 1.7055 12.1563 2.03165 12.0043L2.30746 11.8757C2.12207 11.7412 1.87134 11.7085 1.6491 11.8121L1.23703 12.0042C0.91087 12.1563 0.76973 12.544 0.921839 12.8702L1.51321 14.1384L1.61995 14.1404L2.18573 13.8765L1.71646 12.8702Z" fill="#D88A55"/>
        <path d="M5.03087 15.7173L5.04296 15.6606H4.11099L4.98024 17.5247L5.02037 17.4238C5.10147 17.2207 5.22932 17.0396 5.39354 16.8952L5.44599 16.8491L5.38351 16.818C5.15682 16.7051 5.01596 16.4782 5.01596 16.226V15.8562C5.01601 15.8102 5.02102 15.7635 5.03087 15.7173Z" fill="#BB5D4C"/>
        <path d="M11.8495 1.78407L10.546 2.39189L11.056 3.48568L11.8495 1.78407ZM21.7542 1.64893L19.343 6.8198C19.3024 7.17807 18.9978 7.45744 18.6289 7.45744H15.2645C14.8956 7.45744 14.591 7.17802 14.5504 6.81975L12.944 3.37472L11.9741 5.45457L12.9474 7.54172C13.0904 7.41404 13.2741 7.3418 13.4691 7.3418C13.903 7.3418 14.2561 7.69482 14.2561 8.12879C14.2561 8.15827 14.254 8.18902 14.2495 8.22549L14.2444 8.26721L14.2853 8.27686C14.458 8.31697 14.6121 8.4145 14.7222 8.5535C14.8323 8.69251 14.892 8.86477 14.8914 9.0421C14.8914 9.26199 14.7976 9.47372 14.6341 9.62293L14.5961 9.65757L14.6341 9.69221C14.7976 9.84146 14.8914 10.0531 14.8914 10.273C14.8914 10.4743 14.8141 10.6664 14.6735 10.814L14.6471 10.8418L14.6691 10.8732C14.7471 10.9841 14.7889 11.1164 14.7887 11.252V11.6218C14.7887 11.9866 14.4919 12.2835 14.127 12.2835H13.9096L13.9038 12.3236C13.8725 12.5369 13.7908 12.7396 13.6655 12.9149V13.7531H13.8467L13.8557 13.7177C14.0823 12.8193 14.8885 12.1919 15.8161 12.1919H16.5746C17.6895 12.1919 18.5966 13.099 18.5966 14.2139V15.2539L18.6222 15.2669C18.7085 15.3106 18.7841 15.3727 18.8437 15.4488C18.9033 15.525 18.9454 15.6133 18.967 15.7075H19.6705L20.228 14.5119V9.08161L23.3474 2.39189L21.7542 1.64893Z" fill="#97D729"/>
        <path d="M21.7542 1.64893L19.3948 6.70866V6.73843C19.3949 6.86339 19.3642 6.98645 19.3056 7.09679H19.717C19.7617 7.09678 19.8053 7.08404 19.843 7.06007C19.8806 7.0361 19.9106 7.00189 19.9295 6.96146L22.2902 1.89886L21.7542 1.64893ZM11.8495 1.78407L10.546 2.39189L11.056 3.48568L11.8495 1.78407ZM13.4692 7.29497C13.4743 7.29497 13.4793 7.29563 13.4844 7.29572L12.2994 4.75707L11.9741 5.45461L12.9264 7.49677C13.0772 7.36643 13.2699 7.29478 13.4692 7.29497ZM13.8102 13.7062C13.8976 13.3614 14.0725 13.0451 14.3181 12.7878V12.3035C14.2559 12.3211 14.1916 12.3302 14.127 12.3303H13.9501C13.9147 12.5731 13.8166 12.8024 13.6655 12.9957V13.7063H13.8102V13.7062Z" fill="#8BC727"/>
        <path d="M13.7302 0.257748L13.3181 0.0656074C12.992 -0.086502 12.6042 0.0546387 12.4522 0.380795L12.2759 0.758889L12.2053 0.565014C12.178 0.493059 12.1234 0.434764 12.0534 0.40273C11.9834 0.370696 11.9036 0.367496 11.8312 0.393823C11.7589 0.420149 11.6998 0.473887 11.6668 0.543419C11.6337 0.612951 11.6294 0.692692 11.6547 0.765404L11.9257 1.50992L11.8608 1.64895L11.9475 1.74106L13.344 2.39225L13.4541 2.39187L14.0454 1.12367C14.1975 0.797561 14.0564 0.409811 13.7302 0.257748Z" fill="#FFBD86"/>
        <path d="M12.4811 1.59865C12.4944 1.57061 12.502 1.54021 12.5035 1.50922C12.5049 1.47822 12.5002 1.44725 12.4896 1.41809L12.2521 0.765634C12.2383 0.727751 12.2325 0.687417 12.2351 0.647181L12.2095 0.576774C12.1546 0.426024 11.9906 0.336821 11.8383 0.387165C11.801 0.399443 11.7666 0.41908 11.7371 0.444912C11.7075 0.470743 11.6835 0.502243 11.6664 0.537541C11.6493 0.57284 11.6394 0.611218 11.6374 0.6504C11.6354 0.689581 11.6412 0.728767 11.6547 0.765634L11.9257 1.51015L11.8608 1.64918L11.9475 1.74129L12.3292 1.91927L12.4811 1.59865Z" fill="#F6A96C"/>
        <path d="M16.9467 0.80127C15.5947 0.80127 14.4986 1.8973 14.4986 3.24932V6.7385C14.4986 7.1615 14.8415 7.50439 15.2645 7.50439H18.6289C19.0519 7.50439 19.3948 7.1615 19.3948 6.7385V3.24936C19.3948 1.89735 18.2987 0.80127 16.9467 0.80127Z" fill="#596C76"/>
        <path d="M14.8197 3.93407H15.0284V3.84814C15.0284 3.61555 15.2176 3.42627 15.4502 3.42627H15.682V3.24932C15.682 2.10135 16.4723 1.13835 17.5384 0.873691C17.3449 0.825578 17.1462 0.801258 16.9468 0.80127C15.5948 0.80127 14.4987 1.8973 14.4987 3.24932V4.01155C14.5981 3.96064 14.7081 3.93408 14.8197 3.93407ZM15.682 6.73855V6.40855C15.4602 6.21365 15.2861 5.97041 15.1732 5.6976C15.1764 5.70538 15.1793 5.7133 15.1826 5.72104H14.8197C14.704 5.72104 14.5951 5.69272 14.4986 5.64355V6.73855C14.4986 7.16155 14.8415 7.50444 15.2645 7.50444H16.4479C16.0249 7.50439 15.682 7.1615 15.682 6.73855Z" fill="#465A61"/>
        <path d="M16.9467 6.88643C16.6808 6.8866 16.4178 6.83114 16.1746 6.72363V7.50757C16.1746 7.83682 16.4415 8.10373 16.7708 8.10373H17.1226C17.4519 8.10373 17.7188 7.83682 17.7188 7.50757V6.72363C17.4756 6.83114 17.2126 6.8866 16.9467 6.88643Z" fill="#D88A55"/>
        <path d="M16.8239 7.5073V6.92881C16.6003 6.91525 16.3806 6.86335 16.1746 6.77539V7.5073C16.1746 7.83655 16.4415 8.10345 16.7707 8.10345H17.1226C17.1741 8.10345 17.2237 8.09623 17.2713 8.084C17.0142 8.01781 16.8239 7.78508 16.8239 7.5073Z" fill="#C57A44"/>
        <path d="M15.0283 4.96791V3.93408H14.8197C14.4283 3.93408 14.1111 4.25133 14.1111 4.64269V5.01244C14.1111 5.4038 14.4283 5.72105 14.8197 5.72105H15.1825C15.0805 5.48307 15.0281 5.22682 15.0283 4.96791ZM19.0737 3.93408H18.865V4.96791C18.8653 5.22681 18.8128 5.48304 18.7108 5.721H19.0737C19.465 5.721 19.7823 5.40375 19.7823 5.01239V4.64264C19.7823 4.25133 19.465 3.93408 19.0737 3.93408Z" fill="#D88A55"/>
        <path d="M17.7181 2.81801C17.7727 2.77699 17.8356 2.74841 17.9023 2.73427C17.9691 2.72013 18.0381 2.72077 18.1046 2.73616C18.5674 2.84477 18.9119 3.26018 18.9119 3.75602V4.9676C18.9119 6.05299 18.0321 6.93283 16.9467 6.93283C15.8613 6.93283 14.9814 6.05299 14.9814 4.9676V3.84785C14.9814 3.58896 15.1913 3.3791 15.4502 3.3791H16.8127C16.914 3.3791 17.0126 3.34629 17.0937 3.28558L17.7181 2.81801Z" fill="#EA9B58"/>
        <path d="M15.757 4.96789V3.84814C15.757 3.58925 15.9669 3.37939 16.2258 3.37939H15.4502C15.1913 3.37939 14.9815 3.58925 14.9815 3.84814V4.96785C14.9815 6.05324 15.8613 6.93308 16.9467 6.93308C17.0769 6.93308 17.2068 6.92021 17.3345 6.89464C16.4348 6.7146 15.757 5.92049 15.757 4.96789Z" fill="#D88A55"/>
        <path d="M16.9468 6.32947C16.6918 6.32951 16.4449 6.24061 16.2485 6.07808C16.178 6.0182 16.134 5.93301 16.1259 5.84093C16.1179 5.74885 16.1464 5.6573 16.2053 5.58608C16.2642 5.51486 16.3488 5.4697 16.4408 5.46039C16.5327 5.45107 16.6247 5.47834 16.6967 5.5363C16.7701 5.59718 16.8633 5.62913 16.9586 5.62616C17.0458 5.62377 17.1297 5.59212 17.1967 5.5363C17.2687 5.47834 17.3607 5.45107 17.4526 5.46039C17.5446 5.4697 17.6292 5.51486 17.6881 5.58608C17.747 5.6573 17.7755 5.74885 17.7675 5.84093C17.7594 5.93301 17.7154 6.0182 17.645 6.07808C17.4483 6.24015 17.2016 6.329 16.9468 6.32947ZM15.8593 4.71317C15.7661 4.71317 15.6767 4.67613 15.6108 4.6102C15.5448 4.54427 15.5078 4.45485 15.5078 4.36161V4.05664C15.5078 3.9634 15.5448 3.87398 15.6108 3.80805C15.6767 3.74212 15.7661 3.70508 15.8593 3.70508C15.9526 3.70508 16.042 3.74212 16.1079 3.80805C16.1739 3.87398 16.2109 3.9634 16.2109 4.05664V4.36161C16.2109 4.45485 16.1739 4.54427 16.1079 4.6102C16.042 4.67613 15.9526 4.71317 15.8593 4.71317ZM18.0341 4.71317C17.9408 4.71317 17.8514 4.67613 17.7855 4.6102C17.7195 4.54427 17.6825 4.45485 17.6825 4.36161V4.05664C17.6825 3.9634 17.7195 3.87398 17.7855 3.80805C17.8514 3.74212 17.9408 3.70508 18.0341 3.70508C18.1273 3.70508 18.2167 3.74212 18.2827 3.80805C18.3486 3.87398 18.3856 3.9634 18.3856 4.05664V4.36161C18.3856 4.45485 18.3486 4.54427 18.2827 4.6102C18.2167 4.67613 18.1273 4.71317 18.0341 4.71317ZM16.9465 5.33656C16.8637 5.33665 16.7835 5.30737 16.7203 5.25392L16.4351 5.01373C16.3664 4.95593 16.3225 4.87406 16.3123 4.78491C16.302 4.69575 16.3263 4.60606 16.38 4.5342L16.6652 4.15302C16.7218 4.08043 16.8046 4.03293 16.8959 4.02072C16.9871 4.00851 17.0795 4.03256 17.1532 4.08771C17.2269 4.14285 17.276 4.2247 17.2901 4.31567C17.3041 4.40665 17.2819 4.49949 17.2282 4.57428L17.1418 4.68973L17.1732 4.71613C17.2283 4.76258 17.2678 4.82486 17.2864 4.89454C17.3049 4.96421 17.3016 5.0379 17.2769 5.10563C17.2521 5.17335 17.2072 5.23183 17.1481 5.27314C17.089 5.31445 17.0186 5.33659 16.9465 5.33656Z" fill="#BB5D4C"/>
        <path d="M4.92632 3.98101H5.13496V3.75638C5.13496 3.20462 5.58388 2.7557 6.13564 2.7557H7.97103C8.5228 2.7557 8.97172 3.20462 8.97172 3.75638V3.98101H9.18036C9.29685 3.98101 9.40625 4.01152 9.50146 4.06459V2.45823C9.50146 1.73752 8.91721 1.15332 8.19655 1.15332H5.91022C5.18952 1.15332 4.60532 1.73757 4.60532 2.45823V4.06459C4.7034 4.00972 4.81393 3.98094 4.92632 3.98101Z" fill="#FE9901"/>
        <path d="M6.02572 2.45823C6.02572 1.73752 6.60997 1.15332 7.33063 1.15332H5.91013C5.18943 1.15332 4.60522 1.73757 4.60522 2.45823V4.06459C4.70335 4.00973 4.8139 3.98095 4.92632 3.98101H5.13496V3.75638C5.13496 3.24179 5.52552 2.81701 6.02577 2.76207V2.45823H6.02572Z" fill="#FB8801"/>
        <path d="M3.77203 14.9337L4.13282 15.7074H5.03235L5.0421 15.6735C5.08815 15.513 5.19335 15.376 5.33648 15.29L5.39287 15.2559L5.3422 15.2138C5.24726 15.1352 5.17086 15.0366 5.11845 14.925C5.06604 14.8134 5.03891 14.6917 5.03901 14.5684C5.03901 14.3104 5.15573 14.0703 5.35931 13.9097L5.3909 13.8848L5.37103 13.8497C5.3057 13.7347 5.27128 13.6047 5.27113 13.4724C5.27113 13.0499 5.61487 12.7062 6.03731 12.7062H6.24238L6.25579 12.694C6.68034 12.3081 7.23037 12.0955 7.80463 12.0955C8.3789 12.0955 8.92893 12.3081 9.35348 12.694L9.36688 12.7062H9.57196C9.97012 12.7062 10.298 13.0116 10.3345 13.4003V12.9148C10.2091 12.7395 10.1274 12.5368 10.0962 12.3236L10.0903 12.2835H9.87295C9.50807 12.2835 9.21121 11.9866 9.21121 11.6217V11.252C9.21121 11.1159 9.2526 10.9849 9.33088 10.8731L9.35287 10.8417L9.32643 10.8139C9.1859 10.6663 9.10851 10.4742 9.10851 10.2729C9.10851 10.0531 9.20231 9.84132 9.3659 9.69211L9.40387 9.65747L9.3659 9.62283C9.20235 9.47358 9.10851 9.26189 9.10851 9.042C9.10801 8.86468 9.16769 8.69242 9.2778 8.55342C9.38791 8.41441 9.54192 8.31688 9.71465 8.27677L9.75557 8.26711L9.75046 8.22539C9.74625 8.19333 9.74405 8.16103 9.74385 8.12869C9.74385 7.69477 10.0969 7.34171 10.5308 7.34171C10.7259 7.34171 10.9095 7.41399 11.0526 7.54163L13.454 2.39175L11.8608 1.64893L9.38348 6.96146C9.36462 7.0019 9.33462 7.03611 9.29698 7.06008C9.25935 7.08406 9.21566 7.09679 9.17104 7.09679H4.93551C4.89089 7.09678 4.84721 7.08404 4.80958 7.06007C4.77195 7.0361 4.74194 7.00189 4.72307 6.96146L2.24582 1.64893L0.652588 2.39189L3.77203 9.08161V14.9337Z" fill="#FE76A8"/>
        <path d="M11.8608 1.64893L9.38348 6.96146C9.36531 7.00027 9.33683 7.03335 9.30114 7.05708C9.26546 7.08082 9.22394 7.09429 9.18112 7.09604L9.18084 7.09674H9.67818C9.76741 7.09674 9.85479 7.07127 9.93004 7.02332C10.0053 6.97538 10.0653 6.90695 10.103 6.82608L12.3947 1.89783L11.8608 1.64893ZM3.77203 14.9337L4.13282 15.7074H4.56801V9.18446C4.56802 9.11671 4.55333 9.04977 4.52498 8.98824L1.69143 2.84124C1.66549 2.78494 1.66291 2.72067 1.68423 2.66247C1.70556 2.60427 1.74907 2.55689 1.80524 2.53069L2.5049 2.20444L2.24582 1.64893L0.652588 2.39189L3.77203 9.08161V14.9337Z" fill="#FE5694"/>
        <path d="M7.6002 6.88598H6.50642C6.42973 6.88598 6.35455 6.87933 6.28128 6.86719V7.50712C6.28128 7.83637 6.54819 8.10328 6.87744 8.10328H7.22928C7.55853 8.10328 7.82544 7.83637 7.82544 7.50712V6.86719C7.751 6.87961 7.67567 6.88589 7.6002 6.88598Z" fill="#FFBD86"/>
        <path d="M6.93052 7.50734V6.8862H6.50639C6.4297 6.8862 6.35452 6.87955 6.28125 6.8674V7.50734C6.28125 7.83659 6.54816 8.1035 6.87741 8.1035H7.22925C7.28072 8.1035 7.33036 8.09628 7.37798 8.08405C7.12083 8.01786 6.93052 7.78512 6.93052 7.50734ZM18.6769 6.86712L18.2648 6.67498C17.9386 6.52287 17.5509 6.66401 17.3988 6.99017L17.2225 7.36826L17.152 7.17439C17.1246 7.10243 17.07 7.04414 17 7.01211C16.93 6.98007 16.8502 6.97687 16.7779 7.0032C16.7056 7.02952 16.6465 7.08326 16.6134 7.15279C16.5804 7.22233 16.5761 7.30207 16.6013 7.37478L16.8723 8.1193L16.8075 8.25833L16.9102 8.35794L18.3033 9.00753L18.4008 9.00125L18.9922 7.73305C19.1442 7.40694 19.0031 7.01919 18.6769 6.86712Z" fill="#F6A96C"/>
        <path d="M17.4202 8.20657C17.4455 8.15079 17.4479 8.08732 17.4269 8.02976L17.1886 7.37501C17.1723 7.33013 17.1672 7.28192 17.1738 7.23462L17.1562 7.18615C17.1014 7.0354 16.9373 6.9462 16.785 6.99654C16.7477 7.00882 16.7133 7.02846 16.6838 7.05429C16.6543 7.08012 16.6302 7.11162 16.6131 7.14692C16.596 7.18221 16.5861 7.22059 16.5841 7.25977C16.5821 7.29896 16.588 7.33814 16.6014 7.37501L16.8724 8.11952L16.8075 8.25856L16.9102 8.35816L17.2747 8.52813L17.4202 8.20657Z" fill="#EA9B58"/>
        <path d="M5.13492 5.5148V3.93408H4.92628C4.53492 3.93408 4.21771 4.25133 4.21771 4.64269V5.01244C4.21771 5.4038 4.53496 5.72105 4.92628 5.72105H5.15043C5.14011 5.65279 5.13492 5.58384 5.13492 5.5148Z" fill="#F6A96C"/>
        <path d="M9.18027 3.93408H8.97163V5.5148C8.97163 5.58488 8.96629 5.65374 8.95612 5.721H9.18027C9.57163 5.721 9.88888 5.40375 9.88888 5.01239V4.64264C9.88888 4.25133 9.57163 3.93408 9.18027 3.93408Z" fill="#FFBD86"/>
        <path d="M7.60022 6.93287H6.50639C5.72306 6.93287 5.08804 6.29786 5.08804 5.51453V3.75606C5.08804 3.17753 5.55703 2.7085 6.13561 2.7085H7.971C8.54953 2.7085 9.01856 3.17748 9.01856 3.75606V5.51453C9.01856 6.29786 8.38354 6.93287 7.60022 6.93287Z" fill="#FED2A4"/>
        <path d="M6.0064 5.51453V3.75606C6.0064 3.17753 6.47539 2.7085 7.05396 2.7085H6.13564C5.55711 2.7085 5.08807 3.17748 5.08807 3.75606V5.51453C5.08807 6.29786 5.72309 6.93287 6.50642 6.93287H7.42475C6.64137 6.93287 6.0064 6.29786 6.0064 5.51453Z" fill="#FFBD86"/>
        <path d="M7.10091 8.35278L7.19255 8.25833L7.12772 8.11929L7.39871 7.37478C7.41187 7.33862 7.41778 7.30023 7.4161 7.26179C7.41442 7.22335 7.40519 7.18562 7.38892 7.15075C7.37266 7.11588 7.34969 7.08455 7.32132 7.05856C7.29295 7.03257 7.25974 7.01242 7.22358 6.99926C7.18743 6.9861 7.14903 6.98019 7.1106 6.98187C7.07216 6.98355 7.03442 6.99279 6.99955 7.00905C6.96468 7.02531 6.93336 7.04828 6.90737 7.07665C6.88137 7.10502 6.86122 7.13823 6.84807 7.17439L6.77752 7.36826L6.60122 6.99017C6.44912 6.66401 6.06141 6.52287 5.73526 6.67498L5.32318 6.86712C4.99702 7.01923 4.85588 7.40694 5.00799 7.73309L5.59937 9.0013L5.70947 9.00167L7.10091 8.35278Z" fill="#F6A96C"/>
        <path d="M5.7946 7.73298C5.64249 7.40682 5.78363 7.01907 6.10979 6.86701L6.39029 6.73623C6.20523 6.60371 5.95618 6.57179 5.73516 6.67487L5.32309 6.86701C4.99693 7.01912 4.85579 7.40682 5.0079 7.73298L5.59927 9.00118L5.70938 9.00155L6.26527 8.74234L5.7946 7.73298Z" fill="#EA9B58"/>
        <path d="M7.05336 6.32947C6.79843 6.32951 6.55147 6.24061 6.35507 6.07808C6.28465 6.0182 6.24064 5.93301 6.23256 5.84093C6.22448 5.74885 6.25299 5.6573 6.31191 5.58608C6.37083 5.51486 6.45542 5.4697 6.54739 5.46039C6.63935 5.45107 6.73128 5.47834 6.80329 5.5363C6.87673 5.59716 6.96988 5.62912 7.06522 5.62616C7.15243 5.62377 7.2363 5.59212 7.30335 5.5363C7.37536 5.47834 7.46729 5.45107 7.55925 5.46039C7.65121 5.4697 7.73581 5.51486 7.79473 5.58608C7.85365 5.6573 7.88215 5.74885 7.87408 5.84093C7.866 5.93301 7.82199 6.0182 7.75157 6.07808C7.55494 6.24015 7.30818 6.329 7.05336 6.32947ZM5.96591 4.71317C5.87267 4.71317 5.78325 4.67613 5.71732 4.6102C5.65139 4.54427 5.61435 4.45485 5.61435 4.36161V4.05664C5.61435 3.9634 5.65139 3.87398 5.71732 3.80805C5.78325 3.74212 5.87267 3.70508 5.96591 3.70508C6.05915 3.70508 6.14857 3.74212 6.2145 3.80805C6.28043 3.87398 6.31747 3.9634 6.31747 4.05664V4.36161C6.31747 4.45485 6.28043 4.54427 6.2145 4.6102C6.14857 4.67613 6.05915 4.71317 5.96591 4.71317ZM8.14063 4.71317C8.04739 4.71317 7.95797 4.67613 7.89204 4.6102C7.82611 4.54427 7.78907 4.45485 7.78907 4.36161V4.05664C7.78907 3.9634 7.82611 3.87398 7.89204 3.80805C7.95797 3.74212 8.04739 3.70508 8.14063 3.70508C8.23387 3.70508 8.32329 3.74212 8.38922 3.80805C8.45515 3.87398 8.49219 3.9634 8.49219 4.05664V4.36161C8.49219 4.55581 8.33483 4.71317 8.14063 4.71317ZM7.05308 5.33656C6.97026 5.33663 6.8901 5.30735 6.82682 5.25392L6.54163 5.01373C6.48025 4.96204 6.4384 4.8909 6.42303 4.81214C6.40767 4.73338 6.41971 4.65172 6.45716 4.58075L6.74235 4.04038C6.78644 3.95896 6.86087 3.89822 6.94947 3.87135C7.03808 3.84449 7.1337 3.85366 7.21559 3.89687C7.29747 3.94009 7.359 4.01386 7.38681 4.10217C7.41463 4.19049 7.40648 4.28621 7.36415 4.36855L7.21119 4.65842L7.27968 4.71613C7.33482 4.76258 7.37434 4.82486 7.3929 4.89452C7.41145 4.96419 7.40814 5.03788 7.38341 5.1056C7.35867 5.17333 7.31372 5.23181 7.25463 5.27312C7.19554 5.31443 7.12518 5.33658 7.05308 5.33656Z" fill="#D88A55"/>
        <path d="M14.9383 9.042C14.9383 8.64755 14.6641 8.31783 14.2961 8.23116C14.3002 8.19755 14.303 8.16352 14.303 8.12873C14.303 7.66823 13.9297 7.29488 13.4691 7.29488C13.2053 7.29488 12.9705 7.41773 12.8178 7.60894C12.7422 7.2262 12.4049 6.9375 12 6.9375C11.5951 6.9375 11.2578 7.2262 11.1822 7.60894C11.0294 7.41769 10.7946 7.29488 10.5308 7.29488C10.0703 7.29488 9.69697 7.66819 9.69697 8.12873C9.69697 8.16347 9.69979 8.1975 9.70391 8.23116C9.33589 8.31783 9.06168 8.64755 9.06168 9.042C9.06168 9.28608 9.16719 9.50498 9.33435 9.65747C9.16719 9.80995 9.06168 10.0289 9.06168 10.2729C9.06168 10.5128 9.16354 10.7284 9.32572 10.8805C9.44488 10.7055 9.64574 10.5902 9.87304 10.5902H10.0817V10.3656C10.0817 9.8138 10.5306 9.36487 11.0824 9.36487H12.9177C13.4695 9.36487 13.9184 9.8138 13.9184 10.3656V10.5902H14.127C14.3543 10.5902 14.5551 10.7055 14.6743 10.8805C14.8364 10.7284 14.9383 10.5128 14.9383 10.2729C14.9383 10.0289 14.8328 9.80995 14.6657 9.65747C14.8328 9.50498 14.9383 9.28608 14.9383 9.042Z" fill="#BB5D4C"/>
        <path d="M9.29189 10.8471C9.41996 10.6636 9.6323 10.5433 9.873 10.5433H10.0348V10.3656C10.0348 10.0365 10.1866 9.74306 10.4239 9.55102C10.3145 9.4102 10.2484 9.23419 10.2484 9.042C10.2484 8.68144 10.4775 8.37502 10.7979 8.25877C10.8513 8.23941 10.8838 8.18658 10.8837 8.12977V8.12873C10.8837 7.90059 10.9755 7.69402 11.124 7.5435C10.9729 7.39022 10.7632 7.29492 10.5309 7.29492C10.0704 7.29492 9.69703 7.66823 9.69703 8.12878C9.69703 8.16352 9.69985 8.19755 9.70397 8.2312C9.33596 8.31787 9.06174 8.64759 9.06174 9.04205C9.06174 9.28613 9.16725 9.50503 9.33441 9.65752C9.16725 9.81 9.06174 10.0289 9.06174 10.273C9.06169 10.4957 9.14958 10.6975 9.29189 10.8471Z" fill="#A44F3E"/>
        <path d="M15.8161 12.1919H16.5745C16.6855 12.1919 16.7943 12.2012 16.9005 12.2185L18.4007 9.00127L16.8075 8.2583L14.8612 12.4321C15.1547 12.2741 15.4828 12.1915 15.8161 12.1919Z" fill="#26A6FE"/>
        <path d="M17.416 9.15029L18.1678 9.50082L18.4007 9.00127L16.8075 8.2583L14.8612 12.4321C15.1315 12.2869 15.4314 12.2055 15.738 12.1943L17.1045 9.26358C17.1308 9.20725 17.1784 9.16367 17.2368 9.14243C17.2952 9.12118 17.3597 9.12401 17.416 9.15029Z" fill="#0593FC"/>
        <path d="M7.80468 12.0954C8.30987 12.0951 8.80109 12.2612 9.2023 12.5682L7.19254 8.2583L5.5993 9.00127L7.09452 12.2078C7.3239 12.1334 7.56354 12.0955 7.80468 12.0954Z" fill="#26A6FE"/>
        <path d="M6.64063 9.18202L7.44777 8.80566L7.19254 8.2583L5.5993 9.00127L7.09452 12.2078C7.30371 12.1401 7.52149 12.1027 7.74126 12.0968L6.52734 9.4935C6.50106 9.43717 6.49823 9.37271 6.51948 9.3143C6.54072 9.25588 6.5843 9.2083 6.64063 9.18202Z" fill="#0593FC"/>
        <path d="M15.4306 18.0822C14.8454 17.9888 14.377 17.514 14.2916 16.9275L14.2857 16.8874H14.0684C13.7035 16.8874 13.4066 16.5906 13.4066 16.2257V15.856C13.4066 15.6063 13.5453 15.3804 13.7685 15.2667L13.7941 15.2536V14.2137C13.7941 14.0384 13.8166 13.8683 13.8587 13.7061H10.3012C10.2852 13.7559 10.2641 13.804 10.2383 13.8496L10.2185 13.8846L10.2501 13.9095C10.4536 14.0701 10.5704 14.3102 10.5704 14.5682C10.5705 14.6915 10.5433 14.8133 10.4909 14.9249C10.4385 15.0364 10.3621 15.1351 10.2672 15.2137L10.2165 15.2558L10.2729 15.2899C10.4736 15.4111 10.5934 15.6228 10.5934 15.856V16.2258C10.5934 16.5906 10.2966 16.8875 9.93169 16.8875H9.71433L9.70847 16.9276C9.62302 17.514 9.15464 17.9888 8.56941 18.0822L8.52994 18.0885V18.3571H9.9563C10.7059 18.3571 11.3157 18.9669 11.3157 19.7165V22.5042H12.6845V19.7165C12.6845 18.9669 13.2943 18.3571 14.0438 18.3571H15.4702V18.0885L15.4306 18.0822Z" fill="#26A6FE"/>
        <path d="M14.0684 19.5892C14.0684 19.5892 18.5482 19.5362 18.6434 19.5892V14.2139C18.6434 13.0713 17.7172 12.145 16.5745 12.145H15.8161C14.6735 12.145 13.7472 13.0713 13.7472 14.2139V15.2781C13.7472 16.308 13.9518 19.5892 14.0684 19.5892Z" fill="#FED402"/>
        <path d="M16.8451 12.1632C16.7554 12.1513 16.665 12.1452 16.5745 12.145H15.8161C14.6735 12.145 13.7472 13.0713 13.7472 14.2139V19.7197C13.8453 19.6648 13.9559 19.6361 14.0683 19.6361H14.277V14.9699C14.277 14.4935 14.612 14.0944 15.0586 13.9942C15.159 13.0442 15.9022 12.2865 16.8451 12.1632Z" fill="#FAC600"/>
        <path d="M22.4868 13.7166L20.8935 12.9736L18.4049 18.3104H14.0438C13.2671 18.3104 12.6375 18.94 12.6375 19.7167V23.9865C15.3746 23.8367 17.8563 22.7286 19.7531 20.9918V19.579L22.4868 13.7166Z" fill="#7A8C98"/>
        <path d="M21.5447 13.2773L20.8935 12.9736L18.4049 18.3104H18.899C18.9883 18.3104 19.0756 18.285 19.1509 18.237C19.2262 18.1891 19.2862 18.1207 19.3239 18.0398L21.5447 13.2773ZM13.8226 19.7166C13.8226 18.94 14.4522 18.3104 15.2288 18.3104H14.0437C13.2671 18.3104 12.6375 18.94 12.6375 19.7166V23.9864C13.0344 23.9646 13.43 23.9222 13.8226 23.8594V19.7166Z" fill="#596C76"/>
        <path d="M5.29274 18.1948C5.31546 18.2433 5.35149 18.2843 5.39662 18.313C5.44176 18.3418 5.49414 18.3571 5.54765 18.3572H7.07952V18.0886L7.04005 18.0823C6.45482 17.989 5.9864 17.5142 5.90099 16.9277L5.89513 16.8876H5.67777C5.57896 16.8876 5.48544 16.8652 5.40116 16.8262C5.19539 16.9941 5.04038 17.216 4.95346 17.467L5.29274 18.1948Z" fill="#465A61"/>
        <path d="M9.9562 18.3104H5.5476C5.50299 18.3104 5.4593 18.2977 5.42167 18.2737C5.38404 18.2497 5.35403 18.2155 5.33517 18.1751L3.10645 13.3955L1.51321 14.1385L4.24692 20.0009V20.9919C6.14367 22.7287 8.62537 23.8367 11.3625 23.9865V19.7167C11.3624 18.94 10.7329 18.3104 9.9562 18.3104Z" fill="#FED402"/>
        <path d="M11.1305 23.9713C11.2076 23.977 11.2849 23.9823 11.3625 23.9865V23.9685C11.2849 23.9689 11.2075 23.9698 11.1305 23.9713ZM5.03057 21.6476V20.1041C5.03057 20.0361 5.01581 19.969 4.98726 19.9073L2.48873 14.5063C2.46268 14.45 2.46002 14.3857 2.48133 14.3274C2.50263 14.2691 2.54617 14.2217 2.6024 14.1955L3.32282 13.8595L3.10645 13.3955L1.51321 14.1385L4.24692 20.0009V20.9919C4.49832 21.2219 4.75979 21.4407 5.03057 21.6476Z" fill="#FAC600"/>
        <path d="M12.5469 13.4954H11.453C11.3764 13.4954 11.3012 13.4887 11.2279 13.4766V14.1165C11.2279 14.4458 11.4948 14.7127 11.8241 14.7127H12.1759C12.5052 14.7127 12.7721 14.4458 12.7721 14.1165V13.4766C12.6976 13.489 12.6223 13.4953 12.5469 13.4954Z" fill="#F6A96C"/>
        <path d="M11.8772 14.1165V13.4954H11.4531C11.3764 13.4954 11.3013 13.4887 11.228 13.4766V14.1165C11.228 14.4458 11.4949 14.7127 11.8241 14.7127H12.176C12.2274 14.7127 12.2771 14.7054 12.3247 14.6932C12.0675 14.627 11.8772 14.3943 11.8772 14.1165Z" fill="#EA9B58"/>
        <path d="M10.0816 12.1242V10.5435H9.87301C9.48165 10.5435 9.1644 10.8607 9.1644 11.2521V11.6218C9.1644 12.0132 9.48165 12.3304 9.87301 12.3304H10.0972C10.0868 12.2622 10.0817 12.1932 10.0816 12.1242ZM14.127 10.5435H13.9184V12.1242C13.9184 12.1943 13.9131 12.2631 13.9029 12.3304H14.1271C14.5184 12.3304 14.8356 12.0131 14.8356 11.6218V11.252C14.8356 10.8607 14.5183 10.5435 14.127 10.5435Z" fill="#F6A96C"/>
        <path d="M12.5469 13.5422H11.453C10.6697 13.5422 10.0347 12.9072 10.0347 12.1239V10.3654C10.0347 9.7869 10.5037 9.31787 11.0823 9.31787H12.9177C13.4962 9.31787 13.9652 9.78686 13.9652 10.3654V12.1239C13.9652 12.9072 13.3302 13.5422 12.5469 13.5422Z" fill="#FFBD86"/>
        <path d="M10.9531 12.1239V10.3654C10.9531 9.7869 11.4221 9.31787 12.0007 9.31787H11.0823C10.5038 9.31787 10.0348 9.78686 10.0348 10.3654V12.1239C10.0348 12.9072 10.6698 13.5422 11.4531 13.5422H12.3714C11.5881 13.5422 10.9531 12.9072 10.9531 12.1239Z" fill="#F6A96C"/>
        <path d="M12 12.9388C11.7451 12.9389 11.4982 12.85 11.3017 12.6875C11.2662 12.658 11.2367 12.6219 11.2151 12.5811C11.1935 12.5403 11.1802 12.4956 11.1758 12.4497C11.167 12.3568 11.1955 12.2643 11.2549 12.1925C11.3143 12.1206 11.3999 12.0753 11.4927 12.0665C11.5855 12.0577 11.6781 12.0862 11.7499 12.1456C11.8233 12.2065 11.9165 12.2385 12.0119 12.2355C12.0991 12.2331 12.183 12.2015 12.2501 12.1456C12.3221 12.0877 12.414 12.0604 12.506 12.0697C12.5979 12.079 12.6825 12.1242 12.7414 12.1954C12.8004 12.2666 12.8289 12.3582 12.8208 12.4503C12.8127 12.5423 12.7687 12.6275 12.6983 12.6874C12.5016 12.8495 12.2549 12.9384 12 12.9388ZM10.9126 11.3225C10.8194 11.3225 10.73 11.2855 10.664 11.2196C10.5981 11.1536 10.5611 11.0642 10.5611 10.971V10.666C10.5611 10.5728 10.5981 10.4834 10.664 10.4174C10.73 10.3515 10.8194 10.3145 10.9126 10.3145C11.0059 10.3145 11.0953 10.3515 11.1612 10.4174C11.2272 10.4834 11.2642 10.5728 11.2642 10.666V10.971C11.2642 11.0642 11.2272 11.1536 11.1612 11.2196C11.0953 11.2855 11.0059 11.3225 10.9126 11.3225ZM13.0873 11.3225C12.9941 11.3225 12.9047 11.2855 12.8388 11.2196C12.7728 11.1536 12.7358 11.0642 12.7358 10.971V10.666C12.7358 10.5728 12.7728 10.4834 12.8388 10.4174C12.9047 10.3515 12.9941 10.3145 13.0873 10.3145C13.1806 10.3145 13.27 10.3515 13.3359 10.4174C13.4019 10.4834 13.4389 10.5728 13.4389 10.666V10.971C13.4389 11.0642 13.4019 11.1536 13.3359 11.2196C13.27 11.2855 13.1806 11.3225 13.0873 11.3225ZM12 11.946C11.9623 11.946 11.924 11.9399 11.8863 11.927C11.6243 11.8376 11.4336 11.6123 11.3887 11.3391C11.3437 11.0659 11.4522 10.7914 11.6717 10.6227L11.7857 10.5351C11.8223 10.507 11.8641 10.4863 11.9087 10.4743C11.9533 10.4623 11.9998 10.4593 12.0456 10.4652C12.0914 10.4712 12.1355 10.4862 12.1755 10.5092C12.2155 10.5323 12.2506 10.563 12.2787 10.5996C12.3068 10.6362 12.3275 10.678 12.3395 10.7226C12.3515 10.7672 12.3545 10.8137 12.3486 10.8594C12.3426 10.9052 12.3276 10.9494 12.3046 10.9894C12.2815 11.0294 12.2508 11.0644 12.2142 11.0926L12.1002 11.1802C12.0941 11.1849 12.078 11.1972 12.0825 11.225C12.0871 11.2526 12.1063 11.2592 12.1136 11.2617C12.1923 11.2887 12.2589 11.3427 12.3016 11.4142C12.3442 11.4856 12.3602 11.5699 12.3465 11.652C12.3329 11.7341 12.2906 11.8087 12.2272 11.8625C12.1637 11.9164 12.0832 11.9459 12 11.946Z" fill="#D88A55"/>
        <path d="M4.99219 14.5685C4.99219 14.8607 5.1337 15.1197 5.35181 15.2811C5.45107 15.2244 5.56342 15.1946 5.67773 15.1946H5.88637V14.97C5.88637 14.4182 6.3353 13.9693 6.88706 13.9693H8.72241C9.27417 13.9693 9.72309 14.4182 9.72309 14.97V15.1946H9.93169C10.0502 15.1946 10.1613 15.2263 10.2576 15.2811C10.4757 15.1197 10.6172 14.8607 10.6172 14.5685C10.6172 14.2863 10.4848 14.0353 10.2791 13.8731C10.3486 13.751 10.3852 13.613 10.3851 13.4726C10.3851 13.0235 10.0211 12.6595 9.57206 12.6595H9.38508C8.9677 12.2801 8.41322 12.0488 7.80469 12.0488C7.1962 12.0488 6.64172 12.2801 6.2243 12.6595H6.03731C5.58825 12.6595 5.22427 13.0235 5.22427 13.4726C5.22427 13.6183 5.26312 13.7548 5.33025 13.8731C5.12466 14.0353 4.99219 14.2863 4.99219 14.5685Z" fill="#596C76"/>
        <path d="M4.99219 14.5686C4.99219 14.8427 5.11673 15.0876 5.3122 15.2502C5.42236 15.1832 5.54879 15.1478 5.67769 15.1478H5.83945V14.97C5.83945 14.4235 6.258 13.975 6.792 13.927C6.81183 13.9082 6.83227 13.89 6.85373 13.8731C6.77228 13.7301 6.73637 13.5657 6.7508 13.4017C6.78717 12.9777 7.15692 12.6596 7.5825 12.6596H7.6597C7.71394 12.6596 7.76705 12.6414 7.80844 12.6063C8.03195 12.4165 8.28906 12.2702 8.56645 12.1751C8.32126 12.0912 8.06387 12.0486 7.80473 12.0488C7.19625 12.0488 6.64177 12.2801 6.22434 12.6595H6.05906C5.63348 12.6595 5.26373 12.9777 5.22736 13.4017C5.21297 13.5656 5.24888 13.7301 5.3303 13.8731C5.12466 14.0354 4.99219 14.2863 4.99219 14.5686Z" fill="#465A61"/>
        <path d="M8.35156 18.0999H7.25773C7.18105 18.0999 7.10591 18.0932 7.03259 18.0811V18.721C7.03259 19.0502 7.2995 19.3171 7.62875 19.3171H7.98059C8.30984 19.3171 8.57675 19.0502 8.57675 18.721V18.0811C8.50233 18.0935 8.42701 18.0998 8.35156 18.0999Z" fill="#D88A55"/>
        <path d="M7.68192 18.721V18.0999H7.25779C7.18111 18.0999 7.10597 18.0932 7.03265 18.0811V18.721C7.03265 19.0502 7.29956 19.3171 7.62881 19.3171H7.98065C8.03212 19.3171 8.08176 19.3099 8.12939 19.2977C7.87219 19.2315 7.68192 18.9988 7.68192 18.721Z" fill="#C57A44"/>
        <path d="M9.93169 15.1475H9.7231V16.7282C9.7231 16.7983 9.71775 16.8671 9.70758 16.9344H9.93174C10.3231 16.9344 10.6403 16.6171 10.6403 16.2258V15.856C10.6403 15.4647 10.323 15.1475 9.93169 15.1475Z" fill="#D88A55"/>
        <path d="M5.88634 16.7282V15.1475H5.67769C5.28634 15.1475 4.96909 15.4647 4.96909 15.856V16.2258C4.96909 16.6171 5.28634 16.9344 5.67769 16.9344H5.90185C5.89152 16.8661 5.88634 16.7972 5.88634 16.7282Z" fill="#C57A44"/>
        <path d="M8.35156 18.1467H7.25773C6.4744 18.1467 5.83939 17.5117 5.83939 16.7284V14.9699C5.83939 14.3914 6.30837 13.9224 6.88695 13.9224H8.72234C9.30087 13.9224 9.7699 14.3913 9.7699 14.9699V16.7284C9.7699 17.5117 9.13489 18.1467 8.35156 18.1467Z" fill="#EA9B58"/>
        <path d="M6.75778 16.7284V14.9699C6.75778 14.3914 7.22676 13.9224 7.80534 13.9224H6.88701C6.30848 13.9224 5.83945 14.3913 5.83945 14.9699V16.7284C5.83945 17.5117 6.47446 18.1467 7.25779 18.1467H8.17612C7.39279 18.1467 6.75778 17.5117 6.75778 16.7284Z" fill="#D88A55"/>
        <path d="M7.80463 17.5433C7.54973 17.5433 7.30281 17.4544 7.10643 17.2919C7.03457 17.2325 6.98928 17.147 6.98049 17.0541C6.97171 16.9613 7.00017 16.8688 7.0596 16.7969C7.11903 16.7251 7.20457 16.6798 7.2974 16.671C7.39023 16.6622 7.48275 16.6907 7.5546 16.7501C7.62798 16.8111 7.72117 16.8431 7.81653 16.84C7.90376 16.8376 7.98766 16.806 8.05471 16.7501C8.09028 16.7207 8.1313 16.6985 8.17542 16.685C8.21955 16.6714 8.26592 16.6666 8.31189 16.671C8.35785 16.6753 8.40251 16.6887 8.44332 16.7103C8.48412 16.7319 8.52027 16.7613 8.54971 16.7969C8.57914 16.8324 8.60128 16.8734 8.61486 16.9176C8.62844 16.9617 8.6332 17.0081 8.62886 17.054C8.62452 17.1 8.61117 17.1447 8.58957 17.1855C8.56797 17.2263 8.53854 17.2624 8.50297 17.2919C8.30635 17.454 8.05951 17.5429 7.80463 17.5433ZM6.71732 15.9271C6.62408 15.9271 6.53465 15.89 6.46872 15.8241C6.40279 15.7582 6.36575 15.6688 6.36575 15.5755V15.2705C6.36575 15.1773 6.40279 15.0878 6.46872 15.0219C6.53465 14.956 6.62408 14.9189 6.71732 14.9189C6.81056 14.9189 6.89998 14.956 6.96591 15.0219C7.03184 15.0878 7.06888 15.1773 7.06888 15.2705V15.5755C7.06888 15.6688 7.03184 15.7582 6.96591 15.8241C6.89998 15.89 6.81056 15.9271 6.71732 15.9271ZM8.89204 15.9271C8.79879 15.9271 8.70937 15.89 8.64344 15.8241C8.57751 15.7582 8.54047 15.6688 8.54047 15.5755V15.2705C8.54047 15.1773 8.57751 15.0878 8.64344 15.0219C8.70937 14.956 8.79879 14.9189 8.89204 14.9189C8.98528 14.9189 9.0747 14.956 9.14063 15.0219C9.20656 15.0878 9.2436 15.1773 9.2436 15.2705V15.5755C9.2436 15.6688 9.20656 15.7582 9.14063 15.8241C9.0747 15.89 8.98528 15.9271 8.89204 15.9271ZM7.80449 16.5504C7.7217 16.5505 7.64156 16.5213 7.57832 16.4678L7.55882 16.4514C7.27921 16.216 7.20013 15.8106 7.37071 15.4874L7.49375 15.2542C7.53728 15.1717 7.61178 15.1099 7.70086 15.0824C7.78995 15.0549 7.88632 15.0639 7.96879 15.1074C8.05125 15.1509 8.11304 15.2254 8.14057 15.3145C8.16811 15.4036 8.15912 15.5 8.1156 15.5824L7.99255 15.8156C7.97521 15.8484 7.98327 15.8896 8.01168 15.9135L8.03108 15.9299C8.08626 15.9763 8.12582 16.0386 8.14439 16.1083C8.16297 16.178 8.15966 16.2517 8.13493 16.3195C8.11019 16.3872 8.06522 16.4457 8.00611 16.487C7.947 16.5283 7.87661 16.5505 7.80449 16.5504Z" fill="#BB5D4C"/>
        <path d="M16.7422 18.0999H15.6484C15.5717 18.0999 15.4965 18.0932 15.4232 18.0811V18.721C15.4232 19.0502 15.6901 19.3171 16.0194 19.3171H16.3712C16.7005 19.3171 16.9674 19.0502 16.9674 18.721V18.0811C16.893 18.0935 16.8176 18.0998 16.7422 18.0999Z" fill="#FFBD86"/>
        <path d="M16.0726 18.7208V18.0996H15.6484C15.5717 18.0996 15.4966 18.093 15.4233 18.0809V18.7208C15.4233 19.05 15.6902 19.3169 16.0194 19.3169H16.3713C16.4228 19.3169 16.4724 19.3097 16.52 19.2975C16.2628 19.2313 16.0726 18.9986 16.0726 18.7208ZM14.277 16.7282V15.1475H14.0683C13.677 15.1475 13.3597 15.4647 13.3597 15.856V16.2258C13.3597 16.6171 13.677 16.9344 14.0683 16.9344H14.2925C14.2821 16.8661 14.277 16.7972 14.277 16.7282Z" fill="#F6A96C"/>
        <path d="M18.3223 15.1475H18.1137V16.7282C18.1137 16.7983 18.1084 16.8671 18.0982 16.9344H18.3224C18.7137 16.9344 19.0309 16.6171 19.0309 16.2258V15.856C19.0309 15.4647 18.7136 15.1475 18.3223 15.1475Z" fill="#FFBD86"/>
        <path d="M16.7422 18.1467H15.6484C14.865 18.1467 14.23 17.5117 14.23 16.7284V14.9699C14.23 14.3914 14.699 13.9224 15.2776 13.9224H17.113C17.6915 13.9224 18.1605 14.3913 18.1605 14.9699V16.7284C18.1605 17.5117 17.5255 18.1467 16.7422 18.1467Z" fill="#FED2A4"/>
        <path d="M15.1484 16.7284V14.9699C15.1484 14.3914 15.6174 13.9224 16.196 13.9224H15.2776C14.6991 13.9224 14.2301 14.3913 14.2301 14.9699V16.7284C14.2301 17.5117 14.8651 18.1467 15.6484 18.1467H16.5667C15.7834 18.1467 15.1484 17.5117 15.1484 16.7284Z" fill="#FFBD86"/>
        <path d="M16.1953 17.5433C15.9404 17.5433 15.6934 17.4544 15.497 17.2919C15.4252 17.2325 15.3799 17.147 15.3711 17.0541C15.3623 16.9613 15.3908 16.8688 15.4502 16.7969C15.5097 16.7251 15.5952 16.6798 15.688 16.671C15.7809 16.6622 15.8734 16.6907 15.9452 16.7501C16.0186 16.8111 16.1118 16.8431 16.2072 16.84C16.2944 16.8376 16.3783 16.806 16.4453 16.7501C16.5172 16.6907 16.6097 16.6622 16.7025 16.671C16.7953 16.6797 16.8809 16.725 16.9403 16.7969C16.9998 16.8687 17.0282 16.9612 17.0195 17.054C17.0107 17.1469 16.9654 17.2324 16.8936 17.2919C16.697 17.454 16.4501 17.5429 16.1953 17.5433ZM15.1079 15.9271C15.0147 15.9271 14.9253 15.89 14.8593 15.8241C14.7934 15.7582 14.7564 15.6688 14.7564 15.5755V15.2705C14.7564 15.1773 14.7934 15.0878 14.8593 15.0219C14.9253 14.956 15.0147 14.9189 15.1079 14.9189C15.2012 14.9189 15.2906 14.956 15.3565 15.0219C15.4225 15.0878 15.4595 15.1773 15.4595 15.2705V15.5755C15.4595 15.6688 15.4225 15.7582 15.3565 15.8241C15.2906 15.89 15.2012 15.9271 15.1079 15.9271ZM17.2827 15.9271C17.1894 15.9271 17.1 15.89 17.0341 15.8241C16.9681 15.7582 16.9311 15.6688 16.9311 15.5755V15.2705C16.9311 15.1773 16.9681 15.0878 17.0341 15.0219C17.1 14.956 17.1894 14.9189 17.2827 14.9189C17.3759 14.9189 17.4653 14.956 17.5313 15.0219C17.5972 15.0878 17.6342 15.1773 17.6342 15.2705V15.5755C17.6342 15.6688 17.5972 15.7582 17.5313 15.8241C17.4653 15.89 17.3759 15.9271 17.2827 15.9271ZM16.1951 16.5504C16.1123 16.5505 16.0321 16.5212 15.9688 16.4678L15.6837 16.2276C15.6223 16.1759 15.5804 16.1048 15.5651 16.026C15.5497 15.9472 15.5617 15.8656 15.5992 15.7946L15.8844 15.2542C15.9285 15.1728 16.0029 15.112 16.0915 15.0852C16.1801 15.0583 16.2757 15.0675 16.3576 15.1107C16.4395 15.1539 16.501 15.2277 16.5288 15.316C16.5567 15.4043 16.5485 15.5 16.5062 15.5824L16.3532 15.8722L16.4217 15.9299C16.4769 15.9764 16.5164 16.0387 16.535 16.1084C16.5535 16.178 16.5502 16.2517 16.5255 16.3195C16.5008 16.3872 16.4558 16.4457 16.3967 16.487C16.3376 16.5283 16.2672 16.5505 16.1951 16.5504Z" fill="#D88A55"/>
    </g>
    <defs>
        <clipPath id="clip0_1527_2069">
            <rect width="24" height="24" fill="white"/>
        </clipPath>
    </defs>
</svg>
