<svg width="24" height="24" viewBox="0 0 24 24" fill="none" xmlns="http://www.w3.org/2000/svg">
    <g clip-path="url(#clip0_1055_4106)">
        <path d="M1.21847 7.73556C1.21847 7.73556 0.738465 7.44018 1.1077 7.44018C3.17539 7.29249 10.7815 7.66172 10.7815 9.17556C10.7815 11.1325 4.09846 11.5017 6.01846 13.3479C7.93846 15.194 16.9846 17.114 16.9846 17.114L18.4615 23.834C18.4615 23.834 -1.95692 19.6248 0.369235 14.4925C1.84616 11.2433 7.49539 10.5417 7.49539 9.32325C7.49539 8.03095 1.21847 7.73556 1.21847 7.73556Z" fill="url(#paint0_linear_1055_4106)"/>
        <path d="M0.59079 0.16626H1.4031V7.73549H0.59079V0.16626Z" fill="url(#paint1_linear_1055_4106)"/>
        <path d="M5.90772 2.97244H1.40311V0.46167H5.90772L4.94772 1.71705L5.90772 2.97244ZM23.8154 13.9017C23.8154 16.8555 18.4616 23.7971 18.4616 23.7971C18.4616 23.7971 13.1077 16.8555 13.1077 13.9017C13.1077 10.9478 15.5077 8.54782 18.4616 8.54782C21.4154 8.54782 23.8154 10.9478 23.8154 13.9017Z" fill="url(#paint2_linear_1055_4106)"/>
        <path d="M18.4616 16.5231C19.9094 16.5231 21.0831 15.3494 21.0831 13.9016C21.0831 12.4537 19.9094 11.28 18.4616 11.28C17.0137 11.28 15.84 12.4537 15.84 13.9016C15.84 15.3494 17.0137 16.5231 18.4616 16.5231Z" fill="#EFF3F5"/>
    </g>
    <defs>
        <linearGradient id="paint0_linear_1055_4106" x1="0.18457" y1="15.2398" x2="18.4635" y2="15.4083" gradientUnits="userSpaceOnUse">
            <stop stop-color="#0061FF"/>
            <stop offset="1" stop-color="#60EFFF"/>
        </linearGradient>
        <linearGradient id="paint1_linear_1055_4106" x1="0.59079" y1="3.77467" x2="1.40325" y2="3.77539" gradientUnits="userSpaceOnUse">
            <stop stop-color="#D38656"/>
            <stop offset="1" stop-color="#F9AC69"/>
        </linearGradient>
        <linearGradient id="paint2_linear_1055_4106" x1="1.40311" y1="11.5861" x2="23.8183" y2="11.7645" gradientUnits="userSpaceOnUse">
            <stop stop-color="#FF0F43"/>
            <stop offset="1" stop-color="#F84829"/>
        </linearGradient>
        <clipPath id="clip0_1055_4106">
            <rect width="24" height="24" fill="white"/>
        </clipPath>
    </defs>
</svg>
