<svg width="24" height="24" viewBox="0 0 24 24" fill="none" xmlns="http://www.w3.org/2000/svg">
    <path d="M9.91667 8.66667H3.25C2.56083 8.66667 2 8.10583 2 7.41667V3.25C2 2.56083 2.56083 2 3.25 2H9.91667C10.6058 2 11.1667 2.56083 11.1667 3.25V7.41667C11.1667 8.10583 10.6058 8.66667 9.91667 8.66667ZM3.25 2.83333C3.13949 2.83333 3.03351 2.87723 2.95537 2.95537C2.87723 3.03351 2.83333 3.13949 2.83333 3.25V7.41667C2.83333 7.52717 2.87723 7.63315 2.95537 7.71129C3.03351 7.78943 3.13949 7.83333 3.25 7.83333H9.91667C10.0272 7.83333 10.1332 7.78943 10.2113 7.71129C10.2894 7.63315 10.3333 7.52717 10.3333 7.41667V3.25C10.3333 3.13949 10.2894 3.03351 10.2113 2.95537C10.1332 2.87723 10.0272 2.83333 9.91667 2.83333H3.25ZM9.91667 22H3.25C2.56083 22 2 21.4392 2 20.75V11.5833C2 10.8942 2.56083 10.3333 3.25 10.3333H9.91667C10.6058 10.3333 11.1667 10.8942 11.1667 11.5833V20.75C11.1667 21.4392 10.6058 22 9.91667 22ZM3.25 11.1667C3.13949 11.1667 3.03351 11.2106 2.95537 11.2887C2.87723 11.3668 2.83333 11.4728 2.83333 11.5833V20.75C2.83333 20.8605 2.87723 20.9665 2.95537 21.0446C3.03351 21.1228 3.13949 21.1667 3.25 21.1667H9.91667C10.0272 21.1667 10.1332 21.1228 10.2113 21.0446C10.2894 20.9665 10.3333 20.8605 10.3333 20.75V11.5833C10.3333 11.4728 10.2894 11.3668 10.2113 11.2887C10.1332 11.2106 10.0272 11.1667 9.91667 11.1667H3.25ZM20.75 22H14.0833C13.3942 22 12.8333 21.4392 12.8333 20.75V16.5833C12.8333 15.8942 13.3942 15.3333 14.0833 15.3333H20.75C21.4392 15.3333 22 15.8942 22 16.5833V20.75C22 21.4392 21.4392 22 20.75 22ZM14.0833 16.1667C13.9728 16.1667 13.8668 16.2106 13.7887 16.2887C13.7106 16.3668 13.6667 16.4728 13.6667 16.5833V20.75C13.6667 20.8605 13.7106 20.9665 13.7887 21.0446C13.8668 21.1228 13.9728 21.1667 14.0833 21.1667H20.75C20.8605 21.1667 20.9665 21.1228 21.0446 21.0446C21.1228 20.9665 21.1667 20.8605 21.1667 20.75V16.5833C21.1667 16.4728 21.1228 16.3668 21.0446 16.2887C20.9665 16.2106 20.8605 16.1667 20.75 16.1667H14.0833ZM20.75 13.6667H14.0833C13.3942 13.6667 12.8333 13.1058 12.8333 12.4167V3.25C12.8333 2.56083 13.3942 2 14.0833 2H20.75C21.4392 2 22 2.56083 22 3.25V12.4167C22 13.1058 21.4392 13.6667 20.75 13.6667ZM14.0833 2.83333C13.9728 2.83333 13.8668 2.87723 13.7887 2.95537C13.7106 3.03351 13.6667 3.13949 13.6667 3.25V12.4167C13.6667 12.5272 13.7106 12.6332 13.7887 12.7113C13.8668 12.7894 13.9728 12.8333 14.0833 12.8333H20.75C20.8605 12.8333 20.9665 12.7894 21.0446 12.7113C21.1228 12.6332 21.1667 12.5272 21.1667 12.4167V3.25C21.1667 3.13949 21.1228 3.03351 21.0446 2.95537C20.9665 2.87723 20.8605 2.83333 20.75 2.83333H14.0833Z" fill="white"/>
</svg>
