<svg width="24" height="22" viewBox="0 0 24 22" fill="none" xmlns="http://www.w3.org/2000/svg">
    <path d="M0.625 7.625V6.3125C0.626274 5.2686 1.04152 4.26782 1.77967 3.52967C2.51782 2.79152 3.5186 2.37627 4.5625 2.375H5.875V3.6875C5.875 4.15163 6.05937 4.59675 6.38756 4.92494C6.71575 5.25313 7.16087 5.4375 7.625 5.4375C8.08913 5.4375 8.53425 5.25313 8.86244 4.92494C9.19063 4.59675 9.375 4.15163 9.375 3.6875V2.375H14.625V3.6875C14.625 4.15163 14.8094 4.59675 15.1376 4.92494C15.4658 5.25313 15.9109 5.4375 16.375 5.4375C16.8391 5.4375 17.2842 5.25313 17.6124 4.92494C17.9406 4.59675 18.125 4.15163 18.125 3.6875V2.375H19.4375C20.4814 2.37627 21.4822 2.79152 22.2203 3.52967C22.9585 4.26782 23.3737 5.2686 23.375 6.3125V7.625H0.625ZM6.75 3.6875C6.75 3.91956 6.84219 4.14212 7.00628 4.30622C7.17038 4.47031 7.39294 4.5625 7.625 4.5625C7.85706 4.5625 8.07962 4.47031 8.24372 4.30622C8.40781 4.14212 8.5 3.91956 8.5 3.6875V1.5C8.5 1.26794 8.40781 1.04538 8.24372 0.881282C8.07962 0.717187 7.85706 0.625 7.625 0.625C7.39294 0.625 7.17038 0.717187 7.00628 0.881282C6.84219 1.04538 6.75 1.26794 6.75 1.5V3.6875ZM15.5 1.5V3.6875C15.5 3.91956 15.5922 4.14212 15.7563 4.30622C15.9204 4.47031 16.1429 4.5625 16.375 4.5625C16.6071 4.5625 16.8296 4.47031 16.9937 4.30622C17.1578 4.14212 17.25 3.91956 17.25 3.6875V1.5C17.25 1.26794 17.1578 1.04538 16.9937 0.881282C16.8296 0.717187 16.6071 0.625 16.375 0.625C16.1429 0.625 15.9204 0.717187 15.7563 0.881282C15.5922 1.04538 15.5 1.26794 15.5 1.5ZM23.375 8.5V17.6875C23.3737 18.7314 22.9585 19.7322 22.2203 20.4703C21.4822 21.2085 20.4814 21.6237 19.4375 21.625H4.5625C3.5186 21.6237 2.51782 21.2085 1.77967 20.4703C1.04152 19.7322 0.626274 18.7314 0.625 17.6875V8.5H23.375ZM15.1968 13.4477H13.3904L12.8313 11.7296C12.7737 11.5546 12.6624 11.4021 12.5131 11.2941C12.3638 11.186 12.1843 11.1278 12 11.1278C11.8157 11.1278 11.6362 11.186 11.4869 11.2941C11.3376 11.4021 11.2263 11.5546 11.1687 11.7296L10.6105 13.4477H8.80319C8.61839 13.4477 8.43833 13.5061 8.28881 13.6147C8.1393 13.7233 8.028 13.8765 7.97088 14.0522C7.91375 14.228 7.91373 14.4173 7.97083 14.593C8.02792 14.7688 8.13919 14.9219 8.28869 15.0306L9.75037 16.0924L9.19213 17.8104C9.135 17.9862 9.13498 18.1755 9.19209 18.3513C9.24919 18.5271 9.36048 18.6802 9.51 18.7888C9.65952 18.8975 9.83959 18.9559 10.0244 18.9559C10.2092 18.9559 10.3893 18.8974 10.5387 18.7887L12 17.7269L13.4613 18.7887C13.6107 18.8974 13.7908 18.9559 13.9756 18.9559C14.1604 18.9559 14.3405 18.8975 14.49 18.7888C14.6395 18.6802 14.7508 18.5271 14.8079 18.3513C14.865 18.1755 14.865 17.9862 14.8079 17.8104L14.2496 16.0924L15.7113 15.0306C15.8608 14.9219 15.9721 14.7688 16.0292 14.593C16.0863 14.4173 16.0862 14.228 16.0291 14.0522C15.972 13.8765 15.8607 13.7233 15.7112 13.6147C15.5617 13.5061 15.3816 13.4477 15.1968 13.4477Z" fill="white"/>
</svg>
