<svg width="24" height="24" viewBox="0 0 24 24" fill="none" xmlns="http://www.w3.org/2000/svg">
    <g clip-path="url(#clip0_1065_4277)">
        <path d="M13.5431 10.2039C13.5431 6.62251 10.6402 3.71973 7.06035 3.71973C3.47891 3.71973 0.576599 6.62255 0.576599 10.2039C0.576599 13.3624 2.83513 15.9921 5.82543 16.5692V18.4769H4.83224C4.15124 18.4769 3.59835 19.0293 3.59835 19.7103C3.59835 20.3927 4.15124 20.9452 4.83224 20.9452H5.82543V22.7658C5.82543 23.4468 6.37836 23.9997 7.0603 23.9997C7.22238 23.9999 7.3829 23.9681 7.53267 23.9061C7.68245 23.8442 7.81854 23.7533 7.93316 23.6387C8.0478 23.5241 8.13868 23.388 8.20055 23.2382C8.26243 23.0885 8.29409 22.9279 8.29372 22.7658V20.9452H9.28696C9.96941 20.9452 10.5218 20.3927 10.5218 19.7103C10.5218 19.0293 9.96941 18.4769 9.28696 18.4769H8.29372V16.5692C11.2845 15.9921 13.5431 13.3624 13.5431 10.2039ZM7.0603 14.4069C4.73844 14.4069 2.8574 12.5243 2.8574 10.2039C2.8574 7.88204 4.73849 6.00001 7.0603 6.00001C9.38071 6.00001 11.2633 7.88204 11.2633 10.2039C11.2633 12.5243 9.38071 14.4069 7.0603 14.4069Z" fill="#FE93BB"/>
        <path d="M7.50283 20.9453H8.29426V22.7654C8.29426 23.1064 8.15617 23.4148 7.93272 23.6382C7.70926 23.8617 7.40045 23.9997 7.05986 23.9997C7.04856 23.9997 7.03726 23.9997 7.02597 23.9989C7.16612 23.8727 7.31462 23.7491 7.38208 23.5668C7.43879 23.4137 7.4154 23.2393 7.4154 23.0796V21.176C7.4154 21.0486 7.37542 20.9453 7.50283 20.9453ZM10.5211 19.7459C10.5025 20.4181 9.93395 20.9453 9.26143 20.9453H8.82353C9.30217 20.9453 9.67122 20.4904 9.62026 20.0234C9.58834 19.7309 9.48011 19.5155 9.21203 19.3827C8.96734 19.2615 8.70057 19.2181 8.42936 19.2181H7.64701C7.58582 19.2181 7.52714 19.1938 7.48387 19.1505C7.4406 19.1073 7.41629 19.0486 7.41629 18.9874V17.1431C7.41629 16.9445 7.55218 16.7724 7.74498 16.7246C7.92442 16.6801 8.12106 16.6281 8.29417 16.5689V18.4765H9.28712C9.9804 18.4765 10.5403 19.0483 10.5211 19.7459ZM13.5435 10.2033C13.5435 13.0441 11.7166 15.4572 9.17378 16.3334C10.6674 15.3431 12.2729 13.8959 12.4538 10.9561C12.6737 7.38193 10.7352 5.18963 7.18689 4.54018C6.55693 4.42487 5.01526 4.31429 4.19153 4.38671C5.05642 3.95991 6.03011 3.71973 7.05986 3.71973C10.6408 3.71973 13.5435 6.62237 13.5435 10.2033Z" fill="#FE76A8"/>
        <path d="M22.1599 11.9676H22.1565C21.4586 11.9676 20.8931 12.5331 20.8931 13.2305L18.2146 10.552C18.1005 10.4374 18.0817 10.2606 18.1667 10.1233C19.7776 7.51432 19.4166 4.03347 17.0827 1.81699C14.4959 -0.640199 10.3877 -0.599606 7.84696 1.90493C5.21868 4.49646 5.20706 8.72843 7.81312 11.334C10.034 13.5553 13.436 13.8743 15.9971 12.2929C16.1344 12.2078 16.3117 12.2267 16.4258 12.3408L19.1044 15.0193C18.7554 15.0193 18.4398 15.1609 18.2112 15.389C17.9831 15.6181 17.8415 15.9337 17.8415 16.2827V16.286C17.8415 16.9834 18.407 17.5494 19.1044 17.5494H22.6538C23.0787 17.5494 23.4233 17.2048 23.4233 16.78V13.2305C23.4232 12.5331 22.8577 11.9676 22.1599 11.9676ZM12.5104 11.0285C10.0851 11.0285 8.11851 9.06241 8.11851 6.63663C8.11851 4.21085 10.0851 2.24472 12.5104 2.24472C14.9362 2.24472 16.9028 4.21085 16.9028 6.63663C16.9028 9.06241 14.9362 11.0285 12.5104 11.0285Z" fill="#6BD9E7"/>
        <path d="M17.0826 1.81699C14.4959 -0.640199 10.3877 -0.599606 7.84689 1.90493C7.06876 2.67246 6.51967 3.58347 6.20068 4.5535C6.52548 3.85802 6.93793 3.39564 7.51693 2.82438C10.0577 0.319847 14.1659 0.279254 16.7526 2.73639C18.6878 4.57399 19.3063 7.09286 18.5296 9.45096C19.7031 6.94066 19.2212 3.84789 17.0826 1.81699ZM17.8392 10.8477C17.7984 10.9103 17.7802 10.9849 17.7877 11.0592C17.7952 11.1335 17.8279 11.203 17.8804 11.2561L18.4147 11.7968C18.7709 12.1573 19.1274 12.5176 19.4834 12.8782C19.7434 13.1416 20.0034 13.4045 20.263 13.6675C20.6897 14.099 21.1826 14.2441 21.5601 13.7182C21.6629 13.5749 21.7269 13.4002 21.8513 13.2726C22.1576 12.9582 22.6752 13.281 22.6791 13.6786V17.549C23.0923 17.536 23.4234 17.1967 23.4234 16.7801V13.2311C23.4234 12.5334 22.8577 11.9677 22.16 11.9677H22.1566C21.4587 11.9677 20.8932 12.5332 20.8932 13.2306L18.2147 10.5521C18.174 10.5113 18.1442 10.461 18.128 10.4058L17.8392 10.8477Z" fill="#2ED1E2"/>
    </g>
    <defs>
        <clipPath id="clip0_1065_4277">
            <rect width="24" height="23.9997" fill="white"/>
        </clipPath>
    </defs>
</svg>
