<svg width="100" height="100" viewBox="0 0 100 100" fill="none" xmlns="http://www.w3.org/2000/svg">
    <path d="M43.75 8.33331H14.5834C8.83039 8.33331 4.16669 12.997 4.16669 18.75V47.9166C4.16669 53.6696 8.83039 58.3333 14.5834 58.3333H43.75C49.503 58.3333 54.1667 53.6696 54.1667 47.9166V18.75C54.1667 12.997 49.503 8.33331 43.75 8.33331Z" fill="#0588E2"/>
    <path d="M50 52.0833H16.6667C15.0091 52.0833 13.4194 51.4248 12.2473 50.2527C11.0752 49.0806 10.4167 47.4909 10.4167 45.8333V12.5C10.4167 11.2604 10.6709 10.0896 11.0667 8.98749C7.05627 10.4375 4.16669 14.2458 4.16669 18.75V47.9167C4.16669 53.6604 8.8396 58.3333 14.5834 58.3333H43.75C48.2542 58.3333 52.0625 55.4437 53.5125 51.4333C52.3885 51.8529 51.1998 52.0728 50 52.0833Z" fill="#0075D3"/>
    <path d="M41.4792 43.9291L31.0625 21.0125C30.8968 20.6487 30.6299 20.3404 30.2938 20.1241C29.9576 19.9079 29.5664 19.7929 29.1667 19.7929C28.767 19.7929 28.3757 19.9079 28.0396 20.1241C27.7034 20.3404 27.4365 20.6487 27.2708 21.0125L16.8542 43.9291C16.7402 44.1784 16.6764 44.4476 16.6667 44.7215C16.6569 44.9954 16.7013 45.2686 16.7972 45.5253C16.8932 45.782 17.0389 46.0173 17.2259 46.2176C17.413 46.4179 17.6377 46.5793 17.8872 46.6927C18.1368 46.806 18.4062 46.869 18.6801 46.878C18.954 46.887 19.227 46.8419 19.4835 46.7452C19.74 46.6486 19.9748 46.5022 20.1746 46.3147C20.3744 46.1271 20.5353 45.9019 20.6479 45.6521L24.3542 37.4979H33.9833L37.6896 45.6521C37.8022 45.9015 37.9631 46.1263 38.1629 46.3134C38.3627 46.5005 38.5976 46.6462 38.8539 46.7422C39.1102 46.8383 39.383 46.8827 39.6566 46.8729C39.9301 46.8632 40.1991 46.7994 40.4479 46.6854C40.951 46.4569 41.3427 46.038 41.5369 45.5207C41.7311 45.0034 41.7118 44.4301 41.4833 43.9271L41.4792 43.9291ZM26.2458 33.3333L29.1667 26.9104L32.0875 33.3333H26.2479H26.2458Z" fill="white"/>
    <path d="M85.4167 41.6666H56.25C50.4971 41.6666 45.8334 46.3303 45.8334 52.0833V81.25C45.8334 87.0029 50.4971 91.6666 56.25 91.6666H85.4167C91.1697 91.6666 95.8334 87.0029 95.8334 81.25V52.0833C95.8334 46.3303 91.1697 41.6666 85.4167 41.6666Z" fill="#FFC343"/>
    <path d="M91.6667 85.4166H58.3334C56.6758 85.4166 55.0861 84.7582 53.914 83.5861C52.7419 82.414 52.0834 80.8242 52.0834 79.1666V45.8333C52.0834 44.5937 52.3375 43.4229 52.7334 42.3208C48.723 43.7708 45.8334 47.5791 45.8334 52.0833V81.25C45.8334 86.9937 50.5063 91.6666 56.25 91.6666H85.4167C89.9209 91.6666 93.7292 88.7771 95.1792 84.7666C94.0552 85.1862 92.8665 85.4062 91.6667 85.4166Z" fill="#FFA221"/>
    <path d="M80.0855 62.5H81.25C81.8026 62.5 82.3325 62.2805 82.7232 61.8898C83.1139 61.4991 83.3334 60.9692 83.3334 60.4166C83.3334 59.8641 83.1139 59.3342 82.7232 58.9435C82.3325 58.5528 81.8026 58.3333 81.25 58.3333H72.9167V54.1666C72.9167 53.6141 72.6972 53.0842 72.3065 52.6935C71.9158 52.3028 71.3859 52.0833 70.8334 52.0833C70.2808 52.0833 69.7509 52.3028 69.3602 52.6935C68.9695 53.0842 68.75 53.6141 68.75 54.1666V58.3333H60.4167C59.8642 58.3333 59.3343 58.5528 58.9436 58.9435C58.5529 59.3342 58.3334 59.8641 58.3334 60.4166C58.3334 60.9692 58.5529 61.4991 58.9436 61.8898C59.3343 62.2805 59.8642 62.5 60.4167 62.5H75.875C75.3649 66.0393 73.5649 69.2654 70.8209 71.5583C69.2175 70.216 67.9222 68.544 67.023 66.6562C66.7832 66.1619 66.3579 65.7823 65.8397 65.6C65.3214 65.4177 64.7521 65.4475 64.2557 65.6829C63.7593 65.9184 63.376 66.3403 63.1892 66.857C63.0024 67.3737 63.0273 67.9432 63.2584 68.4416C64.2273 70.4489 65.5506 72.2648 67.1646 73.8021C65.3138 74.5936 63.3213 75.0005 61.3084 74.9979C60.1584 74.9979 59.3 75.9312 59.3 77.0812C59.3 78.2312 60.3063 79.1646 61.4584 79.1646C64.8917 79.1646 68.1042 78.2208 70.875 76.6021C73.7572 78.272 77.0274 79.1557 80.3584 79.1646C81.5084 79.1646 82.3667 78.2312 82.3667 77.0812C82.3667 75.9312 81.3605 74.9979 80.2084 74.9979C78.2594 74.9902 76.332 74.5892 74.5417 73.8187C77.6438 70.8002 79.6031 66.8014 80.0855 62.5Z" fill="white"/>
    <path d="M79.1667 18.75H69.6125L70.223 18.1396C70.6136 17.7489 70.8331 17.2191 70.8331 16.6666C70.8331 16.1142 70.6136 15.5844 70.223 15.1937C69.8323 14.8031 69.3025 14.5836 68.75 14.5836C68.1976 14.5836 67.6678 14.8031 67.2771 15.1937L63.1105 19.3604C62.9168 19.5537 62.7632 19.7833 62.6584 20.036C62.5536 20.2888 62.4996 20.5597 62.4996 20.8333C62.4996 21.1069 62.5536 21.3778 62.6584 21.6306C62.7632 21.8833 62.9168 22.1129 63.1105 22.3062L67.2771 26.4729C67.4702 26.667 67.6997 26.8211 67.9524 26.9262C68.2052 27.0313 68.4763 27.0855 68.75 27.0855C69.0238 27.0855 69.2949 27.0313 69.5477 26.9262C69.8004 26.8211 70.0299 26.667 70.223 26.4729C70.4166 26.2796 70.5702 26.05 70.675 25.7972C70.7799 25.5445 70.8338 25.2736 70.8338 25C70.8338 24.7264 70.7799 24.4554 70.675 24.2027C70.5702 23.95 70.4166 23.7204 70.223 23.5271L69.6125 22.9166H79.1667C80.3146 22.9166 81.25 23.8521 81.25 25V31.25C81.25 31.8025 81.4695 32.3324 81.8602 32.7231C82.2509 33.1138 82.7808 33.3333 83.3334 33.3333C83.8859 33.3333 84.4158 33.1138 84.8065 32.7231C85.1972 32.3324 85.4167 31.8025 85.4167 31.25V25C85.4167 21.5541 82.6125 18.75 79.1667 18.75ZM32.723 73.5271C32.5295 73.3336 32.2999 73.1802 32.0472 73.0755C31.7945 72.9708 31.5236 72.917 31.25 72.917C30.9765 72.917 30.7056 72.9708 30.4529 73.0755C30.2002 73.1802 29.9706 73.3336 29.7771 73.5271C29.5837 73.7205 29.4303 73.9501 29.3256 74.2028C29.2209 74.4556 29.167 74.7264 29.167 75C29.167 75.2735 29.2209 75.5444 29.3256 75.7971C29.4303 76.0498 29.5837 76.2795 29.7771 76.4729L30.3875 77.0833H20.8334C19.6855 77.0833 18.75 76.1479 18.75 75V68.75C18.75 68.1974 18.5305 67.6675 18.1398 67.2768C17.7491 66.8861 17.2192 66.6666 16.6667 66.6666C16.1142 66.6666 15.5843 66.8861 15.1936 67.2768C14.8029 67.6675 14.5834 68.1974 14.5834 68.75V75C14.5834 78.4458 17.3875 81.25 20.8334 81.25H30.3875L29.7771 81.8604C29.5837 82.0538 29.4303 82.2834 29.3256 82.5362C29.2209 82.7889 29.167 83.0598 29.167 83.3333C29.167 83.6068 29.2209 83.8777 29.3256 84.1304C29.4303 84.3832 29.5837 84.6128 29.7771 84.8062C29.9706 84.9996 30.2002 85.1531 30.4529 85.2578C30.7056 85.3624 30.9765 85.4163 31.25 85.4163C31.5236 85.4163 31.7945 85.3624 32.0472 85.2578C32.2999 85.1531 32.5295 84.9996 32.723 84.8062L36.8896 80.6396C37.0833 80.4463 37.2369 80.2167 37.3417 79.9639C37.4465 79.7112 37.5005 79.4403 37.5005 79.1666C37.5005 78.893 37.4465 78.6221 37.3417 78.3694C37.2369 78.1166 37.0833 77.887 36.8896 77.6937L32.723 73.5271Z" fill="#B0B0B0"/>
</svg>
