<svg width="24" height="24" viewBox="0 0 24 24" fill="none" xmlns="http://www.w3.org/2000/svg">
    <path d="M14.8381 14.7321C16.6471 11.8935 16.4197 12.2476 16.4718 12.1736C17.1304 11.2447 17.4785 10.1513 17.4785 9.01172C17.4785 5.98957 15.0261 3.5 12 3.5C8.98376 3.5 6.52148 5.98466 6.52148 9.01172C6.52148 10.1506 6.87689 11.2726 7.55709 12.214L9.16186 14.7322C7.44609 14.9958 4.5293 15.7816 4.5293 17.5117C4.5293 18.1424 4.94095 19.0412 6.90206 19.7416C8.27142 20.2307 10.0819 20.5 12 20.5C15.5868 20.5 19.4707 19.4882 19.4707 17.5117C19.4707 15.7813 16.5573 14.9963 14.8381 14.7321ZM8.38913 11.6661C8.38365 11.6576 8.37793 11.6492 8.37196 11.641C7.80595 10.8623 7.51758 9.93945 7.51758 9.01172C7.51758 6.52089 9.52325 4.49609 12 4.49609C14.4716 4.49609 16.4824 6.52178 16.4824 9.01172C16.4824 9.94094 16.1995 10.8325 15.6641 11.5906C15.6161 11.6539 15.8664 11.265 12 17.3321L8.38913 11.6661ZM12 19.5039C8.08223 19.5039 5.52539 18.3523 5.52539 17.5117C5.52539 16.9467 6.83917 16.0177 9.75042 15.6556L11.58 18.5265C11.625 18.5971 11.687 18.6552 11.7604 18.6955C11.8339 18.7358 11.9162 18.7569 12 18.7569C12.0837 18.7569 12.1661 18.7358 12.2395 18.6955C12.3129 18.6552 12.375 18.5971 12.42 18.5265L14.2495 15.6556C17.1608 16.0177 18.4746 16.9467 18.4746 17.5117C18.4746 18.3452 15.9408 19.5039 12 19.5039Z" fill="#333333"/>
    <path d="M12 6.52148C10.6269 6.52148 9.50977 7.6386 9.50977 9.01172C9.50977 10.3848 10.6269 11.502 12 11.502C13.3731 11.502 14.4902 10.3848 14.4902 9.01172C14.4902 7.6386 13.3731 6.52148 12 6.52148ZM12 10.5059C11.1761 10.5059 10.5059 9.83559 10.5059 9.01172C10.5059 8.18785 11.1761 7.51758 12 7.51758C12.8239 7.51758 13.4941 8.18785 13.4941 9.01172C13.4941 9.83559 12.8239 10.5059 12 10.5059Z" fill="#333333"/>
</svg>
