<svg width="24" height="24" viewBox="0 0 24 24" fill="none" xmlns="http://www.w3.org/2000/svg">
    <g clip-path="url(#clip0_303_5775)">
        <path d="M11.8914 1.03027C5.54852 1.03027 0.406616 6.17218 0.406616 12.5151C0.406616 13.9206 0.659561 15.267 1.12167 16.5117L4.01042 20.8684C4.31849 21.1592 4.64235 21.4329 4.98052 21.688L16.622 22.9834C20.605 21.1806 23.3762 17.1715 23.3762 12.5151C23.3762 6.17218 18.2343 1.03027 11.8914 1.03027Z" fill="#FEF156"/>
        <path d="M14.2482 13.3679C13.3121 13.076 13.0622 12.4214 13.0551 11.4302C12.4999 12.0874 11.8647 12.5577 11.039 12.6359C10.9652 13.2713 10.7511 14.4214 10.135 15.3643C10.3734 15.4154 10.6165 15.441 10.8603 15.4409C12.3096 15.4409 13.421 14.5702 14.2918 13.3814L14.2482 13.3679Z" fill="#FFAA7B"/>
        <path d="M11.134 12.6249C11.0209 12.6399 10.9071 12.6474 10.793 12.6473C9.906 12.6473 9.2578 12.2286 8.66158 11.5781C8.59979 12.9316 8.05715 13.0987 7.52469 13.3703L7.52455 13.3701L7.43961 13.3955C8.17392 14.3924 9.07967 15.1666 10.2175 15.381C10.8456 14.4298 11.0609 13.2619 11.134 12.6249Z" fill="#FC9460"/>
        <path d="M11.1348 0.00976562C10.8707 0.228068 10.5374 0.590938 10.4374 1.08895C10.3321 1.61364 10.5122 2.16607 10.9726 2.73089C10.9853 2.7465 10.9971 2.76253 11.0093 2.77842C11.1387 2.76701 11.2663 2.74056 11.3896 2.69962C11.9182 2.52383 12.7472 2.34777 13.4229 2.65181C14.2183 3.00971 14.1517 4.10455 14.1078 4.71047C14.0926 4.92113 14.1427 5.13241 14.2565 5.31105C14.3237 5.41648 14.3771 5.52832 14.4194 5.63876C14.472 5.77602 14.5094 6.00801 14.5325 6.15201C14.6547 6.09285 14.9193 6.02845 15.0686 6.04954C15.0869 5.41615 15.1454 4.64316 15.1454 4.64316C15.7538 1.66314 13.4284 0.142332 11.1348 0.00976562Z" fill="#2A428B"/>
        <path d="M11.2395 0.016625C10.8448 -0.0134696 10.4497 -0.00273495 10.0694 0.0490633C7.69415 0.372697 7.4684 1.71936 7.46736 2.21348C7.46713 2.31708 7.40975 2.41313 7.31656 2.45846C6.08104 3.0595 6.7472 6.04641 6.7472 6.04641C6.87129 6.05471 7.09132 6.10496 7.18817 6.15184C7.21189 6.00423 7.25061 5.76872 7.30527 5.62823C7.34694 5.52117 7.39902 5.41307 7.46413 5.31088C7.57665 5.13364 7.62894 4.92481 7.61324 4.71546C7.56885 4.11113 7.50004 3.01052 8.29773 2.65163C8.9735 2.34755 9.80246 2.52362 10.3311 2.69945C10.5757 2.78062 10.8357 2.80435 11.0909 2.76883C11.0704 2.74074 11.0491 2.7132 11.0272 2.68623C9.9166 1.324 10.7575 0.392854 11.2395 0.016625Z" fill="#1D2E79"/>
        <path d="M15.3355 6.04138C15.1505 5.87183 14.737 5.9578 14.5776 6.06159C14.6124 6.27982 14.6147 6.502 14.5844 6.7209L14.3964 8.0903C14.3964 8.20069 14.3929 8.30898 14.3865 8.41543C14.845 8.55372 15.1178 8.14214 15.1561 7.85967C15.1726 7.73808 15.1997 7.61816 15.2371 7.5013C15.3591 7.12038 15.799 6.46618 15.3355 6.04138Z" fill="#FFAA7B"/>
        <path d="M6.38509 6.04138C6.57011 5.87183 6.9837 5.9578 7.14303 6.06159C7.10826 6.27982 7.10598 6.502 7.13628 6.7209L7.3243 8.0903C7.3243 8.20069 7.32777 8.30898 7.3342 8.41543C6.8757 8.55372 6.60288 8.14214 6.56453 7.85967C6.54807 7.73808 6.52098 7.61816 6.48358 7.5013C6.36156 7.12038 5.92158 6.46618 6.38509 6.04138Z" fill="#FC9460"/>
        <path d="M14.5096 5.63833C14.4673 5.52793 14.4139 5.41609 14.3467 5.31061C14.2328 5.13202 14.1828 4.9207 14.198 4.71004C14.2419 4.10411 14.2184 2.91908 13.423 2.56118C12.7473 2.25714 11.9184 2.43316 11.3897 2.60895C11.2326 2.66105 11.0688 2.68961 10.9033 2.6937C10.4009 3.1919 10.3907 4.14527 10.4291 4.66775C10.4451 4.88065 10.3919 5.09301 10.2775 5.27325C10.2113 5.37713 10.1583 5.4871 10.116 5.59595C9.97852 5.94902 9.93844 6.33191 9.98996 6.70682L10.1812 8.09966C10.1812 10.1021 11.2501 11.4631 12.1593 12.1691C12.1953 12.1968 12.2319 12.2236 12.2692 12.2493C12.3476 12.2009 12.4234 12.1483 12.4962 12.092C13.3904 11.3976 14.4415 10.0592 14.4415 8.09005L14.6295 6.72065C14.6796 6.35567 14.6416 5.98282 14.5096 5.63833Z" fill="#FFC7AB"/>
        <path d="M12.1621 12.0925C11.2679 11.3982 10.2167 10.0597 10.2167 8.09058L10.0287 6.72086C9.97805 6.35218 10.0174 5.97562 10.1526 5.62845C10.1943 5.52144 10.2464 5.41329 10.3115 5.31115C10.424 5.13391 10.4763 4.92508 10.4605 4.71573C10.4204 4.16924 10.4342 3.14326 11.0271 2.68645C10.7922 2.71002 10.555 2.68377 10.3309 2.60943C9.80231 2.43365 8.97339 2.25763 8.29763 2.56167C7.49993 2.9206 7.47856 4.1114 7.52295 4.71568C7.53869 4.92503 7.48641 5.13386 7.37388 5.3111C7.30877 5.41325 7.25669 5.52139 7.21502 5.62841C7.07987 5.97562 7.04045 6.35213 7.09108 6.72081L7.27915 8.09054C7.27915 10.0597 8.3303 11.3981 9.22442 12.0925C9.69112 12.4549 10.2671 12.6517 10.8603 12.6517C11.3824 12.6519 11.893 12.4989 12.3291 12.2118C12.2719 12.1742 12.2162 12.1344 12.1621 12.0925Z" fill="#FFAA7B"/>
        <path d="M16.4106 21.8802C15.8656 21.8802 15.4198 21.4344 15.4198 20.8894V13.7328L14.2482 13.3676C14.2272 13.361 14.207 13.3541 14.1867 13.3472C13.3566 14.4954 12.2767 15.3617 10.8604 15.3617C10.6249 15.3617 10.3988 15.3373 10.181 15.292C9.95143 15.6591 9.66342 15.9981 9.30154 16.2676C7.83276 17.3613 8.02027 18.8926 8.02027 20.7989V23.3304C8.40905 23.4696 8.80509 23.5875 9.20666 23.6837L12.3094 23.9915C13.8425 23.9366 15.2992 23.5822 16.622 22.9834C16.6269 22.5633 16.6339 22.1224 16.6428 21.8802H16.4106Z" fill="#FD77A6"/>
        <path d="M8.11396 20.7993C8.11396 18.8929 7.92645 17.3617 9.39523 16.2679C9.75177 16.0024 10.0366 15.6694 10.2645 15.3086C9.15541 15.1078 8.26621 14.3547 7.5438 13.3608C7.53738 13.3641 7.531 13.3673 7.52463 13.3705L7.52449 13.3704L3.88951 14.4579C2.97725 14.6511 2.09453 15.0041 1.3694 16.1069C1.30579 16.2037 1.22019 16.3444 1.1217 16.5121C1.74178 18.1823 2.73917 19.669 4.01045 20.8688C4.14626 20.6104 4.24999 20.4025 4.28965 20.3057C4.38331 20.0773 4.67511 20.0665 4.8028 20.2384C4.85329 20.3064 4.92154 20.9451 4.98056 21.6884C5.93159 22.4064 6.98877 22.9716 8.114 23.3637L8.11396 20.7993Z" fill="#FE3D97"/>
        <path d="M12.2815 16.8247C12.193 16.7793 12.0901 16.7708 11.9954 16.8013C11.9007 16.8317 11.822 16.8985 11.7766 16.9869L10.8586 18.7743L7.79582 12.9999C7.74886 12.9127 7.66929 12.8476 7.57451 12.8189C7.47972 12.7901 7.37741 12.8 7.28991 12.8465C7.2024 12.8929 7.13682 12.972 7.10747 13.0666C7.07813 13.1612 7.0874 13.2636 7.13327 13.3514L10.2354 19.1999C10.3356 18.953 10.5775 18.7787 10.8604 18.7787C11.1423 18.7787 11.3836 18.9518 11.4845 19.1974L12.4438 17.3297C12.4892 17.2412 12.4976 17.1383 12.4672 17.0436C12.4367 16.9489 12.3699 16.8702 12.2815 16.8247Z" fill="#27A6FF"/>
        <path d="M11.5196 19.4978C11.5291 19.4532 11.535 19.4072 11.535 19.3597C11.535 18.9871 11.233 18.6851 10.8603 18.6851C10.4877 18.6851 10.1857 18.9871 10.1857 19.3597C10.1857 19.4072 10.1914 19.4532 10.2009 19.4978H11.5196Z" fill="#FEF156"/>
        <path d="M23.0974 16.3623C22.7743 16.375 22.4957 16.0439 22.4338 15.9655L22.3266 11.8L22.3067 11.7802C22.1131 11.5865 22.0211 11.3814 22.0333 11.1706C22.0553 10.7904 22.4083 10.5068 22.4118 10.5039L22.4205 10.4971L22.4531 10.4487H18.4755C18.5386 11.1799 18.7558 12.0804 19.4129 12.4423V13.4655C19.4129 13.4655 18.0395 14.8768 19.4129 15.9549V16.7049C19.4129 16.7049 18.2036 17.7831 19.4129 18.8847V19.705C19.4129 19.705 18.8473 20.327 19.4129 20.8925C19.4129 20.8925 18.8124 21.4113 19.2424 21.9269H22.6026C23.1476 21.9269 23.5934 21.4811 23.5934 20.9361V16.0348C23.4415 16.2461 23.275 16.3563 23.0974 16.3623Z" fill="#02C0FC"/>
        <path d="M22.6025 10.4487H22.3682C22.3682 10.4487 21.5334 11.1063 22.257 11.8298L22.364 15.9901C22.364 15.9901 22.9983 16.8687 23.5933 16.1502V11.4395C23.5933 10.8946 23.1475 10.4487 22.6025 10.4487Z" fill="#3FEADD"/>
        <path d="M15.326 11.4399V20.9366C15.326 21.4816 15.7719 21.9274 16.3168 21.9274H19.2893C18.8592 21.4118 19.4597 20.893 19.4597 20.893C18.8941 20.3274 19.4597 19.7055 19.4597 19.7055V18.8852C18.2504 17.7836 19.4597 16.7054 19.4597 16.7054V15.9554C18.0863 14.8772 19.4597 13.466 19.4597 13.466V12.4428C18.8026 12.0808 18.5855 11.1803 18.5223 10.4492H16.3168C15.7719 10.4492 15.326 10.895 15.326 11.4399Z" fill="#27A6FF"/>
        <path d="M20.2659 9.80957C20.2668 9.79396 20.2683 9.77854 20.2683 9.7627C20.2683 9.31612 19.9063 8.9541 19.4597 8.9541C19.0131 8.9541 18.6511 9.31612 18.6511 9.7627C18.6511 9.77854 18.6525 9.79396 18.6535 9.80957H20.2659Z" fill="#3F57A0"/>
        <path d="M19.5065 10.5727V10.3252C19.5065 10.0158 19.7597 9.7627 20.069 9.7627H18.2598C17.9504 9.7627 17.6973 10.0158 17.6973 10.3252V10.5727C17.6973 10.8821 17.9504 11.1352 18.2598 11.1352H20.069C19.7597 11.1352 19.5065 10.8821 19.5065 10.5727Z" fill="#4B67AA"/>
        <path d="M21.222 10.5727V10.3252C21.222 10.0158 20.9689 9.7627 20.6595 9.7627H20.0222C19.7128 9.7627 19.4597 10.0158 19.4597 10.3252V10.5727C19.4597 10.8821 19.7128 11.1352 20.0222 11.1352H20.6595C20.9689 11.1352 21.222 10.8821 21.222 10.5727Z" fill="#6289CD"/>
        <path d="M11.9388 17.492C11.8503 17.4466 11.7835 17.3679 11.7531 17.2732C11.7227 17.1785 11.7311 17.0756 11.7766 16.9871L13.872 12.9073C13.9174 12.8188 13.9961 12.752 14.0908 12.7216C14.1855 12.6912 14.2884 12.6996 14.3769 12.745C14.4654 12.7905 14.5322 12.8692 14.5626 12.9639C14.593 13.0586 14.5846 13.1615 14.5392 13.25L12.4438 17.3298C12.3494 17.5134 12.1237 17.587 11.9388 17.492Z" fill="#02C0FC"/>
        <path d="M13.8404 9.39707C13.6514 9.5505 13.3663 9.48309 13.2731 9.25818C13.0799 8.79166 12.704 8.39036 12.2368 8.28442L11.3188 8.01474C11.1593 7.96786 10.9995 8.04971 10.9353 8.18869C10.9327 8.19437 10.9286 8.19919 10.9233 8.20257C10.9181 8.20595 10.912 8.20774 10.9058 8.20774C10.8995 8.20774 10.8935 8.20595 10.8882 8.20257C10.883 8.19919 10.8788 8.19437 10.8763 8.18869C10.812 8.04975 10.6523 7.96791 10.4927 8.01474L10.097 8.13099C10.0126 8.24607 9.88462 8.46751 9.90623 8.73166C9.92474 8.95793 10.0484 9.16382 10.2737 9.34429L10.3862 9.31944C10.6252 9.26671 10.81 9.03341 10.8778 8.78487C10.8856 8.75632 10.9261 8.75632 10.9339 8.78487C11.0017 9.03341 11.1865 9.26671 11.4255 9.31944L11.5895 9.35563C12.0546 9.45842 12.47 9.71847 12.7657 10.0919C12.7053 10.3608 12.5156 10.7692 11.928 10.9768C11.8389 11.0085 11.7441 11.021 11.6497 11.0135C11.5554 11.006 11.4638 10.9787 11.3807 10.9333C11.2989 11.1509 11.2046 11.5311 11.3583 11.8887C11.4614 12.1286 11.6588 12.3162 11.9463 12.4495C12.8501 11.9728 13.9923 11.1442 14.3676 9.1356C14.3998 8.96361 14.416 8.78902 14.4161 8.61405C14.3126 8.86939 14.1316 9.16067 13.8404 9.39707Z" fill="#2A428B"/>
        <path d="M11.4446 10.9637C11.2403 10.8791 11.0824 10.6962 11.053 10.4576L11.0511 10.4415C11.0472 10.4044 11.0296 10.3701 11.0019 10.3451C10.9741 10.3201 10.9381 10.3063 10.9008 10.3063C10.8634 10.3063 10.8274 10.3201 10.7997 10.3451C10.7719 10.3701 10.7544 10.4044 10.7504 10.4415C10.7498 10.4469 10.7492 10.4523 10.7486 10.4576C10.6981 10.868 10.2678 11.1159 9.87357 10.9767C9.33112 10.785 9.09777 10.422 8.9975 10.1559C9.29471 9.74888 9.73017 9.46429 10.2222 9.35546L10.3632 9.32433C9.59152 8.75342 10.2035 8.1093 10.2165 8.0957L9.57478 8.28424C9.0936 8.39337 8.70898 8.81582 8.52129 9.3001C8.43489 9.52309 8.16512 9.60882 7.97049 9.46988C7.62384 9.22242 7.41885 8.89612 7.30457 8.61397V8.61416C7.30457 8.78816 7.32069 8.96207 7.35252 9.13312C7.74206 11.2245 8.95799 12.0373 9.87699 12.5057C10.1805 12.6603 10.5163 12.7409 10.8569 12.741C11.1976 12.7411 11.5334 12.6606 11.837 12.5062C11.8999 12.4742 11.9625 12.4413 12.0245 12.4076C11.1672 12.042 11.3194 11.3026 11.4446 10.9637Z" fill="#1D2E79"/>
        <path d="M22.257 11.8301H18.8359C18.9746 12.0866 19.1614 12.304 19.4128 12.4425V13.4657C19.4128 13.4657 18.0394 14.877 19.4128 15.9551V16.7052C19.4128 16.7052 18.2035 17.7833 19.4128 18.8849V19.7052C19.4128 19.7052 18.8472 20.3272 19.4128 20.8928H22.257C22.4651 20.8928 22.6353 20.7225 22.6353 20.5145V12.2084C22.6353 12.0003 22.4651 11.8301 22.257 11.8301Z" fill="#E8F8FC"/>
        <path d="M16.284 12.2084V20.5145C16.284 20.7226 16.4543 20.8928 16.6623 20.8928H19.4597C18.8941 20.3272 19.4597 19.7052 19.4597 19.7052V18.8849C18.2504 17.7833 19.4597 16.7052 19.4597 16.7052V15.9551C18.0863 14.877 19.4597 13.4657 19.4597 13.4657V12.4425C19.2083 12.304 19.0215 12.0866 18.8829 11.8301H16.6623C16.4543 11.83 16.284 12.0003 16.284 12.2084Z" fill="#ADE9F7"/>
        <path d="M19.4597 12.4426C18.7455 12.4426 18.1645 11.8615 18.1645 11.1473V10.9238C18.1645 10.8368 18.1991 10.7533 18.2606 10.6918C18.3221 10.6303 18.4056 10.5957 18.4926 10.5957C18.5797 10.5957 18.6631 10.6303 18.7247 10.6918C18.7862 10.7533 18.8208 10.8368 18.8208 10.9238V11.1473C18.8208 11.4997 19.1074 11.7863 19.4597 11.7863C19.812 11.7863 20.0986 11.4997 20.0986 11.1473V10.9238C20.0986 10.8368 20.1331 10.7533 20.1947 10.6918C20.2562 10.6303 20.3397 10.5957 20.4267 10.5957C20.5137 10.5957 20.5972 10.6303 20.6587 10.6918C20.7203 10.7533 20.7548 10.8368 20.7548 10.9238V11.1473C20.7548 11.8615 20.1738 12.4426 19.4597 12.4426Z" fill="#FEF156"/>
        <path d="M16.9638 16.1267C17.3393 16.1267 17.6437 15.8224 17.6437 15.4469C17.6437 15.0715 17.3393 14.7671 16.9638 14.7671C16.5884 14.7671 16.284 15.0715 16.284 15.4469C16.284 15.8224 16.5884 16.1267 16.9638 16.1267Z" fill="#FEA53D"/>
        <path d="M19.4596 17.0559C19.8351 17.0559 20.1395 16.7516 20.1395 16.3761C20.1395 16.0007 19.8351 15.6963 19.4596 15.6963C19.0842 15.6963 18.7798 16.0007 18.7798 16.3761C18.7798 16.7516 19.0842 17.0559 19.4596 17.0559Z" fill="#FFD402"/>
        <path d="M21.9555 16.1267C22.331 16.1267 22.6353 15.8224 22.6353 15.4469C22.6353 15.0715 22.331 14.7671 21.9555 14.7671C21.58 14.7671 21.2757 15.0715 21.2757 15.4469C21.2757 15.8224 21.58 16.1267 21.9555 16.1267Z" fill="#FFD402"/>
        <path d="M17.6369 18.4465C17.6973 18.076 17.446 17.7265 17.0754 17.666C16.7049 17.6056 16.3554 17.8569 16.295 18.2275C16.2345 18.598 16.4858 18.9475 16.8564 19.0079C17.227 19.0684 17.5764 18.8171 17.6369 18.4465Z" fill="#FEA53D"/>
        <path d="M20.1327 19.3752C20.1932 19.0047 19.9418 18.6552 19.5712 18.5948C19.2007 18.5343 18.8513 18.7856 18.7908 19.1562C18.7303 19.5268 18.9817 19.8762 19.3522 19.9367C19.7228 19.9971 20.0722 19.7458 20.1327 19.3752Z" fill="#FFD402"/>
        <path d="M22.629 18.446C22.6894 18.0755 22.4381 17.726 22.0675 17.6656C21.697 17.6051 21.3475 17.8564 21.2871 18.227C21.2266 18.5976 21.4779 18.947 21.8485 19.0075C22.2191 19.0679 22.5685 18.8166 22.629 18.446Z" fill="#FFD402"/>
        <path d="M19.4596 14.1458C19.8351 14.1458 20.1395 13.8414 20.1395 13.466C20.1395 13.0905 19.8351 12.7861 19.4596 12.7861C19.0842 12.7861 18.7798 13.0905 18.7798 13.466C18.7798 13.8414 19.0842 14.1458 19.4596 14.1458Z" fill="#FE3D97"/>
        <path d="M12.5322 22.7208V20.0132C12.5322 19.7038 12.2791 19.4507 11.9697 19.4507H9.75093C9.44155 19.4507 9.18842 19.7038 9.18842 20.0132V22.7208H12.5322Z" fill="#E8F8FC"/>
        <path d="M9.18842 22.6743V23.545C9.18842 23.593 9.19517 23.6394 9.2066 23.684C10.0679 23.8905 10.9668 24.0002 11.8914 24.0002C12.0314 24.0002 12.1706 23.9968 12.3094 23.9918C12.4443 23.8888 12.5322 23.7269 12.5322 23.545V22.6743H9.18842Z" fill="#02C0FC"/>
        <path d="M11.2123 21.8579C11.6715 21.6679 11.8897 21.1416 11.6997 20.6824C11.5097 20.2232 10.9834 20.005 10.5242 20.195C10.065 20.385 9.84676 20.9113 10.0368 21.3705C10.2268 21.8297 10.7531 22.0479 11.2123 21.8579Z" fill="#ADE9F7"/>
    </g>
    <defs>
        <clipPath id="clip0_303_5775">
            <rect width="24" height="24" fill="white"/>
        </clipPath>
    </defs>
</svg>
