<svg width="25" height="24" viewBox="0 0 25 24" fill="none" xmlns="http://www.w3.org/2000/svg">
    <path d="M6.63659 0.751126C5.25413 0.752629 3.92885 1.30306 2.9521 2.2814C1.97534 3.25975 1.42708 4.58593 1.42783 5.96839L1.41791 13.1841C1.41692 14.4997 1.91538 15.7665 2.81255 16.7287C3.70971 17.6908 4.93868 18.2765 6.25107 18.3674V22.8746C6.25129 22.9487 6.27343 23.0211 6.31472 23.0827C6.356 23.1442 6.41459 23.1922 6.48308 23.2205C6.55158 23.2489 6.62693 23.2563 6.69965 23.2419C6.77237 23.2275 6.83919 23.1919 6.89172 23.1396L11.6157 18.4056H18.7096C19.3945 18.4053 20.0725 18.2699 20.7051 18.0073C21.3376 17.7447 21.9122 17.36 22.3959 16.8752C22.8797 16.3904 23.2631 15.815 23.5244 15.1819C23.7856 14.5488 23.9195 13.8704 23.9184 13.1855V5.97123C23.9212 5.28671 23.7888 4.60836 23.5289 3.97509C23.269 3.34181 22.8867 2.76606 22.4039 2.28084C21.921 1.79562 21.3471 1.41048 20.7151 1.14749C20.0831 0.884504 19.4055 0.748845 18.7209 0.748291L6.63659 0.751126ZM6.63659 1.49949H18.7209C19.3072 1.49816 19.888 1.61306 20.4296 1.83754C20.9712 2.06202 21.4629 2.39164 21.8764 2.80733C22.2898 3.22302 22.6168 3.71654 22.8383 4.25936C23.0599 4.80218 23.1717 5.38353 23.1672 5.96981V13.1841C23.1705 13.7712 23.0576 14.3532 22.8349 14.8964C22.6121 15.4396 22.284 15.9334 21.8694 16.3491C21.4549 16.7649 20.9621 17.0944 20.4195 17.3187C19.8769 17.543 19.2953 17.6576 18.7082 17.6559H11.4584C11.3589 17.6562 11.2636 17.6959 11.1934 17.7664L6.99944 21.9689V18.03C6.99906 17.9309 6.95952 17.836 6.88943 17.7659C6.81934 17.6958 6.72438 17.6562 6.62526 17.6559C6.03816 17.6579 5.45647 17.5436 4.9138 17.3196C4.37114 17.0955 3.87826 16.7661 3.46364 16.3505C3.04903 15.9348 2.72089 15.4411 2.49821 14.8978C2.27553 14.3546 2.16271 13.7726 2.16627 13.1855L2.17903 5.97123C2.17622 5.38447 2.28951 4.80294 2.51237 4.26015C2.73524 3.71735 3.06327 3.224 3.47758 2.80849C3.8919 2.39299 4.38431 2.06355 4.92647 1.83914C5.46863 1.61473 6.04983 1.49978 6.63659 1.5009V1.49949ZM8.91711 8.45301C8.6191 8.4545 8.33372 8.57354 8.123 8.78427C7.91227 8.995 7.79323 9.28038 7.79174 9.57839C7.79174 10.1949 8.30056 10.7038 8.91711 10.7038C9.21512 10.7023 9.5005 10.5832 9.71123 10.3725C9.92195 10.1618 10.041 9.87639 10.0425 9.57839C10.041 9.28038 9.92195 8.995 9.71123 8.78427C9.5005 8.57354 9.21512 8.4545 8.91711 8.45301ZM12.6674 8.45301C12.3694 8.4545 12.084 8.57354 11.8733 8.78427C11.6626 8.995 11.5435 9.28038 11.542 9.57839C11.542 10.1949 12.0495 10.7038 12.6674 10.7038C12.9652 10.7019 13.2502 10.5827 13.4606 10.372C13.671 10.1613 13.7899 9.87615 13.7914 9.57839C13.7899 9.28062 13.671 8.99545 13.4606 8.78477C13.2502 8.57408 12.9652 8.45487 12.6674 8.45301ZM16.4177 8.45301C16.1197 8.4545 15.8343 8.57354 15.6236 8.78427C15.4129 8.995 15.2938 9.28038 15.2924 9.57839C15.2924 10.1949 15.7998 10.7038 16.4177 10.7038C16.7155 10.7019 17.0005 10.5827 17.2109 10.372C17.4214 10.1613 17.5402 9.87615 17.5417 9.57839C17.5402 9.28062 17.4214 8.99545 17.2109 8.78477C17.0005 8.57408 16.7155 8.45487 16.4177 8.45301ZM8.91711 9.20421C8.96658 9.20325 9.01573 9.21226 9.06164 9.23071C9.10755 9.24916 9.14928 9.27666 9.18433 9.31158C9.21938 9.3465 9.24704 9.38812 9.26566 9.43396C9.28428 9.4798 9.29348 9.52891 9.29271 9.57839C9.29348 9.62786 9.28428 9.67698 9.26566 9.72282C9.24704 9.76865 9.21938 9.81027 9.18433 9.84519C9.14928 9.88011 9.10755 9.90762 9.06164 9.92606C9.01573 9.94451 8.96658 9.95352 8.91711 9.95257C8.86764 9.95352 8.81849 9.94451 8.77258 9.92606C8.72667 9.90762 8.68495 9.88011 8.6499 9.84519C8.61485 9.81027 8.58718 9.76865 8.56856 9.72282C8.54994 9.67698 8.54074 9.62786 8.54151 9.57839C8.54055 9.5288 8.54961 9.47952 8.56814 9.43352C8.58668 9.38751 8.61431 9.34572 8.64938 9.31065C8.68445 9.27558 8.72624 9.24795 8.77224 9.22942C8.81825 9.21088 8.86752 9.20324 8.91711 9.20421ZM12.6674 9.20421C12.7168 9.20344 12.7658 9.21259 12.8115 9.23113C12.8573 9.24966 12.8988 9.2772 12.9337 9.31209C12.9686 9.34699 12.9961 9.38855 13.0147 9.43429C13.0332 9.48004 13.0424 9.52904 13.0416 9.57839C13.0424 9.62774 13.0332 9.67673 13.0147 9.72248C12.9961 9.76822 12.9686 9.80978 12.9337 9.84468C12.8988 9.87958 12.8573 9.90711 12.8115 9.92564C12.7658 9.94418 12.7168 9.95333 12.6674 9.95257C12.618 9.95352 12.5688 9.94451 12.5229 9.92606C12.477 9.90762 12.4353 9.88011 12.4002 9.84519C12.3652 9.81027 12.3375 9.76865 12.3189 9.72282C12.3003 9.67698 12.2911 9.62786 12.2918 9.57839C12.2909 9.5288 12.2999 9.47952 12.3185 9.43352C12.337 9.38751 12.3646 9.34572 12.3997 9.31065C12.4348 9.27558 12.4765 9.24795 12.5226 9.22942C12.5686 9.21088 12.6178 9.20324 12.6674 9.20421ZM16.4177 9.20421C16.4671 9.20344 16.5161 9.21259 16.5618 9.23113C16.6076 9.24966 16.6491 9.2772 16.684 9.31209C16.7189 9.34699 16.7465 9.38855 16.765 9.43429C16.7835 9.48004 16.7927 9.52904 16.7919 9.57839C16.7927 9.62774 16.7835 9.67673 16.765 9.72248C16.7465 9.76822 16.7189 9.80978 16.684 9.84468C16.6491 9.87958 16.6076 9.90711 16.5618 9.92564C16.5161 9.94418 16.4671 9.95333 16.4177 9.95257C16.3683 9.95352 16.3191 9.94451 16.2732 9.92606C16.2273 9.90762 16.1856 9.88011 16.1505 9.84519C16.1155 9.81027 16.0878 9.76865 16.0692 9.72282C16.0506 9.67698 16.0414 9.62786 16.0421 9.57839C16.0412 9.5288 16.0502 9.47952 16.0688 9.43352C16.0873 9.38751 16.1149 9.34572 16.15 9.31065C16.1851 9.27558 16.2269 9.24795 16.2729 9.22942C16.3189 9.21088 16.3681 9.20324 16.4177 9.20421Z" fill="#333333"/>
</svg>
