<svg width="49" height="48" viewBox="0 0 49 48" fill="none" xmlns="http://www.w3.org/2000/svg">
    <path d="M24.7804 6.00218C14.8232 5.85006 6.6963 13.6869 6.50344 23.6434C6.4752 25.1051 6.62129 26.5281 6.92238 27.8928C7.43207 30.2036 7.73508 32.5553 7.73508 34.9218V39.496C7.73508 40.1968 8.30317 40.765 9.00406 40.765H13.5783C15.9447 40.765 18.2964 41.068 20.6073 41.5777C21.972 41.8787 23.3949 42.0249 24.8566 41.9965C34.8129 41.8038 42.6497 33.6771 42.498 23.7201C42.3497 14.0013 34.4991 6.15054 24.7804 6.00218Z" fill="url(#paint0_linear_1184_4639)"/>
    <path d="M18.0571 23.0358C17.5486 22.4955 16.8289 22.1562 16.0283 22.1562C14.4885 22.1562 13.2402 23.4045 13.2402 24.9443C13.2402 25.7449 13.5794 26.4646 14.1198 26.9731L20.1341 32.9874C20.6427 33.5277 21.3624 33.867 22.1629 33.867C23.7027 33.867 24.951 32.6188 24.951 31.0789C24.951 30.2784 24.6117 29.5587 24.0714 29.0501L18.0571 23.0358Z" fill="#E6EEF7" fill-opacity="0.13"/>
    <path d="M16.0283 27.7304C17.5681 27.7304 18.8164 26.4822 18.8164 24.9424C18.8164 23.4026 17.5681 22.1543 16.0283 22.1543C14.4885 22.1543 13.2402 23.4026 13.2402 24.9424C13.2402 26.4822 14.4885 27.7304 16.0283 27.7304Z" fill="white"/>
    <path d="M25.9419 23.0358C25.4334 22.4955 24.7137 22.1562 23.9131 22.1562C22.3733 22.1562 21.125 23.4045 21.125 24.9443C21.125 25.7449 21.4642 26.4646 22.0046 26.9731L28.0189 32.9874C28.5275 33.5277 29.2471 33.867 30.0477 33.867C31.5875 33.867 32.8358 32.6188 32.8358 31.0789C32.8358 30.2784 32.4965 29.5587 31.9562 29.0501L25.9419 23.0358Z" fill="#E6EEF7" fill-opacity="0.13"/>
    <path d="M23.9131 27.7304C25.4529 27.7304 26.7011 26.4822 26.7011 24.9424C26.7011 23.4026 25.4529 22.1543 23.9131 22.1543C22.3733 22.1543 21.125 23.4026 21.125 24.9424C21.125 26.4822 22.3733 27.7304 23.9131 27.7304Z" fill="white"/>
    <path d="M33.8266 23.0358C33.3182 22.4955 32.5985 22.1562 31.7978 22.1562C30.258 22.1562 29.0098 23.4045 29.0098 24.9443C29.0098 25.7449 29.3491 26.4646 29.8893 26.9731L35.9037 32.9874C36.4122 33.5277 37.1319 33.867 37.9324 33.867C39.4723 33.867 40.7205 32.6188 40.7205 31.0789C40.7205 30.2784 40.3812 29.5587 39.8409 29.0501L33.8266 23.0358Z" fill="#E6EEF7" fill-opacity="0.13"/>
    <path d="M31.7983 27.7304C33.3381 27.7304 34.5864 26.4822 34.5864 24.9424C34.5864 23.4026 33.3381 22.1543 31.7983 22.1543C30.2585 22.1543 29.0103 23.4026 29.0103 24.9424C29.0103 26.4822 30.2585 27.7304 31.7983 27.7304Z" fill="white"/>
    <defs>
        <linearGradient id="paint0_linear_1184_4639" x1="6.5" y1="23.1619" x2="49.8265" y2="23.4418" gradientUnits="userSpaceOnUse">
            <stop stop-color="#094EBE"/>
            <stop offset="1" stop-color="#15AABA"/>
        </linearGradient>
    </defs>
</svg>
