<svg width="24" height="24" viewBox="0 0 24 24" fill="none" xmlns="http://www.w3.org/2000/svg">
    <path d="M12 15.9995C14.206 15.9995 16 14.2055 16 11.9995V5.99952C16 3.78252 14.215 1.97852 12.021 1.97852C11.9506 1.97894 11.8805 1.98733 11.812 2.00352C10.7852 2.0533 9.81691 2.49587 9.10736 3.23967C8.39781 3.98346 8.00134 4.97156 7.99998 5.99952V11.9995C7.99998 14.2055 9.79399 15.9995 12 15.9995Z" fill="#333333"/>
    <path d="M11 19.931V22H13V19.931C16.939 19.436 20 16.073 20 12H18C18 15.309 15.309 18 12 18C8.69101 18 6.00002 15.309 6.00002 12H4.00002C4.00002 16.072 7.06101 19.436 11 19.931Z" fill="#333333"/>
</svg>
