<svg width="24" height="24" viewBox="0 0 24 24" fill="none" xmlns="http://www.w3.org/2000/svg">
    <path d="M14.2732 2.41978L14.4702 1.24219H9.52978L9.72685 2.41978C9.99881 4.04513 9.6593 5.51348 8.8426 6.60966L8.33649 7.28897H15.6635L15.1574 6.60966C14.3407 5.51348 14.0012 4.04513 14.2732 2.41978Z" fill="url(#paint0_linear_1564_2824)"/>
    <path d="M15.1574 6.60966C14.3407 5.51348 14.0012 4.04513 14.2732 2.41978L14.4702 1.24219H11.294V7.28902H15.6635L15.1574 6.60966Z" fill="url(#paint1_linear_1564_2824)"/>
    <path d="M9.72685 2.41978C9.83471 3.06427 9.84605 3.68391 9.76997 4.26558H14.23C14.154 3.68391 14.1653 3.06427 14.2732 2.41978L14.4702 1.24219H9.52979L9.72685 2.41978Z" fill="url(#paint2_linear_1564_2824)"/>
    <path d="M10.4803 2.41978C10.5524 3.06427 10.56 3.68391 10.5091 4.26558H13.4909C13.44 3.68391 13.4476 3.06427 13.5197 2.41978L13.6515 1.24219H10.3486L10.4803 2.41978Z" fill="url(#paint3_linear_1564_2824)"/>
    <path d="M11.563 2.41978C11.5837 3.06427 11.5859 3.68391 11.5713 4.26558H12.4288C12.4141 3.68391 12.4164 3.06427 12.4371 2.41978L12.4749 1.24219H11.5251L11.563 2.41978Z" fill="url(#paint4_linear_1564_2824)"/>
    <path d="M14.3526 1.56731H9.64729C9.29216 1.56731 9.0043 1.27945 9.0043 0.924328C9.0043 0.776825 9.05501 0.633805 9.14793 0.519253C9.24086 0.404701 9.37034 0.325585 9.51468 0.295172L9.85358 0.223735C11.2689 -0.0745782 12.7309 -0.0745782 14.1463 0.223735L14.4852 0.295172C14.6295 0.325601 14.759 0.404722 14.8519 0.51927C14.9449 0.633818 14.9956 0.77683 14.9956 0.924328C14.9957 1.27941 14.7078 1.56731 14.3526 1.56731Z" fill="url(#paint5_linear_1564_2824)"/>
    <path d="M14.3527 1.56736C14.7078 1.56736 14.9956 1.2795 14.9956 0.924375C14.9956 0.776872 14.9449 0.633851 14.852 0.5193C14.7591 0.404748 14.6296 0.325631 14.4853 0.295219L14.1464 0.223781C13.4406 0.0749877 12.7213 -9.37078e-06 12 8.78204e-10V1.56736H14.3527Z" fill="url(#paint6_linear_1564_2824)"/>
    <path d="M9.0043 0.924648C9.0043 1.27977 9.29216 1.56763 9.64729 1.56763H14.3526C14.7078 1.56763 14.9956 1.27977 14.9956 0.924648C14.9956 0.739867 14.9166 0.570695 14.7881 0.452148H9.21177C9.1464 0.51228 9.09421 0.585317 9.0585 0.666646C9.02279 0.747974 9.00433 0.835825 9.0043 0.924648Z" fill="url(#paint7_linear_1564_2824)"/>
    <path d="M21.9026 7.47843L19.9608 9.42028C19.7201 9.66098 19.3298 9.66098 19.0891 9.42028L17.1473 7.47843C16.9066 7.23773 16.9066 6.84745 17.1473 6.60675L19.0891 4.6649C19.3298 4.4242 19.7201 4.4242 19.9608 4.6649L21.9026 6.60675C22.1433 6.84745 22.1433 7.23773 21.9026 7.47843Z" fill="url(#paint8_linear_1564_2824)"/>
    <path d="M21.9026 7.47843L19.9608 9.42028C19.7201 9.66098 19.3298 9.66098 19.0891 9.42028L17.1473 7.47843C16.9066 7.23773 16.9066 6.84745 17.1473 6.60675L19.0891 4.6649C19.3298 4.4242 19.7201 4.4242 19.9608 4.6649L21.9026 6.60675C22.1433 6.84745 22.1433 7.23773 21.9026 7.47843Z" fill="url(#paint9_linear_1564_2824)"/>
    <path d="M2.09737 7.47843L4.03921 9.42028C4.27991 9.66098 4.6702 9.66098 4.9109 9.42028L6.85274 7.47843C7.09345 7.23773 7.09345 6.84745 6.85274 6.60675L4.9109 4.6649C4.6702 4.4242 4.27991 4.4242 4.03921 4.6649L2.09737 6.60675C1.85666 6.84745 1.85666 7.23773 2.09737 7.47843Z" fill="url(#paint10_linear_1564_2824)"/>
    <path d="M2.09737 7.47843L4.03921 9.42028C4.27991 9.66098 4.6702 9.66098 4.9109 9.42028L6.85274 7.47843C7.09345 7.23773 7.09345 6.84745 6.85274 6.60675L4.9109 4.6649C4.6702 4.4242 4.27991 4.4242 4.03921 4.6649L2.09737 6.60675C1.85666 6.84745 1.85666 7.23773 2.09737 7.47843Z" fill="url(#paint11_linear_1564_2824)"/>
    <path d="M12 24.0004C17.5696 24.0004 22.0847 19.4854 22.0847 13.9157C22.0847 8.34612 17.5696 3.83105 12 3.83105C6.43038 3.83105 1.91531 8.34612 1.91531 13.9157C1.91531 19.4854 6.43038 24.0004 12 24.0004Z" fill="url(#paint12_linear_1564_2824)"/>
    <path d="M12 22.0448C16.49 22.0448 20.1298 18.4049 20.1298 13.915C20.1298 9.425 16.49 5.78516 12 5.78516C7.51002 5.78516 3.87018 9.425 3.87018 13.915C3.87018 18.4049 7.51002 22.0448 12 22.0448Z" fill="url(#paint13_linear_1564_2824)"/>
    <path d="M1.91531 13.9153C1.91531 19.4849 6.43036 24 12 24C17.5696 24 22.0847 19.4849 22.0847 13.9153C22.0847 12.709 21.8722 11.5526 21.4838 10.4805H2.5162C2.12784 11.5526 1.91531 12.709 1.91531 13.9153Z" fill="url(#paint14_linear_1564_2824)"/>
    <path d="M4.86906 21.046C8.80736 24.9843 15.1926 24.9843 19.1309 21.046C23.0692 17.1077 23.0692 10.7224 19.1309 6.78413C18.278 5.9312 17.31 5.26374 16.2773 4.78027L2.8652 18.1923C3.34867 19.2251 4.01613 20.1931 4.86906 21.046Z" fill="url(#paint15_linear_1564_2824)"/>
    <path d="M12 20.7883C15.7957 20.7883 18.8727 17.7113 18.8727 13.9156C18.8727 10.12 15.7957 7.04297 12 7.04297C8.20432 7.04297 5.12732 10.12 5.12732 13.9156C5.12732 17.7113 8.20432 20.7883 12 20.7883Z" fill="url(#paint16_linear_1564_2824)"/>
    <path d="M18.8727 13.9156C18.8727 10.12 15.7956 7.04297 12 7.04297C8.20434 7.04297 5.12732 10.12 5.12732 13.9156C5.12732 14.7377 5.27212 15.5258 5.53682 16.2564H18.4632C18.7279 15.5258 18.8727 14.7377 18.8727 13.9156Z" fill="url(#paint17_linear_1564_2824)"/>
    <path d="M16.8597 9.05593C14.1758 6.37201 9.82426 6.37196 7.14029 9.05593C4.45637 11.7398 4.45637 16.0914 7.14029 18.7754C7.72159 19.3567 8.38121 19.8115 9.08504 20.141L18.2253 11.0007C17.8959 10.2969 17.441 9.63722 16.8597 9.05593Z" fill="url(#paint18_linear_1564_2824)"/>
    <path d="M11.3918 14.524L13.4351 16.5674C13.7701 16.9023 14.3174 16.9163 14.6548 16.5839L14.668 16.5707C15.0005 16.2332 14.9865 15.6859 14.6515 15.3509L12.6082 13.3076L11.3918 14.524Z" fill="url(#paint19_linear_1564_2824)"/>
    <path d="M11.3918 14.5232L16.2137 19.3451C16.4406 19.1685 16.6564 18.978 16.8597 18.7747C19.0613 16.5731 19.4565 13.2495 18.0462 10.6446L16.6213 9.21973L11.3918 14.5232Z" fill="url(#paint20_linear_1564_2824)"/>
    <path d="M12 13.8277L11.6995 13.5272L13.1394 11.6522C13.6326 11.0099 14.4296 10.2962 15.6814 9.49506L16.1986 9.16408C16.4972 8.97297 16.8546 9.33043 16.6635 9.62903L16.3326 10.1462C15.5314 11.398 14.8177 12.195 14.1754 12.6882L12.3004 14.1281L12 13.8277Z" fill="url(#paint21_linear_1564_2824)"/>
    <path d="M14.6017 12.3245L13.5038 11.2266C13.3675 11.372 13.2459 11.5142 13.1394 11.6528L11.6996 13.5278L12.0001 13.8283L12.3005 14.1287L14.1755 12.6889C14.3141 12.5824 14.4563 12.4608 14.6017 12.3245Z" fill="url(#paint22_linear_1564_2824)"/>
    <path d="M12 7.87988C11.9359 7.87988 11.8745 7.90533 11.8292 7.95063C11.7839 7.99593 11.7585 8.05737 11.7585 8.12143V9.05265C11.7585 9.11671 11.7839 9.17815 11.8292 9.22345C11.8745 9.26875 11.9359 9.2942 12 9.2942C12.0641 9.2942 12.1255 9.26875 12.1708 9.22345C12.2161 9.17815 12.2415 9.11671 12.2415 9.05265V8.12143C12.2415 8.05737 12.2161 7.99593 12.1708 7.95063C12.1255 7.90533 12.0641 7.87988 12 7.87988Z" fill="url(#paint23_linear_1564_2824)"/>
    <path d="M12 18.5361C11.9683 18.5361 11.9369 18.5424 11.9076 18.5545C11.8783 18.5667 11.8516 18.5845 11.8292 18.6069C11.8068 18.6293 11.789 18.6559 11.7768 18.6852C11.7647 18.7145 11.7585 18.746 11.7585 18.7777V19.7089C11.7585 19.773 11.7839 19.8344 11.8292 19.8797C11.8745 19.925 11.9359 19.9504 12 19.9504C12.0641 19.9504 12.1255 19.925 12.1708 19.8797C12.2161 19.8344 12.2415 19.773 12.2415 19.7089V18.7777C12.2415 18.746 12.2353 18.7145 12.2232 18.6852C12.211 18.6559 12.1932 18.6293 12.1708 18.6069C12.1484 18.5845 12.1217 18.5667 12.0924 18.5545C12.0631 18.5424 12.0317 18.5361 12 18.5361Z" fill="url(#paint24_linear_1564_2824)"/>
    <path d="M17.794 13.6738H16.8628C16.8311 13.6738 16.7997 13.6801 16.7704 13.6922C16.7411 13.7044 16.7145 13.7221 16.692 13.7446C16.6696 13.767 16.6518 13.7936 16.6397 13.8229C16.6275 13.8522 16.6213 13.8837 16.6213 13.9154C16.6213 13.9471 16.6275 13.9785 16.6397 14.0078C16.6518 14.0371 16.6696 14.0637 16.692 14.0862C16.7145 14.1086 16.7411 14.1264 16.7704 14.1385C16.7997 14.1507 16.8311 14.1569 16.8628 14.1569H17.794C17.8258 14.1569 17.8572 14.1507 17.8865 14.1385C17.9158 14.1264 17.9424 14.1086 17.9648 14.0862C17.9873 14.0637 18.0051 14.0371 18.0172 14.0078C18.0293 13.9785 18.0356 13.9471 18.0356 13.9154C18.0356 13.8837 18.0293 13.8522 18.0172 13.8229C18.0051 13.7936 17.9873 13.767 17.9648 13.7446C17.9424 13.7221 17.9158 13.7044 17.8865 13.6922C17.8572 13.6801 17.8258 13.6738 17.794 13.6738Z" fill="url(#paint25_linear_1564_2824)"/>
    <path d="M7.37873 13.9154C7.37873 13.8513 7.35328 13.7899 7.30798 13.7446C7.26268 13.6993 7.20124 13.6738 7.13718 13.6738H6.20596C6.17424 13.6738 6.14283 13.6801 6.11353 13.6922C6.08422 13.7044 6.05759 13.7221 6.03516 13.7446C6.01273 13.767 5.99494 13.7936 5.9828 13.8229C5.97066 13.8522 5.96442 13.8837 5.96442 13.9154C5.96442 13.9471 5.97066 13.9785 5.9828 14.0078C5.99494 14.0371 6.01273 14.0637 6.03516 14.0862C6.05759 14.1086 6.08422 14.1264 6.11353 14.1385C6.14283 14.1507 6.17424 14.1569 6.20596 14.1569H7.13718C7.20124 14.1569 7.26268 14.1315 7.30798 14.0862C7.35328 14.0409 7.37873 13.9794 7.37873 13.9154Z" fill="url(#paint26_linear_1564_2824)"/>
    <path d="M9.31214 8.77702C9.29628 8.74955 9.27517 8.72547 9.25 8.70616C9.22483 8.68685 9.19611 8.67269 9.16547 8.66448C9.13483 8.65627 9.10288 8.65418 9.07143 8.65832C9.03998 8.66246 9.00966 8.67275 8.98219 8.68861C8.95472 8.70447 8.93064 8.72559 8.91133 8.75075C8.89202 8.77592 8.87786 8.80464 8.86965 8.83528C8.86144 8.86592 8.85935 8.89787 8.86349 8.92932C8.86763 8.96077 8.87792 8.9911 8.89378 9.01857L9.35939 9.82505C9.37525 9.85252 9.39637 9.8766 9.42153 9.89591C9.4467 9.91522 9.47542 9.92938 9.50606 9.93759C9.5367 9.9458 9.56865 9.94789 9.6001 9.94375C9.63155 9.93961 9.66187 9.92932 9.68934 9.91346C9.71681 9.8976 9.74089 9.87648 9.7602 9.85131C9.77951 9.82615 9.79367 9.79743 9.80188 9.76679C9.81009 9.73615 9.81219 9.70419 9.80805 9.67275C9.8039 9.6413 9.79361 9.61097 9.77775 9.5835L9.31214 8.77702Z" fill="url(#paint27_linear_1564_2824)"/>
    <path d="M14.6406 18.0055C14.6247 17.9781 14.6036 17.954 14.5784 17.9347C14.5533 17.9154 14.5245 17.9012 14.4939 17.893C14.4633 17.8848 14.4313 17.8827 14.3999 17.8868C14.3684 17.891 14.3381 17.9013 14.3106 17.9171C14.2831 17.933 14.2591 17.9541 14.2398 17.9793C14.2205 18.0044 14.2063 18.0332 14.1981 18.0638C14.1899 18.0944 14.1878 18.1264 14.1919 18.1578C14.1961 18.1893 14.2064 18.2196 14.2222 18.2471L14.6878 19.0536C14.7037 19.081 14.7248 19.1051 14.75 19.1244C14.7751 19.1437 14.8038 19.1579 14.8345 19.1661C14.8651 19.1743 14.8971 19.1764 14.9285 19.1723C14.96 19.1681 14.9903 19.1578 15.0178 19.142C15.0452 19.1261 15.0693 19.105 15.0886 19.0798C15.1079 19.0547 15.1221 19.0259 15.1303 18.9953C15.1385 18.9647 15.1406 18.9327 15.1365 18.9013C15.1323 18.8698 15.122 18.8395 15.1062 18.812L14.6406 18.0055Z" fill="url(#paint28_linear_1564_2824)"/>
    <path d="M16.3321 11.6927L17.1386 11.2271C17.1661 11.2112 17.1901 11.1901 17.2094 11.1649C17.2288 11.1398 17.2429 11.1111 17.2511 11.0804C17.2593 11.0498 17.2614 11.0178 17.2573 10.9864C17.2532 10.9549 17.2429 10.9246 17.227 10.8971C17.2111 10.8697 17.19 10.8456 17.1649 10.8263C17.1397 10.807 17.111 10.7928 17.0803 10.7846C17.0497 10.7764 17.0177 10.7743 16.9863 10.7784C16.9548 10.7826 16.9245 10.7929 16.897 10.8087L16.0906 11.2743C16.0355 11.3066 15.9955 11.3593 15.9792 11.421C15.9629 11.4826 15.9716 11.5483 16.0035 11.6035C16.0354 11.6587 16.0879 11.6991 16.1494 11.7158C16.211 11.7325 16.2767 11.7242 16.3321 11.6927Z" fill="url(#paint29_linear_1564_2824)"/>
    <path d="M7.66792 16.1378L6.86143 16.6034C6.8064 16.6357 6.76637 16.6884 6.75006 16.7501C6.73376 16.8117 6.7425 16.8774 6.7744 16.9326C6.80629 16.9878 6.85874 17.0282 6.9203 17.0449C6.98186 17.0616 7.04753 17.0533 7.10298 17.0218L7.90946 16.5562C7.93693 16.5403 7.96101 16.5192 7.98032 16.494C7.99963 16.4689 8.01379 16.4402 8.022 16.4095C8.03021 16.3789 8.03231 16.3469 8.02816 16.3155C8.02402 16.284 8.01373 16.2537 7.99787 16.2262C7.98201 16.1988 7.96089 16.1747 7.93573 16.1554C7.91056 16.1361 7.88184 16.1219 7.8512 16.1137C7.82056 16.1055 7.78861 16.1034 7.75716 16.1075C7.72571 16.1117 7.69539 16.122 7.66792 16.1378Z" fill="url(#paint30_linear_1564_2824)"/>
    <path d="M15.0178 8.68861C14.9623 8.65658 14.8964 8.6479 14.8345 8.66448C14.7726 8.68106 14.7199 8.72154 14.6878 8.77702L14.2222 9.5835C14.1907 9.63895 14.1824 9.70462 14.1991 9.76618C14.2158 9.82774 14.2562 9.88019 14.3114 9.91208C14.3667 9.94398 14.4323 9.95273 14.4939 9.93642C14.5556 9.92011 14.6083 9.88008 14.6406 9.82505L15.1062 9.01856C15.1221 8.9911 15.1323 8.96077 15.1365 8.92932C15.1406 8.89787 15.1385 8.86591 15.1303 8.83527C15.1221 8.80463 15.108 8.77591 15.0886 8.75075C15.0693 8.72558 15.0453 8.70447 15.0178 8.68861Z" fill="url(#paint31_linear_1564_2824)"/>
    <path d="M9.68935 17.9171C9.66188 17.9013 9.63156 17.891 9.60011 17.8868C9.56866 17.8827 9.5367 17.8848 9.50606 17.893C9.47542 17.9012 9.44669 17.9154 9.42153 17.9347C9.39637 17.954 9.37525 17.9781 9.3594 18.0055L8.89379 18.812C8.86226 18.8675 8.85394 18.9332 8.87065 18.9947C8.88736 19.0563 8.92774 19.1087 8.98298 19.1406C9.03822 19.1725 9.10384 19.1813 9.16551 19.165C9.22717 19.1486 9.27989 19.1086 9.31215 19.0536L9.77775 18.2471C9.79362 18.2196 9.80392 18.1893 9.80806 18.1579C9.81221 18.1264 9.81011 18.0944 9.8019 18.0638C9.79369 18.0332 9.77953 18.0044 9.76022 17.9793C9.7409 17.9541 9.71682 17.933 9.68935 17.9171Z" fill="url(#paint32_linear_1564_2824)"/>
    <path d="M7.90946 11.2743L7.10298 10.8087C7.07551 10.7929 7.04518 10.7826 7.01373 10.7784C6.98229 10.7743 6.95033 10.7764 6.91969 10.7846C6.88905 10.7928 6.86033 10.807 6.83516 10.8263C6.81 10.8456 6.78888 10.8697 6.77302 10.8971C6.75716 10.9246 6.74687 10.9549 6.74273 10.9864C6.73859 11.0178 6.74068 11.0498 6.74889 11.0804C6.7571 11.1111 6.77126 11.1398 6.79057 11.1649C6.80988 11.1901 6.83396 11.2112 6.86143 11.2271L7.66791 11.6927C7.72336 11.7242 7.78903 11.7325 7.85059 11.7158C7.91215 11.6991 7.9646 11.6587 7.9965 11.6035C8.02839 11.5483 8.03714 11.4826 8.02083 11.421C8.00453 11.3593 7.96449 11.3066 7.90946 11.2743Z" fill="url(#paint33_linear_1564_2824)"/>
    <path d="M17.1385 16.6036L16.332 16.138C16.2766 16.1065 16.2109 16.0982 16.1494 16.1149C16.0878 16.1316 16.0354 16.172 16.0035 16.2272C15.9716 16.2825 15.9628 16.3481 15.9791 16.4097C15.9954 16.4714 16.0355 16.5241 16.0905 16.5564L16.897 17.022C16.9245 17.0378 16.9548 17.0481 16.9862 17.0523C17.0177 17.0564 17.0496 17.0543 17.0803 17.0461C17.1109 17.0379 17.1396 17.0237 17.1648 17.0044C17.19 16.9851 17.2111 16.961 17.2269 16.9336C17.2428 16.9061 17.2531 16.8758 17.2572 16.8443C17.2614 16.8129 17.2593 16.7809 17.2511 16.7503C17.2429 16.7197 17.2287 16.6909 17.2094 16.6658C17.1901 16.6406 17.166 16.6195 17.1385 16.6036Z" fill="url(#paint34_linear_1564_2824)"/>
    <path d="M12 14.775C12.475 14.775 12.8601 14.3899 12.8601 13.9148C12.8601 13.4398 12.475 13.0547 12 13.0547C11.5249 13.0547 11.1398 13.4398 11.1398 13.9148C11.1398 14.3899 11.5249 14.775 12 14.775Z" fill="url(#paint35_linear_1564_2824)"/>
    <path d="M11.1398 13.915C11.1398 14.3901 11.5249 14.7752 12 14.7752C12.475 14.7752 12.8601 14.3901 12.8601 13.915C12.8602 13.8151 12.8429 13.716 12.8089 13.6221H11.1911C11.1571 13.716 11.1397 13.8151 11.1398 13.915Z" fill="url(#paint36_linear_1564_2824)"/>
    <path d="M11.3918 14.524C11.7277 14.8599 12.2723 14.8599 12.6082 14.524C12.9441 14.1881 12.9441 13.6435 12.6082 13.3076C12.5376 13.2369 12.4553 13.1791 12.3648 13.1367L11.2209 14.2807C11.2633 14.3711 11.3211 14.4535 11.3918 14.524Z" fill="url(#paint37_linear_1564_2824)"/>
    <defs>
        <linearGradient id="paint0_linear_1564_2824" x1="10.7771" y1="4.26558" x2="12.9608" y2="4.26558" gradientUnits="userSpaceOnUse">
            <stop stop-color="#FFA1AE"/>
            <stop offset="1" stop-color="#FF4565"/>
        </linearGradient>
        <linearGradient id="paint1_linear_1564_2824" x1="11.9267" y1="4.44295" x2="14.3008" y2="4.17159" gradientUnits="userSpaceOnUse">
            <stop stop-color="#FE0364" stop-opacity="0"/>
            <stop offset="0.234" stop-color="#F90362" stop-opacity="0.234"/>
            <stop offset="0.517" stop-color="#EA035B" stop-opacity="0.517"/>
            <stop offset="0.824" stop-color="#D20250" stop-opacity="0.824"/>
            <stop offset="1" stop-color="#C00148"/>
        </linearGradient>
        <linearGradient id="paint2_linear_1564_2824" x1="12" y1="2.82366" x2="12" y2="1.3748" gradientUnits="userSpaceOnUse">
            <stop stop-color="#FE0364" stop-opacity="0"/>
            <stop offset="0.234" stop-color="#F90362" stop-opacity="0.234"/>
            <stop offset="0.517" stop-color="#EA035B" stop-opacity="0.517"/>
            <stop offset="0.824" stop-color="#D20250" stop-opacity="0.824"/>
            <stop offset="1" stop-color="#C00148"/>
        </linearGradient>
        <linearGradient id="paint3_linear_1564_2824" x1="11.767" y1="-0.116344" x2="12.4491" y2="6.13298" gradientUnits="userSpaceOnUse">
            <stop stop-color="#FE0364" stop-opacity="0"/>
            <stop offset="0.234" stop-color="#F90362" stop-opacity="0.234"/>
            <stop offset="0.517" stop-color="#EA035B" stop-opacity="0.517"/>
            <stop offset="0.824" stop-color="#D20250" stop-opacity="0.824"/>
            <stop offset="1" stop-color="#C00148"/>
        </linearGradient>
        <linearGradient id="paint4_linear_1564_2824" x1="11.5562" y1="2.20922" x2="12.6624" y2="3.49964" gradientUnits="userSpaceOnUse">
            <stop stop-color="#FE0364" stop-opacity="0"/>
            <stop offset="0.234" stop-color="#F90362" stop-opacity="0.234"/>
            <stop offset="0.517" stop-color="#EA035B" stop-opacity="0.517"/>
            <stop offset="0.824" stop-color="#D20250" stop-opacity="0.824"/>
            <stop offset="1" stop-color="#C00148"/>
        </linearGradient>
        <linearGradient id="paint5_linear_1564_2824" x1="12" y1="0.26236" x2="12" y2="1.39542" gradientUnits="userSpaceOnUse">
            <stop stop-color="#FFA1AE"/>
            <stop offset="1" stop-color="#FF4565"/>
        </linearGradient>
        <linearGradient id="paint6_linear_1564_2824" x1="13.6584" y1="1.12913" x2="14.6792" y2="1.6448" gradientUnits="userSpaceOnUse">
            <stop stop-color="#FE0364" stop-opacity="0"/>
            <stop offset="0.234" stop-color="#F90362" stop-opacity="0.234"/>
            <stop offset="0.517" stop-color="#EA035B" stop-opacity="0.517"/>
            <stop offset="0.824" stop-color="#D20250" stop-opacity="0.824"/>
            <stop offset="1" stop-color="#C00148"/>
        </linearGradient>
        <linearGradient id="paint7_linear_1564_2824" x1="12" y1="0.90468" x2="12" y2="1.61357" gradientUnits="userSpaceOnUse">
            <stop stop-color="#FE0364" stop-opacity="0"/>
            <stop offset="0.234" stop-color="#F90362" stop-opacity="0.234"/>
            <stop offset="0.517" stop-color="#EA035B" stop-opacity="0.517"/>
            <stop offset="0.824" stop-color="#D20250" stop-opacity="0.824"/>
            <stop offset="1" stop-color="#C00148"/>
        </linearGradient>
        <linearGradient id="paint8_linear_1564_2824" x1="17.8265" y1="7.19986" x2="21.0929" y2="6.89929" gradientUnits="userSpaceOnUse">
            <stop stop-color="#FEF0AE"/>
            <stop offset="1" stop-color="#FAC600"/>
        </linearGradient>
        <linearGradient id="paint9_linear_1564_2824" x1="20.2793" y1="7.80128" x2="20.9209" y2="8.44285" gradientUnits="userSpaceOnUse">
            <stop stop-color="#FE9738" stop-opacity="0"/>
            <stop offset="1" stop-color="#FE9738"/>
        </linearGradient>
        <linearGradient id="paint10_linear_1564_2824" x1="3.24787" y1="5.81536" x2="4.59773" y2="7.16521" gradientUnits="userSpaceOnUse">
            <stop stop-color="#FEF0AE"/>
            <stop offset="1" stop-color="#FAC600"/>
        </linearGradient>
        <linearGradient id="paint11_linear_1564_2824" x1="3.72377" y1="7.8026" x2="3.0822" y2="8.44416" gradientUnits="userSpaceOnUse">
            <stop stop-color="#FE9738" stop-opacity="0"/>
            <stop offset="1" stop-color="#FE9738"/>
        </linearGradient>
        <linearGradient id="paint12_linear_1564_2824" x1="5.83134" y1="7.74709" x2="16.9592" y2="18.875" gradientUnits="userSpaceOnUse">
            <stop stop-color="#B3DAFE"/>
            <stop offset="1" stop-color="#0182FC"/>
        </linearGradient>
        <linearGradient id="paint13_linear_1564_2824" x1="17.6901" y1="19.605" x2="5.44368" y2="7.3587" gradientUnits="userSpaceOnUse">
            <stop stop-color="#B3DAFE"/>
            <stop offset="1" stop-color="#0182FC"/>
        </linearGradient>
        <linearGradient id="paint14_linear_1564_2824" x1="12" y1="14.0429" x2="12" y2="25.9062" gradientUnits="userSpaceOnUse">
            <stop stop-color="#314DC9" stop-opacity="0"/>
            <stop offset="0.276" stop-color="#304BC4" stop-opacity="0.276"/>
            <stop offset="0.563" stop-color="#2B45B8" stop-opacity="0.563"/>
            <stop offset="0.854" stop-color="#243BA3" stop-opacity="0.854"/>
            <stop offset="1" stop-color="#1F3596"/>
        </linearGradient>
        <linearGradient id="paint15_linear_1564_2824" x1="12.1081" y1="14.0104" x2="20.9381" y2="22.8404" gradientUnits="userSpaceOnUse">
            <stop stop-color="#314DC9" stop-opacity="0"/>
            <stop offset="0.276" stop-color="#304BC4" stop-opacity="0.276"/>
            <stop offset="0.563" stop-color="#2B45B8" stop-opacity="0.563"/>
            <stop offset="0.854" stop-color="#243BA3" stop-opacity="0.854"/>
            <stop offset="1" stop-color="#1F3596"/>
        </linearGradient>
        <linearGradient id="paint16_linear_1564_2824" x1="16.2039" y1="18.1196" x2="8.62026" y2="10.536" gradientUnits="userSpaceOnUse">
            <stop stop-color="#F5FBFF"/>
            <stop offset="1" stop-color="#DBD5EF"/>
        </linearGradient>
        <linearGradient id="paint17_linear_1564_2824" x1="11.2137" y1="11.6142" x2="9.55541" y2="6.76214" gradientUnits="userSpaceOnUse">
            <stop stop-color="#DBD5EF" stop-opacity="0"/>
            <stop offset="0.285" stop-color="#D9D2EE" stop-opacity="0.285"/>
            <stop offset="0.474" stop-color="#D4C9E9" stop-opacity="0.474"/>
            <stop offset="0.635" stop-color="#CBBAE2" stop-opacity="0.635"/>
            <stop offset="0.779" stop-color="#BFA5D7" stop-opacity="0.78"/>
            <stop offset="0.913" stop-color="#AF8ACA" stop-opacity="0.913"/>
            <stop offset="1" stop-color="#A274BF"/>
        </linearGradient>
        <linearGradient id="paint18_linear_1564_2824" x1="8.62482" y1="12.2953" x2="5.55385" y2="10.8212" gradientUnits="userSpaceOnUse">
            <stop stop-color="#DBD5EF" stop-opacity="0"/>
            <stop offset="0.285" stop-color="#D9D2EE" stop-opacity="0.285"/>
            <stop offset="0.474" stop-color="#D4C9E9" stop-opacity="0.474"/>
            <stop offset="0.635" stop-color="#CBBAE2" stop-opacity="0.635"/>
            <stop offset="0.779" stop-color="#BFA5D7" stop-opacity="0.78"/>
            <stop offset="0.913" stop-color="#AF8ACA" stop-opacity="0.913"/>
            <stop offset="1" stop-color="#A274BF"/>
        </linearGradient>
        <linearGradient id="paint19_linear_1564_2824" x1="14.389" y1="15.5123" x2="11.5637" y2="14.4067" gradientUnits="userSpaceOnUse">
            <stop stop-color="#DBD5EF" stop-opacity="0"/>
            <stop offset="0.285" stop-color="#D9D2EE" stop-opacity="0.285"/>
            <stop offset="0.474" stop-color="#D4C9E9" stop-opacity="0.474"/>
            <stop offset="0.635" stop-color="#CBBAE2" stop-opacity="0.635"/>
            <stop offset="0.779" stop-color="#BFA5D7" stop-opacity="0.78"/>
            <stop offset="0.913" stop-color="#AF8ACA" stop-opacity="0.913"/>
            <stop offset="1" stop-color="#A274BF"/>
        </linearGradient>
        <linearGradient id="paint20_linear_1564_2824" x1="15.9864" y1="13.9109" x2="14.062" y2="12.2526" gradientUnits="userSpaceOnUse">
            <stop stop-color="#DBD5EF" stop-opacity="0"/>
            <stop offset="0.285" stop-color="#D9D2EE" stop-opacity="0.285"/>
            <stop offset="0.474" stop-color="#D4C9E9" stop-opacity="0.474"/>
            <stop offset="0.635" stop-color="#CBBAE2" stop-opacity="0.635"/>
            <stop offset="0.779" stop-color="#BFA5D7" stop-opacity="0.78"/>
            <stop offset="0.913" stop-color="#AF8ACA" stop-opacity="0.913"/>
            <stop offset="1" stop-color="#A274BF"/>
        </linearGradient>
        <linearGradient id="paint21_linear_1564_2824" x1="13.9621" y1="11.1751" x2="14.6799" y2="11.8928" gradientUnits="userSpaceOnUse">
            <stop stop-color="#FFA1AE"/>
            <stop offset="1" stop-color="#FF4565"/>
        </linearGradient>
        <linearGradient id="paint22_linear_1564_2824" x1="13.299" y1="12.5293" x2="12.4778" y2="13.3506" gradientUnits="userSpaceOnUse">
            <stop stop-color="#FE0364" stop-opacity="0"/>
            <stop offset="0.234" stop-color="#F90362" stop-opacity="0.234"/>
            <stop offset="0.517" stop-color="#EA035B" stop-opacity="0.517"/>
            <stop offset="0.824" stop-color="#D20250" stop-opacity="0.824"/>
            <stop offset="1" stop-color="#C00148"/>
        </linearGradient>
        <linearGradient id="paint23_linear_1564_2824" x1="38.366" y1="26.6647" x2="7.22491" y2="5.31296" gradientUnits="userSpaceOnUse">
            <stop stop-color="#DBD5EF" stop-opacity="0"/>
            <stop offset="0.285" stop-color="#D9D2EE" stop-opacity="0.285"/>
            <stop offset="0.474" stop-color="#D4C9E9" stop-opacity="0.474"/>
            <stop offset="0.635" stop-color="#CBBAE2" stop-opacity="0.635"/>
            <stop offset="0.779" stop-color="#BFA5D7" stop-opacity="0.78"/>
            <stop offset="0.913" stop-color="#AF8ACA" stop-opacity="0.913"/>
            <stop offset="1" stop-color="#A274BF"/>
        </linearGradient>
        <linearGradient id="paint24_linear_1564_2824" x1="33.3958" y1="33.9131" x2="2.25466" y2="12.5614" gradientUnits="userSpaceOnUse">
            <stop stop-color="#DBD5EF" stop-opacity="0"/>
            <stop offset="0.285" stop-color="#D9D2EE" stop-opacity="0.285"/>
            <stop offset="0.474" stop-color="#D4C9E9" stop-opacity="0.474"/>
            <stop offset="0.635" stop-color="#CBBAE2" stop-opacity="0.635"/>
            <stop offset="0.779" stop-color="#BFA5D7" stop-opacity="0.78"/>
            <stop offset="0.913" stop-color="#AF8ACA" stop-opacity="0.913"/>
            <stop offset="1" stop-color="#A274BF"/>
        </linearGradient>
        <linearGradient id="paint25_linear_1564_2824" x1="37.5848" y1="27.804" x2="6.44368" y2="6.45232" gradientUnits="userSpaceOnUse">
            <stop stop-color="#DBD5EF" stop-opacity="0"/>
            <stop offset="0.285" stop-color="#D9D2EE" stop-opacity="0.285"/>
            <stop offset="0.474" stop-color="#D4C9E9" stop-opacity="0.474"/>
            <stop offset="0.635" stop-color="#CBBAE2" stop-opacity="0.635"/>
            <stop offset="0.779" stop-color="#BFA5D7" stop-opacity="0.78"/>
            <stop offset="0.913" stop-color="#AF8ACA" stop-opacity="0.913"/>
            <stop offset="1" stop-color="#A274BF"/>
        </linearGradient>
        <linearGradient id="paint26_linear_1564_2824" x1="34.177" y1="32.7743" x2="3.03585" y2="11.4226" gradientUnits="userSpaceOnUse">
            <stop stop-color="#DBD5EF" stop-opacity="0"/>
            <stop offset="0.285" stop-color="#D9D2EE" stop-opacity="0.285"/>
            <stop offset="0.474" stop-color="#D4C9E9" stop-opacity="0.474"/>
            <stop offset="0.635" stop-color="#CBBAE2" stop-opacity="0.635"/>
            <stop offset="0.779" stop-color="#BFA5D7" stop-opacity="0.78"/>
            <stop offset="0.913" stop-color="#AF8ACA" stop-opacity="0.913"/>
            <stop offset="1" stop-color="#A274BF"/>
        </linearGradient>
        <linearGradient id="paint27_linear_1564_2824" x1="37.1811" y1="28.393" x2="6.03998" y2="7.04129" gradientUnits="userSpaceOnUse">
            <stop stop-color="#DBD5EF" stop-opacity="0"/>
            <stop offset="0.285" stop-color="#D9D2EE" stop-opacity="0.285"/>
            <stop offset="0.474" stop-color="#D4C9E9" stop-opacity="0.474"/>
            <stop offset="0.635" stop-color="#CBBAE2" stop-opacity="0.635"/>
            <stop offset="0.779" stop-color="#BFA5D7" stop-opacity="0.78"/>
            <stop offset="0.913" stop-color="#AF8ACA" stop-opacity="0.913"/>
            <stop offset="1" stop-color="#A274BF"/>
        </linearGradient>
        <linearGradient id="paint28_linear_1564_2824" x1="34.5806" y1="32.1851" x2="3.43956" y2="10.8334" gradientUnits="userSpaceOnUse">
            <stop stop-color="#DBD5EF" stop-opacity="0"/>
            <stop offset="0.285" stop-color="#D9D2EE" stop-opacity="0.285"/>
            <stop offset="0.474" stop-color="#D4C9E9" stop-opacity="0.474"/>
            <stop offset="0.635" stop-color="#CBBAE2" stop-opacity="0.635"/>
            <stop offset="0.779" stop-color="#BFA5D7" stop-opacity="0.78"/>
            <stop offset="0.913" stop-color="#AF8ACA" stop-opacity="0.913"/>
            <stop offset="1" stop-color="#A274BF"/>
        </linearGradient>
        <linearGradient id="paint29_linear_1564_2824" x1="38.5991" y1="26.3243" x2="7.45796" y2="4.97255" gradientUnits="userSpaceOnUse">
            <stop stop-color="#DBD5EF" stop-opacity="0"/>
            <stop offset="0.285" stop-color="#D9D2EE" stop-opacity="0.285"/>
            <stop offset="0.474" stop-color="#D4C9E9" stop-opacity="0.474"/>
            <stop offset="0.635" stop-color="#CBBAE2" stop-opacity="0.635"/>
            <stop offset="0.779" stop-color="#BFA5D7" stop-opacity="0.78"/>
            <stop offset="0.913" stop-color="#AF8ACA" stop-opacity="0.913"/>
            <stop offset="1" stop-color="#A274BF"/>
        </linearGradient>
        <linearGradient id="paint30_linear_1564_2824" x1="33.1627" y1="34.2538" x2="2.02158" y2="12.9021" gradientUnits="userSpaceOnUse">
            <stop stop-color="#DBD5EF" stop-opacity="0"/>
            <stop offset="0.285" stop-color="#D9D2EE" stop-opacity="0.285"/>
            <stop offset="0.474" stop-color="#D4C9E9" stop-opacity="0.474"/>
            <stop offset="0.635" stop-color="#CBBAE2" stop-opacity="0.635"/>
            <stop offset="0.779" stop-color="#BFA5D7" stop-opacity="0.78"/>
            <stop offset="0.913" stop-color="#AF8ACA" stop-opacity="0.913"/>
            <stop offset="1" stop-color="#A274BF"/>
        </linearGradient>
        <linearGradient id="paint31_linear_1564_2824" x1="38.885" y1="25.9079" x2="7.74389" y2="4.55619" gradientUnits="userSpaceOnUse">
            <stop stop-color="#DBD5EF" stop-opacity="0"/>
            <stop offset="0.285" stop-color="#D9D2EE" stop-opacity="0.285"/>
            <stop offset="0.474" stop-color="#D4C9E9" stop-opacity="0.474"/>
            <stop offset="0.635" stop-color="#CBBAE2" stop-opacity="0.635"/>
            <stop offset="0.779" stop-color="#BFA5D7" stop-opacity="0.78"/>
            <stop offset="0.913" stop-color="#AF8ACA" stop-opacity="0.913"/>
            <stop offset="1" stop-color="#A274BF"/>
        </linearGradient>
        <linearGradient id="paint32_linear_1564_2824" x1="32.8767" y1="34.6703" x2="1.73565" y2="13.3186" gradientUnits="userSpaceOnUse">
            <stop stop-color="#DBD5EF" stop-opacity="0"/>
            <stop offset="0.285" stop-color="#D9D2EE" stop-opacity="0.285"/>
            <stop offset="0.474" stop-color="#D4C9E9" stop-opacity="0.474"/>
            <stop offset="0.635" stop-color="#CBBAE2" stop-opacity="0.635"/>
            <stop offset="0.779" stop-color="#BFA5D7" stop-opacity="0.78"/>
            <stop offset="0.913" stop-color="#AF8ACA" stop-opacity="0.913"/>
            <stop offset="1" stop-color="#A274BF"/>
        </linearGradient>
        <linearGradient id="paint33_linear_1564_2824" x1="35.6478" y1="30.6286" x2="4.5067" y2="9.27691" gradientUnits="userSpaceOnUse">
            <stop stop-color="#DBD5EF" stop-opacity="0"/>
            <stop offset="0.285" stop-color="#D9D2EE" stop-opacity="0.285"/>
            <stop offset="0.474" stop-color="#D4C9E9" stop-opacity="0.474"/>
            <stop offset="0.635" stop-color="#CBBAE2" stop-opacity="0.635"/>
            <stop offset="0.779" stop-color="#BFA5D7" stop-opacity="0.78"/>
            <stop offset="0.913" stop-color="#AF8ACA" stop-opacity="0.913"/>
            <stop offset="1" stop-color="#A274BF"/>
        </linearGradient>
        <linearGradient id="paint34_linear_1564_2824" x1="36.1139" y1="29.9496" x2="4.97281" y2="8.59796" gradientUnits="userSpaceOnUse">
            <stop stop-color="#DBD5EF" stop-opacity="0"/>
            <stop offset="0.285" stop-color="#D9D2EE" stop-opacity="0.285"/>
            <stop offset="0.474" stop-color="#D4C9E9" stop-opacity="0.474"/>
            <stop offset="0.635" stop-color="#CBBAE2" stop-opacity="0.635"/>
            <stop offset="0.779" stop-color="#BFA5D7" stop-opacity="0.78"/>
            <stop offset="0.913" stop-color="#AF8ACA" stop-opacity="0.913"/>
            <stop offset="1" stop-color="#A274BF"/>
        </linearGradient>
        <linearGradient id="paint35_linear_1564_2824" x1="11.4739" y1="13.3887" x2="12.423" y2="14.3378" gradientUnits="userSpaceOnUse">
            <stop stop-color="#FEF0AE"/>
            <stop offset="1" stop-color="#FAC600"/>
        </linearGradient>
        <linearGradient id="paint36_linear_1564_2824" x1="12" y1="13.926" x2="12" y2="14.9378" gradientUnits="userSpaceOnUse">
            <stop stop-color="#FE9738" stop-opacity="0"/>
            <stop offset="1" stop-color="#FE9738"/>
        </linearGradient>
        <linearGradient id="paint37_linear_1564_2824" x1="12.0256" y1="13.9286" x2="12.7787" y2="14.6817" gradientUnits="userSpaceOnUse">
            <stop stop-color="#FE9738" stop-opacity="0"/>
            <stop offset="1" stop-color="#FE9738"/>
        </linearGradient>
    </defs>
</svg>
