<svg width="24" height="24" viewBox="0 0 24 24" fill="none" xmlns="http://www.w3.org/2000/svg">
    <path d="M20.8508 3.15476C20.7769 3.08066 20.6826 3.03025 20.5799 3.00998C20.4773 2.9897 20.3709 3.00048 20.2744 3.04093L3.32349 10.1448C3.1126 10.2331 2.9827 10.4475 3.00187 10.6755C3.02103 10.9036 3.1849 11.0932 3.40758 11.1451L10.8296 12.8737C10.8885 12.8875 10.9425 12.9174 10.9853 12.9601C11.0282 13.0028 11.0583 13.0566 11.0723 13.1155L12.847 20.5944C12.8744 20.7099 12.9399 20.8127 13.033 20.8863C13.1261 20.96 13.2413 21 13.36 21C13.4637 20.9999 13.5652 20.9692 13.6515 20.9118C13.7379 20.8543 13.8054 20.7726 13.8456 20.6769L20.9637 3.73194C21.0043 3.63539 21.0152 3.52895 20.9951 3.42617C20.975 3.32339 20.9248 3.22891 20.8508 3.15476Z" fill="#59A7FF"/>
    <path d="M20.8508 3.15482C20.8493 3.15327 20.8476 3.1519 20.8461 3.15039L10.9832 12.9582C11.0272 13.0012 11.0581 13.0557 11.0723 13.1156L12.847 20.5945C12.8744 20.7099 12.9399 20.8128 13.033 20.8864C13.1261 20.96 13.2413 21.0001 13.36 21.0001C13.4637 21 13.5652 20.9693 13.6516 20.9118C13.7379 20.8544 13.8054 20.7727 13.8456 20.677L20.9637 3.732C21.0043 3.63545 21.0152 3.52901 20.9951 3.42623C20.975 3.32345 20.9248 3.22898 20.8508 3.15482Z" fill="#0082FF"/>
</svg>
