<svg width="24" height="24" viewBox="0 0 24 24" fill="none" xmlns="http://www.w3.org/2000/svg">
    <path d="M19.7953 19.6363H4.20377C3.83642 19.6364 3.47836 19.5209 3.18034 19.3061C2.88231 19.0914 2.65944 18.7882 2.54333 18.4397C2.42721 18.0912 2.42373 17.715 2.53338 17.3644C2.64303 17.0138 2.86025 16.7066 3.15425 16.4863L3.94032 15.8969C4.23617 15.6758 4.43466 15.3485 4.49396 14.9839L5.48048 8.99698C5.72149 7.44046 6.51147 6.02153 7.70758 4.99675C8.90369 3.97197 10.427 3.40897 12.0021 3.40955C13.5771 3.41012 15.1 3.97424 16.2954 4.99989C17.4908 6.02555 18.2797 7.44505 18.5196 9.00176L19.5051 14.9839C19.5644 15.3485 19.7629 15.6758 20.0588 15.8969L20.8448 16.4863C21.1389 16.7066 21.3561 17.0139 21.4657 17.3645C21.5754 17.7152 21.5719 18.0914 21.4557 18.44C21.3395 18.7885 21.1166 19.0916 20.8185 19.3064C20.5204 19.5211 20.1627 19.6365 19.7953 19.6363ZM11.9995 4.36362C10.6501 4.35713 9.34351 4.83716 8.31924 5.71575C7.29497 6.59433 6.62163 7.81262 6.42261 9.14732L5.43561 15.139C5.33663 15.7464 5.00591 16.2916 4.51305 16.6601L3.7265 17.25C3.59304 17.3502 3.49447 17.4899 3.44475 17.6492C3.39504 17.8085 3.39668 17.9794 3.44946 18.1378C3.50224 18.2961 3.60348 18.4339 3.73885 18.5315C3.87422 18.6291 4.03687 18.6817 4.20377 18.6818H19.7948C19.9619 18.682 20.1248 18.6296 20.2603 18.532C20.3959 18.4344 20.4973 18.2966 20.5501 18.1381C20.603 17.9796 20.6045 17.8085 20.5546 17.6491C20.5047 17.4897 20.4059 17.3501 20.2721 17.25L19.4856 16.6601C18.9927 16.2916 18.662 15.7464 18.563 15.139L17.576 9.1521C17.3779 7.81685 16.7051 6.59774 15.6811 5.71826C14.6571 4.83877 13.3504 4.35784 12.0005 4.36362H11.9995Z" fill="#333333"/>
    <path d="M13.4319 4.53545C13.3053 4.53545 13.1839 4.48517 13.0944 4.39566C13.0049 4.30616 12.9546 4.18476 12.9546 4.05818V3.40909C12.9546 3.15593 12.8541 2.91314 12.6751 2.73413C12.496 2.55511 12.2533 2.45455 12.0001 2.45455C11.7469 2.45455 11.5041 2.55511 11.3251 2.73413C11.1461 2.91314 11.0455 3.15593 11.0455 3.40909V4.05818C11.0455 4.18476 10.9953 4.30616 10.9058 4.39566C10.8162 4.48517 10.6949 4.53545 10.5683 4.53545C10.4417 4.53545 10.3203 4.48517 10.2308 4.39566C10.1413 4.30616 10.091 4.18476 10.091 4.05818V3.40909C10.091 2.90277 10.2921 2.41718 10.6502 2.05916C11.0082 1.70114 11.4938 1.5 12.0001 1.5C12.5064 1.5 12.992 1.70114 13.35 2.05916C13.708 2.41718 13.9092 2.90277 13.9092 3.40909V4.05818C13.9092 4.18476 13.8589 4.30616 13.7694 4.39566C13.6799 4.48517 13.5585 4.53545 13.4319 4.53545ZM12.0001 22.5C11.1143 22.499 10.2651 22.1467 9.63883 21.5204C9.0125 20.894 8.66019 20.0448 8.65918 19.1591C8.65918 19.0325 8.70946 18.9111 8.79897 18.8216C8.88848 18.7321 9.00987 18.6818 9.13645 18.6818C9.26303 18.6818 9.38443 18.7321 9.47394 18.8216C9.56344 18.9111 9.61373 19.0325 9.61373 19.1591C9.61373 19.792 9.86514 20.399 10.3127 20.8465C10.7602 21.294 11.3672 21.5455 12.0001 21.5455C12.633 21.5455 13.24 21.294 13.6875 20.8465C14.135 20.399 14.3865 19.792 14.3865 19.1591C14.3865 19.0325 14.4367 18.9111 14.5262 18.8216C14.6157 18.7321 14.7371 18.6818 14.8637 18.6818C14.9903 18.6818 15.1117 18.7321 15.2012 18.8216C15.2907 18.9111 15.341 19.0325 15.341 19.1591C15.34 20.0448 14.9877 20.894 14.3614 21.5204C13.735 22.1467 12.8858 22.499 12.0001 22.5Z" fill="#333333"/>
    <circle cx="4.99902" cy="3" r="2" fill="url(#paint0_linear_1184_5146)"/>
    <defs>
        <linearGradient id="paint0_linear_1184_5146" x1="2.99902" y1="2.90688" x2="6.99952" y2="2.94003" gradientUnits="userSpaceOnUse">
            <stop stop-color="#FF0F43"/>
            <stop offset="1" stop-color="#F84829"/>
        </linearGradient>
    </defs>
</svg>
