<svg width="100" height="100" viewBox="0 0 100 100" fill="none" xmlns="http://www.w3.org/2000/svg">
    <path d="M92.9823 42.0485L49.9 85.1323L6.81763 42.0485L43.1132 5.7544C44.0042 4.8627 45.0622 4.15532 46.2267 3.67269C47.3912 3.19006 48.6394 2.94165 49.9 2.94165C51.1605 2.94165 52.4087 3.19006 53.5732 3.67269C54.7378 4.15532 55.7957 4.8627 56.6867 5.7544L92.9823 42.0485Z" fill="#F7C997"/>
    <path d="M80.7852 15.5235V77.0588C80.7852 78.1626 80.3467 79.2211 79.5662 80.0016C78.7858 80.7821 77.7272 81.2206 76.6234 81.2206H23.3749C22.2711 81.2206 21.2126 80.7821 20.4321 80.0016C19.6516 79.2211 19.2131 78.1626 19.2131 77.0588V15.5235C19.2131 14.4198 19.6516 13.3612 20.4321 12.5807C21.2126 11.8002 22.2711 11.3618 23.3749 11.3618H76.6249C77.7287 11.3618 78.7872 11.8002 79.5677 12.5807C80.3482 13.3612 80.7867 14.4198 80.7867 15.5235" fill="url(#paint0_linear_71_204)"/>
    <path d="M93.1823 42.0485V91.025C93.1783 91.7866 93.0301 92.5406 92.7456 93.2471C92.4491 94.0454 91.9737 94.7653 91.3559 95.3515C91.1779 95.5294 90.9794 95.6897 90.7617 95.8676C90.7206 95.8868 90.7015 95.9074 90.6618 95.9265C90.4569 96.0696 90.2449 96.2021 90.0265 96.3235C89.847 96.4235 89.6691 96.5015 89.4897 96.5824C89.3109 96.6651 89.1248 96.7311 88.9338 96.7794C88.7951 96.841 88.6478 96.8812 88.497 96.8985C88.0551 97.003 87.6026 97.0563 87.1485 97.0573H12.8515C12.3969 97.0562 11.9439 97.0029 11.5015 96.8985C11.3508 96.8811 11.2037 96.8415 11.0647 96.7809C10.8738 96.7316 10.6877 96.6652 10.5088 96.5824C10.3309 96.5015 10.1529 96.4235 9.97351 96.3235C9.75491 96.2024 9.54285 96.0699 9.33821 95.9265C9.29851 95.9074 9.27939 95.8868 9.23969 95.8676C9.02204 95.6882 8.82204 95.5294 8.6441 95.3529C8.0261 94.7663 7.5507 94.046 7.25439 93.2471C7.19557 93.1088 7.13527 92.9691 7.09557 92.8118C6.91363 92.2335 6.81993 91.6312 6.81763 91.025V42.0485L49.9 85.1323L86.9691 48.0632L92.9823 42.05L93.1823 42.0485Z" fill="#FEBB50"/>
    <path d="M91.3558 95.3515C90.9588 95.7279 90.5029 96.0662 90.0264 96.325C89.8516 96.4191 89.6725 96.505 89.4896 96.5824C89.3117 96.6662 89.126 96.7327 88.9352 96.7809C88.797 96.8397 88.6558 96.8794 88.4985 96.9C88.0564 97.0036 87.604 97.0569 87.1499 97.0588H12.8514C12.3749 97.0588 11.9382 97 11.5014 96.9C11.3511 96.8812 11.2041 96.8416 11.0646 96.7824C10.8735 96.7332 10.6874 96.6663 10.5087 96.5824C10.3268 96.5041 10.1482 96.4182 9.97346 96.325C9.49027 96.0591 9.04344 95.7318 8.64404 95.3515L13.1485 90.8471L43.2132 60.7824C44.1042 59.8907 45.1621 59.1833 46.3267 58.7006C47.4912 58.218 48.7394 57.9696 49.9999 57.9696C51.2605 57.9696 52.5087 58.218 53.6732 58.7006C54.8377 59.1833 55.8957 59.8907 56.7867 60.7824L86.8514 90.8471L91.3558 95.3515Z" fill="url(#paint1_linear_71_204)"/>
    <path d="M64.6118 35H64.6015C63.732 38.4043 62.3059 41.6415 60.3809 44.5809C59.1125 46.5106 57.6344 48.294 55.9736 49.8985C54.5251 51.2925 52.9563 52.5557 51.2854 53.6735C50.9191 53.9254 50.4869 54.0641 50.0424 54.0724C49.598 54.0808 49.1609 53.9585 48.7854 53.7206C47.0716 52.6015 45.4687 51.3211 43.9986 49.897C39.1236 45.2176 33.2486 36.7838 34.3074 23.8059C34.354 23.2291 34.6206 22.6924 35.0521 22.307C35.4835 21.9215 36.0468 21.7168 36.6251 21.7353C38.1412 21.7926 40.3604 21.6764 42.828 20.9C44.9739 20.2291 46.9743 19.1605 48.7251 17.75C49.0946 17.4515 49.5488 17.2769 50.0231 17.251C50.4975 17.2252 50.9679 17.3493 51.3677 17.6059C52.0251 18.0294 52.8898 18.55 53.9118 19.0764C56.0457 20.1764 58.8824 21.3088 61.8898 21.6206C62.4398 21.6794 62.9957 21.7117 63.556 21.7088C64.7383 21.7029 65.7074 22.647 65.7721 23.8264C65.9523 27.5877 65.5611 31.356 64.6118 35Z" fill="white"/>
    <path d="M49.9955 49.4265C48.7233 48.5665 47.5286 47.5971 46.425 46.5294C42.425 42.6868 37.8455 35.9956 38.5058 25.8044H38.6455C40.5854 25.8052 42.5141 25.5097 44.3647 24.9279C46.4614 24.2719 48.4251 23.2492 50.1647 21.9073C50.8602 22.3426 51.5823 22.7529 52.3117 23.1323C55.075 24.5544 57.7794 25.4103 60.3558 25.6794C60.7485 25.7206 61.147 25.7485 61.5455 25.7618V25.8265C61.6186 28.477 61.3492 31.1258 60.7441 33.7073L60.5529 34.4279C59.8463 37.1918 58.6897 39.8206 57.1294 42.2088L56.9823 42.4353C55.9851 43.9171 54.8346 45.2899 53.55 46.5309C52.4464 47.5918 51.2576 48.5602 49.9955 49.4265Z" fill="url(#paint2_linear_71_204)"/>
    <path d="M48.5971 39.3853C48.4457 39.3855 48.2958 39.3557 48.156 39.2976C48.0161 39.2396 47.8892 39.1544 47.7824 39.047L45.2457 36.5103C45.1387 36.4033 45.0538 36.2763 44.9959 36.1365C44.938 35.9967 44.9082 35.8469 44.9082 35.6956C44.9082 35.5443 44.938 35.3944 44.9959 35.2547C45.0538 35.1149 45.1387 34.9879 45.2457 34.8809C45.3527 34.7739 45.4797 34.689 45.6195 34.6311C45.7592 34.5732 45.9091 34.5434 46.0604 34.5434C46.2117 34.5434 46.3615 34.5732 46.5013 34.6311C46.6411 34.689 46.7681 34.7739 46.8751 34.8809L48.5957 36.6015L53.1251 32.0735C53.2323 31.9664 53.3595 31.8815 53.4995 31.8236C53.6395 31.7657 53.7895 31.7359 53.941 31.736C54.0926 31.736 54.2426 31.7659 54.3825 31.824C54.5225 31.882 54.6496 31.9671 54.7567 32.0742C54.8638 32.1814 54.9487 32.3087 55.0066 32.4487C55.0645 32.5887 55.0943 32.7387 55.0942 32.8902C55.0942 33.0417 55.0643 33.1917 55.0062 33.3317C54.9482 33.4716 54.8631 33.5988 54.756 33.7059L49.4118 39.0456C49.3051 39.1529 49.1781 39.2381 49.0383 39.2961C48.8985 39.3542 48.7485 39.3855 48.5971 39.3853Z" fill="white"/>
    <defs>
        <linearGradient id="paint0_linear_71_204" x1="19.2131" y1="44.6649" x2="80.7953" y2="45.1147" gradientUnits="userSpaceOnUse">
            <stop stop-color="#0061FF"/>
            <stop offset="1" stop-color="#60EFFF"/>
        </linearGradient>
        <linearGradient id="paint1_linear_71_204" x1="8.64404" y1="76.6042" x2="91.3463" y2="78.0543" gradientUnits="userSpaceOnUse">
            <stop stop-color="#D38656"/>
            <stop offset="1" stop-color="#F9AC69"/>
        </linearGradient>
        <linearGradient id="paint2_linear_71_204" x1="38.4419" y1="35.0263" x2="61.5606" y2="35.1872" gradientUnits="userSpaceOnUse">
            <stop stop-color="#48F6A4"/>
            <stop offset="1" stop-color="#0F8A98"/>
        </linearGradient>
    </defs>
</svg>
