<svg width="24" height="24" viewBox="0 0 24 24" fill="none" xmlns="http://www.w3.org/2000/svg">
    <path d="M8.54587 12.1826L6.85579 14.1332L6.10669 15.9511C7.00587 16.547 7.95966 17.3707 8.83536 18.5257C11.2863 21.7582 13.2565 22 15.9827 22C19.125 22 21.148 20.6072 21.4749 20.2623L21.0062 17.6803C14.9521 19.2138 11.7518 14.8102 8.54587 12.1826Z" fill="#EFE7E4"/>
    <path d="M4.15433 10.1959C3.50995 10.5153 3.01663 11.0764 2.74944 11.8021C2.4387 12.6461 2.39811 13.7167 2.96616 14.4899C3.6387 14.7101 4.81643 15.0958 6.10675 15.951L8.54593 12.1826C6.88573 10.8104 4.98518 10.2689 4.15433 10.1959Z" fill="#F5F0EE"/>
    <path d="M15.1298 2L12.5483 4.88469L10.2153 9.60309L10.2329 9.63273L13.9163 9.85559L18.994 2H15.1298Z" fill="#B27A49"/>
    <path d="M11.2654 2L8.37402 6.5034L10.2154 9.60309L15.1298 2H11.2654Z" fill="#CD864D"/>
    <path d="M8.16891 12.7609L10.0813 10.953L10.7567 8.75741C10.384 8.3767 10.1422 7.90331 9.99484 7.53983C9.76922 6.98334 9.52652 6.4501 8.62574 6.1051L7.24902 12.0417L8.16891 12.7609Z" fill="#8DCBFF"/>
    <path d="M8.62559 6.1051C7.18574 6.36323 5.93859 7.20295 5.01902 8.53358C4.55355 9.20706 4.28262 9.84663 4.1543 10.196C4.74422 10.4183 5.93238 11.0683 7.24887 12.0417C8.37402 10.7505 9.38453 8.58311 8.62559 6.1051Z" fill="#638CFB"/>
    <path d="M17.1455 15.4918L16.2996 14.9059L16.2252 14.3199C15.9791 13.9078 15.8049 13.4933 15.6949 13.0918L15.3578 12.5739L15.5501 11.9199C15.6154 10.7114 15.1769 9.82381 14.282 9.28975C13.1836 9.68405 12.2891 9.68405 11.3418 9.19627C11.118 9.08104 10.924 8.92858 10.7565 8.75745L8.1687 12.7609C8.98905 13.4389 9.81702 14.2273 10.5473 15.1031L10.5733 15.1342C11.6759 16.4565 12.7174 17.7055 14.1471 18.3543C15.7411 19.0777 18.1574 19.2311 21.0062 17.6803C20.5312 15.1414 18.0135 16.361 17.1455 15.4918Z" fill="#7AABFF"/>
    <path d="M13.8743 13.0918H15.695C15.5829 12.6821 15.5375 12.2861 15.5502 11.9199H13.8743V13.0918ZM14.7899 15.4918H17.1456C16.7669 15.1126 16.4627 14.7174 16.2253 14.3199H14.7899V15.4918H14.7899Z" fill="#EEE8E5"/>
</svg>
