<svg width="28" height="28" viewBox="0 0 28 28" fill="none" xmlns="http://www.w3.org/2000/svg">
    <path d="M26.741 13.692L23.1257 10.6921L22.3709 9.50739L22.5307 7.64884L22.5318 7.63532C22.61 6.72623 21.9347 5.93205 21.0329 5.8545L18.1087 5.60308C17.3697 5.53952 16.6919 5.97787 16.4325 6.64962L17.914 6.4395L13.5942 8.1224C13.4246 8.18847 13.274 8.29545 13.1557 8.43381C13.0375 8.57218 12.9553 8.73763 12.9164 8.91545L11.9755 13.2241C11.8455 13.8193 12.2225 14.4079 12.8184 14.5381C13.4158 14.6686 14.0031 14.2874 14.1324 13.6952L14.9472 9.96471L18.859 8.44067L16.0372 10.4838L15.6801 15.5218C15.6922 15.625 15.5969 15.0089 16.4763 20.6104L14.3653 26.2074C14.1071 26.8918 14.4527 27.656 15.1373 27.9143C15.8221 28.1725 16.5861 27.8266 16.8441 27.1423L19.0786 21.2179C19.1595 21.0034 19.1834 20.7715 19.1478 20.545L18.3959 15.7552L19.0946 15.8153L21.2081 20.4922L22.6805 26.9685C22.8427 27.6817 23.5524 28.1286 24.2659 27.9665C24.9793 27.8042 25.426 27.0945 25.2639 26.3811L23.7619 19.7746C23.7422 19.688 23.7138 19.6036 23.6772 19.5227L21.8565 15.4937L22.0966 12.7014L25.3339 15.3876C25.8023 15.7764 26.4971 15.7115 26.8856 15.2433C27.274 14.7753 27.2094 14.0806 26.741 13.692ZM10.9054 13.7165C10.8545 13.2904 10.9348 13.0228 11.0284 12.5945L9.4486 11.6353C9.4486 11.6353 9.16713 8.69688 9.11286 7.61072C9.06752 6.70285 8.5196 5.90774 7.61398 5.82991L4.68964 5.57848C3.78393 5.50065 2.98665 6.17174 2.90882 7.07736L2.74922 8.93347L4.64476 7.25743L1.96565 11.0408C1.86047 11.1894 1.79364 11.3616 1.77112 11.5422C1.7486 11.7228 1.77108 11.9062 1.83656 12.076L3.4236 16.1908C3.64545 16.766 4.291 17.0394 4.85075 16.8235C5.41819 16.6046 5.70332 15.9663 5.48344 15.3964L4.10943 11.8338L6.53562 8.40753L5.24366 11.8296L6.47215 15.0149C6.90045 16.1255 6.35254 17.38 5.23211 17.812C4.11506 18.2429 2.86423 17.6856 2.43489 16.572L2.12422 15.7665L1.77863 17.3228C1.75846 17.4136 1.75894 17.5079 1.78006 17.5985C1.80117 17.6891 1.84236 17.7739 1.90061 17.8465C1.95885 17.9191 2.03265 17.9776 2.11656 18.0179C2.20047 18.0581 2.29235 18.079 2.38541 18.079H9.98618L9.67514 14.3511C11.3915 15.3934 11.4419 15.4788 11.8392 15.4788C11.9492 15.4788 12.0583 15.4619 12.163 15.4299C11.483 15.1222 10.9964 14.4783 10.9054 13.7165ZM20.0669 4.88852C21.4025 5.00334 22.5875 4.01463 22.7031 2.66972C22.8184 1.32904 21.8249 0.148806 20.4844 0.033515C19.1438 -0.0817762 17.9634 0.911719 17.8481 2.25231C17.7322 3.60172 18.7371 4.77426 20.0669 4.88852ZM5.54306 19.3384H2.86132L3.05716 20.5859L0.94615 26.1828C0.688059 26.8673 1.03356 27.6315 1.71817 27.8898C2.40297 28.148 3.16701 27.8021 3.425 27.1178L5.65948 21.1935C5.74041 20.979 5.76425 20.7471 5.72867 20.5206L5.54306 19.3384ZM10.1858 19.3384H7.27853L7.7888 20.4677L9.2613 26.944C9.42344 27.6572 10.1332 28.1041 10.8466 27.942C11.5601 27.7797 12.0068 27.07 11.8446 26.3566C10.3734 19.8937 10.3438 19.5908 10.1858 19.3384Z" fill="white"/>
    <path d="M6.85659 4.87284C8.20218 4.87284 9.293 3.78202 9.293 2.43642C9.293 1.09082 8.20218 0 6.85659 0C5.51099 0 4.42017 1.09082 4.42017 2.43642C4.42017 3.78202 5.51099 4.87284 6.85659 4.87284Z" fill="white"/>
</svg>
