<svg width="24" height="22" viewBox="0 0 24 22" fill="none" xmlns="http://www.w3.org/2000/svg">
    <path d="M10.2114 19.5352L10.0275 19.7299V20.2455C10.0275 20.7879 10.4713 21.2318 11.0138 21.2318C11.5562 21.2318 12 20.7879 12 20.2455C12 20.7879 12.4438 21.2318 12.9863 21.2318C13.5287 21.2318 13.9725 20.7879 13.9725 20.2455V19.7299L13.809 19.5352H10.2114Z" fill="#DBEDFF"/>
    <path d="M10.7518 21.1951V19.5352H10.2114L10.0275 19.7299V20.2455C10.0275 20.6972 10.3356 21.0795 10.7518 21.1951ZM12 20.2456C12.0001 20.6973 12.3082 21.0795 12.7244 21.1951V19.5352H12V20.2456Z" fill="#B5DCFF"/>
    <path d="M17.7985 11.1329V12.3824L17.9498 12.5936L18.1434 12.7441C18.3851 12.619 18.5507 12.3672 18.5507 12.0762V11.2666L18.4942 11.1328H17.7985V11.1329Z" fill="#FFCEBE"/>
    <path d="M17.8511 12.0762V11.2666L18.1037 11.1328H17.2988L17.0463 11.2666V12.0762C17.0463 12.4916 17.383 12.8283 17.7984 12.8283C17.9466 12.8283 18.0844 12.7849 18.2008 12.7109C17.9908 12.5775 17.8511 12.3434 17.8511 12.0762Z" fill="#FFB1A0"/>
    <path d="M23.7567 11.0121H22.7096L22.4957 11.2666V12.0761C22.4957 12.4916 22.8324 12.8283 23.2478 12.8283C23.6632 12.8283 24 12.4916 24 12.0761V11.2666L23.7567 11.0121Z" fill="#FFCEBE"/>
    <path d="M23.22 12.8269V11.0121H22.7097L22.4957 11.2666V12.0761C22.4957 12.4821 22.8176 12.8121 23.22 12.8269ZM5.44943 18.7641L5.18126 18.6297H1.70435L1.50433 18.7641V20.2455C1.50433 20.788 1.94815 21.2318 2.49058 21.2318C3.03302 21.2318 3.47683 20.788 3.47683 20.2455C3.47683 20.788 3.92065 21.2318 4.46308 21.2318C5.00552 21.2318 5.44933 20.788 5.44933 20.2455V18.7641H5.44943Z" fill="#FFCEBE"/>
    <path d="M1.50433 18.7642V20.2456C1.50438 20.6973 1.81249 21.0795 2.22869 21.1952V18.6298H1.7043L1.50433 18.7642ZM3.47547 20.2722C3.47571 20.2633 3.47683 20.2545 3.47683 20.2455C3.47683 20.6968 3.78433 21.0787 4.19983 21.1948V18.6298H3.47547V20.2722Z" fill="#FFB1A0"/>
    <path d="M5.26165 16.3762H1.6848L1.50433 16.5291V18.7641H5.44938V16.5291L5.26165 16.3762Z" fill="#8479C2"/>
    <path d="M1.50433 16.5291V18.7641H2.22865V16.3762H1.6848L1.50433 16.5291ZM4.19983 18.7641V17.9432C4.19983 17.8472 4.16168 17.755 4.09376 17.6871C4.02584 17.6192 3.93373 17.581 3.83768 17.581C3.74163 17.581 3.64951 17.6192 3.58159 17.6871C3.51368 17.755 3.47552 17.8472 3.47552 17.9432V18.7641H4.19983Z" fill="#6E60B8"/>
    <path d="M5.74874 11.8064H4.67179L4.28985 12.002H2.45484L2.28192 11.8064H1.46906L1.00495 12.0925L0.752197 12.7987V14.7907H1.33415L1.50435 14.6313L1.71238 14.7907H5.21338L5.4494 14.6313L5.60943 14.839H6.76668L6.95367 14.6313V13.0114C6.95371 12.3459 6.41423 11.8064 5.74874 11.8064Z" fill="#FF5595"/>
    <path d="M0.804844 13.0114C0.804844 12.3459 1.34433 11.8064 2.00986 11.8064H1.20502C0.539484 11.8063 0 12.3458 0 13.0114V14.6313L0.126891 14.7907H0.931734L0.804844 14.6313V13.0114ZM1.86652 13.2672C1.77047 13.2672 1.67835 13.3053 1.61043 13.3732C1.54251 13.4412 1.50436 13.5333 1.50436 13.6293V14.6313L1.71239 14.7907H2.22867V13.6293C2.22867 13.5333 2.19052 13.4412 2.1226 13.3732C2.05468 13.3053 1.96257 13.2672 1.86652 13.2672ZM5.44941 14.6313L5.60944 14.839H6.17372V13.6293C6.17372 13.5818 6.16435 13.5347 6.14615 13.4907C6.12795 13.4468 6.10127 13.4069 6.06765 13.3732C6.03402 13.3396 5.99409 13.3129 5.95015 13.2947C5.90622 13.2765 5.85912 13.2672 5.81156 13.2672C5.764 13.2672 5.71691 13.2765 5.67297 13.2947C5.62903 13.3129 5.58911 13.3396 5.55548 13.3732C5.52185 13.4069 5.49517 13.4468 5.47697 13.4907C5.45877 13.5347 5.44941 13.5818 5.44941 13.6293V14.6313Z" fill="#FF3581"/>
    <path d="M0.752136 16.656L0.957824 16.9879L1.09826 17.0697C1.33934 16.9444 1.50429 16.6928 1.50429 16.4023V14.6313H0.752136V16.656Z" fill="#FFCEBE"/>
    <path d="M0.804844 16.4023V14.6313H0V16.4023C0 16.8177 0.33675 17.1545 0.752156 17.1545C0.900328 17.1545 1.03809 17.111 1.15458 17.0371C0.944578 16.9036 0.804844 16.6695 0.804844 16.4023Z" fill="#FFB1A0"/>
    <path d="M5.4494 14.6313V16.4023C5.4494 16.8177 5.78615 17.1545 6.20156 17.1545C6.61696 17.1545 6.95371 16.8177 6.95371 16.4023V14.6313H5.4494Z" fill="#FFCEBE"/>
    <path d="M13.6641 14.2194H10.2677L10.0275 14.3761V19.73H13.9726V14.3761L13.6641 14.2194Z" fill="#8479C2"/>
    <path d="M10.7518 14.2194H10.2677L10.0275 14.3761V19.73H10.7518V14.2194ZM12.7244 19.73V15.7901C12.7244 15.5901 12.5622 15.428 12.3622 15.428C12.1622 15.428 12 15.5901 12 15.7901V19.73H12.7244Z" fill="#6E60B8"/>
    <path d="M22.4957 19.3842L22.3442 19.1368H18.8191L18.5507 19.3842V20.2456C18.5507 20.788 18.9945 21.2318 19.5369 21.2318C20.0793 21.2318 20.5232 20.788 20.5232 20.2456C20.5232 20.788 20.967 21.2318 21.5094 21.2318C22.0518 21.2318 22.4957 20.788 22.4957 20.2456L22.4957 19.3842Z" fill="#938493"/>
    <path d="M19.275 21.1952V19.1368H18.819L18.5506 19.3842V20.2456C18.5506 20.6973 18.8588 21.0796 19.275 21.1952ZM21.2475 21.1952V19.1369H20.5231V20.2456C20.5231 20.6973 20.8313 21.0796 21.2475 21.1952Z" fill="#7B6C79"/>
    <path d="M22.308 12.0925H18.8327L18.5506 12.2029V19.3841H22.4957V12.2029L22.308 12.0925Z" fill="#8479C2"/>
    <path d="M19.275 12.0925H18.8327L18.5506 12.2029V19.3841H19.275V12.0925ZM21.2475 19.3841V13.617C21.2475 13.5209 21.2093 13.4288 21.1414 13.3609C21.0735 13.293 20.9814 13.2548 20.8853 13.2548C20.7893 13.2548 20.6972 13.293 20.6293 13.3609C20.5613 13.4288 20.5232 13.5209 20.5232 13.617V19.3841H21.2475Z" fill="#6E60B8"/>
    <path d="M2.27686 11.9145C2.27686 12.5773 2.81414 13.1146 3.4769 13.1146C4.13967 13.1146 4.67695 12.5773 4.67695 11.9145C4.67695 11.8781 4.67503 11.842 4.67184 11.8064H2.28192C2.27862 11.8423 2.27693 11.8784 2.27686 11.9145Z" fill="#FFCEBE"/>
    <path d="M1.50433 14.6313H5.44938V16.5291H1.50433V14.6313Z" fill="#FF76AA"/>
    <path d="M1.50433 14.6313H2.22869V16.5291H1.50433V14.6313Z" fill="#FF5595"/>
    <path d="M6.1737 17.1531V14.6313H5.44934V16.4023C5.44934 16.8083 5.77128 17.1383 6.1737 17.1531Z" fill="#FFB1A0"/>
    <path d="M22.795 5.30823H22.5503L22.4105 5.37432L21.3542 6.53931L20.5234 5.87902V5.87865H20.5229L19.6339 6.53931L18.6198 5.36223L18.5534 5.33331L18.2008 5.56946L17.7985 6.11476V11.2667H18.5506V12.203H22.4957V11.2667H24V6.51324C24 5.84771 23.4605 5.30823 22.795 5.30823Z" fill="#60B9FE"/>
    <path d="M18.6377 5.38295L18.6198 5.36223L18.4959 5.30823H18.2513C17.5858 5.30823 17.0463 5.84771 17.0463 6.51324V11.2667H17.8511V6.51324C17.8511 5.99485 18.1784 5.55306 18.6377 5.38295ZM19.2749 12.203V7.56751C19.2749 7.47146 19.2368 7.37934 19.1689 7.31143C19.1009 7.24351 19.0088 7.20535 18.9128 7.20535C18.8167 7.20535 18.7246 7.24351 18.6567 7.31143C18.5888 7.37934 18.5506 7.47146 18.5506 7.56751V12.203H19.2749ZM23.22 7.56751C23.22 7.51995 23.2106 7.47286 23.1924 7.42892C23.1742 7.38498 23.1475 7.34506 23.1139 7.31143C23.0803 7.2778 23.0404 7.25112 22.9964 7.23292C22.9525 7.21472 22.9054 7.20535 22.8578 7.20535C22.8103 7.20535 22.7632 7.21472 22.7192 7.23292C22.6753 7.25112 22.6354 7.2778 22.6017 7.31143C22.5681 7.34506 22.5414 7.38498 22.5232 7.42892C22.505 7.47286 22.4957 7.51995 22.4957 7.56751V12.203V11.2667H23.22V7.56751Z" fill="#1CA8FF"/>
    <path d="M22.4593 5.12897L21.8893 4.63027C21.8624 4.60675 21.8311 4.58876 21.7973 4.57732C21.7635 4.56588 21.7277 4.56121 21.6921 4.56359C21.6565 4.56597 21.6217 4.57534 21.5896 4.59117C21.5576 4.607 21.5291 4.62899 21.5055 4.65586L20.5904 5.70183C20.5668 5.72871 20.5488 5.75995 20.5374 5.79378C20.526 5.82761 20.5213 5.86336 20.5237 5.89899C20.5261 5.93462 20.5354 5.96944 20.5513 6.00145C20.5671 6.03346 20.5891 6.06204 20.6159 6.08555L21.1859 6.58425C21.2128 6.60777 21.2441 6.62576 21.2779 6.6372C21.3117 6.64864 21.3475 6.65331 21.3831 6.65093C21.4187 6.64856 21.4536 6.63918 21.4856 6.62335C21.5176 6.60752 21.5462 6.58554 21.5697 6.55866L22.4849 5.51269C22.5084 5.48582 22.5264 5.45457 22.5378 5.42074C22.5492 5.38691 22.5539 5.35116 22.5515 5.31553C22.5492 5.2799 22.5398 5.24508 22.5239 5.21307C22.5081 5.18106 22.4861 5.15249 22.4593 5.12897Z" fill="#8BCAFF"/>
    <path d="M18.587 5.12897L19.157 4.63027C19.1839 4.60675 19.2152 4.58876 19.249 4.57732C19.2828 4.56588 19.3186 4.56121 19.3542 4.56359C19.3898 4.56597 19.4246 4.57534 19.4567 4.59117C19.4887 4.607 19.5172 4.62899 19.5408 4.65586L20.4559 5.70183C20.4795 5.72871 20.4974 5.75995 20.5089 5.79378C20.5203 5.82761 20.525 5.86336 20.5226 5.89899C20.5202 5.93462 20.5109 5.96944 20.495 6.00145C20.4792 6.03346 20.4572 6.06204 20.4303 6.08555L19.8603 6.58425C19.8335 6.60777 19.8022 6.62576 19.7684 6.6372C19.7346 6.64864 19.6988 6.65331 19.6632 6.65093C19.6276 6.64856 19.5927 6.63918 19.5607 6.62335C19.5287 6.60752 19.5001 6.58554 19.4766 6.55866L18.5614 5.51269C18.5379 5.48582 18.5199 5.45458 18.5085 5.42075C18.497 5.38692 18.4924 5.35116 18.4947 5.31553C18.4971 5.2799 18.5065 5.24508 18.5223 5.21307C18.5382 5.18106 18.5602 5.15248 18.587 5.12897Z" fill="#8BCAFF"/>
    <path d="M14.2718 8.7467H13.1949L12.9155 8.90739H11.0403L10.805 8.7467H10.1093L9.67769 8.93556L9.27527 9.70408V12.0925H9.88539V14.2193L10.0274 14.376H13.9725L14.0866 14.2193V12.2029H15.2696L15.4768 11.9635V9.95172C15.4768 9.28619 14.9373 8.7467 14.2718 8.7467Z" fill="#FFE559"/>
    <path d="M9.32798 9.95179C9.32798 9.28631 9.86746 8.74683 10.533 8.74683H9.72815C9.06266 8.74683 8.52313 9.28631 8.52313 9.95179V11.9636L8.76266 12.0926H9.56751L9.32798 11.9636V9.95179ZM10.7518 10.5697C10.7518 10.4737 10.7136 10.3815 10.6457 10.3136C10.5778 10.2457 10.4857 10.2075 10.3896 10.2075C10.2936 10.2075 10.2015 10.2457 10.1336 10.3136C10.0656 10.3815 10.0275 10.4737 10.0275 10.5697V14.376H10.7519V10.5697H10.7518ZM14.6969 10.5697C14.6969 10.4737 14.6587 10.3815 14.5908 10.3136C14.5229 10.2457 14.4307 10.2075 14.3347 10.2075C14.2386 10.2075 14.1465 10.2457 14.0786 10.3136C14.0107 10.3815 13.9725 10.4737 13.9725 10.5697V14.376L14.0866 14.2193V12.203H14.6969V10.5697Z" fill="#FBC700"/>
    <path d="M9.27527 14.6314L9.59861 14.9276C9.85197 14.8065 10.0274 14.5487 10.0274 14.2492V11.9636H9.27527V14.6314Z" fill="#FFCEBE"/>
    <path d="M9.32798 14.2492V11.9636H8.52313V14.2492C8.52313 14.6647 8.85988 15.0014 9.27529 15.0014C9.42346 15.0014 9.56123 14.958 9.67771 14.8839C9.46771 14.7505 9.32798 14.5165 9.32798 14.2492Z" fill="#FFB1A0"/>
    <path d="M13.9725 11.9636V14.2492C13.9725 14.6647 14.3092 15.0014 14.7246 15.0014C15.14 15.0014 15.4768 14.6647 15.4768 14.2492V11.9636H13.9725Z" fill="#FFCEBE"/>
    <path d="M14.6968 15V11.9636H13.9725V14.2492C13.9725 14.6553 14.2944 14.9853 14.6968 15Z" fill="#FFB1A0"/>
    <path d="M10.7999 8.85492C10.7999 9.51769 11.3372 10.055 12 10.055C12.6627 10.055 13.2 9.51769 13.2 8.85492C13.2 8.81845 13.1981 8.78241 13.1949 8.74678H10.805C10.8017 8.78273 10.8 8.81882 10.7999 8.85492ZM4.1207 7.05469H3.82103L3.13694 7.84514L2.94653 8.57752C2.94653 8.57752 3.00011 9.15698 3.02425 9.18919C3.04839 9.22139 3.47683 10.0503 3.47683 10.0503L3.99283 10.2577C4.68189 10.039 5.1813 9.39441 5.1813 8.63297C5.1813 7.91948 4.74278 7.30875 4.1207 7.05469Z" fill="#FFCEBE"/>
    <path d="M3.0601 8.63298C3.0601 7.9195 3.49862 7.30876 4.12074 7.0547C3.91636 6.97119 3.69766 6.92831 3.47687 6.92847C2.53552 6.92847 1.7724 7.69159 1.7724 8.63294C1.7724 9.57428 2.53552 10.3374 3.47687 10.3374C3.70477 10.3374 3.92204 10.2924 4.12074 10.2112C3.49867 9.95715 3.0601 9.34642 3.0601 8.63298Z" fill="#FFB1A0"/>
    <path d="M12.6439 3.9679H12.3442L11.6601 4.75835L11.4697 5.49072C11.4697 5.49072 11.5233 6.07019 11.5474 6.1024C11.5716 6.1346 12 6.96354 12 6.96354L12.516 7.17091C13.2051 6.95224 13.7045 6.30761 13.7045 5.54618C13.7045 4.83269 13.266 4.22196 12.6439 3.9679Z" fill="#FFCEBE"/>
    <path d="M11.5832 5.54619C11.5832 4.83271 12.0217 4.22197 12.6438 3.96791C12.4394 3.8844 12.2207 3.84152 11.9999 3.84168C11.0586 3.84168 10.2955 4.6048 10.2955 5.54614C10.2955 6.48749 11.0586 7.25061 11.9999 7.25061C12.2278 7.25061 12.4451 7.20557 12.6438 7.12438C12.0218 6.87041 11.5832 6.25968 11.5832 5.54619Z" fill="#FFB1A0"/>
    <path d="M21.167 0.894409H20.8674L20.1833 1.68486L19.9929 2.41724C19.9929 2.41724 20.0464 2.99671 20.0706 3.02891C20.0947 3.06111 20.5232 3.89005 20.5232 3.89005L21.0392 4.09742C21.7282 3.87875 22.2276 3.23413 22.2276 2.47269C22.2276 1.75921 21.7891 1.14847 21.167 0.894409Z" fill="#FFCEBE"/>
    <path d="M20.1064 2.4727C20.1064 1.75922 20.5449 1.14849 21.1669 0.894423C20.9626 0.81091 20.7439 0.768033 20.5231 0.768189C19.5817 0.768189 18.8186 1.53131 18.8186 2.47266C18.8186 3.414 19.5817 4.17713 20.5231 4.17713C20.751 4.17713 20.9682 4.13208 21.1669 4.05089C20.5449 3.79692 20.1064 3.18614 20.1064 2.4727Z" fill="#FFB1A0"/>
</svg>
