<svg width="25" height="24" viewBox="0 0 25 24" fill="none" xmlns="http://www.w3.org/2000/svg">
    <g clip-path="url(#clip0_998_3578)">
        <path fill-rule="evenodd" clip-rule="evenodd" d="M21.3472 14.8556L16.9306 12.8766L16.9184 12.8709C16.4526 12.6717 15.9177 12.7211 15.4963 13.0022C15.4718 13.0183 15.4483 13.0359 15.4259 13.0547L13.1441 15C11.6984 14.2978 10.2059 12.8166 9.50375 11.3897L11.4519 9.07312C11.4706 9.04969 11.4884 9.02625 11.5053 9.00094C11.7803 8.5807 11.8268 8.05073 11.6291 7.58906V7.57781L9.64437 3.15375C9.38009 2.5439 8.746 2.18069 8.08625 2.26125C5.45833 2.60705 3.49525 4.84943 3.5 7.5C3.5 14.9438 9.55625 21 17 21C19.6506 21.0048 21.8929 19.0417 22.2388 16.4137C22.3195 15.7542 21.9567 15.1202 21.3472 14.8556ZM17 19.5C10.3756 19.4928 5.00723 14.1244 5 7.5C4.9927 5.60618 6.39195 4.00108 8.26906 3.75C8.26869 3.75374 8.26869 3.75751 8.26906 3.76125L10.2378 8.1675L8.3 10.4869C8.28033 10.5095 8.26246 10.5336 8.24656 10.5591C7.95961 10.9994 7.92405 11.5578 8.15281 12.0309C9.00219 13.7681 10.7525 15.5053 12.5084 16.3538C12.9851 16.5804 13.5459 16.5398 13.985 16.2469C14.0091 16.2307 14.0322 16.2131 14.0544 16.1944L16.3334 14.25L20.7397 16.2234C20.7397 16.2234 20.7472 16.2234 20.75 16.2234C20.502 18.1033 18.8962 19.5064 17 19.5Z" fill="#FAFAFA"/>
    </g>
    <defs>
        <clipPath id="clip0_998_3578">
            <rect width="24" height="24" fill="white" transform="translate(0.5)"/>
        </clipPath>
    </defs>
</svg>
