<svg width="105" height="127" viewBox="0 0 105 127" fill="none" xmlns="http://www.w3.org/2000/svg">
<path fill-rule="evenodd" clip-rule="evenodd" d="M40.3227 36.1403C49.5085 36.1403 57.0396 43.7137 57.0396 52.9509V65.7097H66.129V52.9509C66.1292 38.6649 54.5236 27 40.3227 27C26.1217 27 14.5161 38.6649 14.5161 52.9509V65.7097H23.6055V52.9509C23.6057 43.7137 31.1369 36.1403 40.3227 36.1403Z" fill="url(#paint0_linear_71_379)"/>
<path fill-rule="evenodd" clip-rule="evenodd" d="M66.129 52.9509C66.129 38.6649 54.61 27 40.5149 27C37.706 26.9981 34.9161 27.4679 32.2581 28.3904C33.3048 28.2576 34.3586 28.191 35.4135 28.1909C49.5085 28.1909 61.0276 39.8615 61.0276 54.1418V65.7097H66.129V52.9509Z" fill="url(#paint1_linear_71_379)"/>
<path fill-rule="evenodd" clip-rule="evenodd" d="M13.3285 63.7365C7.9189 63.7365 3.49292 68.151 3.49292 73.5467V88.142C3.49292 108.429 20.1332 125.027 40.4732 125.027C47.3923 125.027 53.8826 123.105 59.4294 119.774L77.4535 84.9252V73.5467C77.4535 68.1512 73.0275 63.7365 67.6179 63.7365H13.3285Z" fill="url(#paint2_linear_71_379)" fill-opacity="0.9"/>
<path fill-rule="evenodd" clip-rule="evenodd" d="M40.4732 78.0865C36.0529 78.0865 32.4675 81.6569 32.4675 86.0658C32.4675 88.9119 33.9599 91.4043 36.2015 92.8244L34.5212 103.745C34.5084 103.828 34.5138 103.914 34.537 103.995C34.5602 104.076 34.6007 104.151 34.6557 104.215C34.7107 104.279 34.7789 104.331 34.8556 104.366C34.9324 104.401 35.0159 104.42 35.1003 104.42H45.8457C45.9301 104.42 46.0136 104.401 46.0904 104.366C46.1671 104.331 46.2353 104.279 46.2903 104.215C46.3453 104.151 46.3858 104.076 46.409 103.995C46.4322 103.914 46.4376 103.828 46.4248 103.745L44.7445 92.8244C46.9861 91.4043 48.4785 88.9117 48.4785 86.0658C48.4789 81.6569 44.8935 78.0865 40.4732 78.0865Z" fill="#025F80"/>
<path fill-rule="evenodd" clip-rule="evenodd" d="M39.158 78.1893C42.1658 79.3584 44.3044 82.3129 44.3044 85.7694C44.3074 87.1352 43.967 88.4799 43.3145 89.6798C42.662 90.8797 41.7185 91.8964 40.5705 92.6364L42.3546 104.42H45.846C45.9305 104.42 46.014 104.401 46.0907 104.366C46.1675 104.331 46.2357 104.279 46.2907 104.215C46.3457 104.151 46.3862 104.076 46.4094 103.995C46.4326 103.914 46.438 103.828 46.4251 103.745L44.7449 92.8244C46.9865 91.4043 48.4789 88.9117 48.4789 86.0658C48.4789 81.6571 44.8935 78.0865 40.4732 78.0865C40.0273 78.0865 39.5869 78.1207 39.158 78.1893Z" fill="#024C67"/>
<path fill-rule="evenodd" clip-rule="evenodd" d="M77.4536 73.5465C77.4536 68.151 73.0276 63.7363 67.618 63.7363H57.342C62.7516 63.7363 67.1776 68.1508 67.1776 73.5465V86.4594C68.3956 85.9518 69.6764 85.5469 70.9975 85.273C72.4323 84.9722 73.8946 84.8212 75.3606 84.8225C76.0696 84.8225 76.7672 84.8566 77.4536 84.9252V73.5465Z" fill="url(#paint3_linear_71_379)"/>
<path fill-rule="evenodd" clip-rule="evenodd" d="M98.7019 86.6774H40.8142C37.8836 86.6774 35.4839 89.4229 35.4839 92.7757V107.945C35.4839 111.304 37.8836 114.043 40.8142 114.043H47.3443V125.387L57.576 114.043H98.7019C101.633 114.043 104.032 111.304 104.032 107.945V92.7757C104.032 89.4229 101.633 86.6774 98.7019 86.6774Z" fill="url(#paint4_linear_71_379)"/>
<path d="M55.2408 95.5307C55.047 95.1951 54.7278 94.9502 54.3534 94.85C53.979 94.7497 53.5801 94.8022 53.2445 94.996L49.7449 97.0167V92.9777C49.7449 92.5902 49.5909 92.2184 49.3168 91.9444C49.0427 91.6703 48.671 91.5163 48.2834 91.5163C47.8958 91.5163 47.5241 91.6703 47.2501 91.9444C46.976 92.2184 46.822 92.5902 46.822 92.9777V97.0167L43.3226 94.996C43.1564 94.8998 42.9729 94.8373 42.7825 94.8121C42.5921 94.7868 42.3987 94.7994 42.2131 94.849C42.0276 94.8986 41.8537 94.9842 41.7013 95.1011C41.5489 95.218 41.421 95.3637 41.325 95.53C41.229 95.6963 41.1667 95.8799 41.1416 96.0703C41.1166 96.2607 41.1293 96.4542 41.1791 96.6396C41.2289 96.8251 41.3147 96.9989 41.4317 97.1512C41.5487 97.3035 41.6946 97.4312 41.861 97.5271L45.361 99.5482L41.861 101.569C41.5821 101.73 41.3641 101.979 41.2409 102.276C41.1177 102.573 41.0962 102.903 41.1796 103.214C41.2631 103.525 41.4469 103.8 41.7025 103.996C41.958 104.191 42.2711 104.297 42.5931 104.297C42.8493 104.297 43.1009 104.229 43.3226 104.101L46.822 102.08V106.119C46.822 106.507 46.976 106.878 47.2501 107.152C47.5241 107.426 47.8958 107.58 48.2834 107.58C48.671 107.58 49.0427 107.426 49.3168 107.152C49.5909 106.878 49.7449 106.507 49.7449 106.119V102.08L53.2445 104.101C53.4106 104.197 53.5941 104.259 53.7844 104.284C53.9747 104.309 54.1681 104.297 54.3536 104.247C54.539 104.197 54.7128 104.112 54.865 103.995C55.0173 103.878 55.145 103.732 55.2408 103.566C55.4347 103.23 55.4872 102.831 55.3869 102.457C55.2866 102.082 55.0417 101.763 54.7061 101.569L51.2061 99.5482L54.7061 97.5271C55.0417 97.3333 55.2866 97.0141 55.3869 96.6397C55.4872 96.2653 55.4347 95.8664 55.2408 95.5307ZM74.7951 95.5307C74.6012 95.1951 74.282 94.9502 73.9076 94.85C73.5332 94.7497 73.1344 94.8022 72.7987 94.996L69.2991 97.0169V92.978C69.2991 92.5904 69.1451 92.2186 68.8711 91.9446C68.597 91.6705 68.2253 91.5165 67.8377 91.5165C67.4501 91.5165 67.0784 91.6705 66.8043 91.9446C66.5302 92.2186 66.3763 92.5904 66.3763 92.978V97.0169L62.8769 94.9962C62.7107 94.9 62.5271 94.8375 62.3368 94.8123C62.1464 94.787 61.9529 94.7996 61.7674 94.8492C61.5819 94.8988 61.4079 94.9845 61.2555 95.1013C61.1031 95.2182 60.9753 95.3639 60.8793 95.5302C60.7832 95.6965 60.7209 95.8801 60.6959 96.0705C60.6708 96.2609 60.6836 96.4544 60.7333 96.6398C60.7831 96.8253 60.869 96.9992 60.986 97.1514C61.103 97.3037 61.2488 97.4314 61.4152 97.5273L64.9152 99.5484L61.4152 101.57C61.249 101.666 61.1033 101.793 60.9865 101.946C60.8697 102.098 60.784 102.272 60.7343 102.457C60.6847 102.642 60.672 102.836 60.6971 103.026C60.7222 103.216 60.7845 103.4 60.8805 103.566C60.9764 103.732 61.1041 103.878 61.2564 103.995C61.4086 104.112 61.5824 104.197 61.7678 104.247C61.9532 104.297 62.1466 104.309 62.3369 104.284C62.5272 104.259 62.7107 104.197 62.8769 104.101L66.3763 102.08V106.119C66.3763 106.507 66.5302 106.878 66.8043 107.152C67.0784 107.427 67.4501 107.581 67.8377 107.581C68.2253 107.581 68.597 107.427 68.8711 107.152C69.1451 106.878 69.2991 106.507 69.2991 106.119V102.08L72.7987 104.101C72.9649 104.197 73.1484 104.26 73.3387 104.285C73.529 104.31 73.7224 104.297 73.9078 104.248C74.0932 104.198 74.267 104.112 74.4193 103.995C74.5715 103.878 74.6992 103.732 74.7951 103.566C74.9889 103.23 75.0415 102.832 74.9412 102.457C74.8409 102.083 74.596 101.764 74.2603 101.57L70.7603 99.5486L74.2603 97.5275C74.596 97.3336 74.8408 97.0143 74.9411 96.6398C75.0414 96.2654 74.9889 95.8664 74.7951 95.5307ZM93.8085 101.569L90.31 99.548L93.8085 97.5267C94.1375 97.3295 94.3757 97.0108 94.4718 96.6396C94.568 96.2683 94.5143 95.8741 94.3225 95.542C94.1307 95.2099 93.816 94.9666 93.4463 94.8644C93.0767 94.7622 92.6817 94.8094 92.3465 94.9958L88.8531 97.0142V92.9775C88.8531 92.5899 88.6992 92.2182 88.4251 91.9442C88.151 91.6701 87.7793 91.5161 87.3917 91.5161C87.0041 91.5161 86.6324 91.6701 86.3583 91.9442C86.0843 92.2182 85.9303 92.5899 85.9303 92.9775V97.0177L82.4309 94.996C82.0957 94.8096 81.7007 94.7624 81.3311 94.8646C80.9614 94.9668 80.6467 95.2101 80.4549 95.5422C80.2631 95.8743 80.2094 96.2685 80.3056 96.6398C80.4017 97.011 80.6399 97.3297 80.9689 97.5269L84.4674 99.5482L80.9689 101.57C80.6399 101.767 80.4017 102.085 80.3056 102.457C80.2094 102.828 80.2631 103.222 80.4549 103.554C80.6467 103.886 80.9614 104.13 81.3311 104.232C81.7007 104.334 82.0957 104.287 82.4309 104.1L85.9303 102.079V106.119C85.9303 106.507 86.0843 106.878 86.3583 107.152C86.6324 107.426 87.0041 107.58 87.3917 107.58C87.7793 107.58 88.151 107.426 88.4251 107.152C88.6992 106.878 88.8531 106.507 88.8531 106.119V102.082L92.3465 104.101C92.5126 104.197 92.6961 104.259 92.8864 104.284C93.0767 104.31 93.27 104.297 93.4554 104.247C93.6409 104.198 93.8147 104.112 93.967 103.995C94.1192 103.878 94.247 103.733 94.3429 103.566C94.4389 103.4 94.5013 103.217 94.5265 103.026C94.5516 102.836 94.539 102.643 94.4894 102.457C94.4397 102.272 94.3541 102.098 94.2373 101.946C94.1204 101.793 93.9748 101.665 93.8085 101.569Z" fill="#EAF6FF"/>
<path fill-rule="evenodd" clip-rule="evenodd" d="M93.7618 59.8554C91.7355 47.8626 86.3712 36.857 78.2346 28.2357C68.1576 17.558 54.894 11.6774 40.8866 11.6774C11.2267 11.6777 40.8863 -16.0439 40.8863 16.5161C40.8863 18.1839 39.3673 17.7272 40.8863 17.7272C42.4054 17.7272 40.8722 16.9742 40.8722 15.3064C40.8722 -13.9178 14.2648 17.7272 40.8863 17.7272C64.2028 17.7272 83.6104 35.631 88.1533 59.8556H80.7065L91.5666 73.7742L102.419 59.8556L93.7618 59.8554Z" fill="url(#paint5_linear_71_379)"/>
<defs>
<linearGradient id="paint0_linear_71_379" x1="14.5161" y1="45.4537" x2="66.1327" y2="46.024" gradientUnits="userSpaceOnUse">
<stop stop-color="#595CFF"/>
<stop offset="1" stop-color="#C6F8FF"/>
</linearGradient>
<linearGradient id="paint1_linear_71_379" x1="32.2581" y1="45.4537" x2="66.1338" y2="45.6993" gradientUnits="userSpaceOnUse">
<stop stop-color="#0061FF"/>
<stop offset="1" stop-color="#60EFFF"/>
</linearGradient>
<linearGradient id="paint2_linear_71_379" x1="3.49292" y1="92.9548" x2="77.4603" y2="93.6945" gradientUnits="userSpaceOnUse">
<stop stop-color="#D38656"/>
<stop offset="1" stop-color="#F9AC69"/>
</linearGradient>
<linearGradient id="paint3_linear_71_379" x1="57.342" y1="74.5689" x2="77.4564" y2="74.7164" gradientUnits="userSpaceOnUse">
<stop stop-color="#D38656"/>
<stop offset="1" stop-color="#F9AC69"/>
</linearGradient>
<linearGradient id="paint4_linear_71_379" x1="35.4839" y1="105.131" x2="104.031" y2="106.137" gradientUnits="userSpaceOnUse">
<stop stop-color="#48F6A4"/>
<stop offset="1" stop-color="#0F8A98"/>
</linearGradient>
<linearGradient id="paint5_linear_71_379" x1="27.7043" y1="33.4171" x2="102.419" y2="33.4171" gradientUnits="userSpaceOnUse">
<stop stop-color="#003366"/>
<stop offset="1" stop-color="#0F52BA"/>
</linearGradient>
</defs>
</svg>
