<svg width="24" height="24" viewBox="0 0 24 24" fill="none" xmlns="http://www.w3.org/2000/svg">
    <g clip-path="url(#clip0_1184_4675)">
        <path d="M10.1245 7.21606C9.57793 6.48949 8.63311 6.19432 7.7123 6.50543L5.03785 7.66723C4.65065 7.83473 4.32284 8.1149 4.09707 8.47128L0.222332 14.5722C-0.297512 15.6124 0.125441 16.882 1.16583 17.4026C1.73747 17.6884 2.44613 17.6932 3.05199 17.4246C3.62878 17.1697 4.05028 16.7007 4.20905 16.1377L9.98443 8.20081C10.2948 7.96737 10.3572 7.52642 10.1245 7.21606ZM7.03111 17.6251H4.21861V20.4376C4.21861 21.2143 4.84833 21.8438 5.62486 21.8438C6.40158 21.8438 7.03111 21.2143 7.03111 20.4376C7.03111 21.2143 7.66083 21.8438 8.43736 21.8438C9.21408 21.8438 9.84361 21.2143 9.84361 20.4376V17.6251H7.03111Z" fill="#FFBFAB"/>
        <path d="M19.7813 10.5937H18.4968L10.9547 6.93762L4.71081 15.2204L21.1876 17.6251L22.5938 12.0001L21.1876 10.5937H19.7813ZM4.47133 19.6232C4.43101 19.6806 4.37101 19.7418 4.30764 19.7832L2.52179 21.1078C2.29126 21.2898 1.95948 21.2978 1.70622 21.1205C1.45281 20.943 1.34678 20.6284 1.43908 20.3495L2.07301 18.2184C2.09022 18.1446 2.1272 18.0675 2.16747 18.0098L4.126 17.6645L4.47133 19.6232Z" fill="#FFCEBF"/>
        <path d="M4.12598 17.6647L4.4713 19.6231C4.4308 19.6806 4.37099 19.7418 4.30762 19.7832L2.52177 21.1078C2.29124 21.2898 1.95946 21.2978 1.70605 21.1204L4.12598 17.6647Z" fill="#FFA78F"/>
        <path d="M15.3604 4.0718L14.1504 5.79976L12.1919 6.14513L11.8466 4.1866L13.0564 2.45865C13.2823 2.13601 13.7132 2.06021 14.0356 2.28601L15.1877 3.09258C15.5102 3.31852 15.5862 3.74935 15.3604 4.0718Z" fill="#54469D"/>
        <path d="M15.3604 4.07177L14.1504 5.79972L12.192 6.1451L14.6116 2.68933L15.1875 3.09255C15.5102 3.31849 15.5862 3.74932 15.3604 4.07177Z" fill="#392E6E"/>
        <path d="M2.16779 18.0102L11.8475 4.1861L14.1515 5.79925L4.47179 19.6233L2.16779 18.0102Z" fill="#F27281"/>
        <path d="M3.31989 18.8168L12.9994 4.99268L14.1513 5.79925L4.47179 19.6233L3.31989 18.8168Z" fill="#E63950"/>
        <path d="M4.92169 14.8126C3.7568 14.8126 2.81232 15.7569 2.81232 16.922C2.81232 18.0869 3.7568 19.0314 4.92169 19.0314H10.3803L11.1579 19.4199C12.4887 20.0853 13.9793 20.4376 15.4688 20.4376C16.9582 20.4376 18.5425 20.0853 19.8731 19.4199L21.8906 18.411V14.8126H4.92169Z" fill="#FFCEBF"/>
        <path d="M22.205 21.7687L23.7157 20.6483C23.8039 20.5829 23.8755 20.4978 23.9249 20.3997C23.9743 20.3017 24 20.1934 24 20.0836V11.2968C24 10.9086 23.6852 10.5936 23.2969 10.5936H21.1875V21.1398C21.1875 21.6624 21.7375 22.0024 22.205 21.7687Z" fill="#463B85"/>
    </g>
    <defs>
        <clipPath id="clip0_1184_4675">
            <rect width="24" height="24" fill="white"/>
        </clipPath>
    </defs>
</svg>
