<svg width="24" height="24" viewBox="0 0 24 24" fill="none" xmlns="http://www.w3.org/2000/svg">
    <path d="M20.1057 18.9224L17.7474 16.5724C19.0259 14.993 19.6496 12.9831 19.4898 10.9574C19.3301 8.93166 18.3991 7.04444 16.8889 5.68489C15.3787 4.32535 13.4043 3.59714 11.373 3.65044C9.34164 3.70373 7.40819 4.53446 5.97133 5.97133C4.53446 7.40819 3.70373 9.34164 3.65044 11.373C3.59714 13.4043 4.32535 15.3787 5.68489 16.8889C7.04444 18.3991 8.93166 19.3301 10.9574 19.4898C12.9831 19.6496 14.993 19.0259 16.5724 17.7474L18.9224 20.1057C18.9999 20.1838 19.092 20.2458 19.1936 20.2882C19.2951 20.3305 19.4041 20.3522 19.5141 20.3522C19.6241 20.3522 19.733 20.3305 19.8346 20.2882C19.9361 20.2458 20.0283 20.1838 20.1057 20.1057C20.1838 20.0283 20.2458 19.9361 20.2882 19.8346C20.3305 19.733 20.3522 19.6241 20.3522 19.5141C20.3522 19.4041 20.3305 19.2951 20.2882 19.1936C20.2458 19.092 20.1838 18.9999 20.1057 18.9224ZM5.34741 11.5974C5.34741 10.3613 5.71396 9.1529 6.40072 8.12509C7.08748 7.09729 8.0636 6.29621 9.20564 5.82316C10.3477 5.35011 11.6043 5.22634 12.8167 5.4675C14.0291 5.70866 15.1427 6.30391 16.0168 7.17799C16.8909 8.05207 17.4862 9.16571 17.7273 10.3781C17.9685 11.5905 17.8447 12.8471 17.3717 13.9892C16.8986 15.1312 16.0975 16.1073 15.0697 16.7941C14.0419 17.4809 12.8335 17.8474 11.5974 17.8474C9.9398 17.8474 8.35009 17.1889 7.17799 16.0168C6.00589 14.8447 5.34741 13.255 5.34741 11.5974Z" fill="#333333"/>
</svg>
