<svg width="14" height="14" viewBox="0 0 14 14" fill="none" xmlns="http://www.w3.org/2000/svg">
    <path fill-rule="evenodd" clip-rule="evenodd" d="M6.45342 7.54515L0.561607 5.58121C0.397343 5.52618 0.254631 5.42072 0.153796 5.27985C0.0529611 5.13898 -0.000855534 4.96989 1.02856e-05 4.79665C0.000876105 4.62342 0.0563803 4.45487 0.158618 4.31502C0.260856 4.17516 0.404615 4.07113 0.569421 4.01775L12.9241 0.0390803C13.0682 -0.00694811 13.2221 -0.012431 13.3691 0.0232327C13.516 0.0588964 13.6504 0.13433 13.7573 0.241266C13.8642 0.348202 13.9397 0.482513 13.9753 0.629478C14.011 0.776443 14.0055 0.930389 13.9595 1.07444L9.98082 13.4291C9.92776 13.5943 9.82386 13.7384 9.68397 13.8409C9.54408 13.9434 9.37536 13.9991 9.20192 14C9.02848 14.0009 8.85921 13.9469 8.7183 13.8457C8.57739 13.7446 8.47205 13.6015 8.41735 13.437L6.45342 7.54515ZM1.31632 4.80306L6.99389 6.69602C7.13975 6.7442 7.25436 6.85881 7.30254 7.00467L9.1955 12.6822L12.9378 1.06077L1.31632 4.80306Z" fill="white"/>
    <path fill-rule="evenodd" clip-rule="evenodd" d="M7.18479 7.50538C7.13947 7.5507 7.08566 7.58665 7.02645 7.61118C6.96723 7.63571 6.90376 7.64833 6.83967 7.64833C6.77557 7.64833 6.71211 7.63571 6.65289 7.61118C6.59367 7.58665 6.53987 7.5507 6.49455 7.50538C6.44923 7.46005 6.41327 7.40625 6.38875 7.34703C6.36422 7.28782 6.35159 7.22435 6.35159 7.16026C6.35159 7.09616 6.36422 7.03269 6.38875 6.97348C6.41327 6.91426 6.44923 6.86046 6.49455 6.81513L12.8767 0.432993C12.922 0.387671 12.9758 0.35172 13.035 0.327192C13.0942 0.302663 13.1577 0.290039 13.2218 0.290039C13.2859 0.290039 13.3494 0.302663 13.4086 0.327192C13.4678 0.35172 13.5216 0.387671 13.5669 0.432993C13.6123 0.478315 13.6482 0.53212 13.6727 0.591336C13.6973 0.650552 13.7099 0.714019 13.7099 0.778114C13.7099 0.842209 13.6973 0.905677 13.6727 0.964893C13.6482 1.02411 13.6123 1.07791 13.5669 1.12324L7.18479 7.50538Z" fill="white"/>
</svg>
