<svg width="24" height="24" viewBox="0 0 24 24" fill="none" xmlns="http://www.w3.org/2000/svg">
    <path d="M20.2203 3.20939L13.2994 0.0475313L13.2995 0.0474375C12.9531 0.0160605 12.6056 0.000232078 12.2578 0C6.03592 0 0.970228 4.94798 0.779541 11.1236C1.04935 10.9279 1.42974 10.769 1.76171 10.7424C2.24471 10.7036 2.69049 10.8608 3.02865 11.1427C3.13009 11.2279 3.25824 11.2746 3.39066 11.2747C3.52307 11.2748 3.65131 11.2284 3.75292 11.1435C4.05709 10.8895 4.44849 10.7366 4.87581 10.7366C5.30312 10.7366 5.69453 10.8895 5.9987 11.1435C6.1001 11.2284 6.22815 11.2749 6.36041 11.2749C6.49267 11.2749 6.62072 11.2284 6.72212 11.1435C7.03694 10.88 7.43452 10.736 7.84501 10.7366C8.2555 10.736 8.65307 10.88 8.9679 11.1435C9.0693 11.2284 9.19735 11.2749 9.32961 11.2749C9.46187 11.2749 9.58992 11.2284 9.69132 11.1435C9.99549 10.8895 10.3869 10.7366 10.8142 10.7366C11.2415 10.7366 11.6329 10.8895 11.9371 11.1435C12.0385 11.2284 12.1666 11.2749 12.2988 11.2749C12.4311 11.2749 12.5591 11.2284 12.6605 11.1435C12.9754 10.88 13.3729 10.736 13.7834 10.7366C14.1939 10.736 14.5915 10.88 14.9063 11.1435C15.0077 11.2284 15.1358 11.2749 15.268 11.2749C15.4003 11.2749 15.5283 11.2284 15.6297 11.1435C15.9446 10.88 16.3421 10.736 16.7526 10.7366C17.1631 10.736 17.5607 10.88 17.8755 11.1435C17.9769 11.2284 18.105 11.2749 18.2372 11.2749C18.3695 11.2749 18.4975 11.2284 18.5989 11.1435C18.9031 10.8895 19.2945 10.7366 19.7218 10.7366C20.1491 10.7366 20.5405 10.8895 20.8447 11.1435C20.9463 11.2284 21.0746 11.2748 21.207 11.2747C21.3394 11.2746 21.4675 11.2279 21.569 11.1427C21.9071 10.8608 22.3529 10.7036 22.8359 10.7424C23.132 10.7662 23.4811 10.9022 23.734 11.0648C23.623 7.98159 22.2969 5.20837 20.2203 3.20939Z" fill="#ADD841"/>
    <path d="M23.4176 14.2034C23.6336 13.3133 23.7426 12.4005 23.7423 11.4845C23.7423 11.3176 23.7379 11.1517 23.7308 10.9866C23.4761 10.7975 23.1691 10.6754 22.8356 10.6487C22.3527 10.6099 21.9069 10.767 21.5688 11.049C21.4673 11.1341 21.3392 11.1808 21.2068 11.181C21.0743 11.1811 20.9461 11.1346 20.8445 11.0497C20.5297 10.7863 20.1321 10.6422 19.7216 10.6428C19.3111 10.6422 18.9135 10.7863 18.5987 11.0497C18.4973 11.1346 18.3693 11.1812 18.237 11.1812C18.1047 11.1812 17.9767 11.1346 17.8753 11.0497C17.5605 10.7863 17.1629 10.6422 16.7524 10.6428C16.3419 10.6422 15.9443 10.7863 15.6295 11.0497C15.5281 11.1346 15.4001 11.1812 15.2678 11.1812C15.1355 11.1812 15.0075 11.1346 14.9061 11.0497C14.5913 10.7863 14.1937 10.6422 13.7832 10.6428C13.3727 10.6422 12.9751 10.7863 12.6603 11.0497C12.5589 11.1346 12.4309 11.1812 12.2986 11.1812C12.1663 11.1812 12.0383 11.1346 11.9369 11.0497C11.6221 10.7863 11.2245 10.6422 10.814 10.6428C10.4035 10.6422 10.0059 10.7863 9.6911 11.0497C9.5897 11.1346 9.46165 11.1812 9.32939 11.1812C9.19713 11.1812 9.06908 11.1346 8.96768 11.0497C8.65285 10.7863 8.25528 10.6422 7.84479 10.6428C7.4343 10.6422 7.03672 10.7863 6.7219 11.0497C6.62049 11.1346 6.49245 11.1812 6.36019 11.1812C6.22793 11.1812 6.09988 11.1346 5.99848 11.0497C5.68365 10.7863 5.28608 10.6422 4.87559 10.6428C4.4651 10.6422 4.06752 10.7863 3.75269 11.0497C3.65109 11.1346 3.52285 11.1811 3.39043 11.181C3.25802 11.1808 3.12987 11.1341 3.02843 11.049C2.69027 10.767 2.24449 10.6098 1.76149 10.6487C1.39029 10.6785 1.05185 10.8266 0.781992 11.0537C0.776401 11.1972 0.773448 11.3409 0.773132 11.4845C0.773132 12.4214 0.886148 13.3317 1.09779 14.2034H23.4176Z" fill="#8ECB51"/>
    <path d="M19.1148 13.8809C19.233 13.4878 19.4859 13.1489 19.8292 12.9238C19.9398 12.8513 20.0214 12.7422 20.0597 12.6156C20.098 12.489 20.0905 12.353 20.0385 12.2313C19.8775 11.8538 19.8547 11.4315 19.974 11.0388C20.0108 10.9172 20.0606 10.8 20.1225 10.6892C19.9911 10.6584 19.8566 10.6428 19.7217 10.6428C19.3112 10.6422 18.9136 10.7863 18.5988 11.0497C18.4974 11.1346 18.3693 11.1812 18.2371 11.1812C18.1048 11.1812 17.9768 11.1346 17.8754 11.0497C17.5605 10.7863 17.163 10.6422 16.7525 10.6428C16.342 10.6422 15.9444 10.7863 15.6296 11.0497C15.5282 11.1346 15.4001 11.1812 15.2679 11.1812C15.1356 11.1812 15.0076 11.1346 14.9061 11.0497C14.5913 10.7863 14.1937 10.6422 13.7833 10.6428C13.3728 10.6422 12.9752 10.7863 12.6604 11.0497C12.559 11.1346 12.4309 11.1812 12.2987 11.1812C12.1664 11.1812 12.0383 11.1346 11.9369 11.0497C11.6221 10.7863 11.2245 10.6422 10.8141 10.6428C10.4036 10.6422 10.006 10.7863 9.69116 11.0497C9.58976 11.1346 9.46171 11.1812 9.32945 11.1812C9.19719 11.1812 9.06914 11.1346 8.96774 11.0497C8.65291 10.7863 8.25534 10.6422 7.84485 10.6428C7.43436 10.6422 7.03678 10.7863 6.72196 11.0497C6.62056 11.1346 6.49251 11.1812 6.36025 11.1812C6.22799 11.1812 6.09994 11.1346 5.99854 11.0497C5.68371 10.7863 5.28614 10.6422 4.87565 10.6428C4.46516 10.6422 4.06758 10.7863 3.75276 11.0497C3.65115 11.1346 3.52291 11.1811 3.3905 11.181C3.25808 11.1808 3.12993 11.1341 3.02849 11.049C2.69033 10.767 2.24455 10.6098 1.76155 10.6487C1.39035 10.6785 1.05191 10.8266 0.782053 11.0537C0.776463 11.1972 0.773509 11.3409 0.773193 11.4845C0.773193 12.4214 0.886209 13.3317 1.09785 14.2034H19.0493C19.0611 14.0941 19.083 13.9861 19.1148 13.8809Z" fill="#5DB33A"/>
    <path d="M1.07513 14.1096C2.26248 19.1872 6.81835 22.969 12.2578 22.969C17.6972 22.969 22.2532 19.1873 23.4405 14.1096H1.07513Z" fill="#384051"/>
    <path d="M12.2578 22.969C15.7938 22.969 18.9559 21.3706 21.0625 18.8573C18.857 18.205 18.0849 16.7186 19.062 16.0343C20.3339 15.1437 19.062 14.1096 19.062 14.1096H1.07513C2.26248 19.1873 6.81835 22.969 12.2578 22.969Z" fill="#212335"/>
    <path d="M13.751 9.90441C13.5917 9.94317 13.4198 9.92011 13.2743 9.83025C11.687 8.84986 10.274 7.69627 9.07461 6.40158C8.94514 6.26185 8.89152 6.07505 8.91449 5.89575C8.07772 6.90141 7.27874 7.74188 6.70691 8.31469C7.06907 8.46235 7.21049 8.89917 7.02102 9.25735C6.701 9.86217 6.34377 11.0188 7.54663 11.9691C8.21642 12.4983 8.95766 12.53 9.65886 12.4853C10.4015 12.438 10.8541 12.3481 11.4168 12.435C11.5076 12.408 12.1063 12.2815 12.797 11.9445C12.8901 11.8992 12.9932 11.8784 13.0965 11.8841C13.07 11.3143 13.1684 10.5304 13.751 9.90441Z" fill="#F7F3F1"/>
    <path d="M9.07463 6.40158C8.94516 6.26185 8.89153 6.07505 8.9145 5.89575C8.07774 6.90141 7.27875 7.74188 6.70697 8.31469C7.06908 8.46235 7.21055 8.89917 7.02108 9.25735C6.70106 9.86217 6.34383 11.0188 7.54669 11.9691C8.21649 12.4983 8.95777 12.53 9.65892 12.4853C9.86953 12.4719 10.0563 12.4551 10.2293 12.4399C10.1524 12.3668 10.0606 12.2923 9.95077 12.2162C8.0385 10.8913 11.4275 8.63297 11.4275 8.63297L11.315 8.46272C10.5043 7.82494 9.75506 7.13602 9.07463 6.40158Z" fill="#CDE2FF"/>
    <path d="M13.2994 0.0476074C12.6189 1.0535 11.8164 2.27426 10.9241 3.69448C10.678 4.08626 10.4167 4.4675 10.1495 4.83678C10.2208 4.87037 10.2834 4.91993 10.3325 4.98162C11.0832 5.92437 12.4178 7.28595 14.5126 8.41878C14.6173 8.47483 14.6987 8.56618 14.7424 8.67659C16.2302 7.18887 18.2836 5.2099 20.2206 3.20961C18.3905 1.44809 15.9775 0.288404 13.2994 0.0476074Z" fill="#F9CFA9"/>
    <path d="M13.2994 0.0476074C12.6189 1.0535 11.8164 2.27426 10.9241 3.69448C10.678 4.08626 10.4167 4.4675 10.1496 4.83678C10.2209 4.87037 10.2835 4.91993 10.3326 4.98162C10.8616 5.64598 11.6811 6.51837 12.8519 7.37211C12.5168 6.21073 13.3364 5.27651 13.3364 5.27651L16.964 1.00695C15.8044 0.485312 14.5658 0.161067 13.2994 0.0476074Z" fill="#FBBC8D"/>
    <path d="M20.3798 20.5428C20.3616 20.5362 20.3434 20.5298 20.3249 20.524C19.2407 20.182 18.1601 19.8175 17.12 19.3104C15.2678 16.8257 13.887 14.1651 13.0832 12.9332C11.7845 10.9428 9.66504 13.0983 7.85618 11.8434C6.65524 11.0102 6.89135 9.90142 7.18568 9.25028C7.33797 8.91339 7.23639 8.52644 6.94919 8.32717C6.71064 8.16165 6.39124 8.16039 6.13389 8.32394L4.39957 9.42601C4.25457 9.51798 4.10301 9.59915 3.9461 9.66887C3.54353 9.84831 2.55007 10.4231 1.76093 11.9633C1.97758 12.4443 2.26713 12.885 2.62118 13.2674C4.38194 15.1693 6.42991 16.299 7.71827 16.8788C8.56788 17.2612 9.32875 17.8087 9.96424 18.4909C11.0327 19.6377 12.215 20.6728 13.4929 21.5803C13.6795 21.7129 13.897 21.8073 14.1075 21.8558C16.3568 22.3745 18.2785 22.4663 19.5619 22.4424C20.3208 21.7922 20.3805 20.8347 20.3798 20.5428Z" fill="#E5646E"/>
    <path d="M9.06722 12.2558C8.6566 12.2275 8.24902 12.116 7.85616 11.8434C6.65522 11.0102 6.89133 9.90142 7.18566 9.25028C7.33796 8.91339 7.23633 8.52644 6.94918 8.32717C6.71063 8.16165 6.39122 8.16039 6.13383 8.32394L4.39951 9.42601C4.25451 9.51798 4.10294 9.59915 3.94604 9.66887C3.54347 9.84831 2.55 10.4231 1.76086 11.9633C1.97752 12.4443 2.26707 12.885 2.62107 13.2674C3.90821 14.6576 5.34844 15.6349 6.53358 16.2867C6.59318 16.2092 6.63687 16.1206 6.66213 16.0262C6.6874 15.9317 6.69375 15.8332 6.68082 15.7362C6.23086 12.3345 9.06722 12.2558 9.06722 12.2558Z" fill="#E7387F"/>
    <path d="M1.76086 11.9634C1.97752 12.4444 2.26707 12.885 2.62111 13.2674C3.28735 13.9871 3.99469 14.596 4.68643 15.1065L4.93088 15.0212C6.02063 14.6406 6.45136 13.3288 5.79933 12.3763L3.94604 9.66895C3.54347 9.84834 2.55 10.4232 1.76086 11.9634Z" fill="#C6237C"/>
    <path d="M13.7078 16.522L8.83704 17.5134C9.24639 17.7983 9.62422 18.126 9.96415 18.491C10.039 18.5712 10.1143 18.651 10.1903 18.7302L14.5162 17.8496C14.228 17.3893 13.9582 16.9431 13.7078 16.522Z" fill="#E7387F"/>
    <path d="M12.9243 15.1912L6.81024 16.4357C7.1083 16.5926 7.41108 16.7404 7.71816 16.8788C8.10992 17.0553 8.48447 17.2678 8.83702 17.5134L13.7078 16.5219C13.4211 16.0398 13.1596 15.5908 12.9243 15.1912Z" fill="#C6237C"/>
    <path d="M14.3611 20.9118C14.2839 20.8542 14.2329 20.7683 14.219 20.6731C14.2052 20.5778 14.2298 20.481 14.2874 20.4038L14.6105 19.9711C14.6685 19.8953 14.7541 19.8454 14.8487 19.8323C14.9433 19.8191 15.0393 19.8438 15.1158 19.9009C15.1923 19.9581 15.2432 20.0431 15.2575 20.1375C15.2718 20.2319 15.2483 20.3281 15.1921 20.4053L14.869 20.8381C14.7492 20.9985 14.5217 21.0318 14.3611 20.9118ZM20.3798 20.5427C20.3617 20.5361 20.3435 20.5297 20.325 20.5239C19.2407 20.1819 18.1601 19.8174 17.12 19.3102C17.0965 19.2787 17.0737 19.2468 17.0503 19.2151L16.5128 19.1781C16.285 19.1621 16.0605 19.1147 15.8458 19.0371L15.805 19.0651C15.805 19.0651 16.9114 20.6929 16.1044 22.2255C17.4919 22.4204 18.6782 22.4588 19.5619 22.4424C20.3209 21.792 20.3805 20.8345 20.3798 20.5427Z" fill="#E7387F"/>
    <path d="M18.3793 19.8555C17.9547 19.6912 17.5341 19.5122 17.12 19.3102C17.0965 19.2787 17.0737 19.2468 17.0503 19.2151L16.5128 19.1781C16.285 19.1621 16.0606 19.1147 15.8458 19.0371L15.8051 19.0651C15.8051 19.0651 16.9114 20.6929 16.1044 22.2255C16.4277 22.2709 16.7519 22.3094 17.0769 22.341C16.7738 20.4571 17.9651 19.9675 18.3793 19.8555Z" fill="#C6237C"/>
    <path d="M14.5438 8.36114C12.5141 7.26342 11.1904 5.95373 10.3838 4.94076C10.1515 4.64906 9.7078 4.64901 9.47755 4.94236C9.32097 5.14173 9.16213 5.33932 9.00107 5.53509C8.7808 5.80284 8.79093 6.19186 9.02657 6.4462C10.0424 7.5427 11.4199 8.76197 13.2399 9.88608C13.5083 10.0519 13.8538 10.0132 14.0829 9.7964C14.1092 9.77156 14.136 9.74728 14.1633 9.72356C14.2962 9.60797 14.4589 9.46659 14.6472 9.30234C14.9499 9.03825 14.8971 8.5523 14.5438 8.36114Z" fill="#AAD1F7"/>
    <path d="M20.325 20.5239C20.325 20.5239 20.413 21.7092 19.5129 22.4432C20.6145 22.4255 21.2602 22.3219 21.2602 22.3219C21.2661 22.2997 21.2715 22.2777 21.2766 22.2559C21.4519 21.4963 21.0266 20.7452 20.325 20.5239Z" fill="#F7F3F1"/>
    <path d="M21.2252 22.243C20.7893 22.3034 17.905 22.6469 14.0857 21.7582C13.9032 21.7157 13.7306 21.6381 13.5777 21.5297C12.287 20.6166 11.0935 19.5734 10.0157 18.4166C9.38024 17.7344 8.61937 17.1869 7.76976 16.8045C6.48135 16.2247 4.43338 15.095 2.67262 13.1931C2.35856 12.8539 2.09554 12.4686 1.88887 12.0502L1.76081 11.9634C1.76081 11.9634 1.11407 12.1782 0.423649 13.4249C0.158758 13.9032 0.214446 14.495 0.566618 14.9132C1.28643 15.768 3.0599 17.0304 6.81018 19.0653C7.29421 19.3279 7.74796 19.6438 8.15976 20.0095C9.71882 21.3939 11.1443 22.6633 12.0814 23.2128C12.7004 23.5756 13.3895 23.8027 14.1029 23.8791C16.009 24.0837 18.1219 24.0614 20.2206 23.5565C20.6906 23.4434 21.0595 23.0793 21.1827 22.6118L21.2765 22.256L21.2252 22.243Z" fill="#CDE2FF"/>
    <path d="M2.67269 13.1931C2.35863 12.8539 2.09561 12.4686 1.8889 12.0502L1.76088 11.9634C1.76088 11.9634 1.11415 12.1782 0.423771 13.4249C0.15888 13.9032 0.214568 14.495 0.56674 14.9132C1.18418 15.6465 2.57707 16.6797 5.32783 18.243C5.07855 17.1495 5.6621 16.7176 6.16882 16.547C6.34296 16.4888 6.49025 16.3697 6.58366 16.2116C5.39876 15.5597 3.95922 14.5828 2.67269 13.1931Z" fill="#AAD1F7"/>
    <path d="M13.0316 13.0073C13.8011 14.1866 15.0994 16.675 16.8337 19.0651L14.0006 11.4015C13.8516 11.0241 13.4038 10.871 13.0509 11.0711C12.478 11.3962 11.8823 12.0096 11.488 12.1189C12.0665 12.1383 12.5954 12.3388 13.0316 13.0073Z" fill="#C6237C"/>
    <path d="M14.9002 13.8352L14.0005 11.4015C13.8516 11.0241 13.4037 10.871 13.0509 11.0711C12.478 11.3962 11.8823 12.0096 11.4879 12.1189C12.0664 12.1383 12.5953 12.3388 13.0316 13.0073C13.2485 13.3398 13.5076 13.7765 13.8066 14.2857C14.1224 13.768 14.5946 13.7658 14.9002 13.8352Z" fill="#A91E6A"/>
    <path d="M13.6986 13.9402L12.1834 14.134C12.1853 14.1369 12.1872 14.1395 12.1891 14.1424C12.7359 14.9804 13.5498 16.4797 14.5974 18.1349C15.0173 18.7983 15.7296 19.2207 16.5128 19.2747L17.1252 19.317C15.6794 17.3787 14.5204 15.3324 13.6986 13.9402Z" fill="#E7387F"/>
    <path d="M13.3438 15.144C13.3246 15.0497 13.3436 14.9516 13.3968 14.8713C13.4499 14.791 13.5327 14.7351 13.627 14.7159L15.0697 14.4223C15.1633 14.4047 15.2602 14.4246 15.3393 14.4778C15.4184 14.531 15.4733 14.6132 15.4924 14.7066C15.5114 14.8 15.4929 14.8971 15.4409 14.977C15.3889 15.0569 15.3076 15.1131 15.2145 15.1336L13.7718 15.4272C13.7251 15.4367 13.677 15.437 13.6302 15.4279C13.5834 15.4188 13.5389 15.4006 13.4991 15.3743C13.4594 15.348 13.4252 15.3141 13.3985 15.2746C13.3719 15.2351 13.3533 15.1907 13.3438 15.144ZM14.1811 16.4711C14.1716 16.4244 14.1714 16.3762 14.1805 16.3294C14.1896 16.2827 14.2078 16.2381 14.2341 16.1984C14.2604 16.1586 14.2943 16.1244 14.3338 16.0978C14.3733 16.0711 14.4177 16.0525 14.4644 16.043L15.6166 15.8085C15.711 15.7893 15.8091 15.8083 15.8893 15.8615C15.9696 15.9146 16.0255 15.9974 16.0447 16.0918C16.0639 16.1861 16.0449 16.2842 15.9917 16.3644C15.9386 16.4447 15.8558 16.5006 15.7614 16.5198L14.6092 16.7543C14.5625 16.7638 14.5143 16.7641 14.4675 16.755C14.4208 16.7459 14.3762 16.7277 14.3365 16.7014C14.2967 16.675 14.2625 16.6412 14.2359 16.6017C14.2092 16.5621 14.1906 16.5178 14.1811 16.4711ZM15.0184 17.7981C14.9992 17.7038 15.0183 17.6057 15.0714 17.5255C15.1245 17.4452 15.2074 17.3893 15.3017 17.3701L16.1636 17.1946C16.2573 17.177 16.3541 17.197 16.4332 17.2502C16.5123 17.3034 16.5673 17.3856 16.5863 17.479C16.6053 17.5724 16.5868 17.6695 16.5348 17.7494C16.4828 17.8293 16.4015 17.8855 16.3084 17.906L15.4465 18.0814C15.3998 18.0909 15.3517 18.0911 15.3049 18.0821C15.2581 18.073 15.2135 18.0548 15.1738 18.0284C15.134 18.0021 15.0999 17.9683 15.0732 17.9287C15.0465 17.8892 15.0279 17.8449 15.0184 17.7981Z" fill="#F7F3F1"/>
    <path d="M9.95074 12.2163L10.8244 13.7487C10.9229 13.9216 11.0706 14.0613 11.2487 14.1502C11.4268 14.239 11.6273 14.2729 11.8247 14.2477L13.7357 14.0032C13.488 13.583 13.2699 13.2192 13.0832 12.933C12.2688 11.685 11.1317 12.0671 9.95074 12.2163Z" fill="#E7387F"/>
    <path d="M11.435 13.2579C11.4158 13.1636 11.4349 13.0655 11.488 12.9852C11.5411 12.9049 11.624 12.849 11.7183 12.8298L14.3868 12.2866C14.4812 12.2674 14.5793 12.2864 14.6595 12.3396C14.7398 12.3927 14.7957 12.4755 14.8149 12.5699C14.8341 12.6642 14.815 12.7623 14.7619 12.8426C14.7088 12.9228 14.626 12.9787 14.5316 12.9979L11.8631 13.5412C11.8164 13.5507 11.7683 13.5509 11.7215 13.5418C11.6747 13.5327 11.6301 13.5145 11.5904 13.4882C11.5506 13.4619 11.5165 13.428 11.4898 13.3885C11.4631 13.349 11.4445 13.3046 11.435 13.2579Z" fill="#F7F3F1"/>
    <path d="M10.3838 4.94076C10.1515 4.64906 9.70785 4.64901 9.47755 4.94236C9.32099 5.14175 9.16215 5.33934 9.00107 5.53509C8.7808 5.80284 8.79093 6.19186 9.02657 6.4462C9.67316 7.14417 10.467 7.89178 11.4275 8.63301C11.0891 7.2719 12.8261 7.27373 12.8261 7.27373L12.8261 7.27359C11.7297 6.46565 10.9356 5.63376 10.3838 4.94076Z" fill="#8BC2EF"/>
</svg>
