<svg width="100" height="100" viewBox="0 0 100 100" fill="none" xmlns="http://www.w3.org/2000/svg">
    <path d="M51.3027 95.6777C43.8652 95.8613 29.2519 94.7012 24.4765 93.5703C21.2207 92.8848 18.1601 90.9902 15.8555 88.3535C13.5508 85.7168 12.0937 82.457 11.7539 79.1621L11.7422 79.0606C11.4967 76.6006 11.4237 74.1264 11.5234 71.6563C11.5234 71.6563 11.3398 69.4746 11.7539 65.5195V65.418C12.1027 62.1701 13.5561 59.1405 15.8711 56.8359C18.198 54.507 21.2478 53.0385 24.5195 52.6719C29.3105 52.166 43.8887 51.8906 51.2988 51.8906C58.709 51.8906 70.5996 52.166 75.3906 52.6719C78.6623 53.0389 81.7119 54.5072 84.039 56.8359C86.3566 59.1432 87.8097 62.1776 88.1543 65.4297V65.5293C88.5684 69.4863 88.5137 71.6563 88.5137 71.6582C88.5253 74.1367 88.406 76.6141 88.1562 79.0801C88.1562 79.1133 88.1562 79.1465 88.1465 79.1797C87.8066 82.4746 86.3515 85.7305 84.0449 88.3731C81.7383 91.0156 78.6777 92.9024 75.4219 93.5879C70.6543 94.6621 58.7383 95.7285 51.3027 95.6777Z" fill="url(#paint0_linear_53_1114)"/>
    <path d="M73.166 52.4844C67.5566 52.0937 57.7363 51.8887 51.291 51.8887C43.8808 51.8887 29.3027 52.166 24.5117 52.6699C21.2424 53.0388 18.1956 54.5078 15.871 56.8359C13.5568 59.1408 12.1041 62.1704 11.7558 65.418V65.5195C11.3281 69.4746 11.5234 71.6543 11.5234 71.6562C11.4269 74.1267 11.5032 76.6008 11.7519 79.0605L11.7636 79.1621C11.9623 81.0128 12.4825 82.8145 13.3007 84.4863C17.0143 85.3067 20.8062 85.72 24.6093 85.7188C46.7167 85.7188 65.6113 71.9316 73.166 52.4844Z" fill="url(#paint1_linear_53_1114)"/>
    <path d="M49.5176 46.3242C62.3097 46.3242 72.6797 35.9542 72.6797 23.1621C72.6797 10.37 62.3097 0 49.5176 0C36.7255 0 26.3555 10.37 26.3555 23.1621C26.3555 35.9542 36.7255 46.3242 49.5176 46.3242Z" fill="url(#paint2_linear_53_1114)"/>
    <path d="M71.6478 65.9614H88.5394C91.6799 65.9614 94.226 68.5075 94.226 71.6479V88.5396C94.226 91.68 91.6799 94.2261 88.5394 94.2261H71.6478C68.5073 94.2261 65.9613 91.68 65.9613 88.5396V71.6479C65.9613 68.5075 68.5073 65.9614 71.6478 65.9614Z" fill="url(#paint3_linear_53_1114)" stroke="white" stroke-width="2"/>
    <path d="M80.0936 87.1321C79.7202 87.1321 79.3622 86.9838 79.0982 86.7198C78.8342 86.4558 78.6859 86.0977 78.6859 85.7244V74.4631C78.6859 74.0898 78.8342 73.7318 79.0982 73.4678C79.3622 73.2038 79.7202 73.0555 80.0936 73.0555C80.4669 73.0555 80.8249 73.2038 81.0889 73.4678C81.3529 73.7318 81.5012 74.0898 81.5012 74.4631V85.7244C81.5012 86.0977 81.3529 86.4558 81.0889 86.7198C80.8249 86.9838 80.4669 87.1321 80.0936 87.1321Z" fill="white"/>
    <path d="M74.463 81.5014C74.0896 81.5014 73.7316 81.3531 73.4676 81.0891C73.2036 80.8251 73.0553 80.4671 73.0553 80.0938C73.0553 79.7204 73.2036 79.3624 73.4676 79.0984C73.7316 78.8344 74.0896 78.6861 74.463 78.6861H85.7242C86.0976 78.6861 86.4556 78.8344 86.7196 79.0984C86.9836 79.3624 87.1319 79.7204 87.1319 80.0938C87.1319 80.4671 86.9836 80.8251 86.7196 81.0891C86.4556 81.3531 86.0976 81.5014 85.7242 81.5014H74.463Z" fill="white"/>
    <defs>
        <linearGradient id="paint0_linear_53_1114" x1="11.4802" y1="72.774" x2="88.5145" y2="73.8966" gradientUnits="userSpaceOnUse">
            <stop stop-color="#48F6A4"/>
            <stop offset="1" stop-color="#0F8A98"/>
        </linearGradient>
        <linearGradient id="paint1_linear_53_1114" x1="11.4789" y1="68.0162" x2="93.263" y2="69.2281" gradientUnits="userSpaceOnUse">
            <stop offset="0.236295" stop-color="#2C79CE"/>
            <stop offset="1" stop-color="#24D774"/>
        </linearGradient>
        <linearGradient id="paint2_linear_53_1114" x1="26.3555" y1="22.0837" x2="72.6854" y2="22.4676" gradientUnits="userSpaceOnUse">
            <stop stop-color="#D38656"/>
            <stop offset="1" stop-color="#F9AC69"/>
        </linearGradient>
        <linearGradient id="paint3_linear_53_1114" x1="64.9613" y1="79.3892" x2="95.2297" y2="79.64" gradientUnits="userSpaceOnUse">
            <stop stop-color="#48F6A4"/>
            <stop offset="1" stop-color="#0F8A98"/>
        </linearGradient>
    </defs>
</svg>
