<svg width="25" height="24" viewBox="0 0 25 24" fill="none" xmlns="http://www.w3.org/2000/svg">
    <path d="M5.00006 20.9997C5.00006 21.1986 5.07908 21.3894 5.21973 21.53C5.36039 21.6707 5.55115 21.7497 5.75006 21.7497H19.2501C19.449 21.7497 19.6397 21.6707 19.7804 21.53C19.921 21.3894 20.0001 21.1986 20.0001 20.9997V18.7497H5.00006V20.9997ZM21.9553 6.15346C21.8436 6.06856 21.7104 6.01655 21.5708 6.0033C21.4311 5.99005 21.2905 6.01608 21.1648 6.07846L15.8938 8.71396L13.1968 1.97146C13.1413 1.83204 13.0452 1.71249 12.921 1.62827C12.7968 1.54405 12.6501 1.49902 12.5001 1.49902C12.35 1.49902 12.2034 1.54405 12.0792 1.62827C11.9549 1.71249 11.8589 1.83204 11.8033 1.97146L9.10631 8.71396L3.83531 6.07846C3.70972 6.01581 3.56908 5.98965 3.42936 6.00296C3.28964 6.01627 3.15646 6.06852 3.04496 6.15376C2.93347 6.23901 2.84812 6.35383 2.79864 6.48516C2.74916 6.6165 2.73753 6.75909 2.76506 6.89671L4.83506 17.2497H20.1651L22.2351 6.89671C22.2625 6.75917 22.2509 6.61669 22.2014 6.48544C22.152 6.35419 22.0667 6.23944 21.9553 6.15421V6.15346ZM12.5001 14.2497C12.0548 14.1947 11.6487 13.9679 11.3684 13.6175C11.0882 13.2672 10.956 12.8212 11.0001 12.3747C10.956 11.9282 11.0882 11.4822 11.3684 11.1319C11.6487 10.7816 12.0548 10.5547 12.5001 10.4997C12.9453 10.5547 13.3514 10.7816 13.6317 11.1319C13.912 11.4822 14.0442 11.9282 14.0001 12.3747C14.0442 12.8212 13.912 13.2672 13.6317 13.6175C13.3514 13.9679 12.9453 14.1947 12.5001 14.2497Z" fill="white"/>
</svg>
