<svg width="98" height="94" viewBox="0 0 98 94" fill="none" xmlns="http://www.w3.org/2000/svg">
    <path d="M93.6821 55.282L93.653 55.2965C90.2253 57.9252 88.773 62.3984 89.9931 66.5379L90.0075 66.567C91.9536 73.1463 87.1319 79.7834 80.2765 79.9578H80.2476C75.9194 80.074 72.1142 82.8334 70.6763 86.9146V86.9291C68.3813 93.4066 60.5679 95.9482 54.9181 92.0412C51.4099 89.6457 46.7722 89.5207 43.0812 92.0412H43.0667C37.4171 95.9336 29.6032 93.4064 27.323 86.9144C26.6191 84.9224 25.3274 83.1909 23.6184 81.9488C21.9095 80.7066 19.8638 80.0123 17.7519 79.9576H17.7228C10.8677 79.7832 6.04561 73.1461 7.99189 66.5668L8.00635 66.5377C9.22607 62.3982 7.77373 57.925 4.34639 55.2963L4.31729 55.2818C-1.1292 51.0988 -1.1292 42.9076 4.31729 38.7248L4.34639 38.7103C7.77373 36.0816 9.22607 31.6082 7.99189 27.4689V27.4398C6.03096 20.8607 10.8675 14.2232 17.7228 14.049H17.7519C22.0653 13.9328 25.8851 11.1732 27.323 7.09216V7.07771C29.603 0.600167 37.4171 -1.94143 43.0667 1.9656H43.0812C46.6394 4.42009 51.345 4.42009 54.9181 1.9656C60.6247 -1.97522 68.3948 0.639034 70.6763 7.07771V7.09216C72.1142 11.1588 75.9192 13.933 80.2476 14.049H80.2765C87.1317 14.2232 91.9536 20.8607 90.0075 27.4398L89.9931 27.4689C88.773 31.6082 90.2253 36.0816 93.653 38.7103L93.6821 38.7248C99.1286 42.9076 99.1286 51.099 93.6821 55.282Z" fill="url(#paint0_linear_73_459)"/>
    <path d="M48.9999 74.0541C63.9415 74.0541 76.054 61.9415 76.054 47C76.054 32.0584 63.9415 19.9459 48.9999 19.9459C34.0583 19.9459 21.9458 32.0584 21.9458 47C21.9458 61.9415 34.0583 74.0541 48.9999 74.0541Z" fill="url(#paint1_linear_73_459)"/>
    <path d="M42.5633 57.591L36.5807 51.2261C35.0139 49.559 35.0948 46.9377 36.7614 45.3709C38.428 43.8021 41.0504 43.8863 42.6159 45.5523L45.4717 48.5894L57.611 34.7148C59.1157 32.9929 61.7329 32.8183 63.4561 34.3252C65.178 35.832 65.3518 38.4484 63.8458 40.1703L48.6983 57.4818C47.0846 59.3242 44.2368 59.3724 42.5633 57.591Z" fill="white"/>
    <defs>
        <linearGradient id="paint0_linear_73_459" x1="0.232422" y1="44.8167" x2="97.7786" y2="45.6573" gradientUnits="userSpaceOnUse">
            <stop stop-color="#48F6A4"/>
            <stop offset="1" stop-color="#0F8A98"/>
        </linearGradient>
        <linearGradient id="paint1_linear_73_459" x1="21.9458" y1="45.7404" x2="76.0607" y2="46.1888" gradientUnits="userSpaceOnUse">
            <stop stop-color="#0061FF"/>
            <stop offset="1" stop-color="#60EFFF"/>
        </linearGradient>
    </defs>
</svg>
