<svg width="24" height="24" viewBox="0 0 24 24" fill="none" xmlns="http://www.w3.org/2000/svg">
    <path d="M12 9.1875C8.51048 9.1875 5.67188 12.0261 5.67188 15.5156C5.67188 16.628 5.96508 17.7218 6.51919 18.6804H17.4808C18.0349 17.7218 18.3281 16.628 18.3281 15.5156C18.3281 12.0261 15.4895 9.1875 12 9.1875ZM12 7.78125C12.3886 7.78125 12.7031 7.46677 12.7031 7.07812V5.67188C12.7031 5.28323 12.3886 4.96875 12 4.96875C11.6114 4.96875 11.2969 5.28323 11.2969 5.67188V7.07812C11.2969 7.46677 11.6114 7.78125 12 7.78125ZM3.5625 14.8125H2.15625C1.76761 14.8125 1.45312 15.127 1.45312 15.5156C1.45312 15.9043 1.76761 16.2188 2.15625 16.2188H3.5625C3.95114 16.2188 4.26562 15.9043 4.26562 15.5156C4.26562 15.127 3.95114 14.8125 3.5625 14.8125ZM21.8438 14.8125H20.4375C20.0489 14.8125 19.7344 15.127 19.7344 15.5156C19.7344 15.9043 20.0489 16.2188 20.4375 16.2188H21.8438C22.2324 16.2188 22.5469 15.9043 22.5469 15.5156C22.5469 15.127 22.2324 14.8125 21.8438 14.8125ZM21.1338 10.2422C20.9388 9.90506 20.5069 9.789 20.1732 9.9847L18.9557 10.6878C18.6193 10.8822 18.5039 11.312 18.6982 11.6484C18.8927 11.9852 19.3236 12.0996 19.6589 11.9059L20.8763 11.2028C21.2127 11.0085 21.3281 10.5787 21.1338 10.2422ZM15.8672 8.81738C16.2018 9.01069 16.633 8.89725 16.8278 8.55989L17.5309 7.34245C17.7253 7.00598 17.6099 6.57614 17.2734 6.38184C16.9377 6.18614 16.5071 6.3022 16.3128 6.63933L15.6097 7.85677C15.4154 8.19323 15.5307 8.62308 15.8672 8.81738ZM7.1722 8.55989C7.36669 8.89664 7.79752 9.01106 8.13281 8.81738C8.46928 8.62303 8.58464 8.19323 8.3903 7.85677L7.68717 6.63933C7.49147 6.3022 7.06163 6.18614 6.72656 6.38184C6.39009 6.57619 6.27473 7.00598 6.46908 7.34245L7.1722 8.55989ZM5.04427 10.6878L3.82683 9.9847C3.49036 9.789 3.06122 9.90506 2.86622 10.2422C2.67188 10.5787 2.78723 11.0085 3.1237 11.2028L4.34114 11.9059C4.67578 12.0992 5.10694 11.9858 5.30175 11.6484C5.49609 11.312 5.38073 10.8821 5.04427 10.6878Z" fill="url(#paint0_linear_1473_892)"/>
    <path d="M23.2969 17.625H0.703125C0.314484 17.625 0 17.9395 0 18.3281C0 18.7168 0.314484 19.0312 0.703125 19.0312H23.2969C23.6855 19.0312 24 18.7168 24 18.3281C24 17.9395 23.6855 17.625 23.2969 17.625Z" fill="url(#paint1_linear_1473_892)"/>
    <defs>
        <linearGradient id="paint0_linear_1473_892" x1="12" y1="18.6804" x2="12" y2="4.96875" gradientUnits="userSpaceOnUse">
            <stop stop-color="#FD5900"/>
            <stop offset="1" stop-color="#FFDE00"/>
        </linearGradient>
        <linearGradient id="paint1_linear_1473_892" x1="12" y1="19.0312" x2="12" y2="17.625" gradientUnits="userSpaceOnUse">
            <stop stop-color="#FFE59A"/>
            <stop offset="1" stop-color="#FFFFD5"/>
        </linearGradient>
    </defs>
</svg>
