<svg width="38" height="37" viewBox="0 0 38 37" fill="none" xmlns="http://www.w3.org/2000/svg">
    <path d="M24.4417 5.1775C20.4239 5.09361 16.2781 7.39832 15.1434 12.5861C10.5164 11.0099 6.33963 14.1226 6.77232 19.0985C5.55229 19.5911 4.5076 20.4375 3.77269 21.5289C3.03778 22.6202 2.64628 23.9065 2.64857 25.2223C2.64857 28.8824 5.59789 31.8273 9.25804 31.8273H17.2848L17.2759 24.2951L15.3951 24.9794C14.0264 25.5667 13.0197 23.8447 14.1898 22.7719L17.7528 19.3148C18.5652 18.5024 19.5365 18.5951 20.2562 19.3148L23.8192 22.7763C24.9892 23.8447 23.9781 25.5667 22.6139 24.9794L20.733 24.2951V31.8273H28.7465C32.4067 31.8273 35.3516 28.8824 35.3516 25.2223C35.3516 22.529 33.7533 20.2243 31.453 19.1956C35.9123 10.4978 30.3139 5.29229 24.4417 5.1775Z" fill="#0957AA"/>
    <path d="M24.4417 5.17285C24.2209 5.17285 23.9737 5.17727 23.7485 5.1861C18.6181 13.2746 26.5477 19.1909 31.4573 19.1909C35.9166 10.4931 30.3138 5.29206 24.4417 5.17285Z" fill="#4C92DB"/>
</svg>
