<svg width="104" height="100" viewBox="0 0 104 100" fill="none" xmlns="http://www.w3.org/2000/svg">
    <path d="M58.1863 18.3029C63.2405 18.3029 67.3378 14.2056 67.3378 9.15144C67.3378 4.09724 63.2405 0 58.1863 0C53.1322 0 49.0349 4.09724 49.0349 9.15144C49.0349 14.2056 53.1322 18.3029 58.1863 18.3029Z" fill="url(#paint0_linear_900_5294)"/>
    <path d="M51.8832 66.7302L41.2004 55.367L41.874 70.534L30.9471 84.9152C29.2486 87.151 29.6838 90.341 31.9192 92.0395C32.802 92.7125 33.8816 93.0767 34.9917 93.0758C36.5263 93.0758 38.0438 92.3836 39.0439 91.067L51.0831 75.2211C51.802 74.275 52.1667 73.1068 52.1138 71.9197L51.8832 66.7302Z" fill="url(#paint1_linear_900_5294)"/>
    <path d="M51.3686 18.8834C50.4697 18.6592 49.4659 18.6214 48.4361 18.789C48.2718 18.7947 48.1066 18.8085 47.9399 18.8394C47.246 18.9704 30.8897 22.3072 26.9062 45.7564C26.8295 46.1798 26.8376 46.6142 26.9299 47.0345C27.0223 47.4547 27.197 47.8525 27.4441 48.2047C27.6912 48.557 28.0057 48.8567 28.3694 49.0866C28.733 49.3165 29.1387 49.472 29.5629 49.5441C29.9871 49.6162 30.4214 49.6034 30.8406 49.5065C31.2598 49.4096 31.6557 49.2306 32.0052 48.9797C32.3548 48.7288 32.6511 48.4111 32.8771 48.0449C33.103 47.6788 33.2541 47.2714 33.3216 46.8465C34.4092 40.4445 36.5359 35.9095 38.8869 32.7061C37.8416 37.6365 37.7712 42.1414 38.5045 48.4405C38.8905 50.4269 39.5734 51.87 40.4406 52.919C40.5858 53.1305 40.7428 53.3363 40.9242 53.5291L55.3521 68.8766L59.4048 89.011C59.8908 91.4254 62.0119 93.0934 64.3832 93.093C64.7159 93.093 65.0539 93.0604 65.3919 92.9921C68.145 92.4381 69.9269 89.7578 69.3729 87.0046L65.0343 65.4479C64.8472 64.5183 64.4039 63.6597 63.7544 62.9689L53.0671 51.6008C53.1001 50.9935 53.0944 50.2972 53.0468 49.4919C52.8617 48.1134 52.7934 46.6895 52.806 45.248L51.6887 44.6798C50.7115 44.1847 49.9602 43.335 49.5883 42.3045L44.3521 27.844C43.5431 25.609 44.7031 23.1321 46.9381 22.3227C47.4085 22.1517 47.9051 22.0641 48.4056 22.064C50.2139 22.064 51.8433 23.2069 52.4599 24.9083L54.7042 31.1068C54.8791 30.2462 55.0479 29.4189 55.2004 28.6416C56.3669 24.5947 54.84 19.7497 51.369 18.8838L51.3686 18.8834Z" fill="url(#paint2_linear_900_5294)"/>
    <path d="M71.5052 46.2649L56.2638 38.5191L51.466 25.2678C51.1604 24.4722 50.5549 23.8281 49.7796 23.4741C49.0043 23.1201 48.121 23.0844 47.3196 23.3746C46.5182 23.6648 45.8626 24.2577 45.4937 25.0261C45.1249 25.7944 45.0721 26.6768 45.3468 27.4837L50.583 41.9446C50.8645 42.7218 51.4312 43.3628 52.168 43.7374L68.5564 52.0665C68.9374 52.2601 69.3527 52.3768 69.7788 52.4099C70.2048 52.4431 70.6332 52.3919 71.0395 52.2595C71.4457 52.127 71.822 51.9158 72.1466 51.638C72.4713 51.3601 72.738 51.021 72.9316 50.6401C73.1253 50.2591 73.242 49.8438 73.2751 49.4177C73.3082 48.9917 73.2571 48.5633 73.1246 48.157C72.9922 47.7508 72.781 47.3745 72.5031 47.0499C72.2253 46.7252 71.8862 46.4585 71.5052 46.2649ZM22.6707 96.6791H25.1111V97.8993H22.6707V96.6791ZM37.313 96.6791H39.7534V97.8993H37.313V96.6791ZM17.7899 96.6791H20.2303V97.8993H17.7899V96.6791ZM12.9092 96.6791H15.3496V97.8993H12.9092V96.6791ZM27.5515 96.6791H29.9919V97.8993H27.5515V96.6791ZM56.8361 96.6791H59.2765V97.8993H56.8361V96.6791ZM32.4322 96.6791H34.8726V97.8993H32.4322V96.6791ZM81.2399 96.6791H83.6803V97.8993H81.2399V96.6791ZM66.5976 96.6791H69.038V97.8993H66.5976V96.6791ZM42.1938 96.6791H44.6342V97.8993H42.1938V96.6791ZM71.4784 96.6791H73.9188V97.8993H71.4784V96.6791ZM76.3591 96.6791H78.7995V97.8993H76.3591V96.6791ZM61.7168 96.6791H64.1572V97.8993H61.7168V96.6791ZM51.9553 96.6791H54.3957V97.8993H51.9553V96.6791ZM47.0745 96.6791H49.5149V97.8993H47.0745V96.6791ZM91.0909 97.2892L84.6646 94.5779L85.816 97.2892L84.6642 100L91.0909 97.2892Z" fill="url(#paint3_linear_900_5294)"/>
    <defs>
        <linearGradient id="paint0_linear_900_5294" x1="49.0349" y1="8.72536" x2="67.3401" y2="8.87704" gradientUnits="userSpaceOnUse">
            <stop stop-color="#D38656"/>
            <stop offset="1" stop-color="#F9AC69"/>
        </linearGradient>
        <linearGradient id="paint1_linear_900_5294" x1="29.911" y1="73.3436" x2="52.1226" y2="73.452" gradientUnits="userSpaceOnUse">
            <stop stop-color="#0061FF"/>
            <stop offset="1" stop-color="#60EFFF"/>
        </linearGradient>
        <linearGradient id="paint2_linear_900_5294" x1="26.8541" y1="54.1569" x2="78.1488" y2="54.3466" gradientUnits="userSpaceOnUse">
            <stop stop-color="#0061FF"/>
            <stop offset="1" stop-color="#2EDDF0"/>
        </linearGradient>
        <linearGradient id="paint3_linear_900_5294" x1="12.9092" y1="59.8018" x2="91.1004" y2="60.4612" gradientUnits="userSpaceOnUse">
            <stop stop-color="#0061FF"/>
            <stop offset="1" stop-color="#60EFFF"/>
        </linearGradient>
    </defs>
</svg>
