<svg width="120" height="120" viewBox="0 0 120 120" fill="none" xmlns="http://www.w3.org/2000/svg">
    <path d="M22.8429 56.6199C22.4869 56.6198 22.1389 56.5148 21.8422 56.318C21.5456 56.1213 21.3135 55.8414 21.175 55.5135C21.0364 55.1856 20.9976 54.8241 21.0634 54.4743C21.1292 54.1245 21.2966 53.8017 21.5447 53.5465L56.408 17.6925C56.744 17.3538 57.2002 17.1614 57.6773 17.1571C58.1544 17.1529 58.614 17.3371 58.9561 17.6697C59.2981 18.0023 59.4951 18.4565 59.5042 18.9336C59.5133 19.4106 59.3338 19.872 59.0046 20.2174L24.1413 56.0714C23.9727 56.2452 23.7709 56.3833 23.5478 56.4775C23.3248 56.5717 23.085 56.6201 22.8429 56.6199ZM97.1571 56.6199C96.915 56.6202 96.6752 56.5718 96.4521 56.4776C96.2291 56.3834 96.0273 56.2452 95.8587 56.0714L60.8749 20.0934C60.5457 19.748 60.3662 19.2867 60.3753 18.8096C60.3844 18.3325 60.5814 17.8783 60.9235 17.5457C61.2655 17.2131 61.7251 17.0289 62.2022 17.0332C62.6793 17.0374 63.1355 17.2298 63.4716 17.5685L98.4555 53.5465C98.7037 53.8018 98.8711 54.1245 98.9368 54.4744C99.0026 54.8242 98.9638 55.1857 98.8252 55.5136C98.6867 55.8416 98.4546 56.1214 98.1579 56.3181C97.8612 56.5149 97.5131 56.6198 97.1571 56.6199Z" fill="url(#paint0_linear_73_489)" fill-opacity="0.5"/>
    <path d="M117.344 60.0804H70.9861L64.332 53.8833L61.2797 53.1288H10.936L9.49713 54.3663V101.69H49.9845L56.7406 108.209L58.7206 109.078H117.93C118.202 109.078 118.471 109.025 118.722 108.921C118.973 108.817 119.201 108.664 119.394 108.472C119.586 108.28 119.738 108.051 119.842 107.8C119.946 107.549 120 107.28 120 107.008V61.2713L117.344 60.0804Z" fill="url(#paint1_linear_73_489)"/>
    <path d="M10.1409 55.1988C10.1409 54.6498 10.359 54.1233 10.7472 53.735C11.1354 53.3468 11.6619 53.1287 12.2109 53.1286H2.07C1.52098 53.1287 0.994468 53.3468 0.606275 53.735C0.218081 54.1233 -3.51837e-09 54.6498 0 55.1988L0 100.935L1.93172 101.69H12.0727L10.1409 100.935V55.1988ZM117.93 53.1288H71.4204L71.1068 53.7225L77.3241 60L80.1019 61.2713H120V55.1991C120 54.9272 119.947 54.658 119.842 54.4068C119.738 54.1556 119.586 53.9274 119.394 53.7351C119.201 53.5429 118.973 53.3904 118.722 53.2864C118.471 53.1823 118.202 53.1288 117.93 53.1288Z" fill="url(#paint2_linear_73_489)"/>
    <path d="M76.5685 58.5553C74.8711 56.768 73.0856 54.8862 71.4204 53.1288H61.2795C62.9447 54.8862 64.7302 56.768 66.4275 58.5553C67.2424 59.4135 68.2234 60.0968 69.3108 60.5637C70.3982 61.0306 71.5692 61.2714 72.7526 61.2713H82.8935C81.7101 61.2714 80.5391 61.0306 79.4517 60.5637C78.3643 60.0968 77.3833 59.4135 76.5685 58.5553Z" fill="url(#paint3_linear_73_489)"/>
    <path d="M9.49731 107.887L10.5365 109.078H58.7208C57.0057 107.268 55.2897 105.459 53.5727 103.651C52.7578 102.793 51.7768 102.11 50.6894 101.643C49.6021 101.176 48.431 100.935 47.2476 100.935H9.49731V107.887Z" fill="url(#paint4_linear_73_489)"/>
    <path d="M10.1409 107.008V100.935H0V107.008C0 107.557 0.218113 108.083 0.606358 108.472C0.994602 108.86 1.52117 109.078 2.07023 109.078H12.2109C11.9391 109.078 11.6699 109.024 11.4187 108.92C11.1676 108.816 10.9394 108.664 10.7471 108.472C10.5549 108.279 10.4025 108.051 10.2984 107.8C10.1944 107.549 10.1409 107.28 10.1409 107.008Z" fill="url(#paint5_linear_73_489)"/>
    <path d="M24.7643 72.1341C24.5331 72.0784 24.2932 72.0688 24.0583 72.1058C23.8234 72.1428 23.598 72.2258 23.3952 72.3499C23.1924 72.474 23.0159 72.6369 22.8761 72.8292C22.7362 73.0215 22.6355 73.2395 22.5799 73.4707L20.6953 81.2965L18.5557 74.0112C18.4453 73.6359 18.2164 73.3065 17.9032 73.0722C17.59 72.8378 17.2094 72.7112 16.8183 72.7112C16.4271 72.7112 16.0465 72.8378 15.7333 73.0722C15.4201 73.3065 15.1912 73.6359 15.0808 74.0112L12.9412 81.2965L11.0566 73.4707C10.9384 73.01 10.6437 72.6143 10.2361 72.369C9.8286 72.1238 9.34093 72.0487 8.8785 72.1601C8.41607 72.2714 8.01601 72.5602 7.76473 72.9641C7.51346 73.3679 7.43116 73.8544 7.5356 74.3184L11.0074 88.736C11.1007 89.1238 11.3195 89.47 11.6298 89.7207C11.9401 89.9714 12.3245 90.1126 12.7233 90.1223C13.1222 90.1328 13.5133 90.0109 13.8357 89.7758C14.1581 89.5406 14.3936 89.2053 14.5054 88.8223L16.8183 80.9473L19.1311 88.8223C19.2436 89.2049 19.4792 89.5397 19.8014 89.7747C20.1237 90.0097 20.5145 90.1318 20.9132 90.122C21.3119 90.1121 21.6962 89.971 22.0065 89.7204C22.3168 89.4698 22.5356 89.1237 22.6291 88.736L26.1009 74.3184C26.1566 74.0873 26.1662 73.8474 26.1291 73.6125C26.0921 73.3776 26.0091 73.1523 25.885 72.9494C25.7609 72.7466 25.598 72.5702 25.4057 72.4303C25.2134 72.2904 24.9955 72.1897 24.7643 72.1341ZM97.8527 73.4705C97.7594 73.0827 97.5406 72.7365 97.2303 72.4858C96.92 72.2351 96.5356 72.0939 96.1368 72.0841C95.3177 72.0668 94.5858 72.5974 94.3547 73.3842L92.0419 81.2595L89.7288 73.3842C89.6165 73.0014 89.3809 72.6665 89.0586 72.4313C88.7364 72.1962 88.3455 72.074 87.9467 72.0839C87.5479 72.0937 87.1635 72.235 86.8532 72.4857C86.5429 72.7364 86.3241 73.0826 86.2308 73.4705L82.759 87.8881C82.6545 88.3521 82.7368 88.8386 82.9881 89.2424C83.2394 89.6463 83.6394 89.9351 84.1019 90.0464C84.5643 90.1578 85.052 90.0827 85.4595 89.8375C85.8671 89.5922 86.1618 89.1965 86.28 88.7358L88.1644 80.91L90.3042 88.1953C90.4143 88.5708 90.6431 88.9006 90.9563 89.1351C91.2695 89.3697 91.6503 89.4965 92.0416 89.4965C92.4329 89.4965 92.8137 89.3697 93.1269 89.1351C93.4402 88.9006 93.6689 88.5708 93.779 88.1953L95.9186 80.91L97.803 88.7358C97.8982 89.1308 98.1233 89.4823 98.4424 89.7339C98.7614 89.9855 99.1557 90.1226 99.562 90.1231C99.836 90.1233 100.107 90.0613 100.353 89.9418C100.6 89.8223 100.816 89.6484 100.986 89.4332C101.155 89.218 101.274 88.9671 101.333 88.6994C101.391 88.4317 101.388 88.1542 101.324 87.8878L97.8527 73.4705ZM110.704 86.5013H106.873V82.9141H110.391C110.871 82.9141 111.331 82.7234 111.671 82.3838C112.011 82.0442 112.201 81.5836 112.201 81.1034C112.201 80.6231 112.011 80.1625 111.671 79.8229C111.331 79.4834 110.871 79.2926 110.391 79.2926H106.873V75.7055H110.704C111.184 75.7055 111.645 75.5147 111.984 75.1751C112.324 74.8355 112.515 74.3749 112.515 73.8947C112.515 73.4144 112.324 72.9539 111.984 72.6143C111.645 72.2747 111.184 72.0839 110.704 72.0839H105.062C104.582 72.0839 104.121 72.2747 103.782 72.6143C103.442 72.9539 103.252 73.4144 103.252 73.8947V88.3123C103.252 88.7925 103.442 89.2531 103.782 89.5927C104.121 89.9323 104.582 90.1231 105.062 90.1231H110.704C111.704 90.1231 112.515 89.3124 112.515 88.3123C112.515 87.3122 111.704 86.5013 110.704 86.5013ZM35.9306 75.7055C36.4108 75.7055 36.8714 75.5147 37.211 75.1751C37.5506 74.8355 37.7414 74.3749 37.7414 73.8947C37.7414 73.4144 37.5506 72.9539 37.211 72.6143C36.8714 72.2747 36.4108 72.0839 35.9306 72.0839H30.289C29.8087 72.0839 29.3481 72.2747 29.0085 72.6143C28.669 72.9539 28.4782 73.4144 28.4782 73.8947V88.3123C28.4782 88.7925 28.669 89.2531 29.0085 89.5927C29.3481 89.9323 29.8087 90.1231 30.289 90.1231H35.9306C36.4108 90.1231 36.8714 89.9323 37.211 89.5927C37.5506 89.2531 37.7414 88.7925 37.7414 88.3123C37.7414 87.832 37.5506 87.3714 37.211 87.0319C36.8714 86.6923 36.4108 86.5015 35.9306 86.5015H32.0997V82.9144H35.6172C36.0975 82.9144 36.5581 82.7236 36.8977 82.384C37.2372 82.0444 37.428 81.5838 37.428 81.1036C37.428 80.6233 37.2372 80.1628 36.8977 79.8232C36.5581 79.4836 36.0975 79.2928 35.6172 79.2928H32.0997V75.7055H35.9306ZM47.5211 86.5013H43.6511V73.8945C43.6511 73.4142 43.4604 72.9536 43.1208 72.614C42.7812 72.2745 42.3206 72.0837 41.8404 72.0837C41.3601 72.0837 40.8995 72.2745 40.5599 72.614C40.2204 72.9536 40.0296 73.4142 40.0296 73.8945V88.312C40.0296 88.7923 40.2204 89.2529 40.5599 89.5925C40.8995 89.932 41.3601 90.1228 41.8404 90.1228H47.5211C48.0014 90.1228 48.462 89.932 48.8016 89.5925C49.1411 89.2529 49.3319 88.7923 49.3319 88.312C49.3319 87.8318 49.1411 87.3712 48.8016 87.0316C48.462 86.692 48.0014 86.5013 47.5211 86.5013ZM73.3514 72.0837C68.3779 72.0837 64.3317 76.1299 64.3317 81.1034C64.3317 86.0768 68.3779 90.1231 73.3514 90.1231C78.3248 90.1231 82.3711 86.0768 82.3711 81.1034C82.3711 76.1299 78.3248 72.0837 73.3514 72.0837ZM73.3514 86.5013C70.3748 86.5013 67.9535 84.0797 67.9535 81.1034C67.9535 78.127 70.3748 75.7055 73.3514 75.7055C76.3279 75.7055 78.7493 78.127 78.7493 81.1034C78.7493 84.0797 76.3279 86.5013 73.3514 86.5013ZM61.0762 85.593C60.1932 86.1855 59.1538 86.5016 58.0905 86.5013C55.1142 86.5013 52.6926 84.0797 52.6926 81.1034C52.6926 78.127 55.114 75.7055 58.0905 75.7055C59.1551 75.7055 60.1875 76.0195 61.0758 76.6134C61.475 76.8802 61.9639 76.9776 62.435 76.884C62.906 76.7904 63.3206 76.5136 63.5876 76.1145C63.7197 75.9168 63.8117 75.695 63.8582 75.4618C63.9046 75.2285 63.9047 74.9884 63.8584 74.7552C63.812 74.5219 63.7202 74.3001 63.5881 74.1024C63.456 73.9046 63.2863 73.7348 63.0886 73.6027C61.6102 72.6115 59.8702 72.0828 58.0903 72.0839C53.1168 72.0839 49.0708 76.1302 49.0708 81.1036C49.0708 86.077 53.1171 90.1233 58.0903 90.1233C59.8704 90.1244 61.6105 89.5957 63.089 88.6043C63.2867 88.4721 63.4565 88.3023 63.5885 88.1046C63.7206 87.9068 63.8124 87.685 63.8587 87.4517C63.9051 87.2185 63.905 86.9784 63.8586 86.7452C63.8121 86.512 63.7202 86.2902 63.588 86.0925C63.4559 85.8948 63.2861 85.725 63.0884 85.5929C62.8906 85.4608 62.6688 85.3689 62.4356 85.3225C62.2023 85.2761 61.9622 85.2762 61.729 85.3226C61.4958 85.369 61.2739 85.4609 61.0762 85.593Z" fill="white"/>
    <path d="M62.8371 11.6832H61.4086L59.1147 15.0504V17.6567L60.3621 20.3623L61.4487 21.2075L62.8369 21.5093C64.5323 20.5282 65.674 18.6961 65.674 16.5964C65.674 14.4966 64.5326 12.6643 62.8371 11.6832Z" fill="#96D68A"/>
    <path d="M60 16.5961C60 14.4963 61.1416 12.6642 62.8371 11.6831C61.9751 11.1836 60.9963 10.921 60 10.9221C56.8664 10.9221 54.326 13.4625 54.326 16.5961C54.326 19.7297 56.8664 22.2701 60 22.2701C61.0338 22.2701 62.0022 21.9921 62.8371 21.5091C61.1416 20.528 60 18.6959 60 16.5961Z" fill="#329983"/>
    <defs>
        <linearGradient id="paint0_linear_73_489" x1="21.0322" y1="35.9049" x2="98.9623" y2="37.1762" gradientUnits="userSpaceOnUse">
            <stop stop-color="#FF0F43"/>
            <stop offset="1" stop-color="#F84829"/>
        </linearGradient>
        <linearGradient id="paint1_linear_73_489" x1="9.49713" y1="79.801" x2="155.995" y2="82.1525" gradientUnits="userSpaceOnUse">
            <stop offset="0.236295" stop-color="#1ADB5B"/>
            <stop offset="1" stop-color="#2684C7"/>
        </linearGradient>
        <linearGradient id="paint2_linear_73_489" x1="3.26813e-07" y1="76.2788" x2="119.973" y2="78.7354" gradientUnits="userSpaceOnUse">
            <stop stop-color="#595CFF"/>
            <stop offset="1" stop-color="#C6F8FF"/>
        </linearGradient>
        <linearGradient id="paint3_linear_73_489" x1="61.2795" y1="57.0105" x2="89.9282" y2="57.6286" gradientUnits="userSpaceOnUse">
            <stop offset="0.236295" stop-color="#2C79CE"/>
            <stop offset="1" stop-color="#24D774"/>
        </linearGradient>
        <linearGradient id="paint4_linear_73_489" x1="9.49731" y1="104.817" x2="58.607" y2="107.277" gradientUnits="userSpaceOnUse">
            <stop stop-color="#0061FF"/>
            <stop offset="1" stop-color="#60EFFF"/>
        </linearGradient>
        <linearGradient id="paint5_linear_73_489" x1="3.32558e-08" y1="104.817" x2="12.2114" y2="104.969" gradientUnits="userSpaceOnUse">
            <stop stop-color="#595CFF"/>
            <stop offset="1" stop-color="#C6F8FF"/>
        </linearGradient>
    </defs>
</svg>
